M48
;GenerationSoftware,Autodesk,EAGLE,9.6.1*%
;CreationDate,2020-04-22T04:42:43Z*%
FMAT,2
ICI,OFF
METRIC,TZ,000.000
T5C0.800
T4C0.991
T3C1.000
T2C1.400
T1C2.390
%
G90
M71
T1
X62180Y15470
X62180Y30480
T2
X54660Y27980
X57150Y22975
X54660Y17970
X57150Y15470
X52150Y22975
X67180Y25475
X67180Y20475
X57150Y30480
T3
X44196Y52070
X41656Y52070
X39116Y52070
X36576Y52070
X34036Y52070
X31496Y52070
X28956Y52070
X26416Y52070
X55880Y3810
X58420Y3810
X60960Y3810
X63500Y3810
X66040Y3810
X48260Y3810
X43180Y3810
X50800Y52070
X40640Y3810
X38100Y3810
X35560Y3810
X23876Y52070
X21336Y52070
X33020Y3810
X30480Y3810
X45720Y3810
X55880Y52070
X53340Y3810
X58420Y52070
X60960Y52070
X63500Y52070
X66040Y52070
X53340Y52070
X48260Y52070
T4
X12700Y38100
X12700Y35560
X12700Y33020
X12700Y30480
X20320Y30480
X20320Y33020
X20320Y35560
X12700Y20320
X12700Y17780
X12700Y15240
X12700Y12700
X20320Y12700
X20320Y15240
X20320Y17780
X20320Y20320
X20320Y38100
T5
X29210Y29210
X29210Y26670
X29210Y24130
X29210Y21590
X36830Y21590
X36830Y24130
X36830Y26670
X36830Y29210
M30