M48
;GenerationSoftware,Autodesk,EAGLE,9.6.1*%
;CreationDate,2020-05-07T04:49:16Z*%
FMAT,2
ICI,OFF
METRIC,TZ,000.000
T6C0.760
T5C0.800
T4C0.813
T3C1.000
T2C1.400
T1C2.390
%
G90
M71
T1
X64720Y16740
X64720Y31750
T2
X59690Y24245
X54690Y24245
X69720Y26745
X69720Y21745
X59690Y31750
X57200Y29250
X57200Y19240
X59690Y16740
T3
X41656Y53340
X39116Y53340
X36576Y53340
X34036Y53340
X31496Y53340
X28956Y53340
X58420Y5080
X46736Y53340
X60960Y5080
X63500Y5080
X66040Y5080
X68580Y5080
X50800Y5080
X48260Y5080
X45720Y5080
X55880Y5080
X40640Y5080
X38100Y5080
X26416Y53340
X23876Y53340
X35560Y5080
X33020Y5080
X58420Y53340
X43180Y5080
X60960Y53340
X63500Y53340
X66040Y53340
X68580Y53340
X55880Y53340
X53340Y53340
X50800Y53340
X44196Y53340
T4
X39370Y44450
X44450Y44450
T5
X33020Y15240
X38100Y15240
X40640Y15240
X40640Y22860
X38100Y22860
X35560Y22860
X33020Y22860
X35560Y15240
T6
X29210Y30320
X31750Y30320
X34290Y30320
X36830Y30320
X39370Y30320
X41910Y30320
X41910Y38260
X36830Y38260
X34290Y38260
X31750Y38260
X29210Y38260
X26670Y38260
X39370Y38260
X26670Y30320
M30