G04 EAGLE Gerber RS-274X export*
G75*
%MOMM*%
%FSLAX34Y34*%
%LPD*%
%INBottom Copper*%
%IPPOS*%
%AMOC8*
5,1,8,0,0,1.08239X$1,22.5*%
G01*
%ADD10R,1.268000X1.268000*%
%ADD11C,1.268000*%
%ADD12C,2.100000*%
%ADD13C,3.585000*%
%ADD14R,1.308000X1.308000*%
%ADD15C,1.308000*%
%ADD16P,1.814519X8X22.500000*%
%ADD17P,1.429621X8X22.500000*%
%ADD18C,0.152400*%
%ADD19C,0.756400*%

G36*
X324148Y36340D02*
X324148Y36340D01*
X324287Y36353D01*
X324306Y36360D01*
X324326Y36363D01*
X324455Y36414D01*
X324586Y36461D01*
X324603Y36472D01*
X324622Y36480D01*
X324734Y36561D01*
X324850Y36639D01*
X324863Y36655D01*
X324879Y36666D01*
X324968Y36774D01*
X325060Y36878D01*
X325069Y36896D01*
X325082Y36911D01*
X325141Y37037D01*
X325205Y37161D01*
X325209Y37181D01*
X325218Y37199D01*
X325244Y37335D01*
X325274Y37471D01*
X325274Y37492D01*
X325277Y37511D01*
X325269Y37650D01*
X325265Y37789D01*
X325259Y37809D01*
X325258Y37829D01*
X325215Y37961D01*
X325176Y38095D01*
X325166Y38112D01*
X325160Y38131D01*
X325085Y38249D01*
X325015Y38369D01*
X324996Y38390D01*
X324989Y38400D01*
X324974Y38414D01*
X324908Y38489D01*
X317753Y45644D01*
X317753Y55956D01*
X325044Y63247D01*
X335356Y63247D01*
X342003Y56600D01*
X342097Y56527D01*
X342186Y56448D01*
X342222Y56430D01*
X342254Y56405D01*
X342363Y56357D01*
X342469Y56303D01*
X342508Y56295D01*
X342546Y56279D01*
X342663Y56260D01*
X342779Y56234D01*
X342820Y56235D01*
X342860Y56229D01*
X342978Y56240D01*
X343097Y56243D01*
X343136Y56255D01*
X343176Y56258D01*
X343289Y56299D01*
X343403Y56332D01*
X343438Y56352D01*
X343476Y56366D01*
X343574Y56433D01*
X343677Y56493D01*
X343722Y56533D01*
X343739Y56545D01*
X343752Y56560D01*
X343798Y56600D01*
X350444Y63247D01*
X360756Y63247D01*
X367403Y56600D01*
X367497Y56527D01*
X367586Y56448D01*
X367622Y56430D01*
X367654Y56405D01*
X367763Y56357D01*
X367869Y56303D01*
X367908Y56295D01*
X367946Y56279D01*
X368063Y56260D01*
X368179Y56234D01*
X368220Y56235D01*
X368260Y56229D01*
X368378Y56240D01*
X368497Y56243D01*
X368536Y56255D01*
X368576Y56258D01*
X368689Y56299D01*
X368803Y56332D01*
X368838Y56352D01*
X368876Y56366D01*
X368974Y56433D01*
X369077Y56493D01*
X369122Y56533D01*
X369139Y56545D01*
X369152Y56560D01*
X369198Y56600D01*
X375844Y63247D01*
X386156Y63247D01*
X392803Y56600D01*
X392897Y56527D01*
X392986Y56448D01*
X393022Y56430D01*
X393054Y56405D01*
X393163Y56357D01*
X393269Y56303D01*
X393308Y56295D01*
X393346Y56279D01*
X393463Y56260D01*
X393579Y56234D01*
X393620Y56235D01*
X393660Y56229D01*
X393778Y56240D01*
X393897Y56243D01*
X393936Y56255D01*
X393976Y56258D01*
X394089Y56299D01*
X394203Y56332D01*
X394238Y56352D01*
X394276Y56366D01*
X394374Y56433D01*
X394477Y56493D01*
X394522Y56533D01*
X394539Y56545D01*
X394552Y56560D01*
X394598Y56600D01*
X401244Y63247D01*
X411556Y63247D01*
X418203Y56600D01*
X418297Y56527D01*
X418386Y56448D01*
X418422Y56430D01*
X418454Y56405D01*
X418563Y56357D01*
X418669Y56303D01*
X418708Y56295D01*
X418746Y56279D01*
X418863Y56260D01*
X418979Y56234D01*
X419020Y56235D01*
X419060Y56229D01*
X419178Y56240D01*
X419297Y56243D01*
X419336Y56255D01*
X419376Y56258D01*
X419489Y56299D01*
X419603Y56332D01*
X419638Y56352D01*
X419676Y56366D01*
X419774Y56433D01*
X419877Y56493D01*
X419922Y56533D01*
X419939Y56545D01*
X419952Y56560D01*
X419998Y56600D01*
X426644Y63247D01*
X436956Y63247D01*
X444365Y55837D01*
X444385Y55782D01*
X444396Y55766D01*
X444404Y55747D01*
X444485Y55634D01*
X444563Y55519D01*
X444579Y55506D01*
X444590Y55489D01*
X444698Y55401D01*
X444802Y55309D01*
X444820Y55300D01*
X444835Y55287D01*
X444961Y55227D01*
X445085Y55164D01*
X445105Y55160D01*
X445123Y55151D01*
X445259Y55125D01*
X445395Y55095D01*
X445416Y55095D01*
X445435Y55091D01*
X445574Y55100D01*
X445713Y55104D01*
X445733Y55110D01*
X445753Y55111D01*
X445885Y55154D01*
X446019Y55193D01*
X446036Y55203D01*
X446055Y55209D01*
X446173Y55284D01*
X446293Y55354D01*
X446314Y55373D01*
X446324Y55379D01*
X446338Y55394D01*
X446413Y55461D01*
X452676Y61723D01*
X454701Y61723D01*
X454701Y52030D01*
X454716Y51912D01*
X454723Y51793D01*
X454735Y51755D01*
X454741Y51715D01*
X454784Y51604D01*
X454821Y51491D01*
X454843Y51457D01*
X454858Y51419D01*
X454927Y51323D01*
X454991Y51222D01*
X455021Y51194D01*
X455044Y51162D01*
X455136Y51086D01*
X455223Y51004D01*
X455258Y50985D01*
X455289Y50959D01*
X455397Y50908D01*
X455501Y50851D01*
X455541Y50841D01*
X455577Y50823D01*
X455684Y50803D01*
X455654Y50799D01*
X455544Y50755D01*
X455431Y50719D01*
X455396Y50697D01*
X455359Y50682D01*
X455262Y50612D01*
X455162Y50549D01*
X455134Y50519D01*
X455101Y50495D01*
X455025Y50404D01*
X454944Y50317D01*
X454924Y50282D01*
X454899Y50250D01*
X454848Y50143D01*
X454790Y50038D01*
X454780Y49999D01*
X454763Y49963D01*
X454741Y49846D01*
X454711Y49730D01*
X454707Y49670D01*
X454703Y49650D01*
X454705Y49630D01*
X454701Y49570D01*
X454701Y39877D01*
X452676Y39877D01*
X446413Y46139D01*
X446323Y46210D01*
X446298Y46234D01*
X446284Y46241D01*
X446197Y46313D01*
X446178Y46322D01*
X446162Y46334D01*
X446034Y46390D01*
X445909Y46449D01*
X445889Y46453D01*
X445870Y46461D01*
X445732Y46483D01*
X445596Y46509D01*
X445576Y46507D01*
X445556Y46511D01*
X445417Y46498D01*
X445279Y46489D01*
X445260Y46483D01*
X445240Y46481D01*
X445108Y46434D01*
X444977Y46391D01*
X444959Y46380D01*
X444940Y46373D01*
X444825Y46295D01*
X444708Y46221D01*
X444694Y46206D01*
X444677Y46195D01*
X444585Y46090D01*
X444490Y45989D01*
X444480Y45971D01*
X444467Y45956D01*
X444403Y45832D01*
X444365Y45763D01*
X437092Y38489D01*
X437007Y38380D01*
X436918Y38273D01*
X436909Y38254D01*
X436897Y38238D01*
X436841Y38110D01*
X436782Y37985D01*
X436779Y37965D01*
X436770Y37946D01*
X436749Y37808D01*
X436723Y37672D01*
X436724Y37652D01*
X436721Y37632D01*
X436734Y37493D01*
X436742Y37355D01*
X436749Y37336D01*
X436750Y37316D01*
X436798Y37184D01*
X436840Y37053D01*
X436851Y37035D01*
X436858Y37016D01*
X436936Y36901D01*
X437011Y36784D01*
X437025Y36770D01*
X437037Y36753D01*
X437141Y36661D01*
X437242Y36566D01*
X437260Y36556D01*
X437275Y36543D01*
X437399Y36479D01*
X437521Y36412D01*
X437540Y36407D01*
X437558Y36398D01*
X437694Y36368D01*
X437829Y36333D01*
X437857Y36331D01*
X437869Y36328D01*
X437889Y36329D01*
X437989Y36323D01*
X501811Y36323D01*
X501948Y36340D01*
X502087Y36353D01*
X502106Y36360D01*
X502126Y36363D01*
X502255Y36414D01*
X502386Y36461D01*
X502403Y36472D01*
X502422Y36480D01*
X502534Y36561D01*
X502650Y36639D01*
X502663Y36655D01*
X502679Y36666D01*
X502768Y36774D01*
X502860Y36878D01*
X502869Y36896D01*
X502882Y36911D01*
X502941Y37037D01*
X503005Y37161D01*
X503009Y37181D01*
X503018Y37199D01*
X503044Y37335D01*
X503074Y37471D01*
X503074Y37492D01*
X503077Y37511D01*
X503069Y37650D01*
X503065Y37789D01*
X503059Y37809D01*
X503058Y37829D01*
X503015Y37961D01*
X502976Y38095D01*
X502966Y38112D01*
X502960Y38131D01*
X502885Y38249D01*
X502815Y38369D01*
X502796Y38390D01*
X502789Y38400D01*
X502774Y38414D01*
X502708Y38489D01*
X495435Y45763D01*
X495415Y45818D01*
X495404Y45834D01*
X495396Y45853D01*
X495315Y45966D01*
X495237Y46081D01*
X495221Y46094D01*
X495210Y46111D01*
X495102Y46199D01*
X494998Y46291D01*
X494980Y46300D01*
X494965Y46313D01*
X494839Y46373D01*
X494715Y46436D01*
X494695Y46440D01*
X494677Y46449D01*
X494541Y46475D01*
X494405Y46505D01*
X494384Y46505D01*
X494365Y46509D01*
X494226Y46500D01*
X494087Y46496D01*
X494067Y46490D01*
X494047Y46489D01*
X493915Y46446D01*
X493781Y46407D01*
X493764Y46397D01*
X493745Y46391D01*
X493627Y46316D01*
X493507Y46246D01*
X493486Y46227D01*
X493476Y46221D01*
X493462Y46206D01*
X493387Y46139D01*
X487124Y39877D01*
X485099Y39877D01*
X485099Y49570D01*
X485084Y49688D01*
X485077Y49807D01*
X485064Y49845D01*
X485059Y49885D01*
X485016Y49996D01*
X484979Y50109D01*
X484957Y50143D01*
X484942Y50181D01*
X484873Y50277D01*
X484809Y50378D01*
X484779Y50406D01*
X484756Y50438D01*
X484664Y50514D01*
X484577Y50596D01*
X484542Y50615D01*
X484511Y50641D01*
X484403Y50692D01*
X484299Y50749D01*
X484259Y50759D01*
X484223Y50777D01*
X484116Y50797D01*
X484146Y50801D01*
X484256Y50845D01*
X484369Y50881D01*
X484404Y50903D01*
X484441Y50918D01*
X484537Y50988D01*
X484638Y51051D01*
X484666Y51081D01*
X484699Y51105D01*
X484775Y51196D01*
X484856Y51283D01*
X484876Y51318D01*
X484901Y51350D01*
X484952Y51457D01*
X485010Y51562D01*
X485020Y51601D01*
X485037Y51637D01*
X485059Y51754D01*
X485089Y51870D01*
X485093Y51930D01*
X485097Y51950D01*
X485095Y51970D01*
X485099Y52030D01*
X485099Y61723D01*
X487124Y61723D01*
X493387Y55461D01*
X493496Y55375D01*
X493603Y55287D01*
X493622Y55278D01*
X493638Y55266D01*
X493766Y55210D01*
X493891Y55151D01*
X493911Y55147D01*
X493930Y55139D01*
X494068Y55117D01*
X494204Y55091D01*
X494224Y55093D01*
X494244Y55089D01*
X494383Y55102D01*
X494521Y55111D01*
X494540Y55117D01*
X494560Y55119D01*
X494692Y55166D01*
X494823Y55209D01*
X494841Y55220D01*
X494860Y55227D01*
X494975Y55305D01*
X495092Y55379D01*
X495106Y55394D01*
X495123Y55405D01*
X495215Y55510D01*
X495310Y55611D01*
X495320Y55629D01*
X495333Y55644D01*
X495397Y55768D01*
X495435Y55837D01*
X502844Y63247D01*
X513156Y63247D01*
X520447Y55956D01*
X520447Y45644D01*
X513292Y38489D01*
X513207Y38380D01*
X513118Y38273D01*
X513109Y38254D01*
X513097Y38238D01*
X513041Y38110D01*
X512982Y37985D01*
X512979Y37965D01*
X512970Y37946D01*
X512949Y37808D01*
X512923Y37672D01*
X512924Y37652D01*
X512921Y37632D01*
X512934Y37493D01*
X512942Y37355D01*
X512949Y37336D01*
X512950Y37316D01*
X512998Y37184D01*
X513040Y37053D01*
X513051Y37035D01*
X513058Y37016D01*
X513136Y36901D01*
X513211Y36784D01*
X513225Y36770D01*
X513237Y36753D01*
X513341Y36661D01*
X513442Y36566D01*
X513460Y36556D01*
X513475Y36543D01*
X513599Y36479D01*
X513721Y36412D01*
X513740Y36407D01*
X513758Y36398D01*
X513894Y36368D01*
X514029Y36333D01*
X514057Y36331D01*
X514069Y36328D01*
X514089Y36329D01*
X514189Y36323D01*
X552611Y36323D01*
X552748Y36340D01*
X552887Y36353D01*
X552906Y36360D01*
X552926Y36363D01*
X553055Y36414D01*
X553186Y36461D01*
X553203Y36472D01*
X553222Y36480D01*
X553334Y36561D01*
X553450Y36639D01*
X553463Y36655D01*
X553479Y36666D01*
X553568Y36774D01*
X553660Y36878D01*
X553669Y36896D01*
X553682Y36911D01*
X553741Y37037D01*
X553805Y37161D01*
X553809Y37181D01*
X553818Y37199D01*
X553844Y37335D01*
X553874Y37471D01*
X553874Y37492D01*
X553877Y37511D01*
X553869Y37650D01*
X553865Y37789D01*
X553859Y37809D01*
X553858Y37829D01*
X553815Y37961D01*
X553776Y38095D01*
X553766Y38112D01*
X553760Y38131D01*
X553685Y38249D01*
X553615Y38369D01*
X553596Y38390D01*
X553589Y38400D01*
X553574Y38414D01*
X553508Y38489D01*
X546353Y45644D01*
X546353Y55956D01*
X553644Y63247D01*
X563956Y63247D01*
X570603Y56600D01*
X570697Y56527D01*
X570786Y56448D01*
X570822Y56430D01*
X570854Y56405D01*
X570963Y56357D01*
X571069Y56303D01*
X571108Y56295D01*
X571146Y56279D01*
X571263Y56260D01*
X571379Y56234D01*
X571420Y56235D01*
X571460Y56229D01*
X571578Y56240D01*
X571697Y56243D01*
X571736Y56255D01*
X571776Y56258D01*
X571889Y56299D01*
X572003Y56332D01*
X572038Y56352D01*
X572076Y56366D01*
X572174Y56433D01*
X572277Y56493D01*
X572322Y56533D01*
X572339Y56545D01*
X572352Y56560D01*
X572398Y56600D01*
X579044Y63247D01*
X589356Y63247D01*
X596002Y56600D01*
X596097Y56527D01*
X596186Y56448D01*
X596222Y56430D01*
X596254Y56405D01*
X596363Y56358D01*
X596469Y56303D01*
X596508Y56295D01*
X596546Y56279D01*
X596663Y56260D01*
X596779Y56234D01*
X596820Y56235D01*
X596860Y56229D01*
X596978Y56240D01*
X597097Y56243D01*
X597136Y56255D01*
X597176Y56258D01*
X597289Y56299D01*
X597403Y56332D01*
X597437Y56352D01*
X597476Y56366D01*
X597574Y56433D01*
X597677Y56493D01*
X597722Y56533D01*
X597739Y56545D01*
X597752Y56560D01*
X597797Y56600D01*
X604444Y63247D01*
X614756Y63247D01*
X621402Y56600D01*
X621497Y56527D01*
X621586Y56448D01*
X621622Y56430D01*
X621654Y56405D01*
X621763Y56358D01*
X621869Y56303D01*
X621908Y56295D01*
X621946Y56279D01*
X622063Y56260D01*
X622179Y56234D01*
X622220Y56235D01*
X622260Y56229D01*
X622378Y56240D01*
X622497Y56243D01*
X622536Y56255D01*
X622576Y56258D01*
X622689Y56299D01*
X622803Y56332D01*
X622837Y56352D01*
X622876Y56366D01*
X622974Y56433D01*
X623077Y56493D01*
X623122Y56533D01*
X623139Y56545D01*
X623152Y56560D01*
X623197Y56600D01*
X629844Y63247D01*
X640156Y63247D01*
X646802Y56600D01*
X646897Y56527D01*
X646986Y56448D01*
X647022Y56430D01*
X647054Y56405D01*
X647163Y56358D01*
X647269Y56303D01*
X647308Y56295D01*
X647346Y56279D01*
X647463Y56260D01*
X647579Y56234D01*
X647620Y56235D01*
X647660Y56229D01*
X647778Y56240D01*
X647897Y56243D01*
X647936Y56255D01*
X647976Y56258D01*
X648089Y56299D01*
X648203Y56332D01*
X648237Y56352D01*
X648276Y56366D01*
X648374Y56433D01*
X648477Y56493D01*
X648522Y56533D01*
X648539Y56545D01*
X648552Y56560D01*
X648597Y56600D01*
X655244Y63247D01*
X665556Y63247D01*
X672202Y56600D01*
X672297Y56527D01*
X672386Y56448D01*
X672422Y56430D01*
X672454Y56405D01*
X672563Y56358D01*
X672669Y56303D01*
X672708Y56295D01*
X672746Y56279D01*
X672863Y56260D01*
X672979Y56234D01*
X673020Y56235D01*
X673060Y56229D01*
X673178Y56240D01*
X673297Y56243D01*
X673336Y56255D01*
X673376Y56258D01*
X673489Y56299D01*
X673603Y56332D01*
X673637Y56352D01*
X673676Y56366D01*
X673774Y56433D01*
X673877Y56493D01*
X673922Y56533D01*
X673939Y56545D01*
X673952Y56560D01*
X673997Y56600D01*
X680644Y63247D01*
X690956Y63247D01*
X698247Y55956D01*
X698247Y54451D01*
X698255Y54382D01*
X698254Y54312D01*
X698275Y54225D01*
X698287Y54136D01*
X698312Y54071D01*
X698329Y54003D01*
X698371Y53924D01*
X698404Y53840D01*
X698445Y53784D01*
X698477Y53722D01*
X698538Y53655D01*
X698590Y53583D01*
X698644Y53538D01*
X698691Y53487D01*
X698766Y53437D01*
X698835Y53380D01*
X698899Y53350D01*
X698957Y53312D01*
X699042Y53283D01*
X699123Y53245D01*
X699192Y53231D01*
X699258Y53209D01*
X699347Y53202D01*
X699435Y53185D01*
X699505Y53189D01*
X699575Y53184D01*
X699663Y53199D01*
X699753Y53204D01*
X699819Y53226D01*
X699888Y53238D01*
X699970Y53275D01*
X700055Y53303D01*
X700114Y53340D01*
X700178Y53369D01*
X700248Y53425D01*
X700324Y53473D01*
X700372Y53524D01*
X700426Y53567D01*
X700481Y53639D01*
X700542Y53704D01*
X700576Y53765D01*
X700618Y53821D01*
X700689Y53966D01*
X701940Y56987D01*
X725306Y80353D01*
X725366Y80431D01*
X725434Y80503D01*
X725463Y80556D01*
X725500Y80604D01*
X725540Y80695D01*
X725588Y80781D01*
X725603Y80840D01*
X725627Y80896D01*
X725642Y80994D01*
X725667Y81089D01*
X725673Y81189D01*
X725677Y81210D01*
X725675Y81222D01*
X725677Y81250D01*
X725677Y401350D01*
X725665Y401448D01*
X725662Y401547D01*
X725645Y401605D01*
X725637Y401665D01*
X725601Y401758D01*
X725573Y401853D01*
X725543Y401905D01*
X725520Y401961D01*
X725462Y402041D01*
X725412Y402127D01*
X725346Y402202D01*
X725334Y402218D01*
X725324Y402226D01*
X725306Y402247D01*
X701940Y425613D01*
X700277Y429627D01*
X700277Y527211D01*
X700260Y527348D01*
X700247Y527487D01*
X700240Y527506D01*
X700237Y527526D01*
X700186Y527655D01*
X700139Y527786D01*
X700128Y527803D01*
X700120Y527822D01*
X700039Y527934D01*
X699961Y528050D01*
X699945Y528063D01*
X699934Y528079D01*
X699826Y528168D01*
X699722Y528260D01*
X699704Y528269D01*
X699689Y528282D01*
X699563Y528341D01*
X699439Y528405D01*
X699419Y528409D01*
X699401Y528418D01*
X699265Y528444D01*
X699129Y528474D01*
X699108Y528474D01*
X699089Y528477D01*
X698950Y528469D01*
X698811Y528465D01*
X698791Y528459D01*
X698771Y528458D01*
X698639Y528415D01*
X698505Y528376D01*
X698488Y528366D01*
X698469Y528360D01*
X698351Y528285D01*
X698231Y528215D01*
X698210Y528196D01*
X698200Y528189D01*
X698186Y528174D01*
X698111Y528108D01*
X690956Y520953D01*
X680644Y520953D01*
X673997Y527600D01*
X673903Y527673D01*
X673814Y527752D01*
X673778Y527770D01*
X673746Y527795D01*
X673637Y527843D01*
X673531Y527897D01*
X673492Y527905D01*
X673454Y527921D01*
X673337Y527940D01*
X673221Y527966D01*
X673180Y527965D01*
X673140Y527971D01*
X673022Y527960D01*
X672903Y527957D01*
X672864Y527945D01*
X672824Y527942D01*
X672711Y527901D01*
X672597Y527868D01*
X672562Y527848D01*
X672524Y527834D01*
X672426Y527767D01*
X672323Y527707D01*
X672278Y527667D01*
X672261Y527655D01*
X672248Y527640D01*
X672202Y527600D01*
X665556Y520953D01*
X655244Y520953D01*
X648597Y527600D01*
X648503Y527673D01*
X648414Y527752D01*
X648378Y527770D01*
X648346Y527795D01*
X648237Y527843D01*
X648131Y527897D01*
X648092Y527905D01*
X648054Y527921D01*
X647937Y527940D01*
X647821Y527966D01*
X647780Y527965D01*
X647740Y527971D01*
X647622Y527960D01*
X647503Y527957D01*
X647464Y527945D01*
X647424Y527942D01*
X647311Y527901D01*
X647197Y527868D01*
X647162Y527848D01*
X647124Y527834D01*
X647026Y527767D01*
X646923Y527707D01*
X646878Y527667D01*
X646861Y527655D01*
X646848Y527640D01*
X646802Y527600D01*
X640156Y520953D01*
X632460Y520953D01*
X632342Y520938D01*
X632223Y520931D01*
X632185Y520918D01*
X632144Y520913D01*
X632034Y520870D01*
X631921Y520833D01*
X631886Y520811D01*
X631849Y520796D01*
X631753Y520727D01*
X631652Y520663D01*
X631624Y520633D01*
X631591Y520610D01*
X631515Y520518D01*
X631434Y520431D01*
X631414Y520396D01*
X631389Y520365D01*
X631338Y520257D01*
X631280Y520153D01*
X631270Y520113D01*
X631253Y520077D01*
X631231Y519960D01*
X631201Y519845D01*
X631197Y519785D01*
X631193Y519765D01*
X631195Y519744D01*
X631191Y519684D01*
X631191Y335653D01*
X631208Y335515D01*
X631221Y335377D01*
X631228Y335358D01*
X631231Y335338D01*
X631282Y335208D01*
X631329Y335078D01*
X631340Y335061D01*
X631348Y335042D01*
X631429Y334929D01*
X631507Y334814D01*
X631523Y334801D01*
X631534Y334785D01*
X631642Y334696D01*
X631746Y334604D01*
X631764Y334595D01*
X631779Y334582D01*
X631905Y334523D01*
X632029Y334459D01*
X632049Y334455D01*
X632067Y334446D01*
X632204Y334420D01*
X632339Y334390D01*
X632360Y334390D01*
X632379Y334386D01*
X632518Y334395D01*
X632657Y334399D01*
X632677Y334405D01*
X632697Y334406D01*
X632829Y334449D01*
X632963Y334488D01*
X632980Y334498D01*
X632999Y334504D01*
X633117Y334579D01*
X633237Y334649D01*
X633258Y334668D01*
X633268Y334674D01*
X633282Y334689D01*
X633357Y334756D01*
X634744Y336142D01*
X642826Y339490D01*
X651574Y339490D01*
X659656Y336142D01*
X665842Y329956D01*
X669190Y321874D01*
X669190Y313126D01*
X665842Y305044D01*
X659656Y298858D01*
X651574Y295510D01*
X642826Y295510D01*
X634744Y298858D01*
X628845Y304756D01*
X628751Y304829D01*
X628662Y304908D01*
X628626Y304927D01*
X628594Y304951D01*
X628485Y304999D01*
X628379Y305053D01*
X628339Y305062D01*
X628302Y305078D01*
X628185Y305096D01*
X628069Y305122D01*
X628028Y305121D01*
X627988Y305128D01*
X627870Y305116D01*
X627751Y305113D01*
X627712Y305102D01*
X627672Y305098D01*
X627559Y305057D01*
X627445Y305024D01*
X627410Y305004D01*
X627372Y304990D01*
X627274Y304923D01*
X627171Y304863D01*
X627126Y304823D01*
X627109Y304812D01*
X627096Y304796D01*
X627050Y304756D01*
X594046Y271752D01*
X592272Y271017D01*
X519161Y271017D01*
X519063Y271005D01*
X518964Y271002D01*
X518906Y270985D01*
X518846Y270977D01*
X518753Y270941D01*
X518658Y270913D01*
X518606Y270883D01*
X518550Y270860D01*
X518470Y270802D01*
X518384Y270752D01*
X518309Y270686D01*
X518292Y270674D01*
X518285Y270664D01*
X518264Y270646D01*
X513691Y266073D01*
X513606Y265964D01*
X513518Y265857D01*
X513509Y265838D01*
X513497Y265822D01*
X513441Y265694D01*
X513382Y265569D01*
X513378Y265549D01*
X513370Y265530D01*
X513348Y265392D01*
X513322Y265256D01*
X513324Y265236D01*
X513320Y265216D01*
X513333Y265077D01*
X513342Y264939D01*
X513348Y264920D01*
X513350Y264900D01*
X513397Y264768D01*
X513440Y264637D01*
X513451Y264619D01*
X513458Y264600D01*
X513536Y264485D01*
X513610Y264368D01*
X513625Y264354D01*
X513636Y264337D01*
X513741Y264245D01*
X513842Y264150D01*
X513860Y264140D01*
X513875Y264127D01*
X513999Y264063D01*
X514120Y263996D01*
X514140Y263991D01*
X514158Y263982D01*
X514294Y263952D01*
X514428Y263917D01*
X514456Y263915D01*
X514468Y263912D01*
X514489Y263913D01*
X514589Y263907D01*
X550988Y263907D01*
X551086Y263919D01*
X551185Y263922D01*
X551243Y263939D01*
X551304Y263947D01*
X551396Y263983D01*
X551491Y264011D01*
X551543Y264041D01*
X551599Y264064D01*
X551679Y264122D01*
X551765Y264172D01*
X551840Y264238D01*
X551857Y264250D01*
X551864Y264260D01*
X551886Y264278D01*
X553339Y265732D01*
X556223Y266927D01*
X559345Y266927D01*
X562229Y265732D01*
X564436Y263525D01*
X565631Y260641D01*
X565631Y257519D01*
X564436Y254635D01*
X562229Y252428D01*
X560246Y251606D01*
X560143Y251548D01*
X560035Y251495D01*
X560005Y251469D01*
X559970Y251449D01*
X559884Y251366D01*
X559793Y251289D01*
X559770Y251256D01*
X559741Y251228D01*
X559679Y251126D01*
X559610Y251029D01*
X559596Y250991D01*
X559575Y250957D01*
X559540Y250843D01*
X559498Y250731D01*
X559493Y250691D01*
X559481Y250653D01*
X559476Y250534D01*
X559462Y250415D01*
X559468Y250375D01*
X559466Y250335D01*
X559490Y250218D01*
X559507Y250100D01*
X559526Y250044D01*
X559530Y250024D01*
X559539Y250005D01*
X559559Y249948D01*
X561465Y245347D01*
X561465Y239553D01*
X559247Y234200D01*
X555150Y230103D01*
X549797Y227885D01*
X544003Y227885D01*
X538650Y230103D01*
X534553Y234200D01*
X532335Y239553D01*
X532335Y245347D01*
X534553Y250700D01*
X535939Y252087D01*
X536024Y252196D01*
X536113Y252303D01*
X536121Y252322D01*
X536134Y252338D01*
X536189Y252466D01*
X536248Y252591D01*
X536252Y252611D01*
X536260Y252630D01*
X536282Y252768D01*
X536308Y252904D01*
X536307Y252924D01*
X536310Y252944D01*
X536297Y253083D01*
X536288Y253221D01*
X536282Y253240D01*
X536280Y253260D01*
X536233Y253392D01*
X536190Y253523D01*
X536180Y253541D01*
X536173Y253560D01*
X536095Y253675D01*
X536020Y253792D01*
X536005Y253806D01*
X535994Y253823D01*
X535890Y253915D01*
X535789Y254010D01*
X535771Y254020D01*
X535756Y254033D01*
X535632Y254097D01*
X535510Y254164D01*
X535490Y254169D01*
X535472Y254178D01*
X535337Y254208D01*
X535202Y254243D01*
X535174Y254245D01*
X535162Y254248D01*
X535142Y254247D01*
X535041Y254253D01*
X516113Y254253D01*
X516015Y254241D01*
X515916Y254238D01*
X515858Y254221D01*
X515798Y254213D01*
X515705Y254177D01*
X515610Y254149D01*
X515558Y254119D01*
X515502Y254096D01*
X515422Y254038D01*
X515336Y253988D01*
X515261Y253922D01*
X515244Y253910D01*
X515237Y253900D01*
X515216Y253882D01*
X417264Y155930D01*
X417246Y155907D01*
X417224Y155888D01*
X417149Y155782D01*
X417069Y155679D01*
X417058Y155652D01*
X417041Y155628D01*
X416995Y155506D01*
X416943Y155387D01*
X416938Y155358D01*
X416928Y155330D01*
X416914Y155202D01*
X416893Y155073D01*
X416896Y155044D01*
X416893Y155014D01*
X416911Y154886D01*
X416923Y154756D01*
X416933Y154729D01*
X416937Y154699D01*
X416989Y154547D01*
X417005Y154509D01*
X417005Y150291D01*
X415390Y146393D01*
X412407Y143410D01*
X408509Y141795D01*
X404291Y141795D01*
X403175Y142257D01*
X403147Y142265D01*
X403121Y142278D01*
X402994Y142307D01*
X402869Y142341D01*
X402839Y142342D01*
X402810Y142348D01*
X402680Y142344D01*
X402551Y142346D01*
X402522Y142339D01*
X402492Y142338D01*
X402368Y142302D01*
X402241Y142272D01*
X402215Y142258D01*
X402187Y142250D01*
X402075Y142184D01*
X401960Y142123D01*
X401938Y142103D01*
X401913Y142088D01*
X401792Y141982D01*
X398974Y139164D01*
X397200Y138429D01*
X375468Y138429D01*
X373694Y139164D01*
X372158Y140700D01*
X366425Y146433D01*
X366331Y146506D01*
X366242Y146585D01*
X366206Y146603D01*
X366174Y146628D01*
X366065Y146675D01*
X365959Y146729D01*
X365919Y146738D01*
X365882Y146754D01*
X365764Y146773D01*
X365648Y146799D01*
X365608Y146798D01*
X365568Y146804D01*
X365449Y146793D01*
X365330Y146789D01*
X365292Y146778D01*
X365251Y146774D01*
X365139Y146734D01*
X365025Y146701D01*
X364990Y146680D01*
X364952Y146667D01*
X364854Y146600D01*
X364751Y146539D01*
X364706Y146499D01*
X364689Y146488D01*
X364675Y146473D01*
X364630Y146433D01*
X361607Y143410D01*
X357709Y141795D01*
X353491Y141795D01*
X349593Y143410D01*
X346610Y146393D01*
X346276Y147200D01*
X346217Y147303D01*
X346164Y147410D01*
X346138Y147441D01*
X346118Y147476D01*
X346035Y147562D01*
X345958Y147652D01*
X345925Y147676D01*
X345897Y147705D01*
X345795Y147767D01*
X345698Y147835D01*
X345660Y147850D01*
X345626Y147871D01*
X345512Y147906D01*
X345400Y147948D01*
X345360Y147953D01*
X345322Y147964D01*
X345203Y147970D01*
X345084Y147983D01*
X345044Y147978D01*
X345004Y147980D01*
X344887Y147956D01*
X344769Y147939D01*
X344713Y147919D01*
X344693Y147915D01*
X344674Y147906D01*
X344617Y147887D01*
X343860Y147573D01*
X342074Y147573D01*
X341956Y147558D01*
X341837Y147551D01*
X341799Y147538D01*
X341758Y147533D01*
X341648Y147490D01*
X341535Y147453D01*
X341500Y147431D01*
X341463Y147416D01*
X341367Y147347D01*
X341266Y147283D01*
X341238Y147253D01*
X341205Y147230D01*
X341129Y147138D01*
X341048Y147051D01*
X341028Y147016D01*
X341003Y146985D01*
X340952Y146877D01*
X340894Y146773D01*
X340884Y146733D01*
X340867Y146697D01*
X340845Y146580D01*
X340815Y146465D01*
X340811Y146405D01*
X340807Y146385D01*
X340809Y146364D01*
X340805Y146304D01*
X340805Y144176D01*
X338424Y141795D01*
X321976Y141795D01*
X319595Y144176D01*
X319595Y160624D01*
X321976Y163005D01*
X338424Y163005D01*
X340805Y160624D01*
X340805Y160195D01*
X340822Y160057D01*
X340835Y159919D01*
X340842Y159900D01*
X340845Y159879D01*
X340896Y159750D01*
X340943Y159619D01*
X340954Y159603D01*
X340962Y159584D01*
X341043Y159471D01*
X341121Y159356D01*
X341137Y159343D01*
X341148Y159326D01*
X341256Y159238D01*
X341360Y159146D01*
X341378Y159137D01*
X341393Y159124D01*
X341519Y159064D01*
X341643Y159001D01*
X341663Y158997D01*
X341681Y158988D01*
X341817Y158962D01*
X341953Y158931D01*
X341974Y158932D01*
X341993Y158928D01*
X342132Y158937D01*
X342271Y158941D01*
X342291Y158947D01*
X342311Y158948D01*
X342443Y158991D01*
X342577Y159030D01*
X342594Y159040D01*
X342613Y159046D01*
X342731Y159120D01*
X342851Y159191D01*
X342872Y159210D01*
X342882Y159216D01*
X342896Y159231D01*
X342971Y159297D01*
X401094Y217420D01*
X401124Y217459D01*
X401161Y217493D01*
X401221Y217584D01*
X401289Y217671D01*
X401309Y217717D01*
X401336Y217758D01*
X401371Y217862D01*
X401415Y217963D01*
X401423Y218012D01*
X401439Y218059D01*
X401448Y218168D01*
X401465Y218277D01*
X401460Y218327D01*
X401464Y218376D01*
X401445Y218484D01*
X401435Y218594D01*
X401418Y218641D01*
X401410Y218689D01*
X401365Y218789D01*
X401328Y218893D01*
X401300Y218934D01*
X401279Y218979D01*
X401211Y219065D01*
X401149Y219156D01*
X401112Y219189D01*
X401081Y219228D01*
X400993Y219294D01*
X400911Y219367D01*
X400866Y219389D01*
X400827Y219419D01*
X400682Y219490D01*
X400393Y219610D01*
X397410Y222593D01*
X395795Y226491D01*
X395795Y230709D01*
X397410Y234607D01*
X400393Y237590D01*
X404291Y239205D01*
X408509Y239205D01*
X412407Y237590D01*
X415390Y234607D01*
X415510Y234318D01*
X415535Y234275D01*
X415551Y234228D01*
X415613Y234137D01*
X415668Y234042D01*
X415702Y234006D01*
X415730Y233965D01*
X415812Y233892D01*
X415889Y233813D01*
X415931Y233787D01*
X415968Y233754D01*
X416066Y233705D01*
X416160Y233647D01*
X416207Y233632D01*
X416252Y233610D01*
X416359Y233586D01*
X416464Y233553D01*
X416514Y233551D01*
X416562Y233540D01*
X416672Y233543D01*
X416782Y233538D01*
X416830Y233548D01*
X416880Y233550D01*
X416985Y233580D01*
X417093Y233603D01*
X417138Y233624D01*
X417185Y233638D01*
X417280Y233694D01*
X417379Y233742D01*
X417417Y233775D01*
X417459Y233800D01*
X417580Y233906D01*
X465122Y281448D01*
X466658Y282984D01*
X468432Y283719D01*
X557973Y283719D01*
X558022Y283725D01*
X558072Y283723D01*
X558179Y283745D01*
X558289Y283759D01*
X558335Y283777D01*
X558383Y283787D01*
X558482Y283835D01*
X558584Y283876D01*
X558624Y283905D01*
X558669Y283927D01*
X558753Y283998D01*
X558842Y284062D01*
X558873Y284101D01*
X558911Y284133D01*
X558974Y284223D01*
X559044Y284307D01*
X559066Y284352D01*
X559094Y284393D01*
X559133Y284496D01*
X559180Y284595D01*
X559189Y284644D01*
X559207Y284690D01*
X559219Y284800D01*
X559240Y284907D01*
X559237Y284957D01*
X559242Y285006D01*
X559227Y285115D01*
X559220Y285225D01*
X559205Y285272D01*
X559198Y285321D01*
X559146Y285474D01*
X557435Y289603D01*
X557435Y295397D01*
X559653Y300750D01*
X563750Y304847D01*
X569103Y307065D01*
X574897Y307065D01*
X580250Y304847D01*
X584347Y300750D01*
X586046Y296650D01*
X586070Y296607D01*
X586087Y296560D01*
X586149Y296469D01*
X586203Y296374D01*
X586238Y296338D01*
X586266Y296297D01*
X586348Y296224D01*
X586425Y296145D01*
X586467Y296119D01*
X586504Y296086D01*
X586602Y296036D01*
X586696Y295979D01*
X586743Y295964D01*
X586788Y295942D01*
X586895Y295918D01*
X587000Y295885D01*
X587049Y295883D01*
X587098Y295872D01*
X587208Y295875D01*
X587317Y295870D01*
X587366Y295880D01*
X587416Y295882D01*
X587521Y295912D01*
X587629Y295934D01*
X587674Y295956D01*
X587721Y295970D01*
X587816Y296026D01*
X587915Y296074D01*
X587952Y296106D01*
X587995Y296132D01*
X588116Y296238D01*
X593233Y301355D01*
X593263Y301394D01*
X593300Y301427D01*
X593360Y301519D01*
X593428Y301606D01*
X593447Y301652D01*
X593475Y301693D01*
X593510Y301797D01*
X593554Y301898D01*
X593562Y301947D01*
X593578Y301994D01*
X593587Y302103D01*
X593604Y302212D01*
X593599Y302261D01*
X593603Y302311D01*
X593584Y302419D01*
X593574Y302529D01*
X593557Y302575D01*
X593549Y302624D01*
X593504Y302724D01*
X593466Y302828D01*
X593438Y302869D01*
X593418Y302914D01*
X593350Y303000D01*
X593288Y303091D01*
X593251Y303124D01*
X593220Y303163D01*
X593132Y303229D01*
X593049Y303301D01*
X593005Y303324D01*
X592965Y303354D01*
X592821Y303425D01*
X588650Y305153D01*
X584553Y309250D01*
X583038Y312906D01*
X583024Y312931D01*
X583015Y312959D01*
X582945Y313069D01*
X582881Y313182D01*
X582860Y313203D01*
X582844Y313228D01*
X582750Y313317D01*
X582659Y313410D01*
X582634Y313426D01*
X582613Y313446D01*
X582499Y313509D01*
X582388Y313577D01*
X582360Y313585D01*
X582334Y313600D01*
X582209Y313632D01*
X582084Y313670D01*
X582055Y313672D01*
X582026Y313679D01*
X581866Y313689D01*
X426389Y313689D01*
X426252Y313672D01*
X426113Y313659D01*
X426094Y313652D01*
X426074Y313649D01*
X425945Y313598D01*
X425814Y313551D01*
X425797Y313540D01*
X425778Y313532D01*
X425666Y313451D01*
X425551Y313373D01*
X425537Y313357D01*
X425521Y313346D01*
X425432Y313238D01*
X425340Y313134D01*
X425331Y313116D01*
X425318Y313101D01*
X425259Y312975D01*
X425196Y312851D01*
X425191Y312831D01*
X425183Y312813D01*
X425156Y312677D01*
X425126Y312541D01*
X425127Y312520D01*
X425123Y312501D01*
X425131Y312362D01*
X425136Y312223D01*
X425141Y312203D01*
X425143Y312183D01*
X425185Y312051D01*
X425224Y311917D01*
X425234Y311900D01*
X425241Y311881D01*
X425315Y311763D01*
X425386Y311643D01*
X425404Y311622D01*
X425411Y311612D01*
X425426Y311598D01*
X425492Y311523D01*
X427921Y309094D01*
X429505Y305270D01*
X429505Y301130D01*
X427921Y297306D01*
X424994Y294379D01*
X421170Y292795D01*
X417030Y292795D01*
X413206Y294379D01*
X410279Y297306D01*
X408695Y301130D01*
X408695Y305270D01*
X410279Y309094D01*
X412708Y311523D01*
X412793Y311632D01*
X412882Y311739D01*
X412891Y311758D01*
X412903Y311774D01*
X412958Y311902D01*
X413017Y312027D01*
X413021Y312047D01*
X413029Y312066D01*
X413051Y312204D01*
X413077Y312340D01*
X413076Y312360D01*
X413079Y312380D01*
X413066Y312519D01*
X413057Y312657D01*
X413051Y312676D01*
X413049Y312696D01*
X413002Y312827D01*
X412959Y312959D01*
X412949Y312977D01*
X412942Y312996D01*
X412864Y313111D01*
X412789Y313228D01*
X412774Y313242D01*
X412763Y313259D01*
X412659Y313351D01*
X412558Y313446D01*
X412540Y313456D01*
X412525Y313469D01*
X412401Y313533D01*
X412279Y313600D01*
X412260Y313605D01*
X412241Y313614D01*
X412106Y313644D01*
X411971Y313679D01*
X411943Y313681D01*
X411931Y313684D01*
X411911Y313683D01*
X411811Y313689D01*
X400989Y313689D01*
X400852Y313672D01*
X400713Y313659D01*
X400694Y313652D01*
X400674Y313649D01*
X400545Y313598D01*
X400414Y313551D01*
X400397Y313540D01*
X400378Y313532D01*
X400266Y313451D01*
X400151Y313373D01*
X400137Y313357D01*
X400121Y313346D01*
X400032Y313238D01*
X399940Y313134D01*
X399931Y313116D01*
X399918Y313101D01*
X399859Y312975D01*
X399796Y312851D01*
X399791Y312831D01*
X399783Y312813D01*
X399756Y312677D01*
X399726Y312541D01*
X399727Y312520D01*
X399723Y312501D01*
X399731Y312362D01*
X399736Y312223D01*
X399741Y312203D01*
X399743Y312183D01*
X399785Y312051D01*
X399824Y311917D01*
X399834Y311900D01*
X399841Y311881D01*
X399915Y311763D01*
X399986Y311643D01*
X400004Y311622D01*
X400011Y311612D01*
X400026Y311598D01*
X400092Y311523D01*
X402521Y309094D01*
X404105Y305270D01*
X404105Y301130D01*
X402521Y297306D01*
X399594Y294379D01*
X395770Y292795D01*
X391630Y292795D01*
X387806Y294379D01*
X384879Y297306D01*
X383295Y301130D01*
X383295Y305270D01*
X384879Y309094D01*
X387308Y311523D01*
X387393Y311632D01*
X387482Y311739D01*
X387491Y311758D01*
X387503Y311774D01*
X387558Y311902D01*
X387617Y312027D01*
X387621Y312047D01*
X387629Y312066D01*
X387651Y312204D01*
X387677Y312340D01*
X387676Y312360D01*
X387679Y312380D01*
X387666Y312519D01*
X387657Y312657D01*
X387651Y312676D01*
X387649Y312696D01*
X387602Y312827D01*
X387559Y312959D01*
X387549Y312977D01*
X387542Y312996D01*
X387464Y313111D01*
X387389Y313228D01*
X387374Y313242D01*
X387363Y313259D01*
X387259Y313351D01*
X387158Y313446D01*
X387140Y313456D01*
X387125Y313469D01*
X387001Y313533D01*
X386879Y313600D01*
X386860Y313605D01*
X386841Y313614D01*
X386706Y313644D01*
X386571Y313679D01*
X386543Y313681D01*
X386531Y313684D01*
X386511Y313683D01*
X386411Y313689D01*
X375589Y313689D01*
X375452Y313672D01*
X375313Y313659D01*
X375294Y313652D01*
X375274Y313649D01*
X375145Y313598D01*
X375014Y313551D01*
X374997Y313540D01*
X374978Y313532D01*
X374866Y313451D01*
X374751Y313373D01*
X374737Y313357D01*
X374721Y313346D01*
X374632Y313238D01*
X374540Y313134D01*
X374531Y313116D01*
X374518Y313101D01*
X374459Y312975D01*
X374396Y312851D01*
X374391Y312831D01*
X374383Y312813D01*
X374356Y312677D01*
X374326Y312541D01*
X374327Y312520D01*
X374323Y312501D01*
X374331Y312362D01*
X374336Y312223D01*
X374341Y312203D01*
X374343Y312183D01*
X374385Y312051D01*
X374424Y311917D01*
X374434Y311900D01*
X374441Y311881D01*
X374515Y311763D01*
X374586Y311643D01*
X374604Y311622D01*
X374611Y311612D01*
X374626Y311598D01*
X374692Y311523D01*
X377121Y309094D01*
X378705Y305270D01*
X378705Y301130D01*
X377121Y297306D01*
X374194Y294379D01*
X370370Y292795D01*
X366230Y292795D01*
X362406Y294379D01*
X359479Y297306D01*
X357895Y301130D01*
X357895Y305270D01*
X359479Y309094D01*
X361908Y311523D01*
X361993Y311632D01*
X362082Y311739D01*
X362091Y311758D01*
X362103Y311774D01*
X362158Y311902D01*
X362217Y312027D01*
X362221Y312047D01*
X362229Y312066D01*
X362251Y312204D01*
X362277Y312340D01*
X362276Y312360D01*
X362279Y312380D01*
X362266Y312519D01*
X362257Y312657D01*
X362251Y312676D01*
X362249Y312696D01*
X362202Y312827D01*
X362159Y312959D01*
X362149Y312977D01*
X362142Y312996D01*
X362064Y313111D01*
X361989Y313228D01*
X361974Y313242D01*
X361963Y313259D01*
X361859Y313351D01*
X361758Y313446D01*
X361740Y313456D01*
X361725Y313469D01*
X361601Y313533D01*
X361479Y313600D01*
X361460Y313605D01*
X361441Y313614D01*
X361306Y313644D01*
X361171Y313679D01*
X361143Y313681D01*
X361131Y313684D01*
X361111Y313683D01*
X361011Y313689D01*
X350189Y313689D01*
X350052Y313672D01*
X349913Y313659D01*
X349894Y313652D01*
X349874Y313649D01*
X349745Y313598D01*
X349614Y313551D01*
X349597Y313540D01*
X349578Y313532D01*
X349466Y313451D01*
X349351Y313373D01*
X349337Y313357D01*
X349321Y313346D01*
X349232Y313238D01*
X349140Y313134D01*
X349131Y313116D01*
X349118Y313101D01*
X349059Y312975D01*
X348996Y312851D01*
X348991Y312831D01*
X348983Y312813D01*
X348956Y312677D01*
X348926Y312541D01*
X348927Y312520D01*
X348923Y312501D01*
X348931Y312362D01*
X348936Y312223D01*
X348941Y312203D01*
X348943Y312183D01*
X348985Y312051D01*
X349024Y311917D01*
X349034Y311900D01*
X349041Y311881D01*
X349115Y311763D01*
X349186Y311643D01*
X349204Y311622D01*
X349211Y311612D01*
X349226Y311598D01*
X349292Y311523D01*
X351721Y309094D01*
X353305Y305270D01*
X353305Y301130D01*
X351721Y297306D01*
X348794Y294379D01*
X344970Y292795D01*
X340830Y292795D01*
X337006Y294379D01*
X334079Y297306D01*
X332495Y301130D01*
X332495Y305270D01*
X334079Y309094D01*
X337006Y312021D01*
X339185Y312923D01*
X339228Y312948D01*
X339275Y312965D01*
X339366Y313026D01*
X339461Y313081D01*
X339497Y313115D01*
X339538Y313143D01*
X339611Y313226D01*
X339690Y313302D01*
X339716Y313344D01*
X339748Y313382D01*
X339798Y313479D01*
X339856Y313573D01*
X339870Y313621D01*
X339893Y313665D01*
X339917Y313772D01*
X339949Y313877D01*
X339952Y313927D01*
X339963Y313975D01*
X339959Y314085D01*
X339965Y314195D01*
X339955Y314243D01*
X339953Y314293D01*
X339922Y314399D01*
X339900Y314506D01*
X339878Y314551D01*
X339865Y314599D01*
X339809Y314693D01*
X339761Y314792D01*
X339728Y314830D01*
X339703Y314872D01*
X339597Y314993D01*
X338630Y315960D01*
X277556Y377034D01*
X277517Y377064D01*
X277483Y377101D01*
X277392Y377162D01*
X277305Y377229D01*
X277259Y377249D01*
X277218Y377276D01*
X277114Y377312D01*
X277013Y377355D01*
X276964Y377363D01*
X276917Y377379D01*
X276808Y377388D01*
X276699Y377405D01*
X276649Y377400D01*
X276600Y377404D01*
X276492Y377386D01*
X276382Y377375D01*
X276335Y377358D01*
X276286Y377350D01*
X276186Y377305D01*
X276083Y377268D01*
X276042Y377240D01*
X275996Y377219D01*
X275911Y377151D01*
X275820Y377089D01*
X275787Y377052D01*
X275748Y377021D01*
X275682Y376933D01*
X275609Y376851D01*
X275587Y376806D01*
X275557Y376767D01*
X275533Y376719D01*
X272594Y373779D01*
X272570Y373770D01*
X272527Y373745D01*
X272480Y373728D01*
X272389Y373666D01*
X272294Y373612D01*
X272258Y373577D01*
X272217Y373550D01*
X272144Y373467D01*
X272066Y373391D01*
X272040Y373348D01*
X272007Y373311D01*
X271957Y373213D01*
X271899Y373120D01*
X271885Y373072D01*
X271862Y373028D01*
X271838Y372921D01*
X271806Y372816D01*
X271803Y372766D01*
X271793Y372718D01*
X271796Y372608D01*
X271791Y372498D01*
X271801Y372449D01*
X271802Y372400D01*
X271833Y372294D01*
X271855Y372187D01*
X271877Y372142D01*
X271891Y372094D01*
X271946Y372000D01*
X271995Y371901D01*
X272027Y371863D01*
X272052Y371820D01*
X272159Y371699D01*
X321084Y322774D01*
X321819Y321000D01*
X321819Y313521D01*
X321822Y313492D01*
X321820Y313462D01*
X321842Y313335D01*
X321859Y313206D01*
X321869Y313178D01*
X321874Y313149D01*
X321928Y313031D01*
X321976Y312910D01*
X321993Y312886D01*
X322005Y312859D01*
X322086Y312758D01*
X322162Y312653D01*
X322185Y312634D01*
X322204Y312611D01*
X322307Y312533D01*
X322407Y312450D01*
X322434Y312437D01*
X322458Y312419D01*
X322602Y312349D01*
X323394Y312021D01*
X326321Y309094D01*
X327905Y305270D01*
X327905Y301130D01*
X326321Y297306D01*
X323394Y294379D01*
X319570Y292795D01*
X315430Y292795D01*
X311606Y294379D01*
X308679Y297306D01*
X307095Y301130D01*
X307095Y305270D01*
X308679Y309094D01*
X311785Y312199D01*
X311812Y312234D01*
X311884Y312304D01*
X311901Y312331D01*
X311922Y312353D01*
X311966Y312433D01*
X311980Y312451D01*
X311991Y312477D01*
X312051Y312575D01*
X312061Y312605D01*
X312076Y312632D01*
X312101Y312732D01*
X312106Y312742D01*
X312109Y312759D01*
X312146Y312879D01*
X312147Y312910D01*
X312155Y312940D01*
X312165Y313100D01*
X312165Y317515D01*
X312153Y317613D01*
X312150Y317712D01*
X312133Y317770D01*
X312125Y317830D01*
X312089Y317923D01*
X312061Y318018D01*
X312031Y318070D01*
X312008Y318126D01*
X311950Y318206D01*
X311900Y318292D01*
X311834Y318367D01*
X311822Y318384D01*
X311812Y318391D01*
X311794Y318412D01*
X253464Y376742D01*
X252729Y378516D01*
X252729Y388056D01*
X253464Y389830D01*
X384398Y520764D01*
X384471Y520859D01*
X384550Y520948D01*
X384568Y520984D01*
X384593Y521016D01*
X384641Y521125D01*
X384695Y521231D01*
X384704Y521270D01*
X384720Y521307D01*
X384738Y521425D01*
X384764Y521541D01*
X384763Y521582D01*
X384769Y521622D01*
X384758Y521740D01*
X384755Y521859D01*
X384743Y521898D01*
X384740Y521938D01*
X384699Y522050D01*
X384666Y522165D01*
X384646Y522199D01*
X384632Y522237D01*
X384565Y522336D01*
X384505Y522439D01*
X384465Y522484D01*
X384453Y522501D01*
X384438Y522514D01*
X384398Y522559D01*
X379358Y527600D01*
X379263Y527673D01*
X379174Y527752D01*
X379138Y527770D01*
X379106Y527795D01*
X378997Y527842D01*
X378891Y527897D01*
X378852Y527905D01*
X378814Y527921D01*
X378697Y527940D01*
X378581Y527966D01*
X378540Y527965D01*
X378500Y527971D01*
X378382Y527960D01*
X378263Y527957D01*
X378224Y527945D01*
X378184Y527942D01*
X378071Y527901D01*
X377957Y527868D01*
X377923Y527848D01*
X377884Y527834D01*
X377786Y527767D01*
X377683Y527707D01*
X377638Y527667D01*
X377621Y527655D01*
X377608Y527640D01*
X377563Y527600D01*
X370916Y520953D01*
X360604Y520953D01*
X353958Y527600D01*
X353863Y527673D01*
X353774Y527752D01*
X353738Y527770D01*
X353706Y527795D01*
X353597Y527842D01*
X353491Y527897D01*
X353452Y527905D01*
X353414Y527921D01*
X353297Y527940D01*
X353181Y527966D01*
X353140Y527965D01*
X353100Y527971D01*
X352982Y527960D01*
X352863Y527957D01*
X352824Y527945D01*
X352784Y527942D01*
X352671Y527901D01*
X352557Y527868D01*
X352523Y527848D01*
X352484Y527834D01*
X352386Y527767D01*
X352283Y527707D01*
X352238Y527667D01*
X352221Y527655D01*
X352208Y527640D01*
X352163Y527600D01*
X345516Y520953D01*
X335204Y520953D01*
X327795Y528363D01*
X327775Y528418D01*
X327764Y528434D01*
X327756Y528453D01*
X327675Y528566D01*
X327597Y528681D01*
X327581Y528694D01*
X327570Y528711D01*
X327462Y528799D01*
X327358Y528891D01*
X327340Y528900D01*
X327325Y528913D01*
X327199Y528973D01*
X327075Y529036D01*
X327055Y529040D01*
X327037Y529049D01*
X326901Y529075D01*
X326765Y529105D01*
X326744Y529105D01*
X326725Y529109D01*
X326586Y529100D01*
X326447Y529096D01*
X326427Y529090D01*
X326407Y529089D01*
X326275Y529046D01*
X326141Y529007D01*
X326124Y528997D01*
X326105Y528991D01*
X325987Y528916D01*
X325867Y528846D01*
X325846Y528827D01*
X325836Y528821D01*
X325822Y528806D01*
X325747Y528739D01*
X319484Y522477D01*
X317459Y522477D01*
X317459Y532170D01*
X317444Y532288D01*
X317437Y532407D01*
X317424Y532445D01*
X317419Y532485D01*
X317376Y532596D01*
X317339Y532709D01*
X317317Y532743D01*
X317302Y532781D01*
X317233Y532877D01*
X317169Y532978D01*
X317139Y533006D01*
X317116Y533038D01*
X317024Y533114D01*
X316937Y533196D01*
X316902Y533215D01*
X316871Y533241D01*
X316763Y533292D01*
X316659Y533349D01*
X316619Y533359D01*
X316583Y533377D01*
X316476Y533397D01*
X316506Y533401D01*
X316616Y533445D01*
X316729Y533481D01*
X316764Y533503D01*
X316801Y533518D01*
X316897Y533588D01*
X316998Y533651D01*
X317026Y533681D01*
X317059Y533705D01*
X317135Y533796D01*
X317216Y533883D01*
X317236Y533918D01*
X317261Y533950D01*
X317312Y534057D01*
X317370Y534162D01*
X317380Y534201D01*
X317397Y534237D01*
X317419Y534354D01*
X317449Y534470D01*
X317453Y534530D01*
X317457Y534550D01*
X317455Y534570D01*
X317459Y534630D01*
X317459Y544323D01*
X319484Y544323D01*
X325747Y538061D01*
X325856Y537975D01*
X325963Y537887D01*
X325982Y537878D01*
X325998Y537866D01*
X326126Y537810D01*
X326251Y537751D01*
X326271Y537747D01*
X326290Y537739D01*
X326428Y537717D01*
X326564Y537691D01*
X326584Y537693D01*
X326604Y537689D01*
X326743Y537702D01*
X326881Y537711D01*
X326900Y537717D01*
X326920Y537719D01*
X327052Y537766D01*
X327183Y537809D01*
X327201Y537820D01*
X327220Y537827D01*
X327335Y537905D01*
X327452Y537979D01*
X327466Y537994D01*
X327483Y538005D01*
X327575Y538110D01*
X327670Y538211D01*
X327680Y538229D01*
X327693Y538244D01*
X327757Y538368D01*
X327795Y538437D01*
X335068Y545711D01*
X335153Y545820D01*
X335242Y545927D01*
X335251Y545946D01*
X335263Y545962D01*
X335319Y546090D01*
X335378Y546215D01*
X335381Y546235D01*
X335390Y546254D01*
X335411Y546392D01*
X335437Y546528D01*
X335436Y546548D01*
X335439Y546568D01*
X335426Y546707D01*
X335418Y546845D01*
X335411Y546864D01*
X335410Y546884D01*
X335362Y547016D01*
X335320Y547147D01*
X335309Y547165D01*
X335302Y547184D01*
X335224Y547299D01*
X335149Y547416D01*
X335135Y547430D01*
X335123Y547447D01*
X335019Y547539D01*
X334918Y547634D01*
X334900Y547644D01*
X334885Y547657D01*
X334761Y547721D01*
X334639Y547788D01*
X334620Y547793D01*
X334602Y547802D01*
X334466Y547832D01*
X334331Y547867D01*
X334303Y547869D01*
X334291Y547872D01*
X334271Y547871D01*
X334171Y547877D01*
X295749Y547877D01*
X295612Y547860D01*
X295473Y547847D01*
X295454Y547840D01*
X295434Y547837D01*
X295305Y547786D01*
X295174Y547739D01*
X295157Y547728D01*
X295138Y547720D01*
X295026Y547639D01*
X294910Y547561D01*
X294897Y547545D01*
X294881Y547534D01*
X294792Y547426D01*
X294700Y547322D01*
X294691Y547304D01*
X294678Y547289D01*
X294619Y547163D01*
X294555Y547039D01*
X294551Y547019D01*
X294542Y547001D01*
X294516Y546865D01*
X294486Y546729D01*
X294486Y546708D01*
X294483Y546689D01*
X294491Y546550D01*
X294495Y546411D01*
X294501Y546391D01*
X294502Y546371D01*
X294545Y546239D01*
X294584Y546105D01*
X294594Y546088D01*
X294600Y546069D01*
X294675Y545951D01*
X294745Y545831D01*
X294764Y545810D01*
X294771Y545800D01*
X294786Y545786D01*
X294852Y545711D01*
X302125Y538437D01*
X302145Y538382D01*
X302156Y538366D01*
X302164Y538347D01*
X302245Y538234D01*
X302323Y538119D01*
X302339Y538106D01*
X302350Y538089D01*
X302458Y538001D01*
X302562Y537909D01*
X302580Y537900D01*
X302595Y537887D01*
X302721Y537827D01*
X302845Y537764D01*
X302865Y537760D01*
X302883Y537751D01*
X303019Y537725D01*
X303155Y537695D01*
X303176Y537695D01*
X303195Y537691D01*
X303334Y537700D01*
X303473Y537704D01*
X303493Y537710D01*
X303513Y537711D01*
X303645Y537754D01*
X303779Y537793D01*
X303796Y537803D01*
X303815Y537809D01*
X303933Y537884D01*
X304053Y537954D01*
X304074Y537973D01*
X304084Y537979D01*
X304098Y537994D01*
X304173Y538061D01*
X310436Y544323D01*
X312461Y544323D01*
X312461Y534630D01*
X312476Y534512D01*
X312483Y534393D01*
X312495Y534355D01*
X312501Y534315D01*
X312544Y534204D01*
X312581Y534091D01*
X312603Y534057D01*
X312618Y534019D01*
X312687Y533923D01*
X312751Y533822D01*
X312781Y533794D01*
X312804Y533762D01*
X312896Y533686D01*
X312983Y533604D01*
X313018Y533585D01*
X313049Y533559D01*
X313157Y533508D01*
X313261Y533451D01*
X313301Y533441D01*
X313337Y533423D01*
X313444Y533403D01*
X313414Y533399D01*
X313304Y533355D01*
X313191Y533319D01*
X313156Y533297D01*
X313119Y533282D01*
X313022Y533212D01*
X312922Y533149D01*
X312894Y533119D01*
X312861Y533095D01*
X312785Y533004D01*
X312704Y532917D01*
X312684Y532882D01*
X312659Y532850D01*
X312608Y532743D01*
X312550Y532638D01*
X312540Y532599D01*
X312523Y532563D01*
X312501Y532446D01*
X312471Y532330D01*
X312467Y532270D01*
X312463Y532250D01*
X312465Y532230D01*
X312461Y532170D01*
X312461Y522477D01*
X310436Y522477D01*
X304173Y528739D01*
X304064Y528825D01*
X303957Y528913D01*
X303938Y528922D01*
X303922Y528934D01*
X303794Y528990D01*
X303669Y529049D01*
X303649Y529053D01*
X303630Y529061D01*
X303492Y529083D01*
X303356Y529109D01*
X303336Y529107D01*
X303316Y529111D01*
X303177Y529098D01*
X303039Y529089D01*
X303020Y529083D01*
X303000Y529081D01*
X302868Y529034D01*
X302737Y528991D01*
X302719Y528980D01*
X302700Y528973D01*
X302585Y528895D01*
X302468Y528821D01*
X302454Y528806D01*
X302437Y528795D01*
X302345Y528690D01*
X302250Y528589D01*
X302240Y528571D01*
X302227Y528556D01*
X302163Y528432D01*
X302125Y528363D01*
X294716Y520953D01*
X284404Y520953D01*
X277758Y527600D01*
X277663Y527673D01*
X277574Y527752D01*
X277538Y527770D01*
X277506Y527795D01*
X277397Y527842D01*
X277291Y527897D01*
X277252Y527905D01*
X277214Y527921D01*
X277097Y527940D01*
X276981Y527966D01*
X276940Y527965D01*
X276900Y527971D01*
X276782Y527960D01*
X276663Y527957D01*
X276624Y527945D01*
X276584Y527942D01*
X276471Y527901D01*
X276357Y527868D01*
X276323Y527848D01*
X276284Y527834D01*
X276186Y527767D01*
X276083Y527707D01*
X276038Y527667D01*
X276021Y527655D01*
X276008Y527640D01*
X275963Y527600D01*
X269316Y520953D01*
X259004Y520953D01*
X252358Y527600D01*
X252263Y527673D01*
X252174Y527752D01*
X252138Y527770D01*
X252106Y527795D01*
X251997Y527842D01*
X251891Y527897D01*
X251852Y527905D01*
X251814Y527921D01*
X251697Y527940D01*
X251581Y527966D01*
X251540Y527965D01*
X251500Y527971D01*
X251382Y527960D01*
X251263Y527957D01*
X251224Y527945D01*
X251184Y527942D01*
X251071Y527901D01*
X250957Y527868D01*
X250923Y527848D01*
X250884Y527834D01*
X250786Y527767D01*
X250683Y527707D01*
X250638Y527667D01*
X250621Y527655D01*
X250608Y527640D01*
X250563Y527600D01*
X243916Y520953D01*
X233604Y520953D01*
X226313Y528244D01*
X226313Y538556D01*
X233468Y545711D01*
X233553Y545820D01*
X233642Y545927D01*
X233651Y545946D01*
X233663Y545962D01*
X233719Y546090D01*
X233778Y546215D01*
X233781Y546235D01*
X233790Y546254D01*
X233811Y546392D01*
X233837Y546528D01*
X233836Y546548D01*
X233839Y546568D01*
X233826Y546707D01*
X233818Y546845D01*
X233811Y546864D01*
X233810Y546884D01*
X233762Y547016D01*
X233720Y547147D01*
X233709Y547165D01*
X233702Y547184D01*
X233624Y547299D01*
X233549Y547416D01*
X233535Y547430D01*
X233523Y547447D01*
X233419Y547539D01*
X233318Y547634D01*
X233300Y547644D01*
X233285Y547657D01*
X233161Y547721D01*
X233039Y547788D01*
X233020Y547793D01*
X233002Y547802D01*
X232866Y547832D01*
X232731Y547867D01*
X232703Y547869D01*
X232691Y547872D01*
X232671Y547871D01*
X232571Y547877D01*
X62992Y547877D01*
X62874Y547862D01*
X62755Y547855D01*
X62717Y547842D01*
X62676Y547837D01*
X62566Y547794D01*
X62453Y547757D01*
X62418Y547735D01*
X62381Y547720D01*
X62285Y547651D01*
X62184Y547587D01*
X62156Y547557D01*
X62123Y547534D01*
X62047Y547442D01*
X61966Y547355D01*
X61946Y547320D01*
X61921Y547289D01*
X61870Y547181D01*
X61812Y547077D01*
X61802Y547037D01*
X61785Y547001D01*
X61763Y546884D01*
X61733Y546769D01*
X61729Y546709D01*
X61725Y546689D01*
X61727Y546668D01*
X61723Y546608D01*
X61723Y37592D01*
X61738Y37474D01*
X61745Y37355D01*
X61758Y37317D01*
X61763Y37276D01*
X61806Y37166D01*
X61843Y37053D01*
X61865Y37018D01*
X61880Y36981D01*
X61949Y36885D01*
X62013Y36784D01*
X62043Y36756D01*
X62066Y36723D01*
X62158Y36647D01*
X62245Y36566D01*
X62280Y36546D01*
X62311Y36521D01*
X62419Y36470D01*
X62523Y36412D01*
X62563Y36402D01*
X62599Y36385D01*
X62716Y36363D01*
X62831Y36333D01*
X62891Y36329D01*
X62911Y36325D01*
X62932Y36327D01*
X62992Y36323D01*
X324011Y36323D01*
X324148Y36340D01*
G37*
G36*
X582737Y323346D02*
X582737Y323346D01*
X582766Y323344D01*
X582894Y323366D01*
X583023Y323383D01*
X583050Y323393D01*
X583079Y323398D01*
X583198Y323452D01*
X583319Y323500D01*
X583342Y323517D01*
X583369Y323529D01*
X583471Y323610D01*
X583576Y323686D01*
X583595Y323709D01*
X583618Y323728D01*
X583696Y323831D01*
X583779Y323931D01*
X583791Y323958D01*
X583809Y323982D01*
X583880Y324126D01*
X584553Y325750D01*
X588650Y329847D01*
X594003Y332065D01*
X599797Y332065D01*
X604542Y330099D01*
X604590Y330086D01*
X604635Y330065D01*
X604743Y330044D01*
X604849Y330015D01*
X604899Y330014D01*
X604948Y330005D01*
X605057Y330012D01*
X605167Y330010D01*
X605215Y330022D01*
X605265Y330025D01*
X605369Y330059D01*
X605476Y330084D01*
X605520Y330108D01*
X605567Y330123D01*
X605660Y330182D01*
X605757Y330233D01*
X605794Y330266D01*
X605836Y330293D01*
X605911Y330373D01*
X605993Y330447D01*
X606020Y330489D01*
X606054Y330525D01*
X606107Y330621D01*
X606167Y330713D01*
X606184Y330760D01*
X606208Y330803D01*
X606235Y330909D01*
X606271Y331014D01*
X606275Y331063D01*
X606287Y331111D01*
X606297Y331272D01*
X606297Y519684D01*
X606282Y519802D01*
X606275Y519921D01*
X606262Y519959D01*
X606257Y520000D01*
X606214Y520110D01*
X606177Y520223D01*
X606155Y520258D01*
X606140Y520295D01*
X606071Y520391D01*
X606007Y520492D01*
X605977Y520520D01*
X605954Y520553D01*
X605862Y520629D01*
X605775Y520710D01*
X605740Y520730D01*
X605709Y520755D01*
X605601Y520806D01*
X605497Y520864D01*
X605457Y520874D01*
X605421Y520891D01*
X605304Y520913D01*
X605189Y520943D01*
X605129Y520947D01*
X605109Y520951D01*
X605088Y520949D01*
X605028Y520953D01*
X604444Y520953D01*
X597797Y527600D01*
X597703Y527673D01*
X597614Y527752D01*
X597578Y527770D01*
X597546Y527795D01*
X597437Y527843D01*
X597331Y527897D01*
X597292Y527905D01*
X597254Y527921D01*
X597137Y527940D01*
X597021Y527966D01*
X596980Y527965D01*
X596940Y527971D01*
X596822Y527960D01*
X596703Y527957D01*
X596664Y527945D01*
X596624Y527942D01*
X596511Y527901D01*
X596397Y527868D01*
X596362Y527848D01*
X596324Y527834D01*
X596226Y527767D01*
X596123Y527707D01*
X596078Y527667D01*
X596061Y527655D01*
X596048Y527640D01*
X596002Y527600D01*
X589356Y520953D01*
X578597Y520953D01*
X578499Y520941D01*
X578400Y520938D01*
X578342Y520921D01*
X578281Y520913D01*
X578189Y520877D01*
X578094Y520849D01*
X578042Y520819D01*
X577986Y520796D01*
X577906Y520738D01*
X577820Y520688D01*
X577745Y520622D01*
X577728Y520610D01*
X577721Y520600D01*
X577700Y520582D01*
X575758Y518640D01*
X573984Y517905D01*
X395717Y517905D01*
X395619Y517893D01*
X395520Y517890D01*
X395462Y517873D01*
X395402Y517865D01*
X395309Y517829D01*
X395214Y517801D01*
X395162Y517771D01*
X395106Y517748D01*
X395026Y517690D01*
X394940Y517640D01*
X394865Y517574D01*
X394848Y517562D01*
X394841Y517552D01*
X394820Y517534D01*
X271188Y393902D01*
X271158Y393863D01*
X271121Y393830D01*
X271061Y393738D01*
X270993Y393651D01*
X270974Y393606D01*
X270946Y393564D01*
X270911Y393460D01*
X270867Y393359D01*
X270859Y393310D01*
X270843Y393263D01*
X270835Y393154D01*
X270817Y393045D01*
X270822Y392996D01*
X270818Y392946D01*
X270837Y392838D01*
X270847Y392729D01*
X270864Y392682D01*
X270872Y392633D01*
X270918Y392533D01*
X270955Y392429D01*
X270983Y392388D01*
X271003Y392343D01*
X271072Y392257D01*
X271133Y392166D01*
X271171Y392133D01*
X271202Y392094D01*
X271289Y392028D01*
X271372Y391956D01*
X271416Y391933D01*
X271456Y391903D01*
X271600Y391832D01*
X272594Y391421D01*
X275521Y388494D01*
X275670Y388134D01*
X275684Y388109D01*
X275693Y388081D01*
X275763Y387971D01*
X275827Y387858D01*
X275848Y387837D01*
X275864Y387812D01*
X275958Y387723D01*
X276048Y387630D01*
X276074Y387614D01*
X276095Y387594D01*
X276209Y387531D01*
X276320Y387463D01*
X276348Y387455D01*
X276374Y387440D01*
X276499Y387408D01*
X276623Y387370D01*
X276653Y387368D01*
X276682Y387361D01*
X276842Y387351D01*
X279852Y387351D01*
X281201Y386792D01*
X281315Y386761D01*
X281428Y386722D01*
X281468Y386719D01*
X281507Y386708D01*
X281626Y386706D01*
X281745Y386697D01*
X281785Y386704D01*
X281825Y386703D01*
X281941Y386731D01*
X282058Y386751D01*
X282095Y386768D01*
X282135Y386777D01*
X282240Y386833D01*
X282348Y386882D01*
X282380Y386907D01*
X282416Y386926D01*
X282504Y387006D01*
X282597Y387080D01*
X282621Y387113D01*
X282651Y387140D01*
X282716Y387239D01*
X282788Y387335D01*
X282815Y387389D01*
X282826Y387406D01*
X282832Y387425D01*
X282859Y387479D01*
X283279Y388494D01*
X286206Y391421D01*
X290030Y393005D01*
X294170Y393005D01*
X297994Y391421D01*
X300921Y388494D01*
X301070Y388134D01*
X301084Y388109D01*
X301093Y388081D01*
X301163Y387971D01*
X301227Y387858D01*
X301248Y387837D01*
X301264Y387812D01*
X301358Y387723D01*
X301448Y387630D01*
X301474Y387614D01*
X301495Y387594D01*
X301609Y387531D01*
X301720Y387463D01*
X301748Y387455D01*
X301774Y387440D01*
X301899Y387408D01*
X302023Y387370D01*
X302053Y387368D01*
X302082Y387361D01*
X302242Y387351D01*
X305760Y387351D01*
X307534Y386616D01*
X307620Y386530D01*
X307687Y386478D01*
X307747Y386418D01*
X307812Y386381D01*
X307872Y386335D01*
X307949Y386301D01*
X308022Y386259D01*
X308095Y386238D01*
X308164Y386208D01*
X308247Y386195D01*
X308328Y386172D01*
X308404Y386170D01*
X308478Y386158D01*
X308562Y386166D01*
X308646Y386164D01*
X308719Y386181D01*
X308794Y386188D01*
X308874Y386217D01*
X308956Y386236D01*
X309023Y386270D01*
X309094Y386296D01*
X309163Y386343D01*
X309238Y386382D01*
X309294Y386432D01*
X309357Y386474D01*
X309413Y386538D01*
X309476Y386594D01*
X309561Y386706D01*
X309567Y386713D01*
X309569Y386716D01*
X309573Y386722D01*
X310602Y388261D01*
X311839Y389498D01*
X313293Y390470D01*
X314909Y391139D01*
X315601Y391277D01*
X315601Y383230D01*
X315616Y383112D01*
X315623Y382993D01*
X315635Y382955D01*
X315641Y382915D01*
X315684Y382804D01*
X315721Y382691D01*
X315743Y382657D01*
X315758Y382619D01*
X315827Y382523D01*
X315891Y382422D01*
X315921Y382394D01*
X315944Y382362D01*
X316036Y382286D01*
X316123Y382204D01*
X316158Y382185D01*
X316189Y382159D01*
X316297Y382108D01*
X316401Y382051D01*
X316441Y382041D01*
X316477Y382023D01*
X316594Y382001D01*
X316709Y381971D01*
X316769Y381967D01*
X316789Y381964D01*
X316810Y381965D01*
X316862Y381961D01*
X316876Y381852D01*
X316883Y381733D01*
X316896Y381695D01*
X316901Y381654D01*
X316945Y381544D01*
X316981Y381431D01*
X317003Y381396D01*
X317018Y381359D01*
X317088Y381262D01*
X317151Y381162D01*
X317181Y381134D01*
X317205Y381101D01*
X317296Y381025D01*
X317383Y380944D01*
X317418Y380924D01*
X317450Y380899D01*
X317557Y380848D01*
X317662Y380790D01*
X317701Y380780D01*
X317737Y380763D01*
X317854Y380741D01*
X317970Y380711D01*
X318030Y380707D01*
X318050Y380703D01*
X318070Y380705D01*
X318130Y380701D01*
X326177Y380701D01*
X326039Y380010D01*
X326020Y379962D01*
X326006Y379914D01*
X325985Y379869D01*
X325965Y379761D01*
X325936Y379655D01*
X325935Y379605D01*
X325926Y379556D01*
X325932Y379447D01*
X325931Y379337D01*
X325942Y379289D01*
X325945Y379239D01*
X325979Y379135D01*
X326005Y379028D01*
X326028Y378984D01*
X326043Y378937D01*
X326102Y378844D01*
X326153Y378747D01*
X326187Y378710D01*
X326213Y378668D01*
X326293Y378593D01*
X326367Y378511D01*
X326409Y378484D01*
X326445Y378450D01*
X326541Y378397D01*
X326633Y378337D01*
X326680Y378320D01*
X326724Y378296D01*
X326830Y378269D01*
X326934Y378233D01*
X326983Y378229D01*
X327032Y378217D01*
X327192Y378207D01*
X331231Y378207D01*
X331329Y378219D01*
X331428Y378222D01*
X331486Y378239D01*
X331546Y378247D01*
X331639Y378283D01*
X331734Y378311D01*
X331786Y378341D01*
X331842Y378364D01*
X331922Y378422D01*
X332008Y378472D01*
X332083Y378538D01*
X332100Y378550D01*
X332107Y378560D01*
X332128Y378578D01*
X332360Y378810D01*
X332378Y378833D01*
X332400Y378852D01*
X332475Y378959D01*
X332555Y379061D01*
X332566Y379088D01*
X332584Y379112D01*
X332630Y379234D01*
X332681Y379353D01*
X332686Y379382D01*
X332696Y379410D01*
X332711Y379539D01*
X332731Y379667D01*
X332728Y379696D01*
X332731Y379726D01*
X332713Y379855D01*
X332701Y379984D01*
X332691Y380011D01*
X332687Y380041D01*
X332635Y380193D01*
X332495Y380530D01*
X332495Y384670D01*
X334079Y388494D01*
X337006Y391421D01*
X340830Y393005D01*
X344970Y393005D01*
X348794Y391421D01*
X351721Y388494D01*
X353305Y384670D01*
X353305Y380530D01*
X351721Y376706D01*
X348794Y373779D01*
X344970Y372195D01*
X340830Y372195D01*
X340601Y372290D01*
X340572Y372298D01*
X340546Y372312D01*
X340419Y372340D01*
X340294Y372374D01*
X340264Y372375D01*
X340235Y372381D01*
X340106Y372377D01*
X339976Y372379D01*
X339947Y372373D01*
X339918Y372372D01*
X339793Y372336D01*
X339667Y372305D01*
X339640Y372291D01*
X339612Y372283D01*
X339500Y372217D01*
X339385Y372157D01*
X339364Y372137D01*
X339338Y372122D01*
X339217Y372015D01*
X336490Y369288D01*
X334716Y368553D01*
X312984Y368553D01*
X311210Y369288D01*
X303172Y377326D01*
X303094Y377386D01*
X303022Y377454D01*
X302969Y377483D01*
X302921Y377520D01*
X302830Y377560D01*
X302744Y377608D01*
X302685Y377623D01*
X302629Y377647D01*
X302531Y377662D01*
X302436Y377687D01*
X302336Y377693D01*
X302315Y377697D01*
X302303Y377695D01*
X302275Y377697D01*
X302179Y377697D01*
X302150Y377694D01*
X302121Y377696D01*
X301992Y377674D01*
X301864Y377657D01*
X301836Y377647D01*
X301807Y377642D01*
X301689Y377588D01*
X301568Y377540D01*
X301544Y377523D01*
X301517Y377511D01*
X301416Y377430D01*
X301311Y377354D01*
X301292Y377331D01*
X301269Y377312D01*
X301191Y377209D01*
X301108Y377109D01*
X301095Y377082D01*
X301078Y377058D01*
X301007Y376914D01*
X300921Y376706D01*
X297994Y373779D01*
X297252Y373472D01*
X297209Y373447D01*
X297162Y373431D01*
X297071Y373369D01*
X296976Y373314D01*
X296940Y373280D01*
X296899Y373252D01*
X296826Y373169D01*
X296747Y373093D01*
X296721Y373051D01*
X296688Y373014D01*
X296638Y372916D01*
X296581Y372822D01*
X296566Y372775D01*
X296544Y372730D01*
X296520Y372623D01*
X296487Y372518D01*
X296485Y372468D01*
X296474Y372420D01*
X296477Y372310D01*
X296472Y372200D01*
X296482Y372152D01*
X296484Y372102D01*
X296514Y371997D01*
X296537Y371889D01*
X296558Y371844D01*
X296572Y371797D01*
X296628Y371702D01*
X296676Y371603D01*
X296708Y371566D01*
X296734Y371523D01*
X296840Y371402D01*
X344528Y323714D01*
X344606Y323654D01*
X344678Y323586D01*
X344731Y323557D01*
X344779Y323520D01*
X344870Y323480D01*
X344956Y323432D01*
X345015Y323417D01*
X345071Y323393D01*
X345169Y323378D01*
X345264Y323353D01*
X345364Y323347D01*
X345385Y323343D01*
X345397Y323345D01*
X345425Y323343D01*
X582707Y323343D01*
X582737Y323346D01*
G37*
%LPC*%
G36*
X642826Y145410D02*
X642826Y145410D01*
X634744Y148758D01*
X628558Y154944D01*
X625210Y163026D01*
X625210Y171774D01*
X628558Y179856D01*
X634744Y186042D01*
X642826Y189390D01*
X651574Y189390D01*
X659656Y186042D01*
X665842Y179856D01*
X669190Y171774D01*
X669190Y163026D01*
X665842Y154944D01*
X659656Y148758D01*
X651574Y145410D01*
X642826Y145410D01*
G37*
%LPD*%
%LPC*%
G36*
X694303Y252885D02*
X694303Y252885D01*
X688950Y255103D01*
X684853Y259200D01*
X682635Y264553D01*
X682635Y270347D01*
X684853Y275700D01*
X688950Y279797D01*
X694303Y282015D01*
X700097Y282015D01*
X705450Y279797D01*
X709547Y275700D01*
X711765Y270347D01*
X711765Y264553D01*
X709547Y259200D01*
X705450Y255103D01*
X700097Y252885D01*
X694303Y252885D01*
G37*
%LPD*%
%LPC*%
G36*
X594003Y152835D02*
X594003Y152835D01*
X588650Y155053D01*
X584553Y159150D01*
X582335Y164503D01*
X582335Y170297D01*
X584553Y175650D01*
X588650Y179747D01*
X594003Y181965D01*
X599797Y181965D01*
X605150Y179747D01*
X609247Y175650D01*
X611465Y170297D01*
X611465Y164503D01*
X609247Y159150D01*
X605150Y155053D01*
X599797Y152835D01*
X594003Y152835D01*
G37*
%LPD*%
%LPC*%
G36*
X569103Y177835D02*
X569103Y177835D01*
X563750Y180053D01*
X559653Y184150D01*
X557435Y189503D01*
X557435Y195297D01*
X559653Y200650D01*
X563750Y204747D01*
X569103Y206965D01*
X574897Y206965D01*
X580250Y204747D01*
X584347Y200650D01*
X586565Y195297D01*
X586565Y189503D01*
X584347Y184150D01*
X580250Y180053D01*
X574897Y177835D01*
X569103Y177835D01*
G37*
%LPD*%
%LPC*%
G36*
X694303Y202885D02*
X694303Y202885D01*
X688950Y205103D01*
X684853Y209200D01*
X682635Y214553D01*
X682635Y220347D01*
X684853Y225700D01*
X688950Y229797D01*
X694303Y232015D01*
X700097Y232015D01*
X705450Y229797D01*
X709547Y225700D01*
X711765Y220347D01*
X711765Y214553D01*
X709547Y209200D01*
X705450Y205103D01*
X700097Y202885D01*
X694303Y202885D01*
G37*
%LPD*%
%LPC*%
G36*
X258676Y292795D02*
X258676Y292795D01*
X256295Y295176D01*
X256295Y311224D01*
X258676Y313605D01*
X274724Y313605D01*
X277105Y311224D01*
X277105Y295176D01*
X274724Y292795D01*
X258676Y292795D01*
G37*
%LPD*%
%LPC*%
G36*
X389281Y433831D02*
X389281Y433831D01*
X383031Y440081D01*
X383031Y448919D01*
X389281Y455169D01*
X398119Y455169D01*
X404369Y448919D01*
X404369Y440081D01*
X398119Y433831D01*
X389281Y433831D01*
G37*
%LPD*%
%LPC*%
G36*
X579781Y433831D02*
X579781Y433831D01*
X573531Y440081D01*
X573531Y448919D01*
X579781Y455169D01*
X588619Y455169D01*
X594869Y448919D01*
X594869Y440081D01*
X588619Y433831D01*
X579781Y433831D01*
G37*
%LPD*%
%LPC*%
G36*
X353491Y217995D02*
X353491Y217995D01*
X349593Y219610D01*
X346610Y222593D01*
X344995Y226491D01*
X344995Y230709D01*
X346610Y234607D01*
X349593Y237590D01*
X353491Y239205D01*
X357709Y239205D01*
X361607Y237590D01*
X364590Y234607D01*
X366205Y230709D01*
X366205Y226491D01*
X364590Y222593D01*
X361607Y219610D01*
X357709Y217995D01*
X353491Y217995D01*
G37*
%LPD*%
%LPC*%
G36*
X290030Y292795D02*
X290030Y292795D01*
X286206Y294379D01*
X283279Y297306D01*
X281695Y301130D01*
X281695Y305270D01*
X283279Y309094D01*
X286206Y312021D01*
X290030Y313605D01*
X294170Y313605D01*
X297994Y312021D01*
X300921Y309094D01*
X302505Y305270D01*
X302505Y301130D01*
X300921Y297306D01*
X297994Y294379D01*
X294170Y292795D01*
X290030Y292795D01*
G37*
%LPD*%
%LPC*%
G36*
X366230Y372195D02*
X366230Y372195D01*
X362406Y373779D01*
X359479Y376706D01*
X357895Y380530D01*
X357895Y384670D01*
X359479Y388494D01*
X362406Y391421D01*
X366230Y393005D01*
X370370Y393005D01*
X374194Y391421D01*
X377121Y388494D01*
X378705Y384670D01*
X378705Y380530D01*
X377121Y376706D01*
X374194Y373779D01*
X370370Y372195D01*
X366230Y372195D01*
G37*
%LPD*%
%LPC*%
G36*
X417030Y372195D02*
X417030Y372195D01*
X413206Y373779D01*
X410279Y376706D01*
X408695Y380530D01*
X408695Y384670D01*
X410279Y388494D01*
X413206Y391421D01*
X417030Y393005D01*
X421170Y393005D01*
X424994Y391421D01*
X427921Y388494D01*
X429505Y384670D01*
X429505Y380530D01*
X427921Y376706D01*
X424994Y373779D01*
X421170Y372195D01*
X417030Y372195D01*
G37*
%LPD*%
%LPC*%
G36*
X391630Y372195D02*
X391630Y372195D01*
X387806Y373779D01*
X384879Y376706D01*
X383295Y380530D01*
X383295Y384670D01*
X384879Y388494D01*
X387806Y391421D01*
X391630Y393005D01*
X395770Y393005D01*
X399594Y391421D01*
X402521Y388494D01*
X404105Y384670D01*
X404105Y380530D01*
X402521Y376706D01*
X399594Y373779D01*
X395770Y372195D01*
X391630Y372195D01*
G37*
%LPD*%
%LPC*%
G36*
X599439Y244989D02*
X599439Y244989D01*
X599439Y255251D01*
X599954Y255170D01*
X601906Y254535D01*
X603735Y253603D01*
X605395Y252397D01*
X606847Y250945D01*
X608053Y249285D01*
X608985Y247456D01*
X609620Y245504D01*
X609701Y244989D01*
X599439Y244989D01*
G37*
%LPD*%
%LPC*%
G36*
X584099Y244989D02*
X584099Y244989D01*
X584180Y245504D01*
X584815Y247456D01*
X585747Y249285D01*
X586953Y250945D01*
X588405Y252397D01*
X590065Y253603D01*
X591894Y254535D01*
X593846Y255170D01*
X594361Y255251D01*
X594361Y244989D01*
X584099Y244989D01*
G37*
%LPD*%
%LPC*%
G36*
X599439Y239911D02*
X599439Y239911D01*
X609701Y239911D01*
X609620Y239396D01*
X608985Y237444D01*
X608053Y235615D01*
X606847Y233955D01*
X605395Y232503D01*
X603735Y231297D01*
X601906Y230365D01*
X599954Y229730D01*
X599439Y229649D01*
X599439Y239911D01*
G37*
%LPD*%
%LPC*%
G36*
X593846Y229730D02*
X593846Y229730D01*
X591894Y230365D01*
X590065Y231297D01*
X588405Y232503D01*
X586953Y233955D01*
X585747Y235615D01*
X584815Y237444D01*
X584180Y239396D01*
X584099Y239911D01*
X594361Y239911D01*
X594361Y229649D01*
X593846Y229730D01*
G37*
%LPD*%
%LPC*%
G36*
X459699Y53299D02*
X459699Y53299D01*
X459699Y61723D01*
X461724Y61723D01*
X468123Y55324D01*
X468123Y53299D01*
X459699Y53299D01*
G37*
%LPD*%
%LPC*%
G36*
X471677Y53299D02*
X471677Y53299D01*
X471677Y55324D01*
X478076Y61723D01*
X480101Y61723D01*
X480101Y53299D01*
X471677Y53299D01*
G37*
%LPD*%
%LPC*%
G36*
X459699Y39877D02*
X459699Y39877D01*
X459699Y48301D01*
X468123Y48301D01*
X468123Y46276D01*
X461724Y39877D01*
X459699Y39877D01*
G37*
%LPD*%
%LPC*%
G36*
X478076Y39877D02*
X478076Y39877D01*
X471677Y46276D01*
X471677Y48301D01*
X480101Y48301D01*
X480101Y39877D01*
X478076Y39877D01*
G37*
%LPD*%
%LPC*%
G36*
X446531Y446531D02*
X446531Y446531D01*
X446531Y453645D01*
X448288Y453645D01*
X453645Y448288D01*
X453645Y446531D01*
X446531Y446531D01*
G37*
%LPD*%
%LPC*%
G36*
X510031Y446531D02*
X510031Y446531D01*
X510031Y453645D01*
X511788Y453645D01*
X517145Y448288D01*
X517145Y446531D01*
X510031Y446531D01*
G37*
%LPD*%
%LPC*%
G36*
X498855Y446531D02*
X498855Y446531D01*
X498855Y448288D01*
X504212Y453645D01*
X505969Y453645D01*
X505969Y446531D01*
X498855Y446531D01*
G37*
%LPD*%
%LPC*%
G36*
X435355Y446531D02*
X435355Y446531D01*
X435355Y448288D01*
X440712Y453645D01*
X442469Y453645D01*
X442469Y446531D01*
X435355Y446531D01*
G37*
%LPD*%
%LPC*%
G36*
X446531Y435355D02*
X446531Y435355D01*
X446531Y442469D01*
X453645Y442469D01*
X453645Y440712D01*
X448288Y435355D01*
X446531Y435355D01*
G37*
%LPD*%
%LPC*%
G36*
X510031Y435355D02*
X510031Y435355D01*
X510031Y442469D01*
X517145Y442469D01*
X517145Y440712D01*
X511788Y435355D01*
X510031Y435355D01*
G37*
%LPD*%
%LPC*%
G36*
X504212Y435355D02*
X504212Y435355D01*
X498855Y440712D01*
X498855Y442469D01*
X505969Y442469D01*
X505969Y435355D01*
X504212Y435355D01*
G37*
%LPD*%
%LPC*%
G36*
X440712Y435355D02*
X440712Y435355D01*
X435355Y440712D01*
X435355Y442469D01*
X442469Y442469D01*
X442469Y435355D01*
X440712Y435355D01*
G37*
%LPD*%
%LPC*%
G36*
X382999Y230599D02*
X382999Y230599D01*
X382999Y237477D01*
X383126Y237457D01*
X384486Y237015D01*
X385759Y236367D01*
X386916Y235526D01*
X387926Y234516D01*
X388767Y233359D01*
X389415Y232086D01*
X389857Y230726D01*
X389877Y230599D01*
X382999Y230599D01*
G37*
%LPD*%
%LPC*%
G36*
X332199Y230599D02*
X332199Y230599D01*
X332199Y237477D01*
X332326Y237457D01*
X333686Y237015D01*
X334959Y236367D01*
X336116Y235526D01*
X337126Y234516D01*
X337967Y233359D01*
X338615Y232086D01*
X339057Y230726D01*
X339077Y230599D01*
X332199Y230599D01*
G37*
%LPD*%
%LPC*%
G36*
X321323Y230599D02*
X321323Y230599D01*
X321343Y230726D01*
X321785Y232086D01*
X322433Y233359D01*
X323274Y234516D01*
X324284Y235526D01*
X325441Y236367D01*
X326714Y237015D01*
X328074Y237457D01*
X328201Y237477D01*
X328201Y230599D01*
X321323Y230599D01*
G37*
%LPD*%
%LPC*%
G36*
X372123Y230599D02*
X372123Y230599D01*
X372143Y230726D01*
X372585Y232086D01*
X373233Y233359D01*
X374074Y234516D01*
X375084Y235526D01*
X376241Y236367D01*
X377514Y237015D01*
X378874Y237457D01*
X379001Y237477D01*
X379001Y230599D01*
X372123Y230599D01*
G37*
%LPD*%
%LPC*%
G36*
X332199Y226601D02*
X332199Y226601D01*
X339077Y226601D01*
X339057Y226474D01*
X338615Y225114D01*
X337967Y223841D01*
X337126Y222684D01*
X336116Y221674D01*
X334959Y220833D01*
X333686Y220185D01*
X332326Y219743D01*
X332199Y219723D01*
X332199Y226601D01*
G37*
%LPD*%
%LPC*%
G36*
X382999Y226601D02*
X382999Y226601D01*
X389877Y226601D01*
X389857Y226474D01*
X389415Y225114D01*
X388767Y223841D01*
X387926Y222684D01*
X386916Y221674D01*
X385759Y220833D01*
X384486Y220185D01*
X383126Y219743D01*
X382999Y219723D01*
X382999Y226601D01*
G37*
%LPD*%
%LPC*%
G36*
X328074Y219743D02*
X328074Y219743D01*
X326714Y220185D01*
X325441Y220833D01*
X324284Y221674D01*
X323274Y222684D01*
X322433Y223841D01*
X321785Y225114D01*
X321343Y226474D01*
X321323Y226601D01*
X328201Y226601D01*
X328201Y219723D01*
X328074Y219743D01*
G37*
%LPD*%
%LPC*%
G36*
X378874Y219743D02*
X378874Y219743D01*
X377514Y220185D01*
X376241Y220833D01*
X375084Y221674D01*
X374074Y222684D01*
X373233Y223841D01*
X372585Y225114D01*
X372143Y226474D01*
X372123Y226601D01*
X379001Y226601D01*
X379001Y219723D01*
X378874Y219743D01*
G37*
%LPD*%
%LPC*%
G36*
X319399Y384499D02*
X319399Y384499D01*
X319399Y391277D01*
X320091Y391139D01*
X321707Y390470D01*
X323161Y389498D01*
X324398Y388261D01*
X325370Y386807D01*
X326039Y385191D01*
X326177Y384499D01*
X319399Y384499D01*
G37*
%LPD*%
%LPC*%
G36*
X596899Y242449D02*
X596899Y242449D01*
X596899Y242451D01*
X596901Y242451D01*
X596901Y242449D01*
X596899Y242449D01*
G37*
%LPD*%
D10*
X266700Y303200D03*
D11*
X292100Y303200D03*
X317500Y303200D03*
X342900Y303200D03*
X368300Y303200D03*
X393700Y303200D03*
X419100Y303200D03*
X419100Y382600D03*
X393700Y382600D03*
X368300Y382600D03*
X342900Y382600D03*
X317500Y382600D03*
X292100Y382600D03*
X266700Y382600D03*
D12*
X596900Y317500D03*
X572000Y292500D03*
X596900Y242450D03*
X572000Y192400D03*
X596900Y167400D03*
X546900Y242450D03*
X697200Y267450D03*
X697200Y217450D03*
D13*
X647200Y167400D03*
X647200Y317500D03*
D14*
X330200Y152400D03*
D15*
X355600Y152400D03*
X381000Y152400D03*
X406400Y152400D03*
X406400Y228600D03*
X381000Y228600D03*
X355600Y228600D03*
X330200Y228600D03*
D16*
X584200Y533400D03*
X558800Y50800D03*
X609600Y533400D03*
X635000Y533400D03*
X660400Y533400D03*
X685800Y533400D03*
X558800Y533400D03*
X533400Y533400D03*
X508000Y533400D03*
X467360Y533400D03*
X441960Y533400D03*
X416560Y533400D03*
X391160Y533400D03*
X365760Y533400D03*
X340360Y533400D03*
X314960Y533400D03*
X289560Y533400D03*
X584200Y50800D03*
X609600Y50800D03*
X635000Y50800D03*
X660400Y50800D03*
X685800Y50800D03*
X508000Y50800D03*
X482600Y50800D03*
X457200Y50800D03*
X431800Y50800D03*
X406400Y50800D03*
X381000Y50800D03*
X264160Y533400D03*
X238760Y533400D03*
X355600Y50800D03*
X330200Y50800D03*
D17*
X393700Y444500D03*
X444500Y444500D03*
X508000Y444500D03*
X584200Y444500D03*
D18*
X443484Y443484D02*
X405384Y443484D01*
X353568Y391668D01*
X326136Y391668D01*
X318516Y384048D01*
X443484Y443484D02*
X444500Y444500D01*
X318516Y384048D02*
X317500Y382600D01*
X565404Y242316D02*
X595884Y242316D01*
X565404Y242316D02*
X475488Y152400D01*
X595884Y242316D02*
X596900Y242450D01*
X316992Y303276D02*
X316992Y320040D01*
X257556Y379476D01*
X257556Y387096D01*
X393192Y522732D01*
X573024Y522732D01*
X583692Y533400D01*
X317500Y303200D02*
X316992Y303276D01*
X583692Y533400D02*
X584200Y533400D01*
X342900Y152400D02*
X330200Y152400D01*
X342900Y152400D02*
X469392Y278892D01*
X577596Y278892D01*
X611124Y312420D01*
X611124Y531876D01*
X609600Y533400D01*
X393192Y152400D02*
X381000Y152400D01*
X393192Y152400D02*
X516636Y275844D01*
X591312Y275844D01*
X626364Y310896D01*
X626364Y525780D01*
X633984Y533400D01*
X635000Y533400D01*
X278892Y382524D02*
X266700Y382524D01*
X278892Y382524D02*
X342900Y318516D01*
X595884Y318516D01*
X266700Y382524D02*
X266700Y382600D01*
X595884Y318516D02*
X596900Y317500D01*
X304800Y382524D02*
X292608Y382524D01*
X304800Y382524D02*
X313944Y373380D01*
X333756Y373380D01*
X342900Y382524D01*
X292608Y382524D02*
X292100Y382600D01*
X342900Y382524D02*
X342900Y382600D01*
X355600Y152400D02*
X367284Y152400D01*
X376428Y143256D01*
X396240Y143256D01*
X405384Y152400D01*
X406400Y152400D01*
X513588Y259080D02*
X557784Y259080D01*
X513588Y259080D02*
X406908Y152400D01*
X406400Y152400D01*
D19*
X557784Y259080D03*
M02*
