G04 EAGLE Gerber RS-274X export*
G75*
%MOMM*%
%FSLAX34Y34*%
%LPD*%
%INTop Copper*%
%IPPOS*%
%AMOC8*
5,1,8,0,0,1.08239X$1,22.5*%
G01*
%ADD10R,1.268000X1.268000*%
%ADD11C,1.268000*%
%ADD12C,2.100000*%
%ADD13C,3.585000*%
%ADD14R,1.308000X1.308000*%
%ADD15C,1.308000*%
%ADD16P,1.814519X8X22.500000*%
%ADD17P,1.429621X8X22.500000*%
%ADD18C,0.152400*%
%ADD19C,0.756400*%

G36*
X324148Y36340D02*
X324148Y36340D01*
X324287Y36353D01*
X324306Y36360D01*
X324326Y36363D01*
X324455Y36414D01*
X324586Y36461D01*
X324603Y36472D01*
X324622Y36480D01*
X324734Y36561D01*
X324850Y36639D01*
X324863Y36655D01*
X324879Y36666D01*
X324968Y36774D01*
X325060Y36878D01*
X325069Y36896D01*
X325082Y36911D01*
X325141Y37037D01*
X325205Y37161D01*
X325209Y37181D01*
X325218Y37199D01*
X325244Y37335D01*
X325274Y37471D01*
X325274Y37492D01*
X325277Y37511D01*
X325269Y37650D01*
X325265Y37789D01*
X325259Y37809D01*
X325258Y37829D01*
X325215Y37961D01*
X325176Y38095D01*
X325166Y38112D01*
X325160Y38131D01*
X325085Y38249D01*
X325015Y38369D01*
X324996Y38390D01*
X324989Y38400D01*
X324974Y38414D01*
X324908Y38489D01*
X317753Y45644D01*
X317753Y55956D01*
X325044Y63247D01*
X335356Y63247D01*
X342003Y56600D01*
X342097Y56527D01*
X342186Y56448D01*
X342222Y56430D01*
X342254Y56405D01*
X342363Y56357D01*
X342469Y56303D01*
X342508Y56295D01*
X342546Y56279D01*
X342663Y56260D01*
X342779Y56234D01*
X342820Y56235D01*
X342860Y56229D01*
X342978Y56240D01*
X343097Y56243D01*
X343136Y56255D01*
X343176Y56258D01*
X343289Y56299D01*
X343403Y56332D01*
X343438Y56352D01*
X343476Y56366D01*
X343574Y56433D01*
X343677Y56493D01*
X343722Y56533D01*
X343739Y56545D01*
X343752Y56560D01*
X343798Y56600D01*
X350444Y63247D01*
X360756Y63247D01*
X367403Y56600D01*
X367497Y56527D01*
X367586Y56448D01*
X367622Y56430D01*
X367654Y56405D01*
X367763Y56357D01*
X367869Y56303D01*
X367908Y56295D01*
X367946Y56279D01*
X368063Y56260D01*
X368179Y56234D01*
X368220Y56235D01*
X368260Y56229D01*
X368378Y56240D01*
X368497Y56243D01*
X368536Y56255D01*
X368576Y56258D01*
X368689Y56299D01*
X368803Y56332D01*
X368838Y56352D01*
X368876Y56366D01*
X368974Y56433D01*
X369077Y56493D01*
X369122Y56533D01*
X369139Y56545D01*
X369152Y56560D01*
X369198Y56600D01*
X375844Y63247D01*
X386156Y63247D01*
X392803Y56600D01*
X392897Y56527D01*
X392986Y56448D01*
X393022Y56430D01*
X393054Y56405D01*
X393163Y56357D01*
X393269Y56303D01*
X393308Y56295D01*
X393346Y56279D01*
X393463Y56260D01*
X393579Y56234D01*
X393620Y56235D01*
X393660Y56229D01*
X393778Y56240D01*
X393897Y56243D01*
X393936Y56255D01*
X393976Y56258D01*
X394089Y56299D01*
X394203Y56332D01*
X394238Y56352D01*
X394276Y56366D01*
X394374Y56433D01*
X394477Y56493D01*
X394522Y56533D01*
X394539Y56545D01*
X394552Y56560D01*
X394598Y56600D01*
X401244Y63247D01*
X411556Y63247D01*
X418203Y56600D01*
X418297Y56527D01*
X418386Y56448D01*
X418422Y56430D01*
X418454Y56405D01*
X418563Y56357D01*
X418669Y56303D01*
X418708Y56295D01*
X418746Y56279D01*
X418863Y56260D01*
X418979Y56234D01*
X419020Y56235D01*
X419060Y56229D01*
X419178Y56240D01*
X419297Y56243D01*
X419336Y56255D01*
X419376Y56258D01*
X419489Y56299D01*
X419603Y56332D01*
X419638Y56352D01*
X419676Y56366D01*
X419774Y56433D01*
X419877Y56493D01*
X419922Y56533D01*
X419939Y56545D01*
X419952Y56560D01*
X419998Y56600D01*
X426644Y63247D01*
X436956Y63247D01*
X444365Y55837D01*
X444385Y55782D01*
X444396Y55766D01*
X444404Y55747D01*
X444485Y55634D01*
X444563Y55519D01*
X444579Y55506D01*
X444590Y55489D01*
X444698Y55401D01*
X444802Y55309D01*
X444820Y55300D01*
X444835Y55287D01*
X444961Y55227D01*
X445085Y55164D01*
X445105Y55160D01*
X445123Y55151D01*
X445259Y55125D01*
X445395Y55095D01*
X445416Y55095D01*
X445435Y55091D01*
X445574Y55100D01*
X445713Y55104D01*
X445733Y55110D01*
X445753Y55111D01*
X445885Y55154D01*
X446019Y55193D01*
X446036Y55203D01*
X446055Y55209D01*
X446173Y55284D01*
X446293Y55354D01*
X446314Y55373D01*
X446324Y55379D01*
X446338Y55394D01*
X446413Y55461D01*
X452676Y61723D01*
X454701Y61723D01*
X454701Y52030D01*
X454716Y51912D01*
X454723Y51793D01*
X454735Y51755D01*
X454741Y51715D01*
X454784Y51604D01*
X454821Y51491D01*
X454843Y51457D01*
X454858Y51419D01*
X454927Y51323D01*
X454991Y51222D01*
X455021Y51194D01*
X455044Y51162D01*
X455136Y51086D01*
X455223Y51004D01*
X455258Y50985D01*
X455289Y50959D01*
X455397Y50908D01*
X455501Y50851D01*
X455541Y50841D01*
X455577Y50823D01*
X455684Y50803D01*
X455654Y50799D01*
X455544Y50755D01*
X455431Y50719D01*
X455396Y50697D01*
X455359Y50682D01*
X455262Y50612D01*
X455162Y50549D01*
X455134Y50519D01*
X455101Y50495D01*
X455025Y50404D01*
X454944Y50317D01*
X454924Y50282D01*
X454899Y50250D01*
X454848Y50143D01*
X454790Y50038D01*
X454780Y49999D01*
X454763Y49963D01*
X454741Y49846D01*
X454711Y49730D01*
X454707Y49670D01*
X454703Y49650D01*
X454705Y49630D01*
X454701Y49570D01*
X454701Y39877D01*
X452676Y39877D01*
X446413Y46139D01*
X446323Y46210D01*
X446298Y46234D01*
X446284Y46241D01*
X446197Y46313D01*
X446178Y46322D01*
X446162Y46334D01*
X446034Y46390D01*
X445909Y46449D01*
X445889Y46453D01*
X445870Y46461D01*
X445732Y46483D01*
X445596Y46509D01*
X445576Y46507D01*
X445556Y46511D01*
X445417Y46498D01*
X445279Y46489D01*
X445260Y46483D01*
X445240Y46481D01*
X445108Y46434D01*
X444977Y46391D01*
X444959Y46380D01*
X444940Y46373D01*
X444825Y46295D01*
X444708Y46221D01*
X444694Y46206D01*
X444677Y46195D01*
X444585Y46090D01*
X444490Y45989D01*
X444480Y45971D01*
X444467Y45956D01*
X444403Y45832D01*
X444365Y45763D01*
X437092Y38489D01*
X437007Y38380D01*
X436918Y38273D01*
X436909Y38254D01*
X436897Y38238D01*
X436841Y38110D01*
X436782Y37985D01*
X436779Y37965D01*
X436770Y37946D01*
X436749Y37808D01*
X436723Y37672D01*
X436724Y37652D01*
X436721Y37632D01*
X436734Y37493D01*
X436742Y37355D01*
X436749Y37336D01*
X436750Y37316D01*
X436798Y37184D01*
X436840Y37053D01*
X436851Y37035D01*
X436858Y37016D01*
X436936Y36901D01*
X437011Y36784D01*
X437025Y36770D01*
X437037Y36753D01*
X437141Y36661D01*
X437242Y36566D01*
X437260Y36556D01*
X437275Y36543D01*
X437399Y36479D01*
X437521Y36412D01*
X437540Y36407D01*
X437558Y36398D01*
X437694Y36368D01*
X437829Y36333D01*
X437857Y36331D01*
X437869Y36328D01*
X437889Y36329D01*
X437989Y36323D01*
X501811Y36323D01*
X501948Y36340D01*
X502087Y36353D01*
X502106Y36360D01*
X502126Y36363D01*
X502255Y36414D01*
X502386Y36461D01*
X502403Y36472D01*
X502422Y36480D01*
X502534Y36561D01*
X502650Y36639D01*
X502663Y36655D01*
X502679Y36666D01*
X502768Y36774D01*
X502860Y36878D01*
X502869Y36896D01*
X502882Y36911D01*
X502941Y37037D01*
X503005Y37161D01*
X503009Y37181D01*
X503018Y37199D01*
X503044Y37335D01*
X503074Y37471D01*
X503074Y37492D01*
X503077Y37511D01*
X503069Y37650D01*
X503065Y37789D01*
X503059Y37809D01*
X503058Y37829D01*
X503015Y37961D01*
X502976Y38095D01*
X502966Y38112D01*
X502960Y38131D01*
X502885Y38249D01*
X502815Y38369D01*
X502796Y38390D01*
X502789Y38400D01*
X502774Y38414D01*
X502708Y38489D01*
X495435Y45763D01*
X495415Y45818D01*
X495404Y45834D01*
X495396Y45853D01*
X495315Y45966D01*
X495237Y46081D01*
X495221Y46094D01*
X495210Y46111D01*
X495102Y46199D01*
X494998Y46291D01*
X494980Y46300D01*
X494965Y46313D01*
X494839Y46373D01*
X494715Y46436D01*
X494695Y46440D01*
X494677Y46449D01*
X494541Y46475D01*
X494405Y46505D01*
X494384Y46505D01*
X494365Y46509D01*
X494226Y46500D01*
X494087Y46496D01*
X494067Y46490D01*
X494047Y46489D01*
X493915Y46446D01*
X493781Y46407D01*
X493764Y46397D01*
X493745Y46391D01*
X493627Y46316D01*
X493507Y46246D01*
X493486Y46227D01*
X493476Y46221D01*
X493462Y46206D01*
X493387Y46139D01*
X487124Y39877D01*
X485099Y39877D01*
X485099Y49570D01*
X485084Y49688D01*
X485077Y49807D01*
X485064Y49845D01*
X485059Y49885D01*
X485016Y49996D01*
X484979Y50109D01*
X484957Y50143D01*
X484942Y50181D01*
X484873Y50277D01*
X484809Y50378D01*
X484779Y50406D01*
X484756Y50438D01*
X484664Y50514D01*
X484577Y50596D01*
X484542Y50615D01*
X484511Y50641D01*
X484403Y50692D01*
X484299Y50749D01*
X484259Y50759D01*
X484223Y50777D01*
X484116Y50797D01*
X484146Y50801D01*
X484256Y50845D01*
X484369Y50881D01*
X484404Y50903D01*
X484441Y50918D01*
X484537Y50988D01*
X484638Y51051D01*
X484666Y51081D01*
X484699Y51105D01*
X484775Y51196D01*
X484856Y51283D01*
X484876Y51318D01*
X484901Y51350D01*
X484952Y51457D01*
X485010Y51562D01*
X485020Y51601D01*
X485037Y51637D01*
X485059Y51754D01*
X485089Y51870D01*
X485093Y51930D01*
X485097Y51950D01*
X485095Y51970D01*
X485099Y52030D01*
X485099Y61723D01*
X487124Y61723D01*
X493387Y55461D01*
X493496Y55375D01*
X493603Y55287D01*
X493622Y55278D01*
X493638Y55266D01*
X493766Y55210D01*
X493891Y55151D01*
X493911Y55147D01*
X493930Y55139D01*
X494068Y55117D01*
X494204Y55091D01*
X494224Y55093D01*
X494244Y55089D01*
X494383Y55102D01*
X494521Y55111D01*
X494540Y55117D01*
X494560Y55119D01*
X494692Y55166D01*
X494823Y55209D01*
X494841Y55220D01*
X494860Y55227D01*
X494975Y55305D01*
X495092Y55379D01*
X495106Y55394D01*
X495123Y55405D01*
X495215Y55510D01*
X495310Y55611D01*
X495320Y55629D01*
X495333Y55644D01*
X495397Y55768D01*
X495435Y55837D01*
X502844Y63247D01*
X513156Y63247D01*
X520447Y55956D01*
X520447Y45644D01*
X513292Y38489D01*
X513207Y38380D01*
X513118Y38273D01*
X513109Y38254D01*
X513097Y38238D01*
X513041Y38110D01*
X512982Y37985D01*
X512979Y37965D01*
X512970Y37946D01*
X512949Y37808D01*
X512923Y37672D01*
X512924Y37652D01*
X512921Y37632D01*
X512934Y37493D01*
X512942Y37355D01*
X512949Y37336D01*
X512950Y37316D01*
X512998Y37184D01*
X513040Y37053D01*
X513051Y37035D01*
X513058Y37016D01*
X513136Y36901D01*
X513211Y36784D01*
X513225Y36770D01*
X513237Y36753D01*
X513341Y36661D01*
X513442Y36566D01*
X513460Y36556D01*
X513475Y36543D01*
X513599Y36479D01*
X513721Y36412D01*
X513740Y36407D01*
X513758Y36398D01*
X513894Y36368D01*
X514029Y36333D01*
X514057Y36331D01*
X514069Y36328D01*
X514089Y36329D01*
X514189Y36323D01*
X552611Y36323D01*
X552748Y36340D01*
X552887Y36353D01*
X552906Y36360D01*
X552926Y36363D01*
X553055Y36414D01*
X553186Y36461D01*
X553203Y36472D01*
X553222Y36480D01*
X553334Y36561D01*
X553450Y36639D01*
X553463Y36655D01*
X553479Y36666D01*
X553568Y36774D01*
X553660Y36878D01*
X553669Y36896D01*
X553682Y36911D01*
X553741Y37037D01*
X553805Y37161D01*
X553809Y37181D01*
X553818Y37199D01*
X553844Y37335D01*
X553874Y37471D01*
X553874Y37492D01*
X553877Y37511D01*
X553869Y37650D01*
X553865Y37789D01*
X553859Y37809D01*
X553858Y37829D01*
X553815Y37961D01*
X553776Y38095D01*
X553766Y38112D01*
X553760Y38131D01*
X553685Y38249D01*
X553615Y38369D01*
X553596Y38390D01*
X553589Y38400D01*
X553574Y38414D01*
X553508Y38489D01*
X546353Y45644D01*
X546353Y55956D01*
X553644Y63247D01*
X563956Y63247D01*
X570603Y56600D01*
X570697Y56527D01*
X570786Y56448D01*
X570822Y56430D01*
X570854Y56405D01*
X570963Y56357D01*
X571069Y56303D01*
X571108Y56295D01*
X571146Y56279D01*
X571263Y56260D01*
X571379Y56234D01*
X571420Y56235D01*
X571460Y56229D01*
X571578Y56240D01*
X571697Y56243D01*
X571736Y56255D01*
X571776Y56258D01*
X571889Y56299D01*
X572003Y56332D01*
X572038Y56352D01*
X572076Y56366D01*
X572174Y56433D01*
X572277Y56493D01*
X572322Y56533D01*
X572339Y56545D01*
X572352Y56560D01*
X572398Y56600D01*
X579044Y63247D01*
X589356Y63247D01*
X596002Y56600D01*
X596097Y56527D01*
X596186Y56448D01*
X596222Y56430D01*
X596254Y56405D01*
X596363Y56358D01*
X596469Y56303D01*
X596508Y56295D01*
X596546Y56279D01*
X596663Y56260D01*
X596779Y56234D01*
X596820Y56235D01*
X596860Y56229D01*
X596978Y56240D01*
X597097Y56243D01*
X597136Y56255D01*
X597176Y56258D01*
X597289Y56299D01*
X597403Y56332D01*
X597437Y56352D01*
X597476Y56366D01*
X597574Y56433D01*
X597677Y56493D01*
X597722Y56533D01*
X597739Y56545D01*
X597752Y56560D01*
X597797Y56600D01*
X604444Y63247D01*
X614756Y63247D01*
X621402Y56600D01*
X621497Y56527D01*
X621586Y56448D01*
X621622Y56430D01*
X621654Y56405D01*
X621763Y56358D01*
X621869Y56303D01*
X621908Y56295D01*
X621946Y56279D01*
X622063Y56260D01*
X622179Y56234D01*
X622220Y56235D01*
X622260Y56229D01*
X622378Y56240D01*
X622497Y56243D01*
X622536Y56255D01*
X622576Y56258D01*
X622689Y56299D01*
X622803Y56332D01*
X622837Y56352D01*
X622876Y56366D01*
X622974Y56433D01*
X623077Y56493D01*
X623122Y56533D01*
X623139Y56545D01*
X623152Y56560D01*
X623197Y56600D01*
X629844Y63247D01*
X640156Y63247D01*
X646802Y56600D01*
X646897Y56527D01*
X646986Y56448D01*
X647022Y56430D01*
X647054Y56405D01*
X647163Y56358D01*
X647269Y56303D01*
X647308Y56295D01*
X647346Y56279D01*
X647463Y56260D01*
X647579Y56234D01*
X647620Y56235D01*
X647660Y56229D01*
X647778Y56240D01*
X647897Y56243D01*
X647936Y56255D01*
X647976Y56258D01*
X648089Y56299D01*
X648203Y56332D01*
X648237Y56352D01*
X648276Y56366D01*
X648374Y56433D01*
X648477Y56493D01*
X648522Y56533D01*
X648539Y56545D01*
X648552Y56560D01*
X648597Y56600D01*
X655244Y63247D01*
X665556Y63247D01*
X672202Y56600D01*
X672297Y56527D01*
X672386Y56448D01*
X672422Y56430D01*
X672454Y56405D01*
X672563Y56358D01*
X672669Y56303D01*
X672708Y56295D01*
X672746Y56279D01*
X672863Y56260D01*
X672979Y56234D01*
X673020Y56235D01*
X673060Y56229D01*
X673178Y56240D01*
X673297Y56243D01*
X673336Y56255D01*
X673376Y56258D01*
X673489Y56299D01*
X673603Y56332D01*
X673637Y56352D01*
X673676Y56366D01*
X673774Y56433D01*
X673877Y56493D01*
X673922Y56533D01*
X673939Y56545D01*
X673952Y56560D01*
X673997Y56600D01*
X680644Y63247D01*
X690956Y63247D01*
X698247Y55956D01*
X698247Y54451D01*
X698255Y54382D01*
X698254Y54312D01*
X698275Y54225D01*
X698287Y54136D01*
X698312Y54071D01*
X698329Y54003D01*
X698371Y53924D01*
X698404Y53840D01*
X698445Y53784D01*
X698477Y53722D01*
X698538Y53655D01*
X698590Y53583D01*
X698644Y53538D01*
X698691Y53487D01*
X698766Y53437D01*
X698835Y53380D01*
X698899Y53350D01*
X698957Y53312D01*
X699042Y53283D01*
X699123Y53245D01*
X699192Y53231D01*
X699258Y53209D01*
X699347Y53202D01*
X699435Y53185D01*
X699505Y53189D01*
X699575Y53184D01*
X699663Y53199D01*
X699753Y53204D01*
X699819Y53226D01*
X699888Y53238D01*
X699970Y53275D01*
X700055Y53303D01*
X700114Y53340D01*
X700178Y53369D01*
X700248Y53425D01*
X700324Y53473D01*
X700372Y53524D01*
X700426Y53567D01*
X700481Y53639D01*
X700542Y53704D01*
X700576Y53765D01*
X700618Y53821D01*
X700689Y53966D01*
X701940Y56987D01*
X725306Y80353D01*
X725366Y80431D01*
X725434Y80503D01*
X725463Y80556D01*
X725500Y80604D01*
X725540Y80695D01*
X725588Y80781D01*
X725603Y80840D01*
X725627Y80896D01*
X725642Y80994D01*
X725667Y81089D01*
X725673Y81189D01*
X725677Y81210D01*
X725675Y81222D01*
X725677Y81250D01*
X725677Y401350D01*
X725665Y401448D01*
X725662Y401547D01*
X725645Y401605D01*
X725637Y401665D01*
X725601Y401758D01*
X725573Y401853D01*
X725543Y401905D01*
X725520Y401961D01*
X725462Y402041D01*
X725412Y402127D01*
X725346Y402202D01*
X725334Y402218D01*
X725324Y402226D01*
X725306Y402247D01*
X701940Y425613D01*
X700277Y429627D01*
X700277Y527211D01*
X700260Y527348D01*
X700247Y527487D01*
X700240Y527506D01*
X700237Y527526D01*
X700186Y527655D01*
X700139Y527786D01*
X700128Y527803D01*
X700120Y527822D01*
X700039Y527934D01*
X699961Y528050D01*
X699945Y528063D01*
X699934Y528079D01*
X699826Y528168D01*
X699722Y528260D01*
X699704Y528269D01*
X699689Y528282D01*
X699563Y528341D01*
X699439Y528405D01*
X699419Y528409D01*
X699401Y528418D01*
X699265Y528444D01*
X699129Y528474D01*
X699108Y528474D01*
X699089Y528477D01*
X698950Y528469D01*
X698811Y528465D01*
X698791Y528459D01*
X698771Y528458D01*
X698639Y528415D01*
X698505Y528376D01*
X698488Y528366D01*
X698469Y528360D01*
X698351Y528285D01*
X698231Y528215D01*
X698210Y528196D01*
X698200Y528189D01*
X698186Y528174D01*
X698111Y528108D01*
X690956Y520953D01*
X680644Y520953D01*
X673997Y527600D01*
X673903Y527673D01*
X673814Y527752D01*
X673778Y527770D01*
X673746Y527795D01*
X673637Y527843D01*
X673531Y527897D01*
X673492Y527905D01*
X673454Y527921D01*
X673337Y527940D01*
X673221Y527966D01*
X673180Y527965D01*
X673140Y527971D01*
X673022Y527960D01*
X672903Y527957D01*
X672864Y527945D01*
X672824Y527942D01*
X672711Y527901D01*
X672597Y527868D01*
X672562Y527848D01*
X672524Y527834D01*
X672426Y527767D01*
X672323Y527707D01*
X672278Y527667D01*
X672261Y527655D01*
X672248Y527640D01*
X672202Y527600D01*
X665556Y520953D01*
X655244Y520953D01*
X648597Y527600D01*
X648503Y527673D01*
X648414Y527752D01*
X648378Y527770D01*
X648346Y527795D01*
X648237Y527843D01*
X648131Y527897D01*
X648092Y527905D01*
X648054Y527921D01*
X647937Y527940D01*
X647821Y527966D01*
X647780Y527965D01*
X647740Y527971D01*
X647622Y527960D01*
X647503Y527957D01*
X647464Y527945D01*
X647424Y527942D01*
X647311Y527901D01*
X647197Y527868D01*
X647162Y527848D01*
X647124Y527834D01*
X647026Y527767D01*
X646923Y527707D01*
X646878Y527667D01*
X646861Y527655D01*
X646848Y527640D01*
X646802Y527600D01*
X640156Y520953D01*
X629844Y520953D01*
X623197Y527600D01*
X623103Y527673D01*
X623014Y527752D01*
X622978Y527770D01*
X622946Y527795D01*
X622837Y527843D01*
X622731Y527897D01*
X622692Y527905D01*
X622654Y527921D01*
X622537Y527940D01*
X622421Y527966D01*
X622380Y527965D01*
X622340Y527971D01*
X622222Y527960D01*
X622103Y527957D01*
X622064Y527945D01*
X622024Y527942D01*
X621911Y527901D01*
X621797Y527868D01*
X621762Y527848D01*
X621724Y527834D01*
X621626Y527767D01*
X621523Y527707D01*
X621478Y527667D01*
X621461Y527655D01*
X621448Y527640D01*
X621402Y527600D01*
X614756Y520953D01*
X604444Y520953D01*
X597797Y527600D01*
X597703Y527673D01*
X597614Y527752D01*
X597578Y527770D01*
X597546Y527795D01*
X597437Y527843D01*
X597331Y527897D01*
X597292Y527905D01*
X597254Y527921D01*
X597137Y527940D01*
X597021Y527966D01*
X596980Y527965D01*
X596940Y527971D01*
X596822Y527960D01*
X596703Y527957D01*
X596664Y527945D01*
X596624Y527942D01*
X596511Y527901D01*
X596397Y527868D01*
X596362Y527848D01*
X596324Y527834D01*
X596226Y527767D01*
X596123Y527707D01*
X596078Y527667D01*
X596061Y527655D01*
X596048Y527640D01*
X596002Y527600D01*
X589356Y520953D01*
X579044Y520953D01*
X572398Y527600D01*
X572303Y527673D01*
X572214Y527752D01*
X572178Y527770D01*
X572146Y527795D01*
X572037Y527842D01*
X571931Y527897D01*
X571892Y527905D01*
X571854Y527921D01*
X571737Y527940D01*
X571621Y527966D01*
X571580Y527965D01*
X571540Y527971D01*
X571422Y527960D01*
X571303Y527957D01*
X571264Y527945D01*
X571224Y527942D01*
X571111Y527901D01*
X570997Y527868D01*
X570963Y527848D01*
X570924Y527834D01*
X570826Y527767D01*
X570723Y527707D01*
X570678Y527667D01*
X570661Y527655D01*
X570648Y527640D01*
X570603Y527600D01*
X563956Y520953D01*
X553608Y520953D01*
X553582Y520967D01*
X553550Y520991D01*
X553441Y521039D01*
X553335Y521093D01*
X553295Y521102D01*
X553258Y521118D01*
X553141Y521136D01*
X553025Y521162D01*
X552984Y521161D01*
X552944Y521167D01*
X552826Y521156D01*
X552707Y521153D01*
X552668Y521141D01*
X552628Y521138D01*
X552516Y521097D01*
X552401Y521064D01*
X552366Y521044D01*
X552328Y521030D01*
X552230Y520963D01*
X552127Y520903D01*
X552082Y520863D01*
X552065Y520852D01*
X552052Y520836D01*
X552006Y520796D01*
X424666Y393456D01*
X424636Y393417D01*
X424599Y393383D01*
X424538Y393292D01*
X424471Y393205D01*
X424451Y393159D01*
X424424Y393118D01*
X424388Y393014D01*
X424345Y392913D01*
X424337Y392864D01*
X424321Y392817D01*
X424312Y392708D01*
X424295Y392599D01*
X424300Y392549D01*
X424296Y392500D01*
X424314Y392392D01*
X424325Y392282D01*
X424342Y392235D01*
X424350Y392186D01*
X424395Y392086D01*
X424432Y391983D01*
X424460Y391942D01*
X424481Y391896D01*
X424549Y391811D01*
X424611Y391720D01*
X424648Y391687D01*
X424679Y391648D01*
X424767Y391582D01*
X424849Y391509D01*
X424894Y391487D01*
X424933Y391457D01*
X424981Y391433D01*
X427921Y388494D01*
X429505Y384670D01*
X429505Y380530D01*
X427921Y376706D01*
X424994Y373779D01*
X421170Y372195D01*
X417030Y372195D01*
X413206Y373779D01*
X410279Y376706D01*
X408695Y380530D01*
X408695Y384670D01*
X410279Y388494D01*
X413206Y391421D01*
X413490Y391538D01*
X413515Y391553D01*
X413543Y391562D01*
X413653Y391631D01*
X413766Y391696D01*
X413787Y391716D01*
X413812Y391732D01*
X413901Y391827D01*
X413994Y391917D01*
X414010Y391942D01*
X414030Y391964D01*
X414093Y392077D01*
X414161Y392188D01*
X414169Y392216D01*
X414184Y392242D01*
X414216Y392368D01*
X414254Y392492D01*
X414256Y392522D01*
X414263Y392550D01*
X414273Y392711D01*
X414273Y395676D01*
X415008Y397450D01*
X536345Y518787D01*
X536430Y518896D01*
X536518Y519003D01*
X536527Y519022D01*
X536539Y519038D01*
X536595Y519166D01*
X536654Y519291D01*
X536658Y519311D01*
X536666Y519330D01*
X536688Y519468D01*
X536714Y519604D01*
X536712Y519624D01*
X536716Y519644D01*
X536703Y519783D01*
X536694Y519921D01*
X536688Y519940D01*
X536686Y519960D01*
X536639Y520092D01*
X536596Y520223D01*
X536585Y520241D01*
X536578Y520260D01*
X536500Y520375D01*
X536426Y520492D01*
X536411Y520506D01*
X536400Y520523D01*
X536296Y520615D01*
X536194Y520710D01*
X536176Y520720D01*
X536161Y520733D01*
X536038Y520796D01*
X535916Y520864D01*
X535896Y520869D01*
X535878Y520878D01*
X535742Y520908D01*
X535608Y520943D01*
X535580Y520945D01*
X535568Y520948D01*
X535547Y520947D01*
X535447Y520953D01*
X528244Y520953D01*
X521598Y527600D01*
X521503Y527673D01*
X521414Y527752D01*
X521378Y527770D01*
X521346Y527795D01*
X521237Y527842D01*
X521131Y527897D01*
X521092Y527905D01*
X521054Y527921D01*
X520937Y527940D01*
X520821Y527966D01*
X520780Y527965D01*
X520740Y527971D01*
X520622Y527960D01*
X520503Y527957D01*
X520464Y527945D01*
X520424Y527942D01*
X520311Y527901D01*
X520197Y527868D01*
X520163Y527848D01*
X520124Y527834D01*
X520026Y527767D01*
X519923Y527707D01*
X519878Y527667D01*
X519861Y527655D01*
X519848Y527640D01*
X519803Y527600D01*
X513156Y520953D01*
X502844Y520953D01*
X495553Y528244D01*
X495553Y538556D01*
X502708Y545711D01*
X502793Y545820D01*
X502882Y545927D01*
X502891Y545946D01*
X502903Y545962D01*
X502959Y546090D01*
X503018Y546215D01*
X503021Y546235D01*
X503030Y546254D01*
X503051Y546392D01*
X503077Y546528D01*
X503076Y546548D01*
X503079Y546568D01*
X503066Y546707D01*
X503058Y546845D01*
X503051Y546864D01*
X503050Y546884D01*
X503002Y547016D01*
X502960Y547147D01*
X502949Y547165D01*
X502942Y547184D01*
X502864Y547299D01*
X502789Y547416D01*
X502775Y547430D01*
X502763Y547447D01*
X502659Y547539D01*
X502558Y547634D01*
X502540Y547644D01*
X502525Y547657D01*
X502401Y547721D01*
X502279Y547788D01*
X502260Y547793D01*
X502242Y547802D01*
X502106Y547832D01*
X501971Y547867D01*
X501943Y547869D01*
X501931Y547872D01*
X501911Y547871D01*
X501811Y547877D01*
X473549Y547877D01*
X473412Y547860D01*
X473273Y547847D01*
X473254Y547840D01*
X473234Y547837D01*
X473105Y547786D01*
X472974Y547739D01*
X472957Y547728D01*
X472938Y547720D01*
X472826Y547639D01*
X472710Y547561D01*
X472697Y547545D01*
X472681Y547534D01*
X472592Y547426D01*
X472500Y547322D01*
X472491Y547304D01*
X472478Y547289D01*
X472419Y547163D01*
X472355Y547039D01*
X472351Y547019D01*
X472342Y547001D01*
X472316Y546865D01*
X472286Y546729D01*
X472286Y546708D01*
X472283Y546689D01*
X472291Y546550D01*
X472295Y546411D01*
X472301Y546391D01*
X472302Y546371D01*
X472345Y546239D01*
X472384Y546105D01*
X472394Y546088D01*
X472400Y546069D01*
X472475Y545951D01*
X472545Y545831D01*
X472564Y545810D01*
X472571Y545800D01*
X472586Y545786D01*
X472652Y545711D01*
X479807Y538556D01*
X479807Y528244D01*
X472516Y520953D01*
X462204Y520953D01*
X455558Y527600D01*
X455463Y527673D01*
X455374Y527752D01*
X455338Y527770D01*
X455306Y527795D01*
X455197Y527842D01*
X455091Y527897D01*
X455052Y527905D01*
X455014Y527921D01*
X454897Y527940D01*
X454781Y527966D01*
X454740Y527965D01*
X454700Y527971D01*
X454582Y527960D01*
X454463Y527957D01*
X454424Y527945D01*
X454384Y527942D01*
X454271Y527901D01*
X454157Y527868D01*
X454123Y527848D01*
X454084Y527834D01*
X453986Y527767D01*
X453883Y527707D01*
X453838Y527667D01*
X453821Y527655D01*
X453808Y527640D01*
X453763Y527600D01*
X447116Y520953D01*
X436804Y520953D01*
X430158Y527600D01*
X430063Y527673D01*
X429974Y527752D01*
X429938Y527770D01*
X429906Y527795D01*
X429797Y527842D01*
X429691Y527897D01*
X429652Y527905D01*
X429614Y527921D01*
X429497Y527940D01*
X429381Y527966D01*
X429340Y527965D01*
X429300Y527971D01*
X429182Y527960D01*
X429063Y527957D01*
X429024Y527945D01*
X428984Y527942D01*
X428871Y527901D01*
X428757Y527868D01*
X428723Y527848D01*
X428684Y527834D01*
X428586Y527767D01*
X428483Y527707D01*
X428438Y527667D01*
X428421Y527655D01*
X428408Y527640D01*
X428363Y527600D01*
X421716Y520953D01*
X411404Y520953D01*
X404757Y527600D01*
X404663Y527673D01*
X404574Y527752D01*
X404538Y527770D01*
X404506Y527795D01*
X404397Y527843D01*
X404291Y527897D01*
X404252Y527905D01*
X404214Y527921D01*
X404097Y527940D01*
X403981Y527966D01*
X403940Y527965D01*
X403900Y527971D01*
X403782Y527960D01*
X403663Y527957D01*
X403624Y527945D01*
X403584Y527942D01*
X403471Y527901D01*
X403357Y527868D01*
X403322Y527848D01*
X403284Y527834D01*
X403186Y527767D01*
X403083Y527707D01*
X403038Y527667D01*
X403021Y527655D01*
X403008Y527640D01*
X402962Y527600D01*
X396316Y520953D01*
X392669Y520953D01*
X392571Y520941D01*
X392472Y520938D01*
X392414Y520921D01*
X392354Y520913D01*
X392261Y520877D01*
X392166Y520849D01*
X392114Y520819D01*
X392058Y520796D01*
X391978Y520738D01*
X391892Y520688D01*
X391817Y520622D01*
X391800Y520610D01*
X391793Y520600D01*
X391772Y520582D01*
X338954Y467764D01*
X338894Y467686D01*
X338826Y467614D01*
X338797Y467561D01*
X338760Y467513D01*
X338720Y467422D01*
X338672Y467336D01*
X338657Y467277D01*
X338633Y467221D01*
X338618Y467123D01*
X338593Y467028D01*
X338587Y466928D01*
X338583Y466907D01*
X338585Y466895D01*
X338583Y466867D01*
X338583Y393973D01*
X338589Y393924D01*
X338587Y393874D01*
X338609Y393767D01*
X338623Y393658D01*
X338641Y393611D01*
X338651Y393563D01*
X338699Y393464D01*
X338740Y393362D01*
X338769Y393322D01*
X338791Y393277D01*
X338862Y393194D01*
X338926Y393105D01*
X338965Y393073D01*
X338997Y393035D01*
X339087Y392972D01*
X339171Y392902D01*
X339216Y392881D01*
X339257Y392852D01*
X339360Y392813D01*
X339459Y392766D01*
X339508Y392757D01*
X339554Y392739D01*
X339664Y392727D01*
X339771Y392707D01*
X339821Y392710D01*
X339870Y392704D01*
X339979Y392720D01*
X340089Y392726D01*
X340136Y392742D01*
X340185Y392749D01*
X340338Y392801D01*
X340830Y393005D01*
X344970Y393005D01*
X348794Y391421D01*
X350968Y389246D01*
X351046Y389186D01*
X351118Y389118D01*
X351171Y389089D01*
X351219Y389052D01*
X351310Y389012D01*
X351397Y388964D01*
X351455Y388949D01*
X351511Y388925D01*
X351609Y388910D01*
X351705Y388885D01*
X351805Y388879D01*
X351825Y388875D01*
X351838Y388877D01*
X351866Y388875D01*
X354091Y388875D01*
X354189Y388887D01*
X354288Y388890D01*
X354346Y388907D01*
X354407Y388915D01*
X354499Y388951D01*
X354594Y388979D01*
X354646Y389009D01*
X354702Y389032D01*
X354782Y389090D01*
X354868Y389140D01*
X354943Y389206D01*
X354960Y389218D01*
X354967Y389228D01*
X354988Y389246D01*
X359966Y394224D01*
X361502Y395760D01*
X363276Y396495D01*
X383047Y396495D01*
X383145Y396507D01*
X383244Y396510D01*
X383302Y396527D01*
X383362Y396535D01*
X383455Y396571D01*
X383550Y396599D01*
X383602Y396629D01*
X383658Y396652D01*
X383738Y396710D01*
X383824Y396760D01*
X383899Y396826D01*
X383916Y396838D01*
X383923Y396848D01*
X383944Y396866D01*
X387994Y400916D01*
X388054Y400994D01*
X388122Y401066D01*
X388151Y401119D01*
X388188Y401167D01*
X388228Y401258D01*
X388276Y401344D01*
X388291Y401403D01*
X388315Y401459D01*
X388330Y401557D01*
X388355Y401652D01*
X388361Y401752D01*
X388365Y401773D01*
X388363Y401785D01*
X388365Y401813D01*
X388365Y434221D01*
X388353Y434319D01*
X388350Y434418D01*
X388333Y434477D01*
X388325Y434537D01*
X388289Y434629D01*
X388261Y434724D01*
X388231Y434776D01*
X388208Y434832D01*
X388150Y434912D01*
X388100Y434998D01*
X388034Y435073D01*
X388022Y435090D01*
X388012Y435097D01*
X387994Y435119D01*
X383031Y440081D01*
X383031Y448919D01*
X389281Y455169D01*
X398119Y455169D01*
X404369Y448919D01*
X404369Y440081D01*
X398390Y434103D01*
X398330Y434024D01*
X398262Y433952D01*
X398233Y433899D01*
X398196Y433851D01*
X398156Y433760D01*
X398108Y433674D01*
X398093Y433615D01*
X398069Y433560D01*
X398054Y433462D01*
X398029Y433366D01*
X398023Y433266D01*
X398019Y433245D01*
X398021Y433233D01*
X398019Y433205D01*
X398019Y398328D01*
X397284Y396554D01*
X395674Y394944D01*
X395643Y394905D01*
X395607Y394871D01*
X395546Y394780D01*
X395479Y394693D01*
X395459Y394647D01*
X395432Y394606D01*
X395396Y394502D01*
X395353Y394401D01*
X395345Y394352D01*
X395329Y394305D01*
X395320Y394195D01*
X395303Y394087D01*
X395307Y394037D01*
X395304Y393988D01*
X395322Y393879D01*
X395333Y393770D01*
X395349Y393723D01*
X395358Y393674D01*
X395403Y393574D01*
X395440Y393471D01*
X395468Y393430D01*
X395489Y393384D01*
X395557Y393299D01*
X395619Y393208D01*
X395656Y393175D01*
X395687Y393136D01*
X395775Y393070D01*
X395857Y392997D01*
X395901Y392975D01*
X395941Y392945D01*
X396086Y392874D01*
X399594Y391421D01*
X402521Y388494D01*
X404105Y384670D01*
X404105Y380530D01*
X402521Y376706D01*
X399594Y373779D01*
X399211Y373621D01*
X399168Y373596D01*
X399121Y373579D01*
X399030Y373518D01*
X398935Y373463D01*
X398899Y373429D01*
X398858Y373401D01*
X398785Y373318D01*
X398706Y373242D01*
X398681Y373200D01*
X398648Y373162D01*
X398598Y373064D01*
X398540Y372971D01*
X398526Y372923D01*
X398503Y372879D01*
X398479Y372772D01*
X398447Y372667D01*
X398444Y372617D01*
X398433Y372569D01*
X398437Y372459D01*
X398431Y372349D01*
X398442Y372301D01*
X398443Y372251D01*
X398474Y372145D01*
X398496Y372038D01*
X398518Y371993D01*
X398531Y371945D01*
X398587Y371851D01*
X398635Y371752D01*
X398668Y371714D01*
X398693Y371671D01*
X398799Y371551D01*
X422252Y348098D01*
X422330Y348038D01*
X422402Y347970D01*
X422455Y347941D01*
X422503Y347904D01*
X422594Y347864D01*
X422680Y347816D01*
X422739Y347801D01*
X422795Y347777D01*
X422893Y347762D01*
X422988Y347737D01*
X423088Y347731D01*
X423109Y347727D01*
X423121Y347729D01*
X423149Y347727D01*
X522168Y347727D01*
X523942Y346992D01*
X564802Y306132D01*
X564826Y306113D01*
X564845Y306091D01*
X564951Y306016D01*
X565054Y305937D01*
X565081Y305925D01*
X565105Y305908D01*
X565226Y305862D01*
X565346Y305810D01*
X565375Y305806D01*
X565402Y305795D01*
X565531Y305781D01*
X565660Y305760D01*
X565689Y305763D01*
X565718Y305760D01*
X565847Y305778D01*
X565976Y305790D01*
X566004Y305800D01*
X566033Y305804D01*
X566186Y305856D01*
X569103Y307065D01*
X574897Y307065D01*
X577110Y306148D01*
X577158Y306135D01*
X577203Y306114D01*
X577311Y306093D01*
X577417Y306064D01*
X577467Y306063D01*
X577516Y306054D01*
X577625Y306061D01*
X577735Y306059D01*
X577783Y306071D01*
X577833Y306074D01*
X577937Y306107D01*
X578044Y306133D01*
X578088Y306156D01*
X578135Y306172D01*
X578228Y306230D01*
X578325Y306282D01*
X578362Y306315D01*
X578404Y306342D01*
X578479Y306422D01*
X578561Y306496D01*
X578588Y306537D01*
X578622Y306573D01*
X578675Y306670D01*
X578735Y306761D01*
X578752Y306809D01*
X578776Y306852D01*
X578803Y306958D01*
X578839Y307062D01*
X578843Y307112D01*
X578855Y307160D01*
X578865Y307321D01*
X578865Y434221D01*
X578853Y434319D01*
X578850Y434418D01*
X578833Y434477D01*
X578825Y434537D01*
X578789Y434629D01*
X578761Y434724D01*
X578731Y434776D01*
X578708Y434832D01*
X578650Y434913D01*
X578600Y434998D01*
X578534Y435073D01*
X578522Y435090D01*
X578512Y435098D01*
X578494Y435119D01*
X573531Y440081D01*
X573531Y448919D01*
X579781Y455169D01*
X588619Y455169D01*
X594869Y448919D01*
X594869Y440081D01*
X588890Y434103D01*
X588830Y434024D01*
X588762Y433952D01*
X588733Y433899D01*
X588696Y433851D01*
X588656Y433760D01*
X588608Y433674D01*
X588593Y433615D01*
X588569Y433560D01*
X588554Y433462D01*
X588529Y433366D01*
X588523Y433266D01*
X588519Y433245D01*
X588521Y433233D01*
X588519Y433205D01*
X588519Y331693D01*
X588525Y331643D01*
X588523Y331594D01*
X588545Y331486D01*
X588559Y331377D01*
X588577Y331331D01*
X588587Y331282D01*
X588635Y331183D01*
X588676Y331081D01*
X588705Y331041D01*
X588727Y330997D01*
X588798Y330913D01*
X588862Y330824D01*
X588901Y330792D01*
X588933Y330755D01*
X589023Y330691D01*
X589107Y330621D01*
X589152Y330600D01*
X589193Y330572D01*
X589296Y330533D01*
X589395Y330486D01*
X589444Y330476D01*
X589490Y330459D01*
X589600Y330447D01*
X589707Y330426D01*
X589757Y330429D01*
X589806Y330424D01*
X589915Y330439D01*
X590025Y330446D01*
X590072Y330461D01*
X590121Y330468D01*
X590274Y330520D01*
X594003Y332065D01*
X599797Y332065D01*
X605150Y329847D01*
X609247Y325750D01*
X611465Y320397D01*
X611465Y314603D01*
X609247Y309250D01*
X605150Y305153D01*
X599797Y302935D01*
X594003Y302935D01*
X590274Y304480D01*
X590226Y304493D01*
X590181Y304514D01*
X590073Y304535D01*
X589967Y304564D01*
X589917Y304565D01*
X589868Y304574D01*
X589759Y304567D01*
X589649Y304569D01*
X589601Y304557D01*
X589551Y304554D01*
X589447Y304520D01*
X589340Y304495D01*
X589296Y304472D01*
X589249Y304456D01*
X589156Y304397D01*
X589059Y304346D01*
X589022Y304313D01*
X588980Y304286D01*
X588905Y304206D01*
X588823Y304132D01*
X588796Y304091D01*
X588762Y304054D01*
X588709Y303958D01*
X588649Y303866D01*
X588632Y303819D01*
X588608Y303776D01*
X588581Y303670D01*
X588545Y303566D01*
X588541Y303516D01*
X588529Y303468D01*
X588519Y303307D01*
X588519Y302753D01*
X588531Y302655D01*
X588534Y302556D01*
X588551Y302498D01*
X588559Y302438D01*
X588595Y302345D01*
X588623Y302250D01*
X588653Y302198D01*
X588676Y302142D01*
X588734Y302062D01*
X588784Y301976D01*
X588850Y301901D01*
X588862Y301884D01*
X588872Y301877D01*
X588890Y301856D01*
X589308Y301438D01*
X590043Y299664D01*
X590043Y285552D01*
X589308Y283778D01*
X566002Y260472D01*
X565942Y260394D01*
X565874Y260322D01*
X565845Y260269D01*
X565808Y260221D01*
X565768Y260130D01*
X565720Y260044D01*
X565705Y259985D01*
X565681Y259929D01*
X565666Y259831D01*
X565641Y259736D01*
X565635Y259636D01*
X565631Y259615D01*
X565633Y259603D01*
X565631Y259575D01*
X565631Y257519D01*
X564436Y254635D01*
X563071Y253270D01*
X562998Y253176D01*
X562919Y253087D01*
X562901Y253051D01*
X562876Y253019D01*
X562829Y252909D01*
X562775Y252803D01*
X562766Y252764D01*
X562750Y252727D01*
X562731Y252609D01*
X562705Y252493D01*
X562706Y252453D01*
X562700Y252413D01*
X562711Y252294D01*
X562715Y252175D01*
X562726Y252136D01*
X562730Y252096D01*
X562770Y251984D01*
X562803Y251870D01*
X562824Y251835D01*
X562837Y251797D01*
X562904Y251698D01*
X562965Y251596D01*
X563004Y251551D01*
X563016Y251534D01*
X563031Y251520D01*
X563071Y251475D01*
X599976Y214570D01*
X600711Y212796D01*
X600711Y182434D01*
X600714Y182405D01*
X600712Y182376D01*
X600734Y182247D01*
X600751Y182119D01*
X600761Y182091D01*
X600766Y182062D01*
X600820Y181944D01*
X600868Y181823D01*
X600885Y181799D01*
X600897Y181772D01*
X600978Y181671D01*
X601054Y181566D01*
X601077Y181547D01*
X601096Y181524D01*
X601199Y181446D01*
X601299Y181363D01*
X601326Y181350D01*
X601350Y181333D01*
X601494Y181262D01*
X605150Y179747D01*
X609247Y175650D01*
X611465Y170297D01*
X611465Y164503D01*
X609247Y159150D01*
X605150Y155053D01*
X599797Y152835D01*
X594003Y152835D01*
X588650Y155053D01*
X584553Y159150D01*
X582335Y164503D01*
X582335Y170297D01*
X584553Y175650D01*
X588650Y179747D01*
X590274Y180420D01*
X590299Y180435D01*
X590327Y180444D01*
X590437Y180513D01*
X590550Y180578D01*
X590571Y180598D01*
X590596Y180614D01*
X590685Y180709D01*
X590778Y180799D01*
X590794Y180824D01*
X590814Y180846D01*
X590877Y180959D01*
X590945Y181070D01*
X590953Y181098D01*
X590968Y181124D01*
X591000Y181250D01*
X591038Y181374D01*
X591040Y181403D01*
X591047Y181432D01*
X591057Y181593D01*
X591057Y209311D01*
X591045Y209409D01*
X591042Y209508D01*
X591025Y209566D01*
X591017Y209626D01*
X590981Y209719D01*
X590953Y209814D01*
X590923Y209866D01*
X590900Y209922D01*
X590842Y210002D01*
X590792Y210088D01*
X590726Y210163D01*
X590714Y210180D01*
X590704Y210187D01*
X590686Y210208D01*
X562772Y238122D01*
X562732Y238153D01*
X562699Y238190D01*
X562607Y238250D01*
X562520Y238317D01*
X562475Y238337D01*
X562433Y238364D01*
X562329Y238400D01*
X562229Y238444D01*
X562179Y238451D01*
X562133Y238467D01*
X562023Y238476D01*
X561914Y238493D01*
X561865Y238489D01*
X561815Y238493D01*
X561707Y238474D01*
X561598Y238464D01*
X561551Y238447D01*
X561502Y238438D01*
X561402Y238393D01*
X561299Y238356D01*
X561257Y238328D01*
X561212Y238308D01*
X561126Y238239D01*
X561035Y238177D01*
X561003Y238140D01*
X560964Y238109D01*
X560898Y238021D01*
X560825Y237939D01*
X560802Y237895D01*
X560772Y237855D01*
X560702Y237711D01*
X559247Y234200D01*
X555150Y230103D01*
X549797Y227885D01*
X547053Y227885D01*
X546915Y227868D01*
X546777Y227855D01*
X546758Y227848D01*
X546737Y227845D01*
X546608Y227794D01*
X546477Y227747D01*
X546461Y227736D01*
X546442Y227728D01*
X546329Y227647D01*
X546214Y227569D01*
X546201Y227553D01*
X546184Y227542D01*
X546096Y227434D01*
X546004Y227330D01*
X545995Y227312D01*
X545982Y227297D01*
X545922Y227171D01*
X545859Y227047D01*
X545855Y227027D01*
X545846Y227009D01*
X545820Y226873D01*
X545789Y226737D01*
X545790Y226716D01*
X545786Y226697D01*
X545795Y226558D01*
X545799Y226419D01*
X545805Y226399D01*
X545806Y226379D01*
X545849Y226247D01*
X545888Y226113D01*
X545898Y226096D01*
X545904Y226077D01*
X545978Y225959D01*
X546049Y225839D01*
X546068Y225818D01*
X546074Y225808D01*
X546089Y225794D01*
X546155Y225719D01*
X565538Y206336D01*
X565561Y206318D01*
X565580Y206296D01*
X565686Y206221D01*
X565789Y206141D01*
X565816Y206129D01*
X565840Y206112D01*
X565962Y206066D01*
X566081Y206015D01*
X566110Y206010D01*
X566138Y206000D01*
X566267Y205985D01*
X566395Y205965D01*
X566425Y205968D01*
X566454Y205964D01*
X566582Y205983D01*
X566712Y205995D01*
X566740Y206005D01*
X566769Y206009D01*
X566921Y206061D01*
X569103Y206965D01*
X574897Y206965D01*
X580250Y204747D01*
X584347Y200650D01*
X586565Y195297D01*
X586565Y189503D01*
X584347Y184150D01*
X580250Y180053D01*
X574897Y177835D01*
X569103Y177835D01*
X563750Y180053D01*
X559653Y184150D01*
X557435Y189503D01*
X557435Y195297D01*
X558719Y198395D01*
X558726Y198424D01*
X558740Y198450D01*
X558768Y198577D01*
X558803Y198702D01*
X558803Y198732D01*
X558809Y198760D01*
X558806Y198890D01*
X558808Y199020D01*
X558801Y199049D01*
X558800Y199078D01*
X558764Y199203D01*
X558733Y199329D01*
X558720Y199355D01*
X558711Y199384D01*
X558645Y199496D01*
X558585Y199610D01*
X558565Y199632D01*
X558550Y199658D01*
X558443Y199779D01*
X534820Y223402D01*
X534742Y223462D01*
X534670Y223530D01*
X534617Y223559D01*
X534569Y223596D01*
X534478Y223636D01*
X534392Y223684D01*
X534333Y223699D01*
X534277Y223723D01*
X534179Y223738D01*
X534084Y223763D01*
X533984Y223769D01*
X533963Y223773D01*
X533951Y223771D01*
X533923Y223773D01*
X416727Y223773D01*
X416698Y223770D01*
X416668Y223772D01*
X416541Y223750D01*
X416412Y223733D01*
X416384Y223723D01*
X416355Y223717D01*
X416237Y223664D01*
X416116Y223616D01*
X416092Y223599D01*
X416065Y223587D01*
X415964Y223506D01*
X415859Y223430D01*
X415840Y223407D01*
X415817Y223388D01*
X415739Y223285D01*
X415656Y223185D01*
X415643Y223158D01*
X415626Y223134D01*
X415555Y222990D01*
X415390Y222593D01*
X412407Y219610D01*
X408509Y217995D01*
X404291Y217995D01*
X400393Y219610D01*
X397410Y222593D01*
X395795Y226491D01*
X395795Y230709D01*
X397410Y234607D01*
X398125Y235323D01*
X398210Y235432D01*
X398299Y235539D01*
X398308Y235558D01*
X398320Y235574D01*
X398375Y235702D01*
X398435Y235827D01*
X398438Y235847D01*
X398446Y235866D01*
X398468Y236004D01*
X398494Y236140D01*
X398493Y236160D01*
X398496Y236180D01*
X398483Y236319D01*
X398475Y236457D01*
X398468Y236476D01*
X398467Y236496D01*
X398419Y236627D01*
X398377Y236759D01*
X398366Y236777D01*
X398359Y236796D01*
X398281Y236910D01*
X398206Y237028D01*
X398192Y237042D01*
X398180Y237059D01*
X398076Y237151D01*
X397975Y237246D01*
X397957Y237256D01*
X397942Y237269D01*
X397818Y237332D01*
X397696Y237400D01*
X397677Y237405D01*
X397659Y237414D01*
X397523Y237444D01*
X397388Y237479D01*
X397360Y237481D01*
X397348Y237484D01*
X397328Y237483D01*
X397228Y237489D01*
X388017Y237489D01*
X387879Y237472D01*
X387741Y237459D01*
X387722Y237452D01*
X387702Y237449D01*
X387572Y237398D01*
X387441Y237351D01*
X387425Y237340D01*
X387406Y237332D01*
X387294Y237251D01*
X387178Y237173D01*
X387165Y237157D01*
X387148Y237146D01*
X387060Y237038D01*
X386968Y236934D01*
X386959Y236916D01*
X386946Y236901D01*
X386886Y236775D01*
X386823Y236651D01*
X386819Y236631D01*
X386810Y236613D01*
X386784Y236476D01*
X386754Y236341D01*
X386754Y236320D01*
X386750Y236301D01*
X386759Y236162D01*
X386763Y236023D01*
X386769Y236003D01*
X386770Y235983D01*
X386813Y235851D01*
X386852Y235717D01*
X386862Y235700D01*
X386868Y235681D01*
X386942Y235563D01*
X387013Y235443D01*
X387032Y235422D01*
X387038Y235412D01*
X387053Y235398D01*
X387120Y235323D01*
X387926Y234516D01*
X388767Y233359D01*
X389415Y232086D01*
X389857Y230726D01*
X389877Y230599D01*
X381730Y230599D01*
X381612Y230584D01*
X381493Y230577D01*
X381455Y230564D01*
X381415Y230559D01*
X381304Y230516D01*
X381191Y230479D01*
X381157Y230457D01*
X381119Y230442D01*
X381023Y230373D01*
X380922Y230309D01*
X380894Y230279D01*
X380862Y230256D01*
X380786Y230164D01*
X380704Y230077D01*
X380685Y230042D01*
X380659Y230011D01*
X380608Y229903D01*
X380551Y229799D01*
X380541Y229759D01*
X380523Y229723D01*
X380501Y229606D01*
X380471Y229491D01*
X380467Y229431D01*
X380464Y229411D01*
X380465Y229390D01*
X380461Y229330D01*
X380461Y229139D01*
X380270Y229139D01*
X380152Y229124D01*
X380033Y229117D01*
X379995Y229104D01*
X379954Y229099D01*
X379844Y229055D01*
X379731Y229019D01*
X379696Y228997D01*
X379659Y228982D01*
X379562Y228912D01*
X379462Y228849D01*
X379434Y228819D01*
X379401Y228795D01*
X379325Y228704D01*
X379244Y228617D01*
X379224Y228582D01*
X379199Y228550D01*
X379148Y228443D01*
X379090Y228338D01*
X379080Y228299D01*
X379063Y228263D01*
X379041Y228146D01*
X379011Y228030D01*
X379007Y227970D01*
X379003Y227950D01*
X379005Y227930D01*
X379001Y227870D01*
X379001Y219723D01*
X378874Y219743D01*
X377514Y220185D01*
X376241Y220833D01*
X375084Y221674D01*
X374074Y222684D01*
X373233Y223841D01*
X372716Y224856D01*
X372647Y224957D01*
X372538Y225119D01*
X372537Y225119D01*
X372411Y225231D01*
X372299Y225329D01*
X372299Y225330D01*
X372154Y225404D01*
X372016Y225474D01*
X372015Y225474D01*
X371846Y225512D01*
X371706Y225544D01*
X371705Y225544D01*
X371569Y225539D01*
X371388Y225534D01*
X371387Y225534D01*
X371281Y225503D01*
X371082Y225446D01*
X371082Y225445D01*
X370954Y225370D01*
X370808Y225284D01*
X370808Y225283D01*
X370688Y225178D01*
X370018Y224508D01*
X368244Y223773D01*
X365927Y223773D01*
X365898Y223770D01*
X365868Y223772D01*
X365741Y223750D01*
X365612Y223733D01*
X365584Y223723D01*
X365555Y223717D01*
X365437Y223664D01*
X365316Y223616D01*
X365292Y223599D01*
X365265Y223587D01*
X365164Y223506D01*
X365059Y223430D01*
X365040Y223407D01*
X365017Y223388D01*
X364939Y223285D01*
X364856Y223185D01*
X364843Y223158D01*
X364826Y223134D01*
X364755Y222990D01*
X364590Y222593D01*
X361607Y219610D01*
X357709Y217995D01*
X353491Y217995D01*
X349593Y219610D01*
X346610Y222593D01*
X344995Y226491D01*
X344995Y230709D01*
X346610Y234607D01*
X349593Y237590D01*
X353491Y239205D01*
X357709Y239205D01*
X361607Y237590D01*
X364630Y234567D01*
X364724Y234494D01*
X364813Y234415D01*
X364849Y234397D01*
X364881Y234372D01*
X364991Y234325D01*
X365097Y234271D01*
X365136Y234262D01*
X365173Y234246D01*
X365291Y234227D01*
X365407Y234201D01*
X365447Y234202D01*
X365487Y234196D01*
X365606Y234207D01*
X365725Y234211D01*
X365764Y234222D01*
X365804Y234226D01*
X365916Y234266D01*
X366030Y234299D01*
X366065Y234320D01*
X366103Y234333D01*
X366202Y234400D01*
X366304Y234461D01*
X366350Y234501D01*
X366366Y234512D01*
X366380Y234527D01*
X366425Y234567D01*
X378266Y246408D01*
X380040Y247143D01*
X532231Y247143D01*
X532260Y247146D01*
X532290Y247144D01*
X532418Y247166D01*
X532547Y247183D01*
X532574Y247193D01*
X532603Y247198D01*
X532722Y247252D01*
X532842Y247300D01*
X532866Y247317D01*
X532893Y247329D01*
X532994Y247410D01*
X533100Y247486D01*
X533118Y247509D01*
X533141Y247528D01*
X533220Y247631D01*
X533302Y247731D01*
X533315Y247758D01*
X533333Y247782D01*
X533404Y247926D01*
X534553Y250700D01*
X538650Y254797D01*
X542161Y256252D01*
X542204Y256276D01*
X542250Y256293D01*
X542341Y256355D01*
X542437Y256409D01*
X542472Y256444D01*
X542514Y256472D01*
X542586Y256554D01*
X542665Y256630D01*
X542691Y256673D01*
X542724Y256710D01*
X542774Y256808D01*
X542831Y256902D01*
X542846Y256949D01*
X542869Y256993D01*
X542893Y257101D01*
X542925Y257205D01*
X542927Y257255D01*
X542938Y257304D01*
X542935Y257414D01*
X542940Y257523D01*
X542930Y257572D01*
X542929Y257621D01*
X542898Y257727D01*
X542876Y257835D01*
X542854Y257879D01*
X542840Y257927D01*
X542785Y258021D01*
X542736Y258120D01*
X542704Y258158D01*
X542679Y258201D01*
X542572Y258322D01*
X466240Y334654D01*
X466162Y334714D01*
X466090Y334782D01*
X466037Y334811D01*
X465989Y334848D01*
X465898Y334888D01*
X465812Y334936D01*
X465753Y334951D01*
X465697Y334975D01*
X465599Y334990D01*
X465504Y335015D01*
X465404Y335021D01*
X465383Y335025D01*
X465371Y335023D01*
X465343Y335025D01*
X396804Y335025D01*
X395030Y335760D01*
X353756Y377034D01*
X353717Y377064D01*
X353683Y377101D01*
X353592Y377162D01*
X353505Y377229D01*
X353459Y377249D01*
X353418Y377276D01*
X353314Y377312D01*
X353213Y377355D01*
X353164Y377363D01*
X353117Y377379D01*
X353008Y377388D01*
X352899Y377405D01*
X352849Y377400D01*
X352800Y377404D01*
X352692Y377386D01*
X352582Y377375D01*
X352535Y377358D01*
X352486Y377350D01*
X352386Y377305D01*
X352283Y377268D01*
X352242Y377240D01*
X352196Y377219D01*
X352111Y377151D01*
X352020Y377089D01*
X351987Y377052D01*
X351948Y377021D01*
X351882Y376933D01*
X351809Y376851D01*
X351787Y376806D01*
X351757Y376767D01*
X351733Y376719D01*
X348794Y373779D01*
X348770Y373770D01*
X348727Y373745D01*
X348680Y373728D01*
X348590Y373667D01*
X348494Y373612D01*
X348458Y373577D01*
X348417Y373550D01*
X348345Y373467D01*
X348266Y373391D01*
X348240Y373348D01*
X348207Y373311D01*
X348157Y373213D01*
X348099Y373120D01*
X348085Y373072D01*
X348062Y373028D01*
X348038Y372921D01*
X348006Y372816D01*
X348003Y372766D01*
X347993Y372718D01*
X347996Y372608D01*
X347991Y372498D01*
X348001Y372449D01*
X348002Y372400D01*
X348033Y372294D01*
X348055Y372187D01*
X348077Y372142D01*
X348091Y372094D01*
X348146Y372000D01*
X348195Y371901D01*
X348227Y371863D01*
X348252Y371820D01*
X348359Y371699D01*
X371376Y348682D01*
X372111Y346908D01*
X372111Y313732D01*
X372114Y313702D01*
X372112Y313673D01*
X372134Y313545D01*
X372151Y313416D01*
X372161Y313389D01*
X372166Y313360D01*
X372220Y313241D01*
X372268Y313120D01*
X372285Y313097D01*
X372297Y313070D01*
X372378Y312968D01*
X372454Y312863D01*
X372477Y312844D01*
X372496Y312821D01*
X372599Y312743D01*
X372699Y312660D01*
X372726Y312648D01*
X372750Y312630D01*
X372894Y312559D01*
X374194Y312021D01*
X377121Y309094D01*
X378705Y305270D01*
X378705Y301130D01*
X377121Y297306D01*
X374194Y294379D01*
X370370Y292795D01*
X366230Y292795D01*
X362406Y294379D01*
X359479Y297306D01*
X357895Y301130D01*
X357895Y305270D01*
X359479Y309094D01*
X362086Y311700D01*
X362146Y311778D01*
X362214Y311850D01*
X362243Y311903D01*
X362280Y311951D01*
X362320Y312042D01*
X362368Y312129D01*
X362383Y312187D01*
X362407Y312243D01*
X362422Y312341D01*
X362447Y312437D01*
X362453Y312537D01*
X362457Y312557D01*
X362455Y312570D01*
X362457Y312598D01*
X362457Y343423D01*
X362445Y343521D01*
X362442Y343620D01*
X362425Y343678D01*
X362417Y343738D01*
X362381Y343831D01*
X362353Y343926D01*
X362323Y343978D01*
X362300Y344034D01*
X362242Y344114D01*
X362192Y344200D01*
X362126Y344275D01*
X362114Y344292D01*
X362104Y344299D01*
X362086Y344320D01*
X349893Y356513D01*
X349784Y356598D01*
X349677Y356686D01*
X349658Y356695D01*
X349642Y356707D01*
X349514Y356763D01*
X349389Y356822D01*
X349369Y356826D01*
X349350Y356834D01*
X349212Y356856D01*
X349076Y356882D01*
X349056Y356880D01*
X349036Y356884D01*
X348897Y356871D01*
X348759Y356862D01*
X348740Y356856D01*
X348720Y356854D01*
X348588Y356807D01*
X348457Y356764D01*
X348439Y356753D01*
X348420Y356746D01*
X348305Y356668D01*
X348188Y356594D01*
X348174Y356579D01*
X348157Y356568D01*
X348065Y356464D01*
X347970Y356362D01*
X347960Y356344D01*
X347947Y356329D01*
X347883Y356205D01*
X347816Y356084D01*
X347811Y356064D01*
X347802Y356046D01*
X347772Y355910D01*
X347737Y355776D01*
X347735Y355748D01*
X347732Y355736D01*
X347733Y355715D01*
X347727Y355615D01*
X347727Y313311D01*
X347730Y313281D01*
X347728Y313252D01*
X347750Y313124D01*
X347767Y312995D01*
X347777Y312968D01*
X347782Y312939D01*
X347836Y312820D01*
X347884Y312700D01*
X347901Y312676D01*
X347913Y312649D01*
X347994Y312547D01*
X348070Y312442D01*
X348093Y312423D01*
X348112Y312400D01*
X348215Y312322D01*
X348315Y312239D01*
X348342Y312227D01*
X348366Y312209D01*
X348510Y312138D01*
X348794Y312021D01*
X351721Y309094D01*
X353305Y305270D01*
X353305Y301130D01*
X351721Y297306D01*
X348794Y294379D01*
X344970Y292795D01*
X340830Y292795D01*
X337006Y294379D01*
X334079Y297306D01*
X332495Y301130D01*
X332495Y305270D01*
X334079Y309094D01*
X337006Y312021D01*
X337290Y312138D01*
X337315Y312153D01*
X337343Y312162D01*
X337453Y312231D01*
X337566Y312296D01*
X337587Y312316D01*
X337612Y312332D01*
X337701Y312427D01*
X337794Y312517D01*
X337810Y312542D01*
X337830Y312564D01*
X337893Y312677D01*
X337961Y312788D01*
X337969Y312816D01*
X337984Y312842D01*
X338016Y312968D01*
X338054Y313092D01*
X338056Y313122D01*
X338063Y313150D01*
X338073Y313311D01*
X338073Y363235D01*
X338061Y363333D01*
X338058Y363432D01*
X338041Y363490D01*
X338033Y363550D01*
X337997Y363643D01*
X337969Y363738D01*
X337939Y363790D01*
X337916Y363846D01*
X337858Y363926D01*
X337808Y364012D01*
X337742Y364087D01*
X337730Y364104D01*
X337720Y364111D01*
X337702Y364132D01*
X326616Y375218D01*
X326189Y376248D01*
X326165Y376291D01*
X326148Y376338D01*
X326086Y376429D01*
X326032Y376524D01*
X325997Y376560D01*
X325969Y376601D01*
X325887Y376674D01*
X325811Y376753D01*
X325768Y376779D01*
X325731Y376812D01*
X325633Y376862D01*
X325539Y376919D01*
X325492Y376934D01*
X325448Y376956D01*
X325341Y376980D01*
X325235Y377013D01*
X325186Y377015D01*
X325137Y377026D01*
X325028Y377023D01*
X324918Y377028D01*
X324869Y377018D01*
X324819Y377016D01*
X324714Y376986D01*
X324606Y376964D01*
X324562Y376942D01*
X324514Y376928D01*
X324419Y376872D01*
X324321Y376824D01*
X324283Y376792D01*
X324240Y376766D01*
X324119Y376660D01*
X323161Y375702D01*
X321707Y374730D01*
X320091Y374061D01*
X319399Y373923D01*
X319399Y380701D01*
X324612Y380701D01*
X324730Y380716D01*
X324849Y380723D01*
X324887Y380735D01*
X324928Y380741D01*
X325038Y380784D01*
X325151Y380821D01*
X325186Y380843D01*
X325223Y380858D01*
X325319Y380927D01*
X325420Y380991D01*
X325448Y381021D01*
X325481Y381044D01*
X325557Y381136D01*
X325638Y381223D01*
X325658Y381258D01*
X325683Y381289D01*
X325734Y381397D01*
X325792Y381501D01*
X325802Y381541D01*
X325819Y381577D01*
X325841Y381694D01*
X325871Y381809D01*
X325875Y381869D01*
X325879Y381889D01*
X325877Y381910D01*
X325881Y381970D01*
X325881Y383230D01*
X325866Y383348D01*
X325859Y383467D01*
X325846Y383505D01*
X325841Y383546D01*
X325798Y383656D01*
X325761Y383769D01*
X325739Y383804D01*
X325724Y383841D01*
X325655Y383937D01*
X325591Y384038D01*
X325561Y384066D01*
X325538Y384099D01*
X325446Y384175D01*
X325359Y384256D01*
X325324Y384276D01*
X325293Y384301D01*
X325185Y384352D01*
X325081Y384410D01*
X325041Y384420D01*
X325005Y384437D01*
X324888Y384459D01*
X324773Y384489D01*
X324713Y384493D01*
X324693Y384497D01*
X324672Y384495D01*
X324612Y384499D01*
X319399Y384499D01*
X319399Y391277D01*
X320091Y391139D01*
X321707Y390470D01*
X323161Y389498D01*
X323714Y388945D01*
X323824Y388860D01*
X323931Y388771D01*
X323950Y388762D01*
X323966Y388750D01*
X324094Y388694D01*
X324219Y388635D01*
X324239Y388632D01*
X324258Y388623D01*
X324396Y388601D01*
X324532Y388576D01*
X324552Y388577D01*
X324572Y388574D01*
X324711Y388587D01*
X324849Y388595D01*
X324868Y388601D01*
X324888Y388603D01*
X325019Y388650D01*
X325151Y388693D01*
X325169Y388704D01*
X325188Y388711D01*
X325302Y388789D01*
X325420Y388863D01*
X325434Y388878D01*
X325451Y388890D01*
X325543Y388994D01*
X325638Y389095D01*
X325648Y389113D01*
X325661Y389128D01*
X325724Y389252D01*
X325792Y389374D01*
X325797Y389393D01*
X325806Y389411D01*
X325836Y389547D01*
X325871Y389682D01*
X325873Y389710D01*
X325876Y389722D01*
X325875Y389742D01*
X325881Y389842D01*
X325881Y525216D01*
X326026Y525566D01*
X326044Y525633D01*
X326072Y525697D01*
X326086Y525786D01*
X326110Y525872D01*
X326111Y525942D01*
X326122Y526011D01*
X326114Y526101D01*
X326115Y526190D01*
X326099Y526258D01*
X326092Y526328D01*
X326062Y526412D01*
X326041Y526500D01*
X326008Y526561D01*
X325985Y526627D01*
X325934Y526701D01*
X325892Y526781D01*
X325845Y526832D01*
X325806Y526890D01*
X325739Y526950D01*
X325678Y527016D01*
X325620Y527054D01*
X325568Y527101D01*
X325488Y527141D01*
X325413Y527191D01*
X325346Y527214D01*
X325284Y527245D01*
X325197Y527265D01*
X325112Y527294D01*
X325042Y527300D01*
X324974Y527315D01*
X324884Y527312D01*
X324795Y527319D01*
X324726Y527307D01*
X324656Y527305D01*
X324570Y527280D01*
X324481Y527265D01*
X324418Y527236D01*
X324351Y527217D01*
X324273Y527171D01*
X324191Y527134D01*
X324137Y527091D01*
X324077Y527055D01*
X323956Y526949D01*
X319484Y522477D01*
X317459Y522477D01*
X317459Y532170D01*
X317444Y532288D01*
X317437Y532407D01*
X317424Y532445D01*
X317419Y532485D01*
X317376Y532596D01*
X317339Y532709D01*
X317317Y532743D01*
X317302Y532781D01*
X317233Y532877D01*
X317169Y532978D01*
X317139Y533006D01*
X317116Y533038D01*
X317024Y533114D01*
X316937Y533196D01*
X316902Y533215D01*
X316871Y533241D01*
X316763Y533292D01*
X316659Y533349D01*
X316619Y533359D01*
X316583Y533377D01*
X316476Y533397D01*
X316506Y533401D01*
X316616Y533445D01*
X316729Y533481D01*
X316764Y533503D01*
X316801Y533518D01*
X316897Y533588D01*
X316998Y533651D01*
X317026Y533681D01*
X317059Y533705D01*
X317135Y533796D01*
X317216Y533883D01*
X317236Y533918D01*
X317261Y533950D01*
X317312Y534057D01*
X317370Y534162D01*
X317380Y534201D01*
X317397Y534237D01*
X317419Y534354D01*
X317449Y534470D01*
X317453Y534530D01*
X317457Y534550D01*
X317455Y534570D01*
X317459Y534630D01*
X317459Y544323D01*
X319484Y544323D01*
X325747Y538061D01*
X325856Y537975D01*
X325963Y537887D01*
X325982Y537878D01*
X325998Y537866D01*
X326126Y537810D01*
X326251Y537751D01*
X326271Y537747D01*
X326290Y537739D01*
X326428Y537717D01*
X326564Y537691D01*
X326584Y537693D01*
X326604Y537689D01*
X326743Y537702D01*
X326881Y537711D01*
X326900Y537717D01*
X326920Y537719D01*
X327052Y537766D01*
X327183Y537809D01*
X327201Y537820D01*
X327220Y537827D01*
X327335Y537905D01*
X327452Y537979D01*
X327466Y537994D01*
X327483Y538005D01*
X327575Y538110D01*
X327670Y538211D01*
X327680Y538229D01*
X327693Y538244D01*
X327757Y538368D01*
X327795Y538437D01*
X335068Y545711D01*
X335153Y545820D01*
X335242Y545927D01*
X335251Y545946D01*
X335263Y545962D01*
X335319Y546090D01*
X335378Y546215D01*
X335381Y546235D01*
X335390Y546254D01*
X335411Y546392D01*
X335437Y546528D01*
X335436Y546548D01*
X335439Y546568D01*
X335426Y546707D01*
X335418Y546845D01*
X335411Y546864D01*
X335410Y546884D01*
X335362Y547016D01*
X335320Y547147D01*
X335309Y547165D01*
X335302Y547184D01*
X335224Y547299D01*
X335149Y547416D01*
X335135Y547430D01*
X335123Y547447D01*
X335019Y547539D01*
X334918Y547634D01*
X334900Y547644D01*
X334885Y547657D01*
X334761Y547721D01*
X334639Y547788D01*
X334620Y547793D01*
X334602Y547802D01*
X334466Y547832D01*
X334331Y547867D01*
X334303Y547869D01*
X334291Y547872D01*
X334271Y547871D01*
X334171Y547877D01*
X295749Y547877D01*
X295612Y547860D01*
X295473Y547847D01*
X295454Y547840D01*
X295434Y547837D01*
X295305Y547786D01*
X295174Y547739D01*
X295157Y547728D01*
X295138Y547720D01*
X295026Y547639D01*
X294910Y547561D01*
X294897Y547545D01*
X294881Y547534D01*
X294792Y547426D01*
X294700Y547322D01*
X294691Y547304D01*
X294678Y547289D01*
X294619Y547163D01*
X294555Y547039D01*
X294551Y547019D01*
X294542Y547001D01*
X294516Y546865D01*
X294486Y546729D01*
X294486Y546708D01*
X294483Y546689D01*
X294491Y546550D01*
X294495Y546411D01*
X294501Y546391D01*
X294502Y546371D01*
X294545Y546239D01*
X294584Y546105D01*
X294594Y546088D01*
X294600Y546069D01*
X294675Y545951D01*
X294745Y545831D01*
X294764Y545810D01*
X294771Y545800D01*
X294786Y545786D01*
X294852Y545711D01*
X302125Y538437D01*
X302145Y538382D01*
X302156Y538366D01*
X302164Y538347D01*
X302245Y538234D01*
X302323Y538119D01*
X302339Y538106D01*
X302350Y538089D01*
X302458Y538001D01*
X302562Y537909D01*
X302580Y537900D01*
X302595Y537887D01*
X302721Y537827D01*
X302845Y537764D01*
X302865Y537760D01*
X302883Y537751D01*
X303019Y537725D01*
X303155Y537695D01*
X303176Y537695D01*
X303195Y537691D01*
X303334Y537700D01*
X303473Y537704D01*
X303493Y537710D01*
X303513Y537711D01*
X303645Y537754D01*
X303779Y537793D01*
X303796Y537803D01*
X303815Y537809D01*
X303933Y537884D01*
X304053Y537954D01*
X304074Y537973D01*
X304084Y537979D01*
X304098Y537994D01*
X304173Y538061D01*
X310436Y544323D01*
X312461Y544323D01*
X312461Y534630D01*
X312476Y534512D01*
X312483Y534393D01*
X312495Y534355D01*
X312501Y534315D01*
X312544Y534204D01*
X312581Y534091D01*
X312603Y534057D01*
X312618Y534019D01*
X312687Y533923D01*
X312751Y533822D01*
X312781Y533794D01*
X312804Y533762D01*
X312896Y533686D01*
X312983Y533604D01*
X313018Y533585D01*
X313049Y533559D01*
X313157Y533508D01*
X313261Y533451D01*
X313301Y533441D01*
X313337Y533423D01*
X313444Y533403D01*
X313414Y533399D01*
X313304Y533355D01*
X313191Y533319D01*
X313156Y533297D01*
X313119Y533282D01*
X313022Y533212D01*
X312922Y533149D01*
X312894Y533119D01*
X312861Y533095D01*
X312785Y533004D01*
X312704Y532917D01*
X312684Y532882D01*
X312659Y532850D01*
X312608Y532743D01*
X312550Y532638D01*
X312540Y532599D01*
X312523Y532563D01*
X312501Y532446D01*
X312471Y532330D01*
X312467Y532270D01*
X312463Y532250D01*
X312465Y532230D01*
X312461Y532170D01*
X312461Y522477D01*
X310436Y522477D01*
X304173Y528739D01*
X304064Y528825D01*
X303957Y528913D01*
X303938Y528922D01*
X303922Y528934D01*
X303794Y528990D01*
X303669Y529049D01*
X303649Y529053D01*
X303630Y529061D01*
X303492Y529083D01*
X303356Y529109D01*
X303336Y529107D01*
X303316Y529111D01*
X303177Y529098D01*
X303039Y529089D01*
X303020Y529083D01*
X303000Y529081D01*
X302868Y529034D01*
X302737Y528991D01*
X302719Y528980D01*
X302700Y528973D01*
X302585Y528895D01*
X302468Y528821D01*
X302454Y528806D01*
X302437Y528795D01*
X302345Y528690D01*
X302250Y528589D01*
X302240Y528571D01*
X302227Y528556D01*
X302163Y528432D01*
X302125Y528363D01*
X294716Y520953D01*
X284404Y520953D01*
X277758Y527600D01*
X277663Y527673D01*
X277574Y527752D01*
X277538Y527770D01*
X277506Y527795D01*
X277397Y527842D01*
X277291Y527897D01*
X277252Y527905D01*
X277214Y527921D01*
X277097Y527940D01*
X276981Y527966D01*
X276940Y527965D01*
X276900Y527971D01*
X276782Y527960D01*
X276663Y527957D01*
X276624Y527945D01*
X276584Y527942D01*
X276471Y527901D01*
X276357Y527868D01*
X276323Y527848D01*
X276284Y527834D01*
X276186Y527767D01*
X276083Y527707D01*
X276038Y527667D01*
X276021Y527655D01*
X276008Y527640D01*
X275963Y527600D01*
X269316Y520953D01*
X259004Y520953D01*
X252358Y527600D01*
X252263Y527673D01*
X252174Y527752D01*
X252138Y527770D01*
X252106Y527795D01*
X251997Y527842D01*
X251891Y527897D01*
X251852Y527905D01*
X251814Y527921D01*
X251697Y527940D01*
X251581Y527966D01*
X251540Y527965D01*
X251500Y527971D01*
X251382Y527960D01*
X251263Y527957D01*
X251224Y527945D01*
X251184Y527942D01*
X251071Y527901D01*
X250957Y527868D01*
X250923Y527848D01*
X250884Y527834D01*
X250786Y527767D01*
X250683Y527707D01*
X250638Y527667D01*
X250621Y527655D01*
X250608Y527640D01*
X250563Y527600D01*
X243916Y520953D01*
X233604Y520953D01*
X226313Y528244D01*
X226313Y538556D01*
X233468Y545711D01*
X233553Y545820D01*
X233642Y545927D01*
X233651Y545946D01*
X233663Y545962D01*
X233719Y546090D01*
X233778Y546215D01*
X233781Y546235D01*
X233790Y546254D01*
X233811Y546392D01*
X233837Y546528D01*
X233836Y546548D01*
X233839Y546568D01*
X233826Y546707D01*
X233818Y546845D01*
X233811Y546864D01*
X233810Y546884D01*
X233762Y547016D01*
X233720Y547147D01*
X233709Y547165D01*
X233702Y547184D01*
X233624Y547299D01*
X233549Y547416D01*
X233535Y547430D01*
X233523Y547447D01*
X233419Y547539D01*
X233318Y547634D01*
X233300Y547644D01*
X233285Y547657D01*
X233161Y547721D01*
X233039Y547788D01*
X233020Y547793D01*
X233002Y547802D01*
X232866Y547832D01*
X232731Y547867D01*
X232703Y547869D01*
X232691Y547872D01*
X232671Y547871D01*
X232571Y547877D01*
X62992Y547877D01*
X62874Y547862D01*
X62755Y547855D01*
X62717Y547842D01*
X62676Y547837D01*
X62566Y547794D01*
X62453Y547757D01*
X62418Y547735D01*
X62381Y547720D01*
X62285Y547651D01*
X62184Y547587D01*
X62156Y547557D01*
X62123Y547534D01*
X62047Y547442D01*
X61966Y547355D01*
X61946Y547320D01*
X61921Y547289D01*
X61870Y547181D01*
X61812Y547077D01*
X61802Y547037D01*
X61785Y547001D01*
X61763Y546884D01*
X61733Y546769D01*
X61729Y546709D01*
X61725Y546689D01*
X61727Y546668D01*
X61723Y546608D01*
X61723Y37592D01*
X61738Y37474D01*
X61745Y37355D01*
X61758Y37317D01*
X61763Y37276D01*
X61806Y37166D01*
X61843Y37053D01*
X61865Y37018D01*
X61880Y36981D01*
X61949Y36885D01*
X62013Y36784D01*
X62043Y36756D01*
X62066Y36723D01*
X62158Y36647D01*
X62245Y36566D01*
X62280Y36546D01*
X62311Y36521D01*
X62419Y36470D01*
X62523Y36412D01*
X62563Y36402D01*
X62599Y36385D01*
X62716Y36363D01*
X62831Y36333D01*
X62891Y36329D01*
X62911Y36325D01*
X62932Y36327D01*
X62992Y36323D01*
X324011Y36323D01*
X324148Y36340D01*
G37*
%LPC*%
G36*
X258676Y292795D02*
X258676Y292795D01*
X256295Y295176D01*
X256295Y311224D01*
X258676Y313605D01*
X260604Y313605D01*
X260722Y313620D01*
X260841Y313627D01*
X260879Y313640D01*
X260920Y313645D01*
X261030Y313688D01*
X261143Y313725D01*
X261178Y313747D01*
X261215Y313762D01*
X261311Y313831D01*
X261412Y313895D01*
X261440Y313925D01*
X261473Y313948D01*
X261549Y314040D01*
X261630Y314127D01*
X261650Y314162D01*
X261675Y314193D01*
X261726Y314301D01*
X261784Y314405D01*
X261794Y314445D01*
X261811Y314481D01*
X261833Y314598D01*
X261863Y314713D01*
X261867Y314773D01*
X261871Y314793D01*
X261869Y314814D01*
X261873Y314874D01*
X261873Y359100D01*
X262608Y360874D01*
X273066Y371332D01*
X273108Y371387D01*
X273159Y371435D01*
X273206Y371512D01*
X273261Y371583D01*
X273288Y371647D01*
X273325Y371706D01*
X273351Y371792D01*
X273387Y371875D01*
X273398Y371944D01*
X273418Y372010D01*
X273423Y372100D01*
X273437Y372189D01*
X273430Y372259D01*
X273434Y372328D01*
X273415Y372416D01*
X273407Y372505D01*
X273383Y372571D01*
X273369Y372640D01*
X273330Y372720D01*
X273299Y372805D01*
X273260Y372862D01*
X273230Y372925D01*
X273171Y372994D01*
X273121Y373068D01*
X273069Y373114D01*
X273023Y373167D01*
X272950Y373219D01*
X272882Y373278D01*
X272820Y373310D01*
X272763Y373350D01*
X272679Y373382D01*
X272599Y373423D01*
X272531Y373438D01*
X272466Y373463D01*
X272376Y373473D01*
X272289Y373493D01*
X272219Y373491D01*
X272150Y373498D01*
X272061Y373486D01*
X271971Y373483D01*
X271904Y373464D01*
X271835Y373454D01*
X271682Y373402D01*
X268770Y372195D01*
X264630Y372195D01*
X260806Y373779D01*
X257879Y376706D01*
X256295Y380530D01*
X256295Y384670D01*
X257879Y388494D01*
X260806Y391421D01*
X264630Y393005D01*
X268770Y393005D01*
X272594Y391421D01*
X275521Y388494D01*
X277105Y384670D01*
X277105Y380530D01*
X275898Y377618D01*
X275880Y377550D01*
X275852Y377486D01*
X275838Y377397D01*
X275814Y377311D01*
X275813Y377241D01*
X275802Y377172D01*
X275811Y377082D01*
X275809Y376993D01*
X275826Y376925D01*
X275832Y376856D01*
X275862Y376771D01*
X275883Y376684D01*
X275916Y376622D01*
X275940Y376556D01*
X275990Y376482D01*
X276032Y376402D01*
X276079Y376351D01*
X276118Y376293D01*
X276186Y376234D01*
X276246Y376167D01*
X276304Y376129D01*
X276357Y376083D01*
X276437Y376042D01*
X276512Y375992D01*
X276578Y375970D01*
X276640Y375938D01*
X276728Y375918D01*
X276813Y375889D01*
X276882Y375884D01*
X276950Y375868D01*
X277040Y375871D01*
X277130Y375864D01*
X277198Y375876D01*
X277268Y375878D01*
X277354Y375903D01*
X277443Y375918D01*
X277507Y375947D01*
X277574Y375966D01*
X277651Y376012D01*
X277733Y376049D01*
X277787Y376092D01*
X277848Y376128D01*
X277968Y376234D01*
X281324Y379590D01*
X281384Y379668D01*
X281452Y379740D01*
X281481Y379793D01*
X281518Y379841D01*
X281558Y379932D01*
X281606Y380018D01*
X281621Y380077D01*
X281645Y380133D01*
X281660Y380231D01*
X281685Y380326D01*
X281691Y380426D01*
X281695Y380447D01*
X281693Y380459D01*
X281695Y380487D01*
X281695Y384670D01*
X283279Y388494D01*
X286206Y391421D01*
X290030Y393005D01*
X294170Y393005D01*
X297994Y391421D01*
X300921Y388494D01*
X302505Y384670D01*
X302505Y380530D01*
X300921Y376706D01*
X297994Y373779D01*
X294170Y372195D01*
X290030Y372195D01*
X289082Y372588D01*
X289054Y372596D01*
X289027Y372609D01*
X288901Y372638D01*
X288775Y372672D01*
X288746Y372672D01*
X288717Y372679D01*
X288587Y372675D01*
X288457Y372677D01*
X288429Y372670D01*
X288399Y372669D01*
X288284Y372636D01*
X288270Y372634D01*
X288257Y372629D01*
X288148Y372603D01*
X288122Y372589D01*
X288094Y372581D01*
X288008Y372530D01*
X287975Y372517D01*
X287944Y372495D01*
X287867Y372454D01*
X287845Y372434D01*
X287820Y372419D01*
X287725Y372336D01*
X287717Y372330D01*
X287713Y372326D01*
X287699Y372313D01*
X271898Y356512D01*
X271838Y356434D01*
X271770Y356362D01*
X271741Y356309D01*
X271704Y356261D01*
X271664Y356170D01*
X271616Y356084D01*
X271601Y356025D01*
X271577Y355969D01*
X271562Y355871D01*
X271537Y355776D01*
X271531Y355676D01*
X271527Y355655D01*
X271529Y355643D01*
X271527Y355615D01*
X271527Y314874D01*
X271542Y314756D01*
X271549Y314637D01*
X271562Y314599D01*
X271567Y314558D01*
X271610Y314448D01*
X271647Y314335D01*
X271669Y314300D01*
X271684Y314263D01*
X271753Y314167D01*
X271817Y314066D01*
X271847Y314038D01*
X271870Y314005D01*
X271962Y313929D01*
X272049Y313848D01*
X272084Y313828D01*
X272115Y313803D01*
X272223Y313752D01*
X272327Y313694D01*
X272367Y313684D01*
X272403Y313667D01*
X272520Y313645D01*
X272635Y313615D01*
X272695Y313611D01*
X272715Y313607D01*
X272736Y313609D01*
X272796Y313605D01*
X274724Y313605D01*
X277105Y311224D01*
X277105Y295176D01*
X274724Y292795D01*
X258676Y292795D01*
G37*
%LPD*%
%LPC*%
G36*
X642826Y145410D02*
X642826Y145410D01*
X634744Y148758D01*
X628558Y154944D01*
X625210Y163026D01*
X625210Y171774D01*
X628558Y179856D01*
X634744Y186042D01*
X642826Y189390D01*
X651574Y189390D01*
X659656Y186042D01*
X665842Y179856D01*
X669190Y171774D01*
X669190Y163026D01*
X665842Y154944D01*
X659656Y148758D01*
X651574Y145410D01*
X642826Y145410D01*
G37*
%LPD*%
%LPC*%
G36*
X642826Y295510D02*
X642826Y295510D01*
X634744Y298858D01*
X628558Y305044D01*
X625210Y313126D01*
X625210Y321874D01*
X628558Y329956D01*
X634744Y336142D01*
X642826Y339490D01*
X651574Y339490D01*
X659656Y336142D01*
X665842Y329956D01*
X669190Y321874D01*
X669190Y313126D01*
X665842Y305044D01*
X659656Y298858D01*
X651574Y295510D01*
X642826Y295510D01*
G37*
%LPD*%
%LPC*%
G36*
X694303Y252885D02*
X694303Y252885D01*
X688950Y255103D01*
X684853Y259200D01*
X682635Y264553D01*
X682635Y270347D01*
X684853Y275700D01*
X688950Y279797D01*
X694303Y282015D01*
X700097Y282015D01*
X705450Y279797D01*
X709547Y275700D01*
X711765Y270347D01*
X711765Y264553D01*
X709547Y259200D01*
X705450Y255103D01*
X700097Y252885D01*
X694303Y252885D01*
G37*
%LPD*%
%LPC*%
G36*
X694303Y202885D02*
X694303Y202885D01*
X688950Y205103D01*
X684853Y209200D01*
X682635Y214553D01*
X682635Y220347D01*
X684853Y225700D01*
X688950Y229797D01*
X694303Y232015D01*
X700097Y232015D01*
X705450Y229797D01*
X709547Y225700D01*
X711765Y220347D01*
X711765Y214553D01*
X709547Y209200D01*
X705450Y205103D01*
X700097Y202885D01*
X694303Y202885D01*
G37*
%LPD*%
%LPC*%
G36*
X321976Y141795D02*
X321976Y141795D01*
X319595Y144176D01*
X319595Y160624D01*
X321976Y163005D01*
X338424Y163005D01*
X340805Y160624D01*
X340805Y144176D01*
X338424Y141795D01*
X321976Y141795D01*
G37*
%LPD*%
%LPC*%
G36*
X378891Y141795D02*
X378891Y141795D01*
X374993Y143410D01*
X372010Y146393D01*
X370395Y150291D01*
X370395Y154509D01*
X372010Y158407D01*
X374993Y161390D01*
X378891Y163005D01*
X383109Y163005D01*
X387007Y161390D01*
X389990Y158407D01*
X391605Y154509D01*
X391605Y150291D01*
X389990Y146393D01*
X387007Y143410D01*
X383109Y141795D01*
X378891Y141795D01*
G37*
%LPD*%
%LPC*%
G36*
X404291Y141795D02*
X404291Y141795D01*
X400393Y143410D01*
X397410Y146393D01*
X395795Y150291D01*
X395795Y154509D01*
X397410Y158407D01*
X400393Y161390D01*
X404291Y163005D01*
X408509Y163005D01*
X412407Y161390D01*
X415390Y158407D01*
X417005Y154509D01*
X417005Y150291D01*
X415390Y146393D01*
X412407Y143410D01*
X408509Y141795D01*
X404291Y141795D01*
G37*
%LPD*%
%LPC*%
G36*
X353491Y141795D02*
X353491Y141795D01*
X349593Y143410D01*
X346610Y146393D01*
X344995Y150291D01*
X344995Y154509D01*
X346610Y158407D01*
X349593Y161390D01*
X353491Y163005D01*
X357709Y163005D01*
X361607Y161390D01*
X364590Y158407D01*
X366205Y154509D01*
X366205Y150291D01*
X364590Y146393D01*
X361607Y143410D01*
X357709Y141795D01*
X353491Y141795D01*
G37*
%LPD*%
%LPC*%
G36*
X417030Y292795D02*
X417030Y292795D01*
X413206Y294379D01*
X410279Y297306D01*
X408695Y301130D01*
X408695Y305270D01*
X410279Y309094D01*
X413206Y312021D01*
X417030Y313605D01*
X421170Y313605D01*
X424994Y312021D01*
X427921Y309094D01*
X429505Y305270D01*
X429505Y301130D01*
X427921Y297306D01*
X424994Y294379D01*
X421170Y292795D01*
X417030Y292795D01*
G37*
%LPD*%
%LPC*%
G36*
X290030Y292795D02*
X290030Y292795D01*
X286206Y294379D01*
X283279Y297306D01*
X281695Y301130D01*
X281695Y305270D01*
X283279Y309094D01*
X286206Y312021D01*
X290030Y313605D01*
X294170Y313605D01*
X297994Y312021D01*
X300921Y309094D01*
X302505Y305270D01*
X302505Y301130D01*
X300921Y297306D01*
X297994Y294379D01*
X294170Y292795D01*
X290030Y292795D01*
G37*
%LPD*%
%LPC*%
G36*
X315430Y292795D02*
X315430Y292795D01*
X311606Y294379D01*
X308679Y297306D01*
X307095Y301130D01*
X307095Y305270D01*
X308679Y309094D01*
X311606Y312021D01*
X315430Y313605D01*
X319570Y313605D01*
X323394Y312021D01*
X326321Y309094D01*
X327905Y305270D01*
X327905Y301130D01*
X326321Y297306D01*
X323394Y294379D01*
X319570Y292795D01*
X315430Y292795D01*
G37*
%LPD*%
%LPC*%
G36*
X391630Y292795D02*
X391630Y292795D01*
X387806Y294379D01*
X384879Y297306D01*
X383295Y301130D01*
X383295Y305270D01*
X384879Y309094D01*
X387806Y312021D01*
X391630Y313605D01*
X395770Y313605D01*
X399594Y312021D01*
X402521Y309094D01*
X404105Y305270D01*
X404105Y301130D01*
X402521Y297306D01*
X399594Y294379D01*
X395770Y292795D01*
X391630Y292795D01*
G37*
%LPD*%
%LPC*%
G36*
X599439Y244989D02*
X599439Y244989D01*
X599439Y255251D01*
X599954Y255170D01*
X601906Y254535D01*
X603735Y253603D01*
X605395Y252397D01*
X606847Y250945D01*
X608053Y249285D01*
X608985Y247456D01*
X609620Y245504D01*
X609701Y244989D01*
X599439Y244989D01*
G37*
%LPD*%
%LPC*%
G36*
X599439Y239911D02*
X599439Y239911D01*
X609701Y239911D01*
X609620Y239396D01*
X608985Y237444D01*
X608053Y235615D01*
X606847Y233955D01*
X605395Y232503D01*
X603735Y231297D01*
X601906Y230365D01*
X599954Y229730D01*
X599439Y229649D01*
X599439Y239911D01*
G37*
%LPD*%
%LPC*%
G36*
X584099Y244989D02*
X584099Y244989D01*
X584180Y245504D01*
X584815Y247456D01*
X585747Y249285D01*
X586953Y250945D01*
X588405Y252397D01*
X590065Y253603D01*
X591894Y254535D01*
X593846Y255170D01*
X594361Y255251D01*
X594361Y244989D01*
X584099Y244989D01*
G37*
%LPD*%
%LPC*%
G36*
X593846Y229730D02*
X593846Y229730D01*
X591894Y230365D01*
X590065Y231297D01*
X588405Y232503D01*
X586953Y233955D01*
X585747Y235615D01*
X584815Y237444D01*
X584180Y239396D01*
X584099Y239911D01*
X594361Y239911D01*
X594361Y229649D01*
X593846Y229730D01*
G37*
%LPD*%
%LPC*%
G36*
X459699Y53299D02*
X459699Y53299D01*
X459699Y61723D01*
X461724Y61723D01*
X468123Y55324D01*
X468123Y53299D01*
X459699Y53299D01*
G37*
%LPD*%
%LPC*%
G36*
X471677Y53299D02*
X471677Y53299D01*
X471677Y55324D01*
X478076Y61723D01*
X480101Y61723D01*
X480101Y53299D01*
X471677Y53299D01*
G37*
%LPD*%
%LPC*%
G36*
X459699Y39877D02*
X459699Y39877D01*
X459699Y48301D01*
X468123Y48301D01*
X468123Y46276D01*
X461724Y39877D01*
X459699Y39877D01*
G37*
%LPD*%
%LPC*%
G36*
X478076Y39877D02*
X478076Y39877D01*
X471677Y46276D01*
X471677Y48301D01*
X480101Y48301D01*
X480101Y39877D01*
X478076Y39877D01*
G37*
%LPD*%
%LPC*%
G36*
X510031Y446531D02*
X510031Y446531D01*
X510031Y453645D01*
X511788Y453645D01*
X517145Y448288D01*
X517145Y446531D01*
X510031Y446531D01*
G37*
%LPD*%
%LPC*%
G36*
X446531Y446531D02*
X446531Y446531D01*
X446531Y453645D01*
X448288Y453645D01*
X453645Y448288D01*
X453645Y446531D01*
X446531Y446531D01*
G37*
%LPD*%
%LPC*%
G36*
X435355Y446531D02*
X435355Y446531D01*
X435355Y448288D01*
X440712Y453645D01*
X442469Y453645D01*
X442469Y446531D01*
X435355Y446531D01*
G37*
%LPD*%
%LPC*%
G36*
X498855Y446531D02*
X498855Y446531D01*
X498855Y448288D01*
X504212Y453645D01*
X505969Y453645D01*
X505969Y446531D01*
X498855Y446531D01*
G37*
%LPD*%
%LPC*%
G36*
X446531Y435355D02*
X446531Y435355D01*
X446531Y442469D01*
X453645Y442469D01*
X453645Y440712D01*
X448288Y435355D01*
X446531Y435355D01*
G37*
%LPD*%
%LPC*%
G36*
X510031Y435355D02*
X510031Y435355D01*
X510031Y442469D01*
X517145Y442469D01*
X517145Y440712D01*
X511788Y435355D01*
X510031Y435355D01*
G37*
%LPD*%
%LPC*%
G36*
X440712Y435355D02*
X440712Y435355D01*
X435355Y440712D01*
X435355Y442469D01*
X442469Y442469D01*
X442469Y435355D01*
X440712Y435355D01*
G37*
%LPD*%
%LPC*%
G36*
X504212Y435355D02*
X504212Y435355D01*
X498855Y440712D01*
X498855Y442469D01*
X505969Y442469D01*
X505969Y435355D01*
X504212Y435355D01*
G37*
%LPD*%
%LPC*%
G36*
X332199Y230599D02*
X332199Y230599D01*
X332199Y237477D01*
X332326Y237457D01*
X333686Y237015D01*
X334959Y236367D01*
X336116Y235526D01*
X337126Y234516D01*
X337967Y233359D01*
X338615Y232086D01*
X339057Y230726D01*
X339077Y230599D01*
X332199Y230599D01*
G37*
%LPD*%
%LPC*%
G36*
X321323Y230599D02*
X321323Y230599D01*
X321343Y230726D01*
X321785Y232086D01*
X322433Y233359D01*
X323274Y234516D01*
X324284Y235526D01*
X325441Y236367D01*
X326714Y237015D01*
X328074Y237457D01*
X328201Y237477D01*
X328201Y230599D01*
X321323Y230599D01*
G37*
%LPD*%
%LPC*%
G36*
X332199Y226601D02*
X332199Y226601D01*
X339077Y226601D01*
X339057Y226474D01*
X338615Y225114D01*
X337967Y223841D01*
X337126Y222684D01*
X336116Y221674D01*
X334959Y220833D01*
X333686Y220185D01*
X332326Y219743D01*
X332199Y219723D01*
X332199Y226601D01*
G37*
%LPD*%
%LPC*%
G36*
X382999Y226601D02*
X382999Y226601D01*
X389877Y226601D01*
X389857Y226474D01*
X389415Y225114D01*
X388767Y223841D01*
X387926Y222684D01*
X386916Y221674D01*
X385759Y220833D01*
X384486Y220185D01*
X383126Y219743D01*
X382999Y219723D01*
X382999Y226601D01*
G37*
%LPD*%
%LPC*%
G36*
X328074Y219743D02*
X328074Y219743D01*
X326714Y220185D01*
X325441Y220833D01*
X324284Y221674D01*
X323274Y222684D01*
X322433Y223841D01*
X321785Y225114D01*
X321343Y226474D01*
X321323Y226601D01*
X328201Y226601D01*
X328201Y219723D01*
X328074Y219743D01*
G37*
%LPD*%
%LPC*%
G36*
X308823Y384499D02*
X308823Y384499D01*
X308961Y385191D01*
X309630Y386807D01*
X310602Y388261D01*
X311839Y389498D01*
X313293Y390470D01*
X314909Y391139D01*
X315601Y391277D01*
X315601Y384499D01*
X308823Y384499D01*
G37*
%LPD*%
%LPC*%
G36*
X314909Y374061D02*
X314909Y374061D01*
X313293Y374730D01*
X311839Y375702D01*
X310602Y376939D01*
X309630Y378393D01*
X308961Y380009D01*
X308823Y380701D01*
X315601Y380701D01*
X315601Y373923D01*
X314909Y374061D01*
G37*
%LPD*%
%LPC*%
G36*
X596899Y242449D02*
X596899Y242449D01*
X596899Y242451D01*
X596901Y242451D01*
X596901Y242449D01*
X596899Y242449D01*
G37*
%LPD*%
D10*
X266700Y303200D03*
D11*
X292100Y303200D03*
X317500Y303200D03*
X342900Y303200D03*
X368300Y303200D03*
X393700Y303200D03*
X419100Y303200D03*
X419100Y382600D03*
X393700Y382600D03*
X368300Y382600D03*
X342900Y382600D03*
X317500Y382600D03*
X292100Y382600D03*
X266700Y382600D03*
D12*
X596900Y317500D03*
X572000Y292500D03*
X596900Y242450D03*
X572000Y192400D03*
X596900Y167400D03*
X546900Y242450D03*
X697200Y267450D03*
X697200Y217450D03*
D13*
X647200Y167400D03*
X647200Y317500D03*
D14*
X330200Y152400D03*
D15*
X355600Y152400D03*
X381000Y152400D03*
X406400Y152400D03*
X406400Y228600D03*
X381000Y228600D03*
X355600Y228600D03*
X330200Y228600D03*
D16*
X584200Y533400D03*
X558800Y50800D03*
X609600Y533400D03*
X635000Y533400D03*
X660400Y533400D03*
X685800Y533400D03*
X558800Y533400D03*
X533400Y533400D03*
X508000Y533400D03*
X467360Y533400D03*
X441960Y533400D03*
X416560Y533400D03*
X391160Y533400D03*
X365760Y533400D03*
X340360Y533400D03*
X314960Y533400D03*
X289560Y533400D03*
X584200Y50800D03*
X609600Y50800D03*
X635000Y50800D03*
X660400Y50800D03*
X685800Y50800D03*
X508000Y50800D03*
X482600Y50800D03*
X457200Y50800D03*
X431800Y50800D03*
X406400Y50800D03*
X381000Y50800D03*
X264160Y533400D03*
X238760Y533400D03*
X355600Y50800D03*
X330200Y50800D03*
D17*
X393700Y444500D03*
X444500Y444500D03*
X508000Y444500D03*
X584200Y444500D03*
D18*
X316992Y384048D02*
X316992Y531876D01*
X315468Y533400D01*
X316992Y384048D02*
X317500Y382600D01*
X315468Y533400D02*
X314960Y533400D01*
X330200Y228600D02*
X342900Y228600D01*
X352044Y219456D01*
X371856Y219456D01*
X381000Y228600D01*
X457200Y51816D02*
X481584Y51816D01*
X482600Y50800D01*
X376428Y161544D02*
X367284Y152400D01*
X376428Y161544D02*
X396240Y161544D01*
X405384Y152400D01*
X457200Y102108D02*
X457200Y51816D01*
X457200Y102108D02*
X406908Y152400D01*
X457200Y51816D02*
X457200Y50800D01*
X371856Y166116D02*
X371856Y219456D01*
X371856Y166116D02*
X376428Y161544D01*
X318516Y315468D02*
X318516Y382524D01*
X318516Y315468D02*
X329184Y304800D01*
X329184Y228600D01*
X318516Y382524D02*
X317500Y382600D01*
X329184Y228600D02*
X330200Y228600D01*
X342900Y303200D02*
X342900Y365760D01*
X330708Y377952D01*
X330708Y524256D01*
X339852Y533400D01*
X340360Y533400D01*
X367284Y345948D02*
X367284Y303276D01*
X367284Y345948D02*
X333756Y379476D01*
X333756Y469392D01*
X390144Y525780D01*
X368300Y303200D02*
X367284Y303276D01*
X390144Y525780D02*
X390144Y533400D01*
X391160Y533400D01*
X419100Y394716D02*
X419100Y382600D01*
X419100Y394716D02*
X557784Y533400D01*
X558800Y533400D01*
X367284Y228600D02*
X355600Y228600D01*
X367284Y228600D02*
X381000Y242316D01*
X545592Y242316D01*
X546900Y242450D01*
X536448Y228600D02*
X406400Y228600D01*
X536448Y228600D02*
X571500Y193548D01*
X572000Y192400D01*
X381000Y382524D02*
X368808Y382524D01*
X381000Y382524D02*
X420624Y342900D01*
X521208Y342900D01*
X571500Y292608D01*
X368808Y382524D02*
X368300Y382600D01*
X571500Y292608D02*
X572000Y292500D01*
X266700Y303200D02*
X266700Y358140D01*
X291084Y382524D01*
X292100Y382600D01*
X353568Y384048D02*
X356616Y384048D01*
X353568Y384048D02*
X342900Y384048D01*
X356616Y384048D02*
X364236Y391668D01*
X385572Y391668D01*
X393192Y384048D01*
X342900Y384048D02*
X342900Y382600D01*
X393192Y384048D02*
X393700Y382600D01*
X393192Y399288D02*
X393192Y443484D01*
X393192Y399288D02*
X385572Y391668D01*
X393192Y443484D02*
X393700Y444500D01*
X595884Y211836D02*
X595884Y167640D01*
X595884Y211836D02*
X467868Y339852D01*
X397764Y339852D01*
X353568Y384048D01*
X595884Y167640D02*
X596900Y167400D01*
X583692Y300228D02*
X583692Y443484D01*
X583692Y300228D02*
X585216Y298704D01*
X585216Y286512D01*
X557784Y259080D01*
X583692Y443484D02*
X584200Y444500D01*
D19*
X557784Y259080D03*
M02*
