G04 EAGLE Gerber RS-274X export*
G75*
%MOMM*%
%FSLAX34Y34*%
%LPD*%
%INSilkscreen Top*%
%IPPOS*%
%AMOC8*
5,1,8,0,0,1.08239X$1,22.5*%
G01*
%ADD10C,0.152400*%
%ADD11C,0.200000*%
%ADD12C,0.100000*%
%ADD13C,0.300000*%
%ADD14C,0.300000*%
%ADD15C,0.050000*%
%ADD16C,0.076200*%
%ADD17C,0.127000*%


D10*
X284678Y242062D02*
X284678Y258318D01*
X289193Y258318D02*
X280162Y258318D01*
X295302Y258318D02*
X295302Y242062D01*
X302527Y242062D01*
X309030Y242062D02*
X309030Y258318D01*
X313546Y258318D01*
X313679Y258316D01*
X313811Y258310D01*
X313943Y258300D01*
X314075Y258287D01*
X314207Y258269D01*
X314337Y258248D01*
X314468Y258223D01*
X314597Y258194D01*
X314725Y258161D01*
X314853Y258125D01*
X314979Y258085D01*
X315104Y258041D01*
X315228Y257993D01*
X315350Y257942D01*
X315471Y257887D01*
X315590Y257829D01*
X315708Y257767D01*
X315823Y257702D01*
X315937Y257633D01*
X316048Y257562D01*
X316157Y257486D01*
X316264Y257408D01*
X316369Y257327D01*
X316471Y257242D01*
X316571Y257155D01*
X316668Y257065D01*
X316763Y256972D01*
X316854Y256876D01*
X316943Y256778D01*
X317029Y256677D01*
X317112Y256573D01*
X317192Y256467D01*
X317268Y256359D01*
X317342Y256249D01*
X317412Y256136D01*
X317479Y256022D01*
X317542Y255905D01*
X317602Y255787D01*
X317659Y255667D01*
X317712Y255545D01*
X317761Y255422D01*
X317807Y255298D01*
X317849Y255172D01*
X317887Y255045D01*
X317922Y254917D01*
X317953Y254788D01*
X317980Y254659D01*
X318003Y254528D01*
X318023Y254397D01*
X318038Y254265D01*
X318050Y254133D01*
X318058Y254001D01*
X318062Y253868D01*
X318062Y253736D01*
X318058Y253603D01*
X318050Y253471D01*
X318038Y253339D01*
X318023Y253207D01*
X318003Y253076D01*
X317980Y252945D01*
X317953Y252816D01*
X317922Y252687D01*
X317887Y252559D01*
X317849Y252432D01*
X317807Y252306D01*
X317761Y252182D01*
X317712Y252059D01*
X317659Y251937D01*
X317602Y251817D01*
X317542Y251699D01*
X317479Y251582D01*
X317412Y251468D01*
X317342Y251355D01*
X317268Y251245D01*
X317192Y251137D01*
X317112Y251031D01*
X317029Y250927D01*
X316943Y250826D01*
X316854Y250728D01*
X316763Y250632D01*
X316668Y250539D01*
X316571Y250449D01*
X316471Y250362D01*
X316369Y250277D01*
X316264Y250196D01*
X316157Y250118D01*
X316048Y250042D01*
X315937Y249971D01*
X315823Y249902D01*
X315708Y249837D01*
X315590Y249775D01*
X315471Y249717D01*
X315350Y249662D01*
X315228Y249611D01*
X315104Y249563D01*
X314979Y249519D01*
X314853Y249479D01*
X314725Y249443D01*
X314597Y249410D01*
X314468Y249381D01*
X314337Y249356D01*
X314207Y249335D01*
X314075Y249317D01*
X313943Y249304D01*
X313811Y249294D01*
X313679Y249288D01*
X313546Y249286D01*
X313546Y249287D02*
X309030Y249287D01*
X328897Y258318D02*
X329022Y258316D01*
X329147Y258310D01*
X329272Y258301D01*
X329396Y258287D01*
X329520Y258270D01*
X329644Y258249D01*
X329766Y258224D01*
X329888Y258195D01*
X330009Y258163D01*
X330129Y258127D01*
X330248Y258087D01*
X330365Y258044D01*
X330481Y257997D01*
X330596Y257946D01*
X330708Y257892D01*
X330820Y257834D01*
X330929Y257774D01*
X331036Y257709D01*
X331142Y257642D01*
X331245Y257571D01*
X331346Y257497D01*
X331445Y257420D01*
X331541Y257340D01*
X331635Y257257D01*
X331726Y257172D01*
X331815Y257083D01*
X331900Y256992D01*
X331983Y256898D01*
X332063Y256802D01*
X332140Y256703D01*
X332214Y256602D01*
X332285Y256499D01*
X332352Y256393D01*
X332417Y256286D01*
X332477Y256177D01*
X332535Y256065D01*
X332589Y255953D01*
X332640Y255838D01*
X332687Y255722D01*
X332730Y255605D01*
X332770Y255486D01*
X332806Y255366D01*
X332838Y255245D01*
X332867Y255123D01*
X332892Y255001D01*
X332913Y254877D01*
X332930Y254753D01*
X332944Y254629D01*
X332953Y254504D01*
X332959Y254379D01*
X332961Y254254D01*
X328897Y258318D02*
X328754Y258316D01*
X328612Y258310D01*
X328469Y258300D01*
X328327Y258287D01*
X328186Y258269D01*
X328044Y258248D01*
X327904Y258223D01*
X327764Y258194D01*
X327625Y258161D01*
X327487Y258124D01*
X327350Y258084D01*
X327215Y258040D01*
X327080Y257992D01*
X326947Y257940D01*
X326815Y257885D01*
X326685Y257826D01*
X326557Y257764D01*
X326430Y257698D01*
X326305Y257629D01*
X326182Y257557D01*
X326062Y257481D01*
X325943Y257402D01*
X325826Y257319D01*
X325712Y257234D01*
X325600Y257145D01*
X325491Y257054D01*
X325384Y256959D01*
X325279Y256862D01*
X325178Y256761D01*
X325079Y256658D01*
X324983Y256553D01*
X324890Y256444D01*
X324800Y256333D01*
X324713Y256220D01*
X324629Y256105D01*
X324549Y255987D01*
X324471Y255867D01*
X324397Y255745D01*
X324327Y255621D01*
X324259Y255495D01*
X324196Y255367D01*
X324135Y255238D01*
X324078Y255107D01*
X324025Y254975D01*
X323976Y254841D01*
X323930Y254706D01*
X331605Y251093D02*
X331699Y251185D01*
X331789Y251279D01*
X331877Y251376D01*
X331962Y251476D01*
X332044Y251578D01*
X332123Y251683D01*
X332198Y251790D01*
X332270Y251899D01*
X332339Y252010D01*
X332405Y252124D01*
X332467Y252239D01*
X332526Y252356D01*
X332581Y252475D01*
X332632Y252595D01*
X332680Y252717D01*
X332725Y252840D01*
X332765Y252964D01*
X332802Y253090D01*
X332835Y253217D01*
X332864Y253344D01*
X332890Y253473D01*
X332911Y253602D01*
X332929Y253732D01*
X332942Y253862D01*
X332952Y253992D01*
X332958Y254123D01*
X332960Y254254D01*
X331606Y251093D02*
X323929Y242062D01*
X332961Y242062D01*
X348592Y254254D02*
X348590Y254379D01*
X348584Y254504D01*
X348575Y254629D01*
X348561Y254753D01*
X348544Y254877D01*
X348523Y255001D01*
X348498Y255123D01*
X348469Y255245D01*
X348437Y255366D01*
X348401Y255486D01*
X348361Y255605D01*
X348318Y255722D01*
X348271Y255838D01*
X348220Y255953D01*
X348166Y256065D01*
X348108Y256177D01*
X348048Y256286D01*
X347983Y256393D01*
X347916Y256499D01*
X347845Y256602D01*
X347771Y256703D01*
X347694Y256802D01*
X347614Y256898D01*
X347531Y256992D01*
X347446Y257083D01*
X347357Y257172D01*
X347266Y257257D01*
X347172Y257340D01*
X347076Y257420D01*
X346977Y257497D01*
X346876Y257571D01*
X346773Y257642D01*
X346667Y257709D01*
X346560Y257774D01*
X346451Y257834D01*
X346339Y257892D01*
X346227Y257946D01*
X346112Y257997D01*
X345996Y258044D01*
X345879Y258087D01*
X345760Y258127D01*
X345640Y258163D01*
X345519Y258195D01*
X345397Y258224D01*
X345275Y258249D01*
X345151Y258270D01*
X345027Y258287D01*
X344903Y258301D01*
X344778Y258310D01*
X344653Y258316D01*
X344528Y258318D01*
X344385Y258316D01*
X344243Y258310D01*
X344100Y258300D01*
X343958Y258287D01*
X343817Y258269D01*
X343675Y258248D01*
X343535Y258223D01*
X343395Y258194D01*
X343256Y258161D01*
X343118Y258124D01*
X342981Y258084D01*
X342846Y258040D01*
X342711Y257992D01*
X342578Y257940D01*
X342446Y257885D01*
X342316Y257826D01*
X342188Y257764D01*
X342061Y257698D01*
X341936Y257629D01*
X341813Y257557D01*
X341693Y257481D01*
X341574Y257402D01*
X341457Y257319D01*
X341343Y257234D01*
X341231Y257145D01*
X341122Y257054D01*
X341015Y256959D01*
X340910Y256862D01*
X340809Y256761D01*
X340710Y256658D01*
X340614Y256553D01*
X340521Y256444D01*
X340431Y256333D01*
X340344Y256220D01*
X340260Y256105D01*
X340180Y255987D01*
X340102Y255867D01*
X340028Y255745D01*
X339958Y255621D01*
X339890Y255495D01*
X339827Y255367D01*
X339766Y255238D01*
X339709Y255107D01*
X339656Y254975D01*
X339607Y254841D01*
X339561Y254706D01*
X347237Y251093D02*
X347331Y251185D01*
X347421Y251279D01*
X347509Y251376D01*
X347594Y251476D01*
X347676Y251578D01*
X347755Y251683D01*
X347830Y251790D01*
X347902Y251899D01*
X347971Y252010D01*
X348037Y252124D01*
X348099Y252239D01*
X348158Y252356D01*
X348213Y252475D01*
X348264Y252595D01*
X348312Y252717D01*
X348357Y252840D01*
X348397Y252964D01*
X348434Y253090D01*
X348467Y253217D01*
X348496Y253344D01*
X348522Y253473D01*
X348543Y253602D01*
X348561Y253732D01*
X348574Y253862D01*
X348584Y253992D01*
X348590Y254123D01*
X348592Y254254D01*
X347237Y251093D02*
X339561Y242062D01*
X348592Y242062D01*
X364223Y254254D02*
X364221Y254379D01*
X364215Y254504D01*
X364206Y254629D01*
X364192Y254753D01*
X364175Y254877D01*
X364154Y255001D01*
X364129Y255123D01*
X364100Y255245D01*
X364068Y255366D01*
X364032Y255486D01*
X363992Y255605D01*
X363949Y255722D01*
X363902Y255838D01*
X363851Y255953D01*
X363797Y256065D01*
X363739Y256177D01*
X363679Y256286D01*
X363614Y256393D01*
X363547Y256499D01*
X363476Y256602D01*
X363402Y256703D01*
X363325Y256802D01*
X363245Y256898D01*
X363162Y256992D01*
X363077Y257083D01*
X362988Y257172D01*
X362897Y257257D01*
X362803Y257340D01*
X362707Y257420D01*
X362608Y257497D01*
X362507Y257571D01*
X362404Y257642D01*
X362298Y257709D01*
X362191Y257774D01*
X362082Y257834D01*
X361970Y257892D01*
X361858Y257946D01*
X361743Y257997D01*
X361627Y258044D01*
X361510Y258087D01*
X361391Y258127D01*
X361271Y258163D01*
X361150Y258195D01*
X361028Y258224D01*
X360906Y258249D01*
X360782Y258270D01*
X360658Y258287D01*
X360534Y258301D01*
X360409Y258310D01*
X360284Y258316D01*
X360159Y258318D01*
X360016Y258316D01*
X359874Y258310D01*
X359731Y258300D01*
X359589Y258287D01*
X359448Y258269D01*
X359306Y258248D01*
X359166Y258223D01*
X359026Y258194D01*
X358887Y258161D01*
X358749Y258124D01*
X358612Y258084D01*
X358477Y258040D01*
X358342Y257992D01*
X358209Y257940D01*
X358077Y257885D01*
X357947Y257826D01*
X357819Y257764D01*
X357692Y257698D01*
X357567Y257629D01*
X357444Y257557D01*
X357324Y257481D01*
X357205Y257402D01*
X357088Y257319D01*
X356974Y257234D01*
X356862Y257145D01*
X356753Y257054D01*
X356646Y256959D01*
X356541Y256862D01*
X356440Y256761D01*
X356341Y256658D01*
X356245Y256553D01*
X356152Y256444D01*
X356062Y256333D01*
X355975Y256220D01*
X355891Y256105D01*
X355811Y255987D01*
X355733Y255867D01*
X355659Y255745D01*
X355589Y255621D01*
X355521Y255495D01*
X355458Y255367D01*
X355397Y255238D01*
X355340Y255107D01*
X355287Y254975D01*
X355238Y254841D01*
X355192Y254706D01*
X362868Y251093D02*
X362962Y251185D01*
X363052Y251279D01*
X363140Y251376D01*
X363225Y251476D01*
X363307Y251578D01*
X363386Y251683D01*
X363461Y251790D01*
X363533Y251899D01*
X363602Y252010D01*
X363668Y252124D01*
X363730Y252239D01*
X363789Y252356D01*
X363844Y252475D01*
X363895Y252595D01*
X363943Y252717D01*
X363988Y252840D01*
X364028Y252964D01*
X364065Y253090D01*
X364098Y253217D01*
X364127Y253344D01*
X364153Y253473D01*
X364174Y253602D01*
X364192Y253732D01*
X364205Y253862D01*
X364215Y253992D01*
X364221Y254123D01*
X364223Y254254D01*
X362868Y251093D02*
X355192Y242062D01*
X364223Y242062D01*
X369920Y242062D02*
X375339Y258318D01*
X380757Y242062D01*
X379403Y246126D02*
X371275Y246126D01*
X559562Y263793D02*
X564981Y263793D01*
X565099Y263791D01*
X565217Y263785D01*
X565335Y263776D01*
X565452Y263762D01*
X565569Y263745D01*
X565686Y263724D01*
X565801Y263699D01*
X565916Y263670D01*
X566030Y263637D01*
X566142Y263601D01*
X566253Y263561D01*
X566363Y263518D01*
X566472Y263471D01*
X566579Y263421D01*
X566684Y263366D01*
X566787Y263309D01*
X566888Y263248D01*
X566988Y263184D01*
X567085Y263117D01*
X567180Y263047D01*
X567272Y262973D01*
X567363Y262897D01*
X567450Y262817D01*
X567535Y262735D01*
X567617Y262650D01*
X567697Y262563D01*
X567773Y262472D01*
X567847Y262380D01*
X567917Y262285D01*
X567984Y262188D01*
X568048Y262088D01*
X568109Y261987D01*
X568166Y261884D01*
X568221Y261779D01*
X568271Y261672D01*
X568318Y261563D01*
X568361Y261453D01*
X568401Y261342D01*
X568437Y261230D01*
X568470Y261116D01*
X568499Y261001D01*
X568524Y260886D01*
X568545Y260769D01*
X568562Y260652D01*
X568576Y260535D01*
X568585Y260417D01*
X568591Y260299D01*
X568593Y260181D01*
X568593Y259278D01*
X568594Y259278D02*
X568592Y259145D01*
X568586Y259013D01*
X568576Y258881D01*
X568563Y258749D01*
X568545Y258617D01*
X568524Y258487D01*
X568499Y258356D01*
X568470Y258227D01*
X568437Y258099D01*
X568401Y257971D01*
X568361Y257845D01*
X568317Y257720D01*
X568269Y257596D01*
X568218Y257474D01*
X568163Y257353D01*
X568105Y257234D01*
X568043Y257116D01*
X567978Y257001D01*
X567909Y256887D01*
X567838Y256776D01*
X567762Y256667D01*
X567684Y256560D01*
X567603Y256455D01*
X567518Y256353D01*
X567431Y256253D01*
X567341Y256156D01*
X567248Y256061D01*
X567152Y255970D01*
X567054Y255881D01*
X566953Y255795D01*
X566849Y255712D01*
X566743Y255632D01*
X566635Y255556D01*
X566525Y255482D01*
X566412Y255412D01*
X566298Y255345D01*
X566181Y255282D01*
X566063Y255222D01*
X565943Y255165D01*
X565821Y255112D01*
X565698Y255063D01*
X565574Y255017D01*
X565448Y254975D01*
X565321Y254937D01*
X565193Y254902D01*
X565064Y254871D01*
X564935Y254844D01*
X564804Y254821D01*
X564673Y254801D01*
X564541Y254786D01*
X564409Y254774D01*
X564277Y254766D01*
X564144Y254762D01*
X564012Y254762D01*
X563879Y254766D01*
X563747Y254774D01*
X563615Y254786D01*
X563483Y254801D01*
X563352Y254821D01*
X563221Y254844D01*
X563092Y254871D01*
X562963Y254902D01*
X562835Y254937D01*
X562708Y254975D01*
X562582Y255017D01*
X562458Y255063D01*
X562335Y255112D01*
X562213Y255165D01*
X562093Y255222D01*
X561975Y255282D01*
X561858Y255345D01*
X561744Y255412D01*
X561631Y255482D01*
X561521Y255556D01*
X561413Y255632D01*
X561307Y255712D01*
X561203Y255795D01*
X561102Y255881D01*
X561004Y255970D01*
X560908Y256061D01*
X560815Y256156D01*
X560725Y256253D01*
X560638Y256353D01*
X560553Y256455D01*
X560472Y256560D01*
X560394Y256667D01*
X560318Y256776D01*
X560247Y256887D01*
X560178Y257001D01*
X560113Y257116D01*
X560051Y257234D01*
X559993Y257353D01*
X559938Y257474D01*
X559887Y257596D01*
X559839Y257720D01*
X559795Y257845D01*
X559755Y257971D01*
X559719Y258099D01*
X559686Y258227D01*
X559657Y258356D01*
X559632Y258487D01*
X559611Y258617D01*
X559593Y258749D01*
X559580Y258881D01*
X559570Y259013D01*
X559564Y259145D01*
X559562Y259278D01*
X559562Y263793D01*
X559564Y263970D01*
X559571Y264148D01*
X559582Y264325D01*
X559597Y264501D01*
X559616Y264677D01*
X559640Y264853D01*
X559668Y265028D01*
X559701Y265203D01*
X559738Y265376D01*
X559779Y265549D01*
X559824Y265720D01*
X559873Y265890D01*
X559927Y266059D01*
X559984Y266227D01*
X560046Y266393D01*
X560112Y266558D01*
X560182Y266721D01*
X560256Y266882D01*
X560333Y267041D01*
X560415Y267199D01*
X560501Y267354D01*
X560590Y267507D01*
X560683Y267658D01*
X560780Y267807D01*
X560880Y267953D01*
X560984Y268097D01*
X561091Y268238D01*
X561202Y268376D01*
X561316Y268512D01*
X561434Y268645D01*
X561554Y268775D01*
X561678Y268902D01*
X561805Y269026D01*
X561935Y269146D01*
X562068Y269264D01*
X562203Y269378D01*
X562342Y269489D01*
X562483Y269596D01*
X562627Y269700D01*
X562773Y269800D01*
X562922Y269897D01*
X563073Y269990D01*
X563226Y270079D01*
X563381Y270165D01*
X563539Y270247D01*
X563698Y270324D01*
X563859Y270398D01*
X564022Y270468D01*
X564187Y270534D01*
X564353Y270596D01*
X564521Y270653D01*
X564690Y270707D01*
X564860Y270756D01*
X565031Y270801D01*
X565204Y270842D01*
X565377Y270879D01*
X565552Y270912D01*
X565727Y270940D01*
X565903Y270964D01*
X566079Y270983D01*
X566255Y270998D01*
X566432Y271009D01*
X566610Y271016D01*
X566787Y271018D01*
X575193Y267406D02*
X579709Y271018D01*
X579709Y254762D01*
X584224Y254762D02*
X575193Y254762D01*
X591556Y254762D02*
X591556Y271018D01*
X596072Y271018D01*
X596205Y271016D01*
X596337Y271010D01*
X596469Y271000D01*
X596601Y270987D01*
X596733Y270969D01*
X596863Y270948D01*
X596994Y270923D01*
X597123Y270894D01*
X597251Y270861D01*
X597379Y270825D01*
X597505Y270785D01*
X597630Y270741D01*
X597754Y270693D01*
X597876Y270642D01*
X597997Y270587D01*
X598116Y270529D01*
X598234Y270467D01*
X598349Y270402D01*
X598463Y270333D01*
X598574Y270262D01*
X598683Y270186D01*
X598790Y270108D01*
X598895Y270027D01*
X598997Y269942D01*
X599097Y269855D01*
X599194Y269765D01*
X599289Y269672D01*
X599380Y269576D01*
X599469Y269478D01*
X599555Y269377D01*
X599638Y269273D01*
X599718Y269167D01*
X599794Y269059D01*
X599868Y268949D01*
X599938Y268836D01*
X600005Y268722D01*
X600068Y268605D01*
X600128Y268487D01*
X600185Y268367D01*
X600238Y268245D01*
X600287Y268122D01*
X600333Y267998D01*
X600375Y267872D01*
X600413Y267745D01*
X600448Y267617D01*
X600479Y267488D01*
X600506Y267359D01*
X600529Y267228D01*
X600549Y267097D01*
X600564Y266965D01*
X600576Y266833D01*
X600584Y266701D01*
X600588Y266568D01*
X600588Y266436D01*
X600584Y266303D01*
X600576Y266171D01*
X600564Y266039D01*
X600549Y265907D01*
X600529Y265776D01*
X600506Y265645D01*
X600479Y265516D01*
X600448Y265387D01*
X600413Y265259D01*
X600375Y265132D01*
X600333Y265006D01*
X600287Y264882D01*
X600238Y264759D01*
X600185Y264637D01*
X600128Y264517D01*
X600068Y264399D01*
X600005Y264282D01*
X599938Y264168D01*
X599868Y264055D01*
X599794Y263945D01*
X599718Y263837D01*
X599638Y263731D01*
X599555Y263627D01*
X599469Y263526D01*
X599380Y263428D01*
X599289Y263332D01*
X599194Y263239D01*
X599097Y263149D01*
X598997Y263062D01*
X598895Y262977D01*
X598790Y262896D01*
X598683Y262818D01*
X598574Y262742D01*
X598463Y262671D01*
X598349Y262602D01*
X598234Y262537D01*
X598116Y262475D01*
X597997Y262417D01*
X597876Y262362D01*
X597754Y262311D01*
X597630Y262263D01*
X597505Y262219D01*
X597379Y262179D01*
X597251Y262143D01*
X597123Y262110D01*
X596994Y262081D01*
X596863Y262056D01*
X596733Y262035D01*
X596601Y262017D01*
X596469Y262004D01*
X596337Y261994D01*
X596205Y261988D01*
X596072Y261986D01*
X596072Y261987D02*
X591556Y261987D01*
X610029Y254762D02*
X613641Y254762D01*
X610029Y254762D02*
X609911Y254764D01*
X609793Y254770D01*
X609675Y254779D01*
X609558Y254793D01*
X609441Y254810D01*
X609324Y254831D01*
X609209Y254856D01*
X609094Y254885D01*
X608980Y254918D01*
X608868Y254954D01*
X608757Y254994D01*
X608647Y255037D01*
X608538Y255084D01*
X608431Y255134D01*
X608326Y255189D01*
X608223Y255246D01*
X608122Y255307D01*
X608022Y255371D01*
X607925Y255438D01*
X607830Y255508D01*
X607738Y255582D01*
X607647Y255658D01*
X607560Y255738D01*
X607475Y255820D01*
X607393Y255905D01*
X607313Y255992D01*
X607237Y256083D01*
X607163Y256175D01*
X607093Y256270D01*
X607026Y256367D01*
X606962Y256467D01*
X606901Y256568D01*
X606844Y256671D01*
X606789Y256776D01*
X606739Y256883D01*
X606692Y256992D01*
X606649Y257102D01*
X606609Y257213D01*
X606573Y257325D01*
X606540Y257439D01*
X606511Y257554D01*
X606486Y257669D01*
X606465Y257786D01*
X606448Y257903D01*
X606434Y258020D01*
X606425Y258138D01*
X606419Y258256D01*
X606417Y258374D01*
X606416Y258374D02*
X606416Y267406D01*
X606417Y267406D02*
X606419Y267524D01*
X606425Y267642D01*
X606434Y267760D01*
X606448Y267877D01*
X606465Y267994D01*
X606486Y268111D01*
X606511Y268226D01*
X606540Y268341D01*
X606573Y268455D01*
X606609Y268567D01*
X606649Y268678D01*
X606692Y268788D01*
X606739Y268897D01*
X606789Y269004D01*
X606843Y269109D01*
X606901Y269212D01*
X606962Y269313D01*
X607026Y269413D01*
X607093Y269510D01*
X607163Y269605D01*
X607237Y269697D01*
X607313Y269788D01*
X607393Y269875D01*
X607475Y269960D01*
X607560Y270042D01*
X607647Y270122D01*
X607738Y270198D01*
X607830Y270272D01*
X607925Y270342D01*
X608022Y270409D01*
X608122Y270473D01*
X608223Y270534D01*
X608326Y270591D01*
X608431Y270645D01*
X608538Y270696D01*
X608647Y270743D01*
X608757Y270786D01*
X608868Y270826D01*
X608980Y270862D01*
X609094Y270895D01*
X609209Y270924D01*
X609324Y270949D01*
X609441Y270970D01*
X609558Y270987D01*
X609675Y271001D01*
X609793Y271010D01*
X609911Y271016D01*
X610029Y271018D01*
X613641Y271018D01*
X619482Y263793D02*
X624900Y263793D01*
X625018Y263791D01*
X625136Y263785D01*
X625254Y263776D01*
X625371Y263762D01*
X625488Y263745D01*
X625605Y263724D01*
X625720Y263699D01*
X625835Y263670D01*
X625949Y263637D01*
X626061Y263601D01*
X626172Y263561D01*
X626282Y263518D01*
X626391Y263471D01*
X626498Y263421D01*
X626603Y263366D01*
X626706Y263309D01*
X626807Y263248D01*
X626907Y263184D01*
X627004Y263117D01*
X627099Y263047D01*
X627191Y262973D01*
X627282Y262897D01*
X627369Y262817D01*
X627454Y262735D01*
X627536Y262650D01*
X627616Y262563D01*
X627692Y262472D01*
X627766Y262380D01*
X627836Y262285D01*
X627903Y262188D01*
X627967Y262088D01*
X628028Y261987D01*
X628085Y261884D01*
X628140Y261779D01*
X628190Y261672D01*
X628237Y261563D01*
X628280Y261453D01*
X628320Y261342D01*
X628356Y261230D01*
X628389Y261116D01*
X628418Y261001D01*
X628443Y260886D01*
X628464Y260769D01*
X628481Y260652D01*
X628495Y260535D01*
X628504Y260417D01*
X628510Y260299D01*
X628512Y260181D01*
X628513Y260181D02*
X628513Y259278D01*
X628511Y259145D01*
X628505Y259013D01*
X628495Y258881D01*
X628482Y258749D01*
X628464Y258617D01*
X628443Y258487D01*
X628418Y258356D01*
X628389Y258227D01*
X628356Y258099D01*
X628320Y257971D01*
X628280Y257845D01*
X628236Y257720D01*
X628188Y257596D01*
X628137Y257474D01*
X628082Y257353D01*
X628024Y257234D01*
X627962Y257116D01*
X627897Y257001D01*
X627828Y256887D01*
X627757Y256776D01*
X627681Y256667D01*
X627603Y256560D01*
X627522Y256455D01*
X627437Y256353D01*
X627350Y256253D01*
X627260Y256156D01*
X627167Y256061D01*
X627071Y255970D01*
X626973Y255881D01*
X626872Y255795D01*
X626768Y255712D01*
X626662Y255632D01*
X626554Y255556D01*
X626444Y255482D01*
X626331Y255412D01*
X626217Y255345D01*
X626100Y255282D01*
X625982Y255222D01*
X625862Y255165D01*
X625740Y255112D01*
X625617Y255063D01*
X625493Y255017D01*
X625367Y254975D01*
X625240Y254937D01*
X625112Y254902D01*
X624983Y254871D01*
X624854Y254844D01*
X624723Y254821D01*
X624592Y254801D01*
X624460Y254786D01*
X624328Y254774D01*
X624196Y254766D01*
X624063Y254762D01*
X623931Y254762D01*
X623798Y254766D01*
X623666Y254774D01*
X623534Y254786D01*
X623402Y254801D01*
X623271Y254821D01*
X623140Y254844D01*
X623011Y254871D01*
X622882Y254902D01*
X622754Y254937D01*
X622627Y254975D01*
X622501Y255017D01*
X622377Y255063D01*
X622254Y255112D01*
X622132Y255165D01*
X622012Y255222D01*
X621894Y255282D01*
X621777Y255345D01*
X621663Y255412D01*
X621550Y255482D01*
X621440Y255556D01*
X621332Y255632D01*
X621226Y255712D01*
X621122Y255795D01*
X621021Y255881D01*
X620923Y255970D01*
X620827Y256061D01*
X620734Y256156D01*
X620644Y256253D01*
X620557Y256353D01*
X620472Y256455D01*
X620391Y256560D01*
X620313Y256667D01*
X620237Y256776D01*
X620166Y256887D01*
X620097Y257001D01*
X620032Y257116D01*
X619970Y257234D01*
X619912Y257353D01*
X619857Y257474D01*
X619806Y257596D01*
X619758Y257720D01*
X619714Y257845D01*
X619674Y257971D01*
X619638Y258099D01*
X619605Y258227D01*
X619576Y258356D01*
X619551Y258487D01*
X619530Y258617D01*
X619512Y258749D01*
X619499Y258881D01*
X619489Y259013D01*
X619483Y259145D01*
X619481Y259278D01*
X619482Y259278D02*
X619482Y263793D01*
X619484Y263970D01*
X619491Y264148D01*
X619502Y264325D01*
X619517Y264501D01*
X619536Y264677D01*
X619560Y264853D01*
X619588Y265028D01*
X619621Y265203D01*
X619658Y265376D01*
X619699Y265549D01*
X619744Y265720D01*
X619793Y265890D01*
X619847Y266059D01*
X619904Y266227D01*
X619966Y266393D01*
X620032Y266558D01*
X620102Y266721D01*
X620176Y266882D01*
X620253Y267041D01*
X620335Y267199D01*
X620421Y267354D01*
X620510Y267507D01*
X620603Y267658D01*
X620700Y267807D01*
X620800Y267953D01*
X620904Y268097D01*
X621011Y268238D01*
X621122Y268376D01*
X621236Y268512D01*
X621354Y268645D01*
X621474Y268775D01*
X621598Y268902D01*
X621725Y269026D01*
X621855Y269146D01*
X621988Y269264D01*
X622123Y269378D01*
X622262Y269489D01*
X622403Y269596D01*
X622547Y269700D01*
X622693Y269800D01*
X622842Y269897D01*
X622993Y269990D01*
X623146Y270079D01*
X623301Y270165D01*
X623459Y270247D01*
X623618Y270324D01*
X623779Y270398D01*
X623942Y270468D01*
X624107Y270534D01*
X624273Y270596D01*
X624441Y270653D01*
X624610Y270707D01*
X624780Y270756D01*
X624951Y270801D01*
X625124Y270842D01*
X625297Y270879D01*
X625472Y270912D01*
X625647Y270940D01*
X625823Y270964D01*
X625999Y270983D01*
X626175Y270998D01*
X626352Y271009D01*
X626530Y271016D01*
X626707Y271018D01*
X635664Y271018D02*
X635664Y254762D01*
X635664Y271018D02*
X642889Y271018D01*
X642889Y263793D02*
X635664Y263793D01*
D11*
X696700Y129750D02*
X519700Y129750D01*
X519700Y329750D01*
X696700Y329750D01*
X696700Y129750D01*
D12*
X706700Y119750D02*
X501000Y119750D01*
X501000Y345750D01*
X706700Y345750D01*
X706700Y119750D01*
X696700Y129750D02*
X519700Y129750D01*
X696700Y129750D02*
X696700Y329750D01*
X521500Y329750D01*
D13*
X571500Y334750D03*
D14*
X571544Y334752D01*
X571587Y334758D01*
X571629Y334767D01*
X571671Y334780D01*
X571711Y334797D01*
X571750Y334817D01*
X571787Y334840D01*
X571821Y334867D01*
X571854Y334896D01*
X571883Y334929D01*
X571910Y334963D01*
X571933Y335000D01*
X571953Y335039D01*
X571970Y335079D01*
X571983Y335121D01*
X571992Y335163D01*
X571998Y335206D01*
X572000Y335250D01*
X571998Y335294D01*
X571992Y335337D01*
X571983Y335379D01*
X571970Y335421D01*
X571953Y335461D01*
X571933Y335500D01*
X571910Y335537D01*
X571883Y335571D01*
X571854Y335604D01*
X571821Y335633D01*
X571787Y335660D01*
X571750Y335683D01*
X571711Y335703D01*
X571671Y335720D01*
X571629Y335733D01*
X571587Y335742D01*
X571544Y335748D01*
X571500Y335750D01*
D13*
X571500Y335750D03*
D14*
X571456Y335748D01*
X571413Y335742D01*
X571371Y335733D01*
X571329Y335720D01*
X571289Y335703D01*
X571250Y335683D01*
X571213Y335660D01*
X571179Y335633D01*
X571146Y335604D01*
X571117Y335571D01*
X571090Y335537D01*
X571067Y335500D01*
X571047Y335461D01*
X571030Y335421D01*
X571017Y335379D01*
X571008Y335337D01*
X571002Y335294D01*
X571000Y335250D01*
X571002Y335206D01*
X571008Y335163D01*
X571017Y335121D01*
X571030Y335079D01*
X571047Y335039D01*
X571067Y335000D01*
X571090Y334963D01*
X571117Y334929D01*
X571146Y334896D01*
X571179Y334867D01*
X571213Y334840D01*
X571250Y334817D01*
X571289Y334797D01*
X571329Y334780D01*
X571371Y334767D01*
X571413Y334758D01*
X571456Y334752D01*
X571500Y334750D01*
D15*
X378050Y306050D02*
X282350Y306050D01*
X378050Y306050D02*
X378050Y201950D01*
X282350Y201950D01*
X282350Y306050D01*
D12*
X296950Y303550D02*
X363450Y303550D01*
X363450Y204450D01*
X296950Y204450D01*
X296950Y303550D01*
X296950Y290850D02*
X309650Y303550D01*
D11*
X286100Y303550D02*
X363450Y303550D01*
X363450Y204450D02*
X296950Y204450D01*
D10*
X201930Y290830D02*
X128270Y290830D01*
X201930Y290830D02*
X201930Y296672D01*
X201930Y394970D02*
X128270Y394970D01*
X128270Y389128D01*
X128270Y372872D02*
X128270Y363728D01*
X128270Y347472D02*
X128270Y338328D01*
X128270Y322072D02*
X128270Y312928D01*
X128270Y296672D02*
X128270Y290830D01*
X201930Y312928D02*
X201930Y322072D01*
X201930Y338328D02*
X201930Y347472D01*
X201930Y363728D02*
X201930Y372872D01*
X201930Y389128D02*
X201930Y394970D01*
D16*
X125187Y394660D02*
X125187Y398639D01*
X125187Y394660D02*
X127508Y391675D01*
X125187Y394660D02*
X122865Y391675D01*
X125187Y394660D02*
X128834Y395986D01*
X125187Y394660D02*
X121539Y395986D01*
D10*
X129540Y386080D02*
X129540Y375920D01*
X129540Y386080D02*
X121920Y386080D01*
X121920Y375920D01*
X129540Y375920D01*
X129540Y360680D02*
X129540Y350520D01*
X129540Y360680D02*
X121920Y360680D01*
X121920Y350520D01*
X129540Y350520D01*
X129540Y335280D02*
X129540Y325120D01*
X129540Y335280D02*
X121920Y335280D01*
X121920Y325120D01*
X129540Y325120D01*
X129540Y309880D02*
X129540Y299720D01*
X129540Y309880D02*
X121920Y309626D01*
X121920Y299720D01*
X129540Y299720D01*
X200660Y299720D02*
X200660Y309880D01*
X200660Y299720D02*
X208280Y299974D01*
X208280Y309880D01*
X200660Y309880D01*
X200660Y325120D02*
X200660Y335280D01*
X200660Y325120D02*
X208280Y325374D01*
X208026Y335280D01*
X200660Y335280D01*
X200660Y350520D02*
X200660Y360680D01*
X200660Y350520D02*
X208026Y350520D01*
X208026Y360680D01*
X200660Y360680D01*
X200660Y375920D02*
X200660Y386080D01*
X200660Y375920D02*
X208026Y375920D01*
X208026Y386080D01*
X200660Y386080D01*
X200660Y292100D02*
X129540Y292100D01*
X200660Y292100D02*
X200660Y393700D01*
X129540Y393700D01*
X129540Y292100D01*
D16*
X130267Y379674D02*
X130267Y383653D01*
X130267Y379674D02*
X132588Y376689D01*
X130267Y379674D02*
X127945Y376689D01*
X130267Y379674D02*
X133914Y381000D01*
X130267Y379674D02*
X126619Y381000D01*
X148209Y348869D02*
X148209Y336931D01*
X152188Y342237D02*
X148209Y348869D01*
X152188Y342237D02*
X156168Y348869D01*
X156168Y336931D01*
X164069Y336931D02*
X166722Y336931D01*
X164069Y336931D02*
X163967Y336933D01*
X163866Y336939D01*
X163765Y336949D01*
X163664Y336962D01*
X163564Y336980D01*
X163465Y337001D01*
X163366Y337026D01*
X163269Y337055D01*
X163172Y337087D01*
X163077Y337123D01*
X162984Y337163D01*
X162892Y337206D01*
X162802Y337253D01*
X162713Y337304D01*
X162627Y337357D01*
X162543Y337414D01*
X162461Y337474D01*
X162381Y337537D01*
X162304Y337603D01*
X162229Y337672D01*
X162157Y337744D01*
X162088Y337819D01*
X162022Y337896D01*
X161959Y337976D01*
X161899Y338058D01*
X161842Y338142D01*
X161789Y338228D01*
X161738Y338317D01*
X161691Y338407D01*
X161648Y338499D01*
X161608Y338592D01*
X161572Y338687D01*
X161540Y338784D01*
X161511Y338881D01*
X161486Y338980D01*
X161465Y339079D01*
X161447Y339179D01*
X161434Y339280D01*
X161424Y339381D01*
X161418Y339482D01*
X161416Y339584D01*
X161416Y346216D01*
X161418Y346318D01*
X161424Y346419D01*
X161434Y346520D01*
X161447Y346621D01*
X161465Y346721D01*
X161486Y346820D01*
X161511Y346919D01*
X161540Y347016D01*
X161572Y347113D01*
X161608Y347208D01*
X161648Y347301D01*
X161691Y347393D01*
X161738Y347483D01*
X161789Y347572D01*
X161842Y347658D01*
X161899Y347742D01*
X161959Y347824D01*
X162022Y347904D01*
X162088Y347981D01*
X162157Y348056D01*
X162229Y348128D01*
X162304Y348197D01*
X162381Y348263D01*
X162461Y348326D01*
X162543Y348386D01*
X162627Y348443D01*
X162713Y348496D01*
X162802Y348547D01*
X162892Y348594D01*
X162984Y348637D01*
X163077Y348677D01*
X163172Y348713D01*
X163269Y348745D01*
X163366Y348774D01*
X163464Y348799D01*
X163564Y348820D01*
X163664Y348838D01*
X163765Y348851D01*
X163866Y348861D01*
X163967Y348867D01*
X164069Y348869D01*
X166722Y348869D01*
X171499Y348869D02*
X171499Y336931D01*
X171499Y348869D02*
X174815Y348869D01*
X174929Y348867D01*
X175044Y348861D01*
X175158Y348851D01*
X175271Y348837D01*
X175385Y348820D01*
X175497Y348798D01*
X175609Y348773D01*
X175719Y348743D01*
X175829Y348710D01*
X175937Y348673D01*
X176044Y348633D01*
X176150Y348588D01*
X176254Y348541D01*
X176356Y348489D01*
X176456Y348434D01*
X176555Y348376D01*
X176651Y348314D01*
X176746Y348249D01*
X176837Y348181D01*
X176927Y348109D01*
X177014Y348035D01*
X177098Y347958D01*
X177180Y347877D01*
X177259Y347794D01*
X177335Y347709D01*
X177408Y347620D01*
X177477Y347530D01*
X177544Y347437D01*
X177607Y347341D01*
X177667Y347244D01*
X177724Y347144D01*
X177777Y347043D01*
X177827Y346940D01*
X177873Y346835D01*
X177916Y346729D01*
X177954Y346621D01*
X177989Y346512D01*
X178020Y346402D01*
X178048Y346291D01*
X178071Y346179D01*
X178091Y346066D01*
X178107Y345953D01*
X178119Y345839D01*
X178127Y345725D01*
X178131Y345610D01*
X178131Y345496D01*
X178127Y345381D01*
X178119Y345267D01*
X178107Y345153D01*
X178091Y345040D01*
X178071Y344927D01*
X178048Y344815D01*
X178020Y344704D01*
X177989Y344594D01*
X177954Y344485D01*
X177916Y344377D01*
X177873Y344271D01*
X177827Y344166D01*
X177777Y344063D01*
X177724Y343962D01*
X177667Y343862D01*
X177607Y343765D01*
X177544Y343669D01*
X177477Y343576D01*
X177408Y343486D01*
X177335Y343397D01*
X177259Y343312D01*
X177180Y343229D01*
X177098Y343148D01*
X177014Y343071D01*
X176927Y342997D01*
X176837Y342925D01*
X176746Y342857D01*
X176651Y342792D01*
X176555Y342730D01*
X176456Y342672D01*
X176356Y342617D01*
X176254Y342565D01*
X176150Y342518D01*
X176044Y342473D01*
X175937Y342433D01*
X175829Y342396D01*
X175719Y342363D01*
X175609Y342333D01*
X175497Y342308D01*
X175385Y342286D01*
X175271Y342269D01*
X175158Y342255D01*
X175044Y342245D01*
X174929Y342239D01*
X174815Y342237D01*
X171499Y342237D01*
X182400Y339584D02*
X185053Y348869D01*
X182400Y339584D02*
X189032Y339584D01*
X187043Y342237D02*
X187043Y336931D01*
X193830Y346216D02*
X197146Y348869D01*
X197146Y336931D01*
X193830Y336931D02*
X200462Y336931D01*
X205260Y342900D02*
X205263Y343135D01*
X205271Y343370D01*
X205285Y343604D01*
X205305Y343838D01*
X205330Y344072D01*
X205361Y344304D01*
X205397Y344536D01*
X205439Y344768D01*
X205486Y344998D01*
X205539Y345226D01*
X205597Y345454D01*
X205661Y345680D01*
X205730Y345904D01*
X205804Y346127D01*
X205884Y346348D01*
X205969Y346567D01*
X206059Y346784D01*
X206154Y346999D01*
X206255Y347211D01*
X206288Y347303D01*
X206326Y347394D01*
X206367Y347483D01*
X206411Y347571D01*
X206459Y347656D01*
X206510Y347740D01*
X206565Y347822D01*
X206623Y347901D01*
X206684Y347978D01*
X206748Y348052D01*
X206815Y348124D01*
X206885Y348193D01*
X206957Y348259D01*
X207032Y348323D01*
X207110Y348383D01*
X207190Y348440D01*
X207272Y348494D01*
X207356Y348544D01*
X207442Y348591D01*
X207530Y348635D01*
X207620Y348675D01*
X207711Y348712D01*
X207804Y348744D01*
X207898Y348773D01*
X207992Y348799D01*
X208088Y348820D01*
X208185Y348838D01*
X208282Y348851D01*
X208380Y348861D01*
X208478Y348867D01*
X208576Y348869D01*
X208674Y348867D01*
X208772Y348861D01*
X208870Y348851D01*
X208967Y348838D01*
X209064Y348820D01*
X209160Y348799D01*
X209254Y348773D01*
X209348Y348744D01*
X209441Y348712D01*
X209532Y348675D01*
X209622Y348635D01*
X209710Y348591D01*
X209796Y348544D01*
X209880Y348494D01*
X209962Y348440D01*
X210042Y348383D01*
X210120Y348323D01*
X210195Y348259D01*
X210267Y348193D01*
X210337Y348124D01*
X210404Y348052D01*
X210468Y347978D01*
X210529Y347901D01*
X210587Y347822D01*
X210642Y347740D01*
X210693Y347656D01*
X210741Y347571D01*
X210785Y347483D01*
X210826Y347394D01*
X210864Y347303D01*
X210897Y347211D01*
X210898Y347211D02*
X210999Y346999D01*
X211094Y346784D01*
X211184Y346567D01*
X211269Y346348D01*
X211349Y346127D01*
X211423Y345905D01*
X211492Y345680D01*
X211556Y345454D01*
X211614Y345226D01*
X211667Y344998D01*
X211714Y344768D01*
X211756Y344536D01*
X211792Y344304D01*
X211823Y344072D01*
X211848Y343838D01*
X211868Y343604D01*
X211882Y343370D01*
X211890Y343135D01*
X211893Y342900D01*
X205260Y342900D02*
X205263Y342665D01*
X205271Y342430D01*
X205285Y342196D01*
X205305Y341962D01*
X205330Y341728D01*
X205361Y341496D01*
X205397Y341264D01*
X205439Y341033D01*
X205486Y340802D01*
X205539Y340574D01*
X205597Y340346D01*
X205661Y340120D01*
X205730Y339896D01*
X205804Y339673D01*
X205884Y339452D01*
X205969Y339233D01*
X206059Y339016D01*
X206154Y338801D01*
X206255Y338589D01*
X206288Y338497D01*
X206326Y338406D01*
X206367Y338317D01*
X206411Y338229D01*
X206459Y338144D01*
X206511Y338060D01*
X206565Y337978D01*
X206623Y337899D01*
X206684Y337822D01*
X206748Y337748D01*
X206815Y337676D01*
X206885Y337607D01*
X206957Y337541D01*
X207032Y337477D01*
X207110Y337417D01*
X207190Y337360D01*
X207272Y337306D01*
X207356Y337256D01*
X207442Y337209D01*
X207530Y337165D01*
X207620Y337125D01*
X207711Y337088D01*
X207804Y337056D01*
X207898Y337027D01*
X207992Y337001D01*
X208088Y336980D01*
X208185Y336962D01*
X208282Y336949D01*
X208380Y336939D01*
X208478Y336933D01*
X208576Y336931D01*
X210897Y338589D02*
X210998Y338801D01*
X211093Y339016D01*
X211183Y339233D01*
X211268Y339452D01*
X211348Y339673D01*
X211422Y339896D01*
X211491Y340120D01*
X211555Y340346D01*
X211613Y340574D01*
X211666Y340802D01*
X211713Y341032D01*
X211755Y341264D01*
X211791Y341496D01*
X211822Y341728D01*
X211847Y341962D01*
X211867Y342196D01*
X211881Y342430D01*
X211889Y342665D01*
X211892Y342900D01*
X210897Y338589D02*
X210864Y338497D01*
X210826Y338406D01*
X210785Y338317D01*
X210741Y338229D01*
X210693Y338144D01*
X210642Y338060D01*
X210587Y337978D01*
X210529Y337899D01*
X210468Y337822D01*
X210404Y337748D01*
X210337Y337676D01*
X210267Y337607D01*
X210195Y337541D01*
X210120Y337477D01*
X210042Y337417D01*
X209962Y337360D01*
X209880Y337306D01*
X209796Y337256D01*
X209710Y337209D01*
X209622Y337165D01*
X209532Y337125D01*
X209441Y337088D01*
X209348Y337056D01*
X209254Y337027D01*
X209160Y337001D01*
X209064Y336980D01*
X208967Y336962D01*
X208870Y336949D01*
X208772Y336939D01*
X208674Y336933D01*
X208576Y336931D01*
X205923Y339584D02*
X211229Y346216D01*
X216690Y346216D02*
X220006Y348869D01*
X220006Y336931D01*
X216690Y336931D02*
X223322Y336931D01*
X228120Y342900D02*
X228123Y343135D01*
X228131Y343370D01*
X228145Y343604D01*
X228165Y343838D01*
X228190Y344072D01*
X228221Y344304D01*
X228257Y344536D01*
X228299Y344768D01*
X228346Y344998D01*
X228399Y345226D01*
X228457Y345454D01*
X228521Y345680D01*
X228590Y345904D01*
X228664Y346127D01*
X228744Y346348D01*
X228829Y346567D01*
X228919Y346784D01*
X229014Y346999D01*
X229115Y347211D01*
X229148Y347303D01*
X229186Y347394D01*
X229227Y347483D01*
X229271Y347571D01*
X229319Y347656D01*
X229370Y347740D01*
X229425Y347822D01*
X229483Y347901D01*
X229544Y347978D01*
X229608Y348052D01*
X229675Y348124D01*
X229745Y348193D01*
X229817Y348259D01*
X229892Y348323D01*
X229970Y348383D01*
X230050Y348440D01*
X230132Y348494D01*
X230216Y348544D01*
X230302Y348591D01*
X230390Y348635D01*
X230480Y348675D01*
X230571Y348712D01*
X230664Y348744D01*
X230758Y348773D01*
X230852Y348799D01*
X230948Y348820D01*
X231045Y348838D01*
X231142Y348851D01*
X231240Y348861D01*
X231338Y348867D01*
X231436Y348869D01*
X231534Y348867D01*
X231632Y348861D01*
X231730Y348851D01*
X231827Y348838D01*
X231924Y348820D01*
X232020Y348799D01*
X232114Y348773D01*
X232208Y348744D01*
X232301Y348712D01*
X232392Y348675D01*
X232482Y348635D01*
X232570Y348591D01*
X232656Y348544D01*
X232740Y348494D01*
X232822Y348440D01*
X232902Y348383D01*
X232980Y348323D01*
X233055Y348259D01*
X233127Y348193D01*
X233197Y348124D01*
X233264Y348052D01*
X233328Y347978D01*
X233389Y347901D01*
X233447Y347822D01*
X233502Y347740D01*
X233553Y347656D01*
X233601Y347571D01*
X233645Y347483D01*
X233686Y347394D01*
X233724Y347303D01*
X233757Y347211D01*
X233758Y347211D02*
X233859Y346999D01*
X233954Y346784D01*
X234044Y346567D01*
X234129Y346348D01*
X234209Y346127D01*
X234283Y345905D01*
X234352Y345680D01*
X234416Y345454D01*
X234474Y345226D01*
X234527Y344998D01*
X234574Y344768D01*
X234616Y344536D01*
X234652Y344304D01*
X234683Y344072D01*
X234708Y343838D01*
X234728Y343604D01*
X234742Y343370D01*
X234750Y343135D01*
X234753Y342900D01*
X228120Y342900D02*
X228123Y342665D01*
X228131Y342430D01*
X228145Y342196D01*
X228165Y341962D01*
X228190Y341728D01*
X228221Y341496D01*
X228257Y341264D01*
X228299Y341033D01*
X228346Y340802D01*
X228399Y340574D01*
X228457Y340346D01*
X228521Y340120D01*
X228590Y339896D01*
X228664Y339673D01*
X228744Y339452D01*
X228829Y339233D01*
X228919Y339016D01*
X229014Y338801D01*
X229115Y338589D01*
X229148Y338497D01*
X229186Y338406D01*
X229227Y338317D01*
X229271Y338229D01*
X229319Y338144D01*
X229371Y338060D01*
X229425Y337978D01*
X229483Y337899D01*
X229544Y337822D01*
X229608Y337748D01*
X229675Y337676D01*
X229745Y337607D01*
X229817Y337541D01*
X229892Y337477D01*
X229970Y337417D01*
X230050Y337360D01*
X230132Y337306D01*
X230216Y337256D01*
X230302Y337209D01*
X230390Y337165D01*
X230480Y337125D01*
X230571Y337088D01*
X230664Y337056D01*
X230758Y337027D01*
X230852Y337001D01*
X230948Y336980D01*
X231045Y336962D01*
X231142Y336949D01*
X231240Y336939D01*
X231338Y336933D01*
X231436Y336931D01*
X233757Y338589D02*
X233858Y338801D01*
X233953Y339016D01*
X234043Y339233D01*
X234128Y339452D01*
X234208Y339673D01*
X234282Y339896D01*
X234351Y340120D01*
X234415Y340346D01*
X234473Y340574D01*
X234526Y340802D01*
X234573Y341032D01*
X234615Y341264D01*
X234651Y341496D01*
X234682Y341728D01*
X234707Y341962D01*
X234727Y342196D01*
X234741Y342430D01*
X234749Y342665D01*
X234752Y342900D01*
X233757Y338589D02*
X233724Y338497D01*
X233686Y338406D01*
X233645Y338317D01*
X233601Y338229D01*
X233553Y338144D01*
X233502Y338060D01*
X233447Y337978D01*
X233389Y337899D01*
X233328Y337822D01*
X233264Y337748D01*
X233197Y337676D01*
X233127Y337607D01*
X233055Y337541D01*
X232980Y337477D01*
X232902Y337417D01*
X232822Y337360D01*
X232740Y337306D01*
X232656Y337256D01*
X232570Y337209D01*
X232482Y337165D01*
X232392Y337125D01*
X232301Y337088D01*
X232208Y337056D01*
X232114Y337027D01*
X232020Y337001D01*
X231924Y336980D01*
X231827Y336962D01*
X231730Y336949D01*
X231632Y336939D01*
X231534Y336933D01*
X231436Y336931D01*
X228783Y339584D02*
X234089Y346216D01*
X239649Y341574D02*
X247607Y341574D01*
X253534Y336931D02*
X253534Y348869D01*
X252208Y336931D02*
X254861Y336931D01*
X254861Y348869D02*
X252208Y348869D01*
X264188Y350195D02*
X258882Y335605D01*
X269035Y336931D02*
X269035Y348869D01*
X272351Y348869D01*
X272465Y348867D01*
X272580Y348861D01*
X272694Y348851D01*
X272807Y348837D01*
X272921Y348820D01*
X273033Y348798D01*
X273145Y348773D01*
X273255Y348743D01*
X273365Y348710D01*
X273473Y348673D01*
X273580Y348633D01*
X273686Y348588D01*
X273790Y348541D01*
X273892Y348489D01*
X273992Y348434D01*
X274091Y348376D01*
X274187Y348314D01*
X274282Y348249D01*
X274373Y348181D01*
X274463Y348109D01*
X274550Y348035D01*
X274634Y347958D01*
X274716Y347877D01*
X274795Y347794D01*
X274871Y347709D01*
X274944Y347620D01*
X275013Y347530D01*
X275080Y347437D01*
X275143Y347341D01*
X275203Y347244D01*
X275260Y347144D01*
X275313Y347043D01*
X275363Y346940D01*
X275409Y346835D01*
X275452Y346729D01*
X275490Y346621D01*
X275525Y346512D01*
X275556Y346402D01*
X275584Y346291D01*
X275607Y346179D01*
X275627Y346066D01*
X275643Y345953D01*
X275655Y345839D01*
X275663Y345725D01*
X275667Y345610D01*
X275667Y345496D01*
X275663Y345381D01*
X275655Y345267D01*
X275643Y345153D01*
X275627Y345040D01*
X275607Y344927D01*
X275584Y344815D01*
X275556Y344704D01*
X275525Y344594D01*
X275490Y344485D01*
X275452Y344377D01*
X275409Y344271D01*
X275363Y344166D01*
X275313Y344063D01*
X275260Y343962D01*
X275203Y343862D01*
X275143Y343765D01*
X275080Y343669D01*
X275013Y343576D01*
X274944Y343486D01*
X274871Y343397D01*
X274795Y343312D01*
X274716Y343229D01*
X274634Y343148D01*
X274550Y343071D01*
X274463Y342997D01*
X274373Y342925D01*
X274282Y342857D01*
X274187Y342792D01*
X274091Y342730D01*
X273992Y342672D01*
X273892Y342617D01*
X273790Y342565D01*
X273686Y342518D01*
X273580Y342473D01*
X273473Y342433D01*
X273365Y342396D01*
X273255Y342363D01*
X273145Y342333D01*
X273033Y342308D01*
X272921Y342286D01*
X272807Y342269D01*
X272694Y342255D01*
X272580Y342245D01*
X272465Y342239D01*
X272351Y342237D01*
X269035Y342237D01*
D10*
X201930Y113030D02*
X128270Y113030D01*
X201930Y113030D02*
X201930Y118872D01*
X201930Y217170D02*
X128270Y217170D01*
X128270Y211328D01*
X128270Y195072D02*
X128270Y185928D01*
X128270Y169672D02*
X128270Y160528D01*
X128270Y144272D02*
X128270Y135128D01*
X128270Y118872D02*
X128270Y113030D01*
X201930Y135128D02*
X201930Y144272D01*
X201930Y160528D02*
X201930Y169672D01*
X201930Y185928D02*
X201930Y195072D01*
X201930Y211328D02*
X201930Y217170D01*
D16*
X125187Y216860D02*
X125187Y220839D01*
X125187Y216860D02*
X127508Y213875D01*
X125187Y216860D02*
X122865Y213875D01*
X125187Y216860D02*
X128834Y218186D01*
X125187Y216860D02*
X121539Y218186D01*
D10*
X129540Y208280D02*
X129540Y198120D01*
X129540Y208280D02*
X121920Y208280D01*
X121920Y198120D01*
X129540Y198120D01*
X129540Y182880D02*
X129540Y172720D01*
X129540Y182880D02*
X121920Y182880D01*
X121920Y172720D01*
X129540Y172720D01*
X129540Y157480D02*
X129540Y147320D01*
X129540Y157480D02*
X121920Y157480D01*
X121920Y147320D01*
X129540Y147320D01*
X129540Y132080D02*
X129540Y121920D01*
X129540Y132080D02*
X121920Y131826D01*
X121920Y121920D01*
X129540Y121920D01*
X200660Y121920D02*
X200660Y132080D01*
X200660Y121920D02*
X208280Y122174D01*
X208280Y132080D01*
X200660Y132080D01*
X200660Y147320D02*
X200660Y157480D01*
X200660Y147320D02*
X208280Y147574D01*
X208026Y157480D01*
X200660Y157480D01*
X200660Y172720D02*
X200660Y182880D01*
X200660Y172720D02*
X208026Y172720D01*
X208026Y182880D01*
X200660Y182880D01*
X200660Y198120D02*
X200660Y208280D01*
X200660Y198120D02*
X208026Y198120D01*
X208026Y208280D01*
X200660Y208280D01*
X200660Y114300D02*
X129540Y114300D01*
X200660Y114300D02*
X200660Y215900D01*
X129540Y215900D01*
X129540Y114300D01*
D16*
X130267Y201874D02*
X130267Y205853D01*
X130267Y201874D02*
X132588Y198889D01*
X130267Y201874D02*
X127945Y198889D01*
X130267Y201874D02*
X133914Y203200D01*
X130267Y201874D02*
X126619Y203200D01*
X148209Y171069D02*
X148209Y159131D01*
X152188Y164437D02*
X148209Y171069D01*
X152188Y164437D02*
X156168Y171069D01*
X156168Y159131D01*
X164069Y159131D02*
X166722Y159131D01*
X164069Y159131D02*
X163967Y159133D01*
X163866Y159139D01*
X163765Y159149D01*
X163664Y159162D01*
X163564Y159180D01*
X163465Y159201D01*
X163366Y159226D01*
X163269Y159255D01*
X163172Y159287D01*
X163077Y159323D01*
X162984Y159363D01*
X162892Y159406D01*
X162802Y159453D01*
X162713Y159504D01*
X162627Y159557D01*
X162543Y159614D01*
X162461Y159674D01*
X162381Y159737D01*
X162304Y159803D01*
X162229Y159872D01*
X162157Y159944D01*
X162088Y160019D01*
X162022Y160096D01*
X161959Y160176D01*
X161899Y160258D01*
X161842Y160342D01*
X161789Y160428D01*
X161738Y160517D01*
X161691Y160607D01*
X161648Y160699D01*
X161608Y160792D01*
X161572Y160887D01*
X161540Y160984D01*
X161511Y161081D01*
X161486Y161180D01*
X161465Y161279D01*
X161447Y161379D01*
X161434Y161480D01*
X161424Y161581D01*
X161418Y161682D01*
X161416Y161784D01*
X161416Y168416D01*
X161418Y168518D01*
X161424Y168619D01*
X161434Y168720D01*
X161447Y168821D01*
X161465Y168921D01*
X161486Y169020D01*
X161511Y169119D01*
X161540Y169216D01*
X161572Y169313D01*
X161608Y169408D01*
X161648Y169501D01*
X161691Y169593D01*
X161738Y169683D01*
X161789Y169772D01*
X161842Y169858D01*
X161899Y169942D01*
X161959Y170024D01*
X162022Y170104D01*
X162088Y170181D01*
X162157Y170256D01*
X162229Y170328D01*
X162304Y170397D01*
X162381Y170463D01*
X162461Y170526D01*
X162543Y170586D01*
X162627Y170643D01*
X162713Y170696D01*
X162802Y170747D01*
X162892Y170794D01*
X162984Y170837D01*
X163077Y170877D01*
X163172Y170913D01*
X163269Y170945D01*
X163366Y170974D01*
X163464Y170999D01*
X163564Y171020D01*
X163664Y171038D01*
X163765Y171051D01*
X163866Y171061D01*
X163967Y171067D01*
X164069Y171069D01*
X166722Y171069D01*
X171499Y171069D02*
X171499Y159131D01*
X171499Y171069D02*
X174815Y171069D01*
X174929Y171067D01*
X175044Y171061D01*
X175158Y171051D01*
X175271Y171037D01*
X175385Y171020D01*
X175497Y170998D01*
X175609Y170973D01*
X175719Y170943D01*
X175829Y170910D01*
X175937Y170873D01*
X176044Y170833D01*
X176150Y170788D01*
X176254Y170741D01*
X176356Y170689D01*
X176456Y170634D01*
X176555Y170576D01*
X176651Y170514D01*
X176746Y170449D01*
X176837Y170381D01*
X176927Y170309D01*
X177014Y170235D01*
X177098Y170158D01*
X177180Y170077D01*
X177259Y169994D01*
X177335Y169909D01*
X177408Y169820D01*
X177477Y169730D01*
X177544Y169637D01*
X177607Y169541D01*
X177667Y169444D01*
X177724Y169344D01*
X177777Y169243D01*
X177827Y169140D01*
X177873Y169035D01*
X177916Y168929D01*
X177954Y168821D01*
X177989Y168712D01*
X178020Y168602D01*
X178048Y168491D01*
X178071Y168379D01*
X178091Y168266D01*
X178107Y168153D01*
X178119Y168039D01*
X178127Y167925D01*
X178131Y167810D01*
X178131Y167696D01*
X178127Y167581D01*
X178119Y167467D01*
X178107Y167353D01*
X178091Y167240D01*
X178071Y167127D01*
X178048Y167015D01*
X178020Y166904D01*
X177989Y166794D01*
X177954Y166685D01*
X177916Y166577D01*
X177873Y166471D01*
X177827Y166366D01*
X177777Y166263D01*
X177724Y166162D01*
X177667Y166062D01*
X177607Y165965D01*
X177544Y165869D01*
X177477Y165776D01*
X177408Y165686D01*
X177335Y165597D01*
X177259Y165512D01*
X177180Y165429D01*
X177098Y165348D01*
X177014Y165271D01*
X176927Y165197D01*
X176837Y165125D01*
X176746Y165057D01*
X176651Y164992D01*
X176555Y164930D01*
X176456Y164872D01*
X176356Y164817D01*
X176254Y164765D01*
X176150Y164718D01*
X176044Y164673D01*
X175937Y164633D01*
X175829Y164596D01*
X175719Y164563D01*
X175609Y164533D01*
X175497Y164508D01*
X175385Y164486D01*
X175271Y164469D01*
X175158Y164455D01*
X175044Y164445D01*
X174929Y164439D01*
X174815Y164437D01*
X171499Y164437D01*
X182400Y161784D02*
X185053Y171069D01*
X182400Y161784D02*
X189032Y161784D01*
X187043Y164437D02*
X187043Y159131D01*
X193830Y168416D02*
X197146Y171069D01*
X197146Y159131D01*
X193830Y159131D02*
X200462Y159131D01*
X205260Y165100D02*
X205263Y165335D01*
X205271Y165570D01*
X205285Y165804D01*
X205305Y166038D01*
X205330Y166272D01*
X205361Y166504D01*
X205397Y166736D01*
X205439Y166968D01*
X205486Y167198D01*
X205539Y167426D01*
X205597Y167654D01*
X205661Y167880D01*
X205730Y168104D01*
X205804Y168327D01*
X205884Y168548D01*
X205969Y168767D01*
X206059Y168984D01*
X206154Y169199D01*
X206255Y169411D01*
X206288Y169503D01*
X206326Y169594D01*
X206367Y169683D01*
X206411Y169771D01*
X206459Y169856D01*
X206510Y169940D01*
X206565Y170022D01*
X206623Y170101D01*
X206684Y170178D01*
X206748Y170252D01*
X206815Y170324D01*
X206885Y170393D01*
X206957Y170459D01*
X207032Y170523D01*
X207110Y170583D01*
X207190Y170640D01*
X207272Y170694D01*
X207356Y170744D01*
X207442Y170791D01*
X207530Y170835D01*
X207620Y170875D01*
X207711Y170912D01*
X207804Y170944D01*
X207898Y170973D01*
X207992Y170999D01*
X208088Y171020D01*
X208185Y171038D01*
X208282Y171051D01*
X208380Y171061D01*
X208478Y171067D01*
X208576Y171069D01*
X208674Y171067D01*
X208772Y171061D01*
X208870Y171051D01*
X208967Y171038D01*
X209064Y171020D01*
X209160Y170999D01*
X209254Y170973D01*
X209348Y170944D01*
X209441Y170912D01*
X209532Y170875D01*
X209622Y170835D01*
X209710Y170791D01*
X209796Y170744D01*
X209880Y170694D01*
X209962Y170640D01*
X210042Y170583D01*
X210120Y170523D01*
X210195Y170459D01*
X210267Y170393D01*
X210337Y170324D01*
X210404Y170252D01*
X210468Y170178D01*
X210529Y170101D01*
X210587Y170022D01*
X210642Y169940D01*
X210693Y169856D01*
X210741Y169771D01*
X210785Y169683D01*
X210826Y169594D01*
X210864Y169503D01*
X210897Y169411D01*
X210898Y169411D02*
X210999Y169199D01*
X211094Y168984D01*
X211184Y168767D01*
X211269Y168548D01*
X211349Y168327D01*
X211423Y168105D01*
X211492Y167880D01*
X211556Y167654D01*
X211614Y167426D01*
X211667Y167198D01*
X211714Y166968D01*
X211756Y166736D01*
X211792Y166504D01*
X211823Y166272D01*
X211848Y166038D01*
X211868Y165804D01*
X211882Y165570D01*
X211890Y165335D01*
X211893Y165100D01*
X205260Y165100D02*
X205263Y164865D01*
X205271Y164630D01*
X205285Y164396D01*
X205305Y164162D01*
X205330Y163928D01*
X205361Y163696D01*
X205397Y163464D01*
X205439Y163233D01*
X205486Y163002D01*
X205539Y162774D01*
X205597Y162546D01*
X205661Y162320D01*
X205730Y162096D01*
X205804Y161873D01*
X205884Y161652D01*
X205969Y161433D01*
X206059Y161216D01*
X206154Y161001D01*
X206255Y160789D01*
X206288Y160697D01*
X206326Y160606D01*
X206367Y160517D01*
X206411Y160429D01*
X206459Y160344D01*
X206511Y160260D01*
X206565Y160178D01*
X206623Y160099D01*
X206684Y160022D01*
X206748Y159948D01*
X206815Y159876D01*
X206885Y159807D01*
X206957Y159741D01*
X207032Y159677D01*
X207110Y159617D01*
X207190Y159560D01*
X207272Y159506D01*
X207356Y159456D01*
X207442Y159409D01*
X207530Y159365D01*
X207620Y159325D01*
X207711Y159288D01*
X207804Y159256D01*
X207898Y159227D01*
X207992Y159201D01*
X208088Y159180D01*
X208185Y159162D01*
X208282Y159149D01*
X208380Y159139D01*
X208478Y159133D01*
X208576Y159131D01*
X210897Y160789D02*
X210998Y161001D01*
X211093Y161216D01*
X211183Y161433D01*
X211268Y161652D01*
X211348Y161873D01*
X211422Y162096D01*
X211491Y162320D01*
X211555Y162546D01*
X211613Y162774D01*
X211666Y163002D01*
X211713Y163232D01*
X211755Y163464D01*
X211791Y163696D01*
X211822Y163928D01*
X211847Y164162D01*
X211867Y164396D01*
X211881Y164630D01*
X211889Y164865D01*
X211892Y165100D01*
X210897Y160789D02*
X210864Y160697D01*
X210826Y160606D01*
X210785Y160517D01*
X210741Y160429D01*
X210693Y160344D01*
X210642Y160260D01*
X210587Y160178D01*
X210529Y160099D01*
X210468Y160022D01*
X210404Y159948D01*
X210337Y159876D01*
X210267Y159807D01*
X210195Y159741D01*
X210120Y159677D01*
X210042Y159617D01*
X209962Y159560D01*
X209880Y159506D01*
X209796Y159456D01*
X209710Y159409D01*
X209622Y159365D01*
X209532Y159325D01*
X209441Y159288D01*
X209348Y159256D01*
X209254Y159227D01*
X209160Y159201D01*
X209064Y159180D01*
X208967Y159162D01*
X208870Y159149D01*
X208772Y159139D01*
X208674Y159133D01*
X208576Y159131D01*
X205923Y161784D02*
X211229Y168416D01*
X216690Y168416D02*
X220006Y171069D01*
X220006Y159131D01*
X216690Y159131D02*
X223322Y159131D01*
X228120Y165100D02*
X228123Y165335D01*
X228131Y165570D01*
X228145Y165804D01*
X228165Y166038D01*
X228190Y166272D01*
X228221Y166504D01*
X228257Y166736D01*
X228299Y166968D01*
X228346Y167198D01*
X228399Y167426D01*
X228457Y167654D01*
X228521Y167880D01*
X228590Y168104D01*
X228664Y168327D01*
X228744Y168548D01*
X228829Y168767D01*
X228919Y168984D01*
X229014Y169199D01*
X229115Y169411D01*
X229148Y169503D01*
X229186Y169594D01*
X229227Y169683D01*
X229271Y169771D01*
X229319Y169856D01*
X229370Y169940D01*
X229425Y170022D01*
X229483Y170101D01*
X229544Y170178D01*
X229608Y170252D01*
X229675Y170324D01*
X229745Y170393D01*
X229817Y170459D01*
X229892Y170523D01*
X229970Y170583D01*
X230050Y170640D01*
X230132Y170694D01*
X230216Y170744D01*
X230302Y170791D01*
X230390Y170835D01*
X230480Y170875D01*
X230571Y170912D01*
X230664Y170944D01*
X230758Y170973D01*
X230852Y170999D01*
X230948Y171020D01*
X231045Y171038D01*
X231142Y171051D01*
X231240Y171061D01*
X231338Y171067D01*
X231436Y171069D01*
X231534Y171067D01*
X231632Y171061D01*
X231730Y171051D01*
X231827Y171038D01*
X231924Y171020D01*
X232020Y170999D01*
X232114Y170973D01*
X232208Y170944D01*
X232301Y170912D01*
X232392Y170875D01*
X232482Y170835D01*
X232570Y170791D01*
X232656Y170744D01*
X232740Y170694D01*
X232822Y170640D01*
X232902Y170583D01*
X232980Y170523D01*
X233055Y170459D01*
X233127Y170393D01*
X233197Y170324D01*
X233264Y170252D01*
X233328Y170178D01*
X233389Y170101D01*
X233447Y170022D01*
X233502Y169940D01*
X233553Y169856D01*
X233601Y169771D01*
X233645Y169683D01*
X233686Y169594D01*
X233724Y169503D01*
X233757Y169411D01*
X233758Y169411D02*
X233859Y169199D01*
X233954Y168984D01*
X234044Y168767D01*
X234129Y168548D01*
X234209Y168327D01*
X234283Y168105D01*
X234352Y167880D01*
X234416Y167654D01*
X234474Y167426D01*
X234527Y167198D01*
X234574Y166968D01*
X234616Y166736D01*
X234652Y166504D01*
X234683Y166272D01*
X234708Y166038D01*
X234728Y165804D01*
X234742Y165570D01*
X234750Y165335D01*
X234753Y165100D01*
X228120Y165100D02*
X228123Y164865D01*
X228131Y164630D01*
X228145Y164396D01*
X228165Y164162D01*
X228190Y163928D01*
X228221Y163696D01*
X228257Y163464D01*
X228299Y163233D01*
X228346Y163002D01*
X228399Y162774D01*
X228457Y162546D01*
X228521Y162320D01*
X228590Y162096D01*
X228664Y161873D01*
X228744Y161652D01*
X228829Y161433D01*
X228919Y161216D01*
X229014Y161001D01*
X229115Y160789D01*
X229148Y160697D01*
X229186Y160606D01*
X229227Y160517D01*
X229271Y160429D01*
X229319Y160344D01*
X229371Y160260D01*
X229425Y160178D01*
X229483Y160099D01*
X229544Y160022D01*
X229608Y159948D01*
X229675Y159876D01*
X229745Y159807D01*
X229817Y159741D01*
X229892Y159677D01*
X229970Y159617D01*
X230050Y159560D01*
X230132Y159506D01*
X230216Y159456D01*
X230302Y159409D01*
X230390Y159365D01*
X230480Y159325D01*
X230571Y159288D01*
X230664Y159256D01*
X230758Y159227D01*
X230852Y159201D01*
X230948Y159180D01*
X231045Y159162D01*
X231142Y159149D01*
X231240Y159139D01*
X231338Y159133D01*
X231436Y159131D01*
X233757Y160789D02*
X233858Y161001D01*
X233953Y161216D01*
X234043Y161433D01*
X234128Y161652D01*
X234208Y161873D01*
X234282Y162096D01*
X234351Y162320D01*
X234415Y162546D01*
X234473Y162774D01*
X234526Y163002D01*
X234573Y163232D01*
X234615Y163464D01*
X234651Y163696D01*
X234682Y163928D01*
X234707Y164162D01*
X234727Y164396D01*
X234741Y164630D01*
X234749Y164865D01*
X234752Y165100D01*
X233757Y160789D02*
X233724Y160697D01*
X233686Y160606D01*
X233645Y160517D01*
X233601Y160429D01*
X233553Y160344D01*
X233502Y160260D01*
X233447Y160178D01*
X233389Y160099D01*
X233328Y160022D01*
X233264Y159948D01*
X233197Y159876D01*
X233127Y159807D01*
X233055Y159741D01*
X232980Y159677D01*
X232902Y159617D01*
X232822Y159560D01*
X232740Y159506D01*
X232656Y159456D01*
X232570Y159409D01*
X232482Y159365D01*
X232392Y159325D01*
X232301Y159288D01*
X232208Y159256D01*
X232114Y159227D01*
X232020Y159201D01*
X231924Y159180D01*
X231827Y159162D01*
X231730Y159149D01*
X231632Y159139D01*
X231534Y159133D01*
X231436Y159131D01*
X228783Y161784D02*
X234089Y168416D01*
X239649Y163774D02*
X247607Y163774D01*
X253534Y159131D02*
X253534Y171069D01*
X252208Y159131D02*
X254861Y159131D01*
X254861Y171069D02*
X252208Y171069D01*
X264188Y172395D02*
X258882Y157805D01*
X269035Y159131D02*
X269035Y171069D01*
X272351Y171069D01*
X272465Y171067D01*
X272580Y171061D01*
X272694Y171051D01*
X272807Y171037D01*
X272921Y171020D01*
X273033Y170998D01*
X273145Y170973D01*
X273255Y170943D01*
X273365Y170910D01*
X273473Y170873D01*
X273580Y170833D01*
X273686Y170788D01*
X273790Y170741D01*
X273892Y170689D01*
X273992Y170634D01*
X274091Y170576D01*
X274187Y170514D01*
X274282Y170449D01*
X274373Y170381D01*
X274463Y170309D01*
X274550Y170235D01*
X274634Y170158D01*
X274716Y170077D01*
X274795Y169994D01*
X274871Y169909D01*
X274944Y169820D01*
X275013Y169730D01*
X275080Y169637D01*
X275143Y169541D01*
X275203Y169444D01*
X275260Y169344D01*
X275313Y169243D01*
X275363Y169140D01*
X275409Y169035D01*
X275452Y168929D01*
X275490Y168821D01*
X275525Y168712D01*
X275556Y168602D01*
X275584Y168491D01*
X275607Y168379D01*
X275627Y168266D01*
X275643Y168153D01*
X275655Y168039D01*
X275663Y167925D01*
X275667Y167810D01*
X275667Y167696D01*
X275663Y167581D01*
X275655Y167467D01*
X275643Y167353D01*
X275627Y167240D01*
X275607Y167127D01*
X275584Y167015D01*
X275556Y166904D01*
X275525Y166794D01*
X275490Y166685D01*
X275452Y166577D01*
X275409Y166471D01*
X275363Y166366D01*
X275313Y166263D01*
X275260Y166162D01*
X275203Y166062D01*
X275143Y165965D01*
X275080Y165869D01*
X275013Y165776D01*
X274944Y165686D01*
X274871Y165597D01*
X274795Y165512D01*
X274716Y165429D01*
X274634Y165348D01*
X274550Y165271D01*
X274463Y165197D01*
X274373Y165125D01*
X274282Y165057D01*
X274187Y164992D01*
X274091Y164930D01*
X273992Y164872D01*
X273892Y164817D01*
X273790Y164765D01*
X273686Y164718D01*
X273580Y164673D01*
X273473Y164633D01*
X273365Y164596D01*
X273255Y164563D01*
X273145Y164533D01*
X273033Y164508D01*
X272921Y164486D01*
X272807Y164469D01*
X272694Y164455D01*
X272580Y164445D01*
X272465Y164439D01*
X272351Y164437D01*
X269035Y164437D01*
D17*
X159840Y520700D02*
X159845Y521141D01*
X159862Y521581D01*
X159889Y522021D01*
X159926Y522460D01*
X159975Y522898D01*
X160034Y523335D01*
X160104Y523770D01*
X160185Y524204D01*
X160276Y524635D01*
X160378Y525064D01*
X160491Y525490D01*
X160613Y525914D01*
X160746Y526334D01*
X160890Y526751D01*
X161043Y527164D01*
X161207Y527573D01*
X161381Y527978D01*
X161564Y528379D01*
X161758Y528775D01*
X161961Y529166D01*
X162173Y529552D01*
X162395Y529933D01*
X162626Y530309D01*
X162867Y530678D01*
X163116Y531042D01*
X163374Y531399D01*
X163641Y531750D01*
X163917Y532094D01*
X164201Y532431D01*
X164493Y532761D01*
X164793Y533084D01*
X165100Y533400D01*
X165416Y533707D01*
X165739Y534007D01*
X166069Y534299D01*
X166406Y534583D01*
X166750Y534859D01*
X167101Y535126D01*
X167458Y535384D01*
X167822Y535633D01*
X168191Y535874D01*
X168567Y536105D01*
X168948Y536327D01*
X169334Y536539D01*
X169725Y536742D01*
X170121Y536936D01*
X170522Y537119D01*
X170927Y537293D01*
X171336Y537457D01*
X171749Y537610D01*
X172166Y537754D01*
X172586Y537887D01*
X173010Y538009D01*
X173436Y538122D01*
X173865Y538224D01*
X174296Y538315D01*
X174730Y538396D01*
X175165Y538466D01*
X175602Y538525D01*
X176040Y538574D01*
X176479Y538611D01*
X176919Y538638D01*
X177359Y538655D01*
X177800Y538660D01*
X178241Y538655D01*
X178681Y538638D01*
X179121Y538611D01*
X179560Y538574D01*
X179998Y538525D01*
X180435Y538466D01*
X180870Y538396D01*
X181304Y538315D01*
X181735Y538224D01*
X182164Y538122D01*
X182590Y538009D01*
X183014Y537887D01*
X183434Y537754D01*
X183851Y537610D01*
X184264Y537457D01*
X184673Y537293D01*
X185078Y537119D01*
X185479Y536936D01*
X185875Y536742D01*
X186266Y536539D01*
X186652Y536327D01*
X187033Y536105D01*
X187409Y535874D01*
X187778Y535633D01*
X188142Y535384D01*
X188499Y535126D01*
X188850Y534859D01*
X189194Y534583D01*
X189531Y534299D01*
X189861Y534007D01*
X190184Y533707D01*
X190500Y533400D01*
X190807Y533084D01*
X191107Y532761D01*
X191399Y532431D01*
X191683Y532094D01*
X191959Y531750D01*
X192226Y531399D01*
X192484Y531042D01*
X192733Y530678D01*
X192974Y530309D01*
X193205Y529933D01*
X193427Y529552D01*
X193639Y529166D01*
X193842Y528775D01*
X194036Y528379D01*
X194219Y527978D01*
X194393Y527573D01*
X194557Y527164D01*
X194710Y526751D01*
X194854Y526334D01*
X194987Y525914D01*
X195109Y525490D01*
X195222Y525064D01*
X195324Y524635D01*
X195415Y524204D01*
X195496Y523770D01*
X195566Y523335D01*
X195625Y522898D01*
X195674Y522460D01*
X195711Y522021D01*
X195738Y521581D01*
X195755Y521141D01*
X195760Y520700D01*
X195755Y520259D01*
X195738Y519819D01*
X195711Y519379D01*
X195674Y518940D01*
X195625Y518502D01*
X195566Y518065D01*
X195496Y517630D01*
X195415Y517196D01*
X195324Y516765D01*
X195222Y516336D01*
X195109Y515910D01*
X194987Y515486D01*
X194854Y515066D01*
X194710Y514649D01*
X194557Y514236D01*
X194393Y513827D01*
X194219Y513422D01*
X194036Y513021D01*
X193842Y512625D01*
X193639Y512234D01*
X193427Y511848D01*
X193205Y511467D01*
X192974Y511091D01*
X192733Y510722D01*
X192484Y510358D01*
X192226Y510001D01*
X191959Y509650D01*
X191683Y509306D01*
X191399Y508969D01*
X191107Y508639D01*
X190807Y508316D01*
X190500Y508000D01*
X190184Y507693D01*
X189861Y507393D01*
X189531Y507101D01*
X189194Y506817D01*
X188850Y506541D01*
X188499Y506274D01*
X188142Y506016D01*
X187778Y505767D01*
X187409Y505526D01*
X187033Y505295D01*
X186652Y505073D01*
X186266Y504861D01*
X185875Y504658D01*
X185479Y504464D01*
X185078Y504281D01*
X184673Y504107D01*
X184264Y503943D01*
X183851Y503790D01*
X183434Y503646D01*
X183014Y503513D01*
X182590Y503391D01*
X182164Y503278D01*
X181735Y503176D01*
X181304Y503085D01*
X180870Y503004D01*
X180435Y502934D01*
X179998Y502875D01*
X179560Y502826D01*
X179121Y502789D01*
X178681Y502762D01*
X178241Y502745D01*
X177800Y502740D01*
X177359Y502745D01*
X176919Y502762D01*
X176479Y502789D01*
X176040Y502826D01*
X175602Y502875D01*
X175165Y502934D01*
X174730Y503004D01*
X174296Y503085D01*
X173865Y503176D01*
X173436Y503278D01*
X173010Y503391D01*
X172586Y503513D01*
X172166Y503646D01*
X171749Y503790D01*
X171336Y503943D01*
X170927Y504107D01*
X170522Y504281D01*
X170121Y504464D01*
X169725Y504658D01*
X169334Y504861D01*
X168948Y505073D01*
X168567Y505295D01*
X168191Y505526D01*
X167822Y505767D01*
X167458Y506016D01*
X167101Y506274D01*
X166750Y506541D01*
X166406Y506817D01*
X166069Y507101D01*
X165739Y507393D01*
X165416Y507693D01*
X165100Y508000D01*
X164793Y508316D01*
X164493Y508639D01*
X164201Y508969D01*
X163917Y509306D01*
X163641Y509650D01*
X163374Y510001D01*
X163116Y510358D01*
X162867Y510722D01*
X162626Y511091D01*
X162395Y511467D01*
X162173Y511848D01*
X161961Y512234D01*
X161758Y512625D01*
X161564Y513021D01*
X161381Y513422D01*
X161207Y513827D01*
X161043Y514236D01*
X160890Y514649D01*
X160746Y515066D01*
X160613Y515486D01*
X160491Y515910D01*
X160378Y516336D01*
X160276Y516765D01*
X160185Y517196D01*
X160104Y517630D01*
X160034Y518065D01*
X159975Y518502D01*
X159926Y518940D01*
X159889Y519379D01*
X159862Y519819D01*
X159845Y520259D01*
X159840Y520700D01*
X147140Y38100D02*
X147145Y38541D01*
X147162Y38981D01*
X147189Y39421D01*
X147226Y39860D01*
X147275Y40298D01*
X147334Y40735D01*
X147404Y41170D01*
X147485Y41604D01*
X147576Y42035D01*
X147678Y42464D01*
X147791Y42890D01*
X147913Y43314D01*
X148046Y43734D01*
X148190Y44151D01*
X148343Y44564D01*
X148507Y44973D01*
X148681Y45378D01*
X148864Y45779D01*
X149058Y46175D01*
X149261Y46566D01*
X149473Y46952D01*
X149695Y47333D01*
X149926Y47709D01*
X150167Y48078D01*
X150416Y48442D01*
X150674Y48799D01*
X150941Y49150D01*
X151217Y49494D01*
X151501Y49831D01*
X151793Y50161D01*
X152093Y50484D01*
X152400Y50800D01*
X152716Y51107D01*
X153039Y51407D01*
X153369Y51699D01*
X153706Y51983D01*
X154050Y52259D01*
X154401Y52526D01*
X154758Y52784D01*
X155122Y53033D01*
X155491Y53274D01*
X155867Y53505D01*
X156248Y53727D01*
X156634Y53939D01*
X157025Y54142D01*
X157421Y54336D01*
X157822Y54519D01*
X158227Y54693D01*
X158636Y54857D01*
X159049Y55010D01*
X159466Y55154D01*
X159886Y55287D01*
X160310Y55409D01*
X160736Y55522D01*
X161165Y55624D01*
X161596Y55715D01*
X162030Y55796D01*
X162465Y55866D01*
X162902Y55925D01*
X163340Y55974D01*
X163779Y56011D01*
X164219Y56038D01*
X164659Y56055D01*
X165100Y56060D01*
X165541Y56055D01*
X165981Y56038D01*
X166421Y56011D01*
X166860Y55974D01*
X167298Y55925D01*
X167735Y55866D01*
X168170Y55796D01*
X168604Y55715D01*
X169035Y55624D01*
X169464Y55522D01*
X169890Y55409D01*
X170314Y55287D01*
X170734Y55154D01*
X171151Y55010D01*
X171564Y54857D01*
X171973Y54693D01*
X172378Y54519D01*
X172779Y54336D01*
X173175Y54142D01*
X173566Y53939D01*
X173952Y53727D01*
X174333Y53505D01*
X174709Y53274D01*
X175078Y53033D01*
X175442Y52784D01*
X175799Y52526D01*
X176150Y52259D01*
X176494Y51983D01*
X176831Y51699D01*
X177161Y51407D01*
X177484Y51107D01*
X177800Y50800D01*
X178107Y50484D01*
X178407Y50161D01*
X178699Y49831D01*
X178983Y49494D01*
X179259Y49150D01*
X179526Y48799D01*
X179784Y48442D01*
X180033Y48078D01*
X180274Y47709D01*
X180505Y47333D01*
X180727Y46952D01*
X180939Y46566D01*
X181142Y46175D01*
X181336Y45779D01*
X181519Y45378D01*
X181693Y44973D01*
X181857Y44564D01*
X182010Y44151D01*
X182154Y43734D01*
X182287Y43314D01*
X182409Y42890D01*
X182522Y42464D01*
X182624Y42035D01*
X182715Y41604D01*
X182796Y41170D01*
X182866Y40735D01*
X182925Y40298D01*
X182974Y39860D01*
X183011Y39421D01*
X183038Y38981D01*
X183055Y38541D01*
X183060Y38100D01*
X183055Y37659D01*
X183038Y37219D01*
X183011Y36779D01*
X182974Y36340D01*
X182925Y35902D01*
X182866Y35465D01*
X182796Y35030D01*
X182715Y34596D01*
X182624Y34165D01*
X182522Y33736D01*
X182409Y33310D01*
X182287Y32886D01*
X182154Y32466D01*
X182010Y32049D01*
X181857Y31636D01*
X181693Y31227D01*
X181519Y30822D01*
X181336Y30421D01*
X181142Y30025D01*
X180939Y29634D01*
X180727Y29248D01*
X180505Y28867D01*
X180274Y28491D01*
X180033Y28122D01*
X179784Y27758D01*
X179526Y27401D01*
X179259Y27050D01*
X178983Y26706D01*
X178699Y26369D01*
X178407Y26039D01*
X178107Y25716D01*
X177800Y25400D01*
X177484Y25093D01*
X177161Y24793D01*
X176831Y24501D01*
X176494Y24217D01*
X176150Y23941D01*
X175799Y23674D01*
X175442Y23416D01*
X175078Y23167D01*
X174709Y22926D01*
X174333Y22695D01*
X173952Y22473D01*
X173566Y22261D01*
X173175Y22058D01*
X172779Y21864D01*
X172378Y21681D01*
X171973Y21507D01*
X171564Y21343D01*
X171151Y21190D01*
X170734Y21046D01*
X170314Y20913D01*
X169890Y20791D01*
X169464Y20678D01*
X169035Y20576D01*
X168604Y20485D01*
X168170Y20404D01*
X167735Y20334D01*
X167298Y20275D01*
X166860Y20226D01*
X166421Y20189D01*
X165981Y20162D01*
X165541Y20145D01*
X165100Y20140D01*
X164659Y20145D01*
X164219Y20162D01*
X163779Y20189D01*
X163340Y20226D01*
X162902Y20275D01*
X162465Y20334D01*
X162030Y20404D01*
X161596Y20485D01*
X161165Y20576D01*
X160736Y20678D01*
X160310Y20791D01*
X159886Y20913D01*
X159466Y21046D01*
X159049Y21190D01*
X158636Y21343D01*
X158227Y21507D01*
X157822Y21681D01*
X157421Y21864D01*
X157025Y22058D01*
X156634Y22261D01*
X156248Y22473D01*
X155867Y22695D01*
X155491Y22926D01*
X155122Y23167D01*
X154758Y23416D01*
X154401Y23674D01*
X154050Y23941D01*
X153706Y24217D01*
X153369Y24501D01*
X153039Y24793D01*
X152716Y25093D01*
X152400Y25400D01*
X152093Y25716D01*
X151793Y26039D01*
X151501Y26369D01*
X151217Y26706D01*
X150941Y27050D01*
X150674Y27401D01*
X150416Y27758D01*
X150167Y28122D01*
X149926Y28491D01*
X149695Y28867D01*
X149473Y29248D01*
X149261Y29634D01*
X149058Y30025D01*
X148864Y30421D01*
X148681Y30822D01*
X148507Y31227D01*
X148343Y31636D01*
X148190Y32049D01*
X148046Y32466D01*
X147913Y32886D01*
X147791Y33310D01*
X147678Y33736D01*
X147576Y34165D01*
X147485Y34596D01*
X147404Y35030D01*
X147334Y35465D01*
X147275Y35902D01*
X147226Y36340D01*
X147189Y36779D01*
X147162Y37219D01*
X147145Y37659D01*
X147140Y38100D01*
X667840Y368300D02*
X667845Y368741D01*
X667862Y369181D01*
X667889Y369621D01*
X667926Y370060D01*
X667975Y370498D01*
X668034Y370935D01*
X668104Y371370D01*
X668185Y371804D01*
X668276Y372235D01*
X668378Y372664D01*
X668491Y373090D01*
X668613Y373514D01*
X668746Y373934D01*
X668890Y374351D01*
X669043Y374764D01*
X669207Y375173D01*
X669381Y375578D01*
X669564Y375979D01*
X669758Y376375D01*
X669961Y376766D01*
X670173Y377152D01*
X670395Y377533D01*
X670626Y377909D01*
X670867Y378278D01*
X671116Y378642D01*
X671374Y378999D01*
X671641Y379350D01*
X671917Y379694D01*
X672201Y380031D01*
X672493Y380361D01*
X672793Y380684D01*
X673100Y381000D01*
X673416Y381307D01*
X673739Y381607D01*
X674069Y381899D01*
X674406Y382183D01*
X674750Y382459D01*
X675101Y382726D01*
X675458Y382984D01*
X675822Y383233D01*
X676191Y383474D01*
X676567Y383705D01*
X676948Y383927D01*
X677334Y384139D01*
X677725Y384342D01*
X678121Y384536D01*
X678522Y384719D01*
X678927Y384893D01*
X679336Y385057D01*
X679749Y385210D01*
X680166Y385354D01*
X680586Y385487D01*
X681010Y385609D01*
X681436Y385722D01*
X681865Y385824D01*
X682296Y385915D01*
X682730Y385996D01*
X683165Y386066D01*
X683602Y386125D01*
X684040Y386174D01*
X684479Y386211D01*
X684919Y386238D01*
X685359Y386255D01*
X685800Y386260D01*
X686241Y386255D01*
X686681Y386238D01*
X687121Y386211D01*
X687560Y386174D01*
X687998Y386125D01*
X688435Y386066D01*
X688870Y385996D01*
X689304Y385915D01*
X689735Y385824D01*
X690164Y385722D01*
X690590Y385609D01*
X691014Y385487D01*
X691434Y385354D01*
X691851Y385210D01*
X692264Y385057D01*
X692673Y384893D01*
X693078Y384719D01*
X693479Y384536D01*
X693875Y384342D01*
X694266Y384139D01*
X694652Y383927D01*
X695033Y383705D01*
X695409Y383474D01*
X695778Y383233D01*
X696142Y382984D01*
X696499Y382726D01*
X696850Y382459D01*
X697194Y382183D01*
X697531Y381899D01*
X697861Y381607D01*
X698184Y381307D01*
X698500Y381000D01*
X698807Y380684D01*
X699107Y380361D01*
X699399Y380031D01*
X699683Y379694D01*
X699959Y379350D01*
X700226Y378999D01*
X700484Y378642D01*
X700733Y378278D01*
X700974Y377909D01*
X701205Y377533D01*
X701427Y377152D01*
X701639Y376766D01*
X701842Y376375D01*
X702036Y375979D01*
X702219Y375578D01*
X702393Y375173D01*
X702557Y374764D01*
X702710Y374351D01*
X702854Y373934D01*
X702987Y373514D01*
X703109Y373090D01*
X703222Y372664D01*
X703324Y372235D01*
X703415Y371804D01*
X703496Y371370D01*
X703566Y370935D01*
X703625Y370498D01*
X703674Y370060D01*
X703711Y369621D01*
X703738Y369181D01*
X703755Y368741D01*
X703760Y368300D01*
X703755Y367859D01*
X703738Y367419D01*
X703711Y366979D01*
X703674Y366540D01*
X703625Y366102D01*
X703566Y365665D01*
X703496Y365230D01*
X703415Y364796D01*
X703324Y364365D01*
X703222Y363936D01*
X703109Y363510D01*
X702987Y363086D01*
X702854Y362666D01*
X702710Y362249D01*
X702557Y361836D01*
X702393Y361427D01*
X702219Y361022D01*
X702036Y360621D01*
X701842Y360225D01*
X701639Y359834D01*
X701427Y359448D01*
X701205Y359067D01*
X700974Y358691D01*
X700733Y358322D01*
X700484Y357958D01*
X700226Y357601D01*
X699959Y357250D01*
X699683Y356906D01*
X699399Y356569D01*
X699107Y356239D01*
X698807Y355916D01*
X698500Y355600D01*
X698184Y355293D01*
X697861Y354993D01*
X697531Y354701D01*
X697194Y354417D01*
X696850Y354141D01*
X696499Y353874D01*
X696142Y353616D01*
X695778Y353367D01*
X695409Y353126D01*
X695033Y352895D01*
X694652Y352673D01*
X694266Y352461D01*
X693875Y352258D01*
X693479Y352064D01*
X693078Y351881D01*
X692673Y351707D01*
X692264Y351543D01*
X691851Y351390D01*
X691434Y351246D01*
X691014Y351113D01*
X690590Y350991D01*
X690164Y350878D01*
X689735Y350776D01*
X689304Y350685D01*
X688870Y350604D01*
X688435Y350534D01*
X687998Y350475D01*
X687560Y350426D01*
X687121Y350389D01*
X686681Y350362D01*
X686241Y350345D01*
X685800Y350340D01*
X685359Y350345D01*
X684919Y350362D01*
X684479Y350389D01*
X684040Y350426D01*
X683602Y350475D01*
X683165Y350534D01*
X682730Y350604D01*
X682296Y350685D01*
X681865Y350776D01*
X681436Y350878D01*
X681010Y350991D01*
X680586Y351113D01*
X680166Y351246D01*
X679749Y351390D01*
X679336Y351543D01*
X678927Y351707D01*
X678522Y351881D01*
X678121Y352064D01*
X677725Y352258D01*
X677334Y352461D01*
X676948Y352673D01*
X676567Y352895D01*
X676191Y353126D01*
X675822Y353367D01*
X675458Y353616D01*
X675101Y353874D01*
X674750Y354141D01*
X674406Y354417D01*
X674069Y354701D01*
X673739Y354993D01*
X673416Y355293D01*
X673100Y355600D01*
X672793Y355916D01*
X672493Y356239D01*
X672201Y356569D01*
X671917Y356906D01*
X671641Y357250D01*
X671374Y357601D01*
X671116Y357958D01*
X670867Y358322D01*
X670626Y358691D01*
X670395Y359067D01*
X670173Y359448D01*
X669961Y359834D01*
X669758Y360225D01*
X669564Y360621D01*
X669381Y361022D01*
X669207Y361427D01*
X669043Y361836D01*
X668890Y362249D01*
X668746Y362666D01*
X668613Y363086D01*
X668491Y363510D01*
X668378Y363936D01*
X668276Y364365D01*
X668185Y364796D01*
X668104Y365230D01*
X668034Y365665D01*
X667975Y366102D01*
X667926Y366540D01*
X667889Y366979D01*
X667862Y367419D01*
X667845Y367859D01*
X667840Y368300D01*
X667840Y88900D02*
X667845Y89341D01*
X667862Y89781D01*
X667889Y90221D01*
X667926Y90660D01*
X667975Y91098D01*
X668034Y91535D01*
X668104Y91970D01*
X668185Y92404D01*
X668276Y92835D01*
X668378Y93264D01*
X668491Y93690D01*
X668613Y94114D01*
X668746Y94534D01*
X668890Y94951D01*
X669043Y95364D01*
X669207Y95773D01*
X669381Y96178D01*
X669564Y96579D01*
X669758Y96975D01*
X669961Y97366D01*
X670173Y97752D01*
X670395Y98133D01*
X670626Y98509D01*
X670867Y98878D01*
X671116Y99242D01*
X671374Y99599D01*
X671641Y99950D01*
X671917Y100294D01*
X672201Y100631D01*
X672493Y100961D01*
X672793Y101284D01*
X673100Y101600D01*
X673416Y101907D01*
X673739Y102207D01*
X674069Y102499D01*
X674406Y102783D01*
X674750Y103059D01*
X675101Y103326D01*
X675458Y103584D01*
X675822Y103833D01*
X676191Y104074D01*
X676567Y104305D01*
X676948Y104527D01*
X677334Y104739D01*
X677725Y104942D01*
X678121Y105136D01*
X678522Y105319D01*
X678927Y105493D01*
X679336Y105657D01*
X679749Y105810D01*
X680166Y105954D01*
X680586Y106087D01*
X681010Y106209D01*
X681436Y106322D01*
X681865Y106424D01*
X682296Y106515D01*
X682730Y106596D01*
X683165Y106666D01*
X683602Y106725D01*
X684040Y106774D01*
X684479Y106811D01*
X684919Y106838D01*
X685359Y106855D01*
X685800Y106860D01*
X686241Y106855D01*
X686681Y106838D01*
X687121Y106811D01*
X687560Y106774D01*
X687998Y106725D01*
X688435Y106666D01*
X688870Y106596D01*
X689304Y106515D01*
X689735Y106424D01*
X690164Y106322D01*
X690590Y106209D01*
X691014Y106087D01*
X691434Y105954D01*
X691851Y105810D01*
X692264Y105657D01*
X692673Y105493D01*
X693078Y105319D01*
X693479Y105136D01*
X693875Y104942D01*
X694266Y104739D01*
X694652Y104527D01*
X695033Y104305D01*
X695409Y104074D01*
X695778Y103833D01*
X696142Y103584D01*
X696499Y103326D01*
X696850Y103059D01*
X697194Y102783D01*
X697531Y102499D01*
X697861Y102207D01*
X698184Y101907D01*
X698500Y101600D01*
X698807Y101284D01*
X699107Y100961D01*
X699399Y100631D01*
X699683Y100294D01*
X699959Y99950D01*
X700226Y99599D01*
X700484Y99242D01*
X700733Y98878D01*
X700974Y98509D01*
X701205Y98133D01*
X701427Y97752D01*
X701639Y97366D01*
X701842Y96975D01*
X702036Y96579D01*
X702219Y96178D01*
X702393Y95773D01*
X702557Y95364D01*
X702710Y94951D01*
X702854Y94534D01*
X702987Y94114D01*
X703109Y93690D01*
X703222Y93264D01*
X703324Y92835D01*
X703415Y92404D01*
X703496Y91970D01*
X703566Y91535D01*
X703625Y91098D01*
X703674Y90660D01*
X703711Y90221D01*
X703738Y89781D01*
X703755Y89341D01*
X703760Y88900D01*
X703755Y88459D01*
X703738Y88019D01*
X703711Y87579D01*
X703674Y87140D01*
X703625Y86702D01*
X703566Y86265D01*
X703496Y85830D01*
X703415Y85396D01*
X703324Y84965D01*
X703222Y84536D01*
X703109Y84110D01*
X702987Y83686D01*
X702854Y83266D01*
X702710Y82849D01*
X702557Y82436D01*
X702393Y82027D01*
X702219Y81622D01*
X702036Y81221D01*
X701842Y80825D01*
X701639Y80434D01*
X701427Y80048D01*
X701205Y79667D01*
X700974Y79291D01*
X700733Y78922D01*
X700484Y78558D01*
X700226Y78201D01*
X699959Y77850D01*
X699683Y77506D01*
X699399Y77169D01*
X699107Y76839D01*
X698807Y76516D01*
X698500Y76200D01*
X698184Y75893D01*
X697861Y75593D01*
X697531Y75301D01*
X697194Y75017D01*
X696850Y74741D01*
X696499Y74474D01*
X696142Y74216D01*
X695778Y73967D01*
X695409Y73726D01*
X695033Y73495D01*
X694652Y73273D01*
X694266Y73061D01*
X693875Y72858D01*
X693479Y72664D01*
X693078Y72481D01*
X692673Y72307D01*
X692264Y72143D01*
X691851Y71990D01*
X691434Y71846D01*
X691014Y71713D01*
X690590Y71591D01*
X690164Y71478D01*
X689735Y71376D01*
X689304Y71285D01*
X688870Y71204D01*
X688435Y71134D01*
X687998Y71075D01*
X687560Y71026D01*
X687121Y70989D01*
X686681Y70962D01*
X686241Y70945D01*
X685800Y70940D01*
X685359Y70945D01*
X684919Y70962D01*
X684479Y70989D01*
X684040Y71026D01*
X683602Y71075D01*
X683165Y71134D01*
X682730Y71204D01*
X682296Y71285D01*
X681865Y71376D01*
X681436Y71478D01*
X681010Y71591D01*
X680586Y71713D01*
X680166Y71846D01*
X679749Y71990D01*
X679336Y72143D01*
X678927Y72307D01*
X678522Y72481D01*
X678121Y72664D01*
X677725Y72858D01*
X677334Y73061D01*
X676948Y73273D01*
X676567Y73495D01*
X676191Y73726D01*
X675822Y73967D01*
X675458Y74216D01*
X675101Y74474D01*
X674750Y74741D01*
X674406Y75017D01*
X674069Y75301D01*
X673739Y75593D01*
X673416Y75893D01*
X673100Y76200D01*
X672793Y76516D01*
X672493Y76839D01*
X672201Y77169D01*
X671917Y77506D01*
X671641Y77850D01*
X671374Y78201D01*
X671116Y78558D01*
X670867Y78922D01*
X670626Y79291D01*
X670395Y79667D01*
X670173Y80048D01*
X669961Y80434D01*
X669758Y80825D01*
X669564Y81221D01*
X669381Y81622D01*
X669207Y82027D01*
X669043Y82436D01*
X668890Y82849D01*
X668746Y83266D01*
X668613Y83686D01*
X668491Y84110D01*
X668378Y84536D01*
X668276Y84965D01*
X668185Y85396D01*
X668104Y85830D01*
X668034Y86265D01*
X667975Y86702D01*
X667926Y87140D01*
X667889Y87579D01*
X667862Y88019D01*
X667845Y88459D01*
X667840Y88900D01*
D16*
X360299Y51080D02*
X350901Y51080D01*
X350901Y53691D01*
X350903Y53792D01*
X350909Y53893D01*
X350919Y53994D01*
X350932Y54094D01*
X350950Y54194D01*
X350971Y54293D01*
X350997Y54391D01*
X351026Y54488D01*
X351058Y54584D01*
X351095Y54678D01*
X351135Y54771D01*
X351179Y54863D01*
X351226Y54952D01*
X351277Y55040D01*
X351331Y55126D01*
X351388Y55209D01*
X351448Y55291D01*
X351512Y55369D01*
X351578Y55446D01*
X351648Y55519D01*
X351720Y55590D01*
X351795Y55658D01*
X351873Y55723D01*
X351953Y55785D01*
X352035Y55844D01*
X352120Y55900D01*
X352207Y55952D01*
X352295Y56001D01*
X352386Y56047D01*
X352478Y56088D01*
X352572Y56127D01*
X352667Y56161D01*
X352763Y56192D01*
X352861Y56219D01*
X352959Y56243D01*
X353059Y56262D01*
X353159Y56278D01*
X353259Y56290D01*
X353360Y56298D01*
X353461Y56302D01*
X353563Y56302D01*
X353664Y56298D01*
X353765Y56290D01*
X353865Y56278D01*
X353965Y56262D01*
X354065Y56243D01*
X354163Y56219D01*
X354261Y56192D01*
X354357Y56161D01*
X354452Y56127D01*
X354546Y56088D01*
X354638Y56047D01*
X354729Y56001D01*
X354818Y55952D01*
X354904Y55900D01*
X354989Y55844D01*
X355071Y55785D01*
X355151Y55723D01*
X355229Y55658D01*
X355304Y55590D01*
X355376Y55519D01*
X355446Y55446D01*
X355512Y55369D01*
X355576Y55291D01*
X355636Y55209D01*
X355693Y55126D01*
X355747Y55040D01*
X355798Y54952D01*
X355845Y54863D01*
X355889Y54771D01*
X355929Y54678D01*
X355966Y54584D01*
X355998Y54488D01*
X356027Y54391D01*
X356053Y54293D01*
X356074Y54194D01*
X356092Y54094D01*
X356105Y53994D01*
X356115Y53893D01*
X356121Y53792D01*
X356123Y53691D01*
X356122Y53691D02*
X356122Y51080D01*
X356122Y54213D02*
X360299Y56301D01*
X360299Y62995D02*
X360297Y63084D01*
X360291Y63172D01*
X360282Y63260D01*
X360269Y63348D01*
X360252Y63435D01*
X360232Y63521D01*
X360207Y63606D01*
X360180Y63691D01*
X360148Y63774D01*
X360114Y63855D01*
X360075Y63935D01*
X360034Y64013D01*
X359989Y64090D01*
X359941Y64164D01*
X359890Y64237D01*
X359836Y64307D01*
X359778Y64374D01*
X359718Y64440D01*
X359656Y64502D01*
X359590Y64562D01*
X359523Y64620D01*
X359453Y64674D01*
X359380Y64725D01*
X359306Y64773D01*
X359229Y64818D01*
X359151Y64859D01*
X359071Y64898D01*
X358990Y64932D01*
X358907Y64964D01*
X358822Y64991D01*
X358737Y65016D01*
X358651Y65036D01*
X358564Y65053D01*
X358476Y65066D01*
X358388Y65075D01*
X358300Y65081D01*
X358211Y65083D01*
X360299Y62995D02*
X360297Y62866D01*
X360291Y62737D01*
X360282Y62608D01*
X360269Y62480D01*
X360252Y62352D01*
X360231Y62225D01*
X360207Y62098D01*
X360179Y61972D01*
X360147Y61847D01*
X360112Y61723D01*
X360073Y61600D01*
X360030Y61478D01*
X359984Y61358D01*
X359934Y61239D01*
X359881Y61121D01*
X359825Y61005D01*
X359765Y60891D01*
X359702Y60778D01*
X359635Y60668D01*
X359566Y60559D01*
X359493Y60453D01*
X359417Y60348D01*
X359338Y60246D01*
X359256Y60147D01*
X359172Y60049D01*
X359084Y59954D01*
X358994Y59862D01*
X352989Y60124D02*
X352900Y60126D01*
X352812Y60132D01*
X352724Y60141D01*
X352636Y60154D01*
X352549Y60171D01*
X352463Y60191D01*
X352378Y60216D01*
X352293Y60243D01*
X352210Y60275D01*
X352129Y60309D01*
X352049Y60348D01*
X351971Y60389D01*
X351894Y60434D01*
X351820Y60482D01*
X351747Y60533D01*
X351677Y60587D01*
X351610Y60645D01*
X351544Y60705D01*
X351482Y60767D01*
X351422Y60833D01*
X351364Y60900D01*
X351310Y60970D01*
X351259Y61043D01*
X351211Y61117D01*
X351166Y61194D01*
X351125Y61272D01*
X351086Y61352D01*
X351052Y61433D01*
X351020Y61516D01*
X350993Y61601D01*
X350968Y61686D01*
X350948Y61772D01*
X350931Y61859D01*
X350918Y61947D01*
X350909Y62035D01*
X350903Y62123D01*
X350901Y62212D01*
X350903Y62332D01*
X350908Y62452D01*
X350918Y62571D01*
X350930Y62691D01*
X350947Y62810D01*
X350967Y62928D01*
X350991Y63046D01*
X351018Y63162D01*
X351049Y63278D01*
X351083Y63393D01*
X351121Y63507D01*
X351163Y63620D01*
X351208Y63731D01*
X351256Y63841D01*
X351307Y63949D01*
X351362Y64056D01*
X351420Y64161D01*
X351482Y64264D01*
X351546Y64365D01*
X351614Y64465D01*
X351684Y64562D01*
X354816Y61167D02*
X354768Y61089D01*
X354716Y61013D01*
X354662Y60940D01*
X354604Y60869D01*
X354543Y60800D01*
X354479Y60734D01*
X354412Y60671D01*
X354343Y60611D01*
X354271Y60554D01*
X354197Y60500D01*
X354120Y60450D01*
X354041Y60402D01*
X353961Y60359D01*
X353878Y60318D01*
X353794Y60282D01*
X353709Y60249D01*
X353622Y60220D01*
X353533Y60194D01*
X353444Y60172D01*
X353354Y60155D01*
X353264Y60141D01*
X353172Y60131D01*
X353081Y60125D01*
X352989Y60123D01*
X356384Y64039D02*
X356432Y64117D01*
X356484Y64193D01*
X356538Y64266D01*
X356596Y64337D01*
X356657Y64406D01*
X356721Y64472D01*
X356788Y64535D01*
X356857Y64595D01*
X356929Y64652D01*
X357003Y64706D01*
X357080Y64756D01*
X357159Y64804D01*
X357239Y64847D01*
X357322Y64888D01*
X357406Y64924D01*
X357491Y64957D01*
X357578Y64986D01*
X357667Y65012D01*
X357756Y65034D01*
X357846Y65051D01*
X357936Y65065D01*
X358028Y65075D01*
X358119Y65081D01*
X358211Y65083D01*
X356383Y64039D02*
X354817Y61167D01*
X350901Y70702D02*
X360299Y70702D01*
X350901Y68092D02*
X350901Y73313D01*
X373304Y51181D02*
X375915Y51181D01*
X376016Y51183D01*
X376117Y51189D01*
X376218Y51199D01*
X376318Y51212D01*
X376418Y51230D01*
X376517Y51251D01*
X376615Y51277D01*
X376712Y51306D01*
X376808Y51338D01*
X376902Y51375D01*
X376995Y51415D01*
X377087Y51459D01*
X377176Y51506D01*
X377264Y51557D01*
X377350Y51611D01*
X377433Y51668D01*
X377515Y51728D01*
X377593Y51792D01*
X377670Y51858D01*
X377743Y51928D01*
X377814Y52000D01*
X377882Y52075D01*
X377947Y52153D01*
X378009Y52233D01*
X378068Y52315D01*
X378124Y52400D01*
X378176Y52486D01*
X378225Y52575D01*
X378271Y52666D01*
X378312Y52758D01*
X378351Y52852D01*
X378385Y52947D01*
X378416Y53043D01*
X378443Y53141D01*
X378467Y53239D01*
X378486Y53339D01*
X378502Y53439D01*
X378514Y53539D01*
X378522Y53640D01*
X378526Y53741D01*
X378526Y53843D01*
X378522Y53944D01*
X378514Y54045D01*
X378502Y54145D01*
X378486Y54245D01*
X378467Y54345D01*
X378443Y54443D01*
X378416Y54541D01*
X378385Y54637D01*
X378351Y54732D01*
X378312Y54826D01*
X378271Y54918D01*
X378225Y55009D01*
X378176Y55097D01*
X378124Y55184D01*
X378068Y55269D01*
X378009Y55351D01*
X377947Y55431D01*
X377882Y55509D01*
X377814Y55584D01*
X377743Y55656D01*
X377670Y55726D01*
X377593Y55792D01*
X377515Y55856D01*
X377433Y55916D01*
X377350Y55973D01*
X377264Y56027D01*
X377176Y56078D01*
X377087Y56125D01*
X376995Y56169D01*
X376902Y56209D01*
X376808Y56246D01*
X376712Y56278D01*
X376615Y56307D01*
X376517Y56333D01*
X376418Y56354D01*
X376318Y56372D01*
X376218Y56385D01*
X376117Y56395D01*
X376016Y56401D01*
X375915Y56403D01*
X376437Y60579D02*
X373304Y60579D01*
X376437Y60579D02*
X376527Y60577D01*
X376616Y60571D01*
X376706Y60562D01*
X376795Y60548D01*
X376883Y60531D01*
X376970Y60510D01*
X377057Y60485D01*
X377142Y60456D01*
X377226Y60424D01*
X377308Y60389D01*
X377389Y60349D01*
X377468Y60307D01*
X377545Y60261D01*
X377620Y60211D01*
X377693Y60159D01*
X377764Y60103D01*
X377832Y60045D01*
X377897Y59983D01*
X377960Y59919D01*
X378020Y59852D01*
X378077Y59783D01*
X378131Y59711D01*
X378182Y59637D01*
X378230Y59561D01*
X378274Y59483D01*
X378315Y59403D01*
X378353Y59321D01*
X378387Y59238D01*
X378417Y59153D01*
X378444Y59067D01*
X378467Y58981D01*
X378486Y58893D01*
X378501Y58804D01*
X378513Y58715D01*
X378521Y58626D01*
X378525Y58536D01*
X378525Y58446D01*
X378521Y58356D01*
X378513Y58267D01*
X378501Y58178D01*
X378486Y58089D01*
X378467Y58001D01*
X378444Y57915D01*
X378417Y57829D01*
X378387Y57744D01*
X378353Y57661D01*
X378315Y57579D01*
X378274Y57499D01*
X378230Y57421D01*
X378182Y57345D01*
X378131Y57271D01*
X378077Y57199D01*
X378020Y57130D01*
X377960Y57063D01*
X377897Y56999D01*
X377832Y56937D01*
X377764Y56879D01*
X377693Y56823D01*
X377620Y56771D01*
X377545Y56721D01*
X377468Y56675D01*
X377389Y56633D01*
X377308Y56593D01*
X377226Y56558D01*
X377142Y56526D01*
X377057Y56497D01*
X376970Y56472D01*
X376883Y56451D01*
X376795Y56434D01*
X376706Y56420D01*
X376616Y56411D01*
X376527Y56405D01*
X376437Y56403D01*
X376437Y56402D02*
X374348Y56402D01*
X382056Y57446D02*
X384144Y51181D01*
X386233Y57446D01*
X401244Y51181D02*
X404377Y51181D01*
X404466Y51183D01*
X404554Y51189D01*
X404642Y51198D01*
X404730Y51211D01*
X404817Y51228D01*
X404903Y51248D01*
X404988Y51273D01*
X405073Y51300D01*
X405156Y51332D01*
X405237Y51366D01*
X405317Y51405D01*
X405395Y51446D01*
X405472Y51491D01*
X405546Y51539D01*
X405619Y51590D01*
X405689Y51644D01*
X405756Y51702D01*
X405822Y51762D01*
X405884Y51824D01*
X405944Y51890D01*
X406002Y51957D01*
X406056Y52027D01*
X406107Y52100D01*
X406155Y52174D01*
X406200Y52251D01*
X406241Y52329D01*
X406280Y52409D01*
X406314Y52490D01*
X406346Y52573D01*
X406373Y52658D01*
X406398Y52743D01*
X406418Y52829D01*
X406435Y52916D01*
X406448Y53004D01*
X406457Y53092D01*
X406463Y53180D01*
X406465Y53269D01*
X406465Y54314D01*
X406463Y54403D01*
X406457Y54491D01*
X406448Y54579D01*
X406435Y54667D01*
X406418Y54754D01*
X406398Y54840D01*
X406373Y54925D01*
X406346Y55010D01*
X406314Y55093D01*
X406280Y55174D01*
X406241Y55254D01*
X406200Y55332D01*
X406155Y55409D01*
X406107Y55483D01*
X406056Y55556D01*
X406002Y55626D01*
X405944Y55693D01*
X405884Y55759D01*
X405822Y55821D01*
X405756Y55881D01*
X405689Y55939D01*
X405619Y55993D01*
X405546Y56044D01*
X405472Y56092D01*
X405395Y56137D01*
X405317Y56178D01*
X405237Y56217D01*
X405156Y56251D01*
X405073Y56283D01*
X404988Y56310D01*
X404903Y56335D01*
X404817Y56355D01*
X404730Y56372D01*
X404642Y56385D01*
X404554Y56394D01*
X404466Y56400D01*
X404377Y56402D01*
X401244Y56402D01*
X401244Y60579D01*
X406465Y60579D01*
X409996Y57446D02*
X412084Y51181D01*
X414173Y57446D01*
X437207Y56402D02*
X438773Y56402D01*
X438773Y51181D01*
X435640Y51181D01*
X435551Y51183D01*
X435463Y51189D01*
X435375Y51198D01*
X435287Y51211D01*
X435200Y51228D01*
X435114Y51248D01*
X435029Y51273D01*
X434944Y51300D01*
X434861Y51332D01*
X434780Y51366D01*
X434700Y51405D01*
X434622Y51446D01*
X434545Y51491D01*
X434471Y51539D01*
X434398Y51590D01*
X434328Y51644D01*
X434261Y51702D01*
X434195Y51762D01*
X434133Y51824D01*
X434073Y51890D01*
X434015Y51957D01*
X433961Y52027D01*
X433910Y52100D01*
X433862Y52174D01*
X433817Y52251D01*
X433776Y52329D01*
X433737Y52409D01*
X433703Y52490D01*
X433671Y52573D01*
X433644Y52658D01*
X433619Y52743D01*
X433599Y52829D01*
X433582Y52916D01*
X433569Y53004D01*
X433560Y53092D01*
X433554Y53180D01*
X433552Y53269D01*
X433552Y58491D01*
X433554Y58582D01*
X433560Y58673D01*
X433570Y58764D01*
X433584Y58854D01*
X433601Y58943D01*
X433623Y59031D01*
X433649Y59119D01*
X433678Y59205D01*
X433711Y59290D01*
X433748Y59373D01*
X433788Y59455D01*
X433832Y59535D01*
X433879Y59613D01*
X433930Y59689D01*
X433983Y59762D01*
X434040Y59833D01*
X434101Y59902D01*
X434164Y59967D01*
X434229Y60030D01*
X434298Y60090D01*
X434369Y60148D01*
X434442Y60201D01*
X434518Y60252D01*
X434596Y60299D01*
X434676Y60343D01*
X434758Y60383D01*
X434841Y60420D01*
X434926Y60453D01*
X435012Y60482D01*
X435100Y60508D01*
X435188Y60530D01*
X435277Y60547D01*
X435367Y60561D01*
X435458Y60571D01*
X435549Y60577D01*
X435640Y60579D01*
X438773Y60579D01*
X443218Y57446D02*
X443218Y51181D01*
X443218Y57446D02*
X445829Y57446D01*
X445906Y57444D01*
X445982Y57438D01*
X446059Y57429D01*
X446135Y57416D01*
X446210Y57399D01*
X446284Y57379D01*
X446357Y57354D01*
X446428Y57327D01*
X446499Y57296D01*
X446567Y57261D01*
X446634Y57223D01*
X446699Y57182D01*
X446762Y57138D01*
X446822Y57091D01*
X446881Y57040D01*
X446936Y56987D01*
X446989Y56932D01*
X447040Y56873D01*
X447087Y56813D01*
X447131Y56750D01*
X447172Y56685D01*
X447210Y56618D01*
X447245Y56550D01*
X447276Y56479D01*
X447303Y56408D01*
X447328Y56335D01*
X447348Y56261D01*
X447365Y56186D01*
X447378Y56110D01*
X447387Y56034D01*
X447393Y55957D01*
X447395Y55880D01*
X447395Y51181D01*
X455579Y51181D02*
X455579Y60579D01*
X455579Y51181D02*
X452968Y51181D01*
X452891Y51183D01*
X452815Y51189D01*
X452738Y51198D01*
X452662Y51211D01*
X452587Y51228D01*
X452513Y51248D01*
X452440Y51273D01*
X452369Y51300D01*
X452298Y51331D01*
X452230Y51366D01*
X452163Y51404D01*
X452098Y51445D01*
X452035Y51489D01*
X451975Y51536D01*
X451916Y51587D01*
X451861Y51640D01*
X451808Y51695D01*
X451757Y51754D01*
X451710Y51814D01*
X451666Y51877D01*
X451625Y51942D01*
X451587Y52009D01*
X451552Y52077D01*
X451521Y52148D01*
X451494Y52219D01*
X451469Y52292D01*
X451449Y52366D01*
X451432Y52441D01*
X451419Y52517D01*
X451410Y52594D01*
X451404Y52670D01*
X451402Y52747D01*
X451402Y55880D01*
X451404Y55957D01*
X451410Y56033D01*
X451419Y56110D01*
X451432Y56186D01*
X451449Y56261D01*
X451469Y56335D01*
X451494Y56408D01*
X451521Y56479D01*
X451552Y56550D01*
X451587Y56618D01*
X451625Y56685D01*
X451666Y56750D01*
X451710Y56813D01*
X451757Y56873D01*
X451808Y56932D01*
X451861Y56987D01*
X451916Y57040D01*
X451975Y57091D01*
X452035Y57138D01*
X452098Y57182D01*
X452163Y57223D01*
X452230Y57261D01*
X452298Y57296D01*
X452369Y57327D01*
X452440Y57354D01*
X452513Y57379D01*
X452587Y57399D01*
X452662Y57416D01*
X452738Y57429D01*
X452815Y57438D01*
X452891Y57444D01*
X452968Y57446D01*
X455579Y57446D01*
X473634Y60579D02*
X476767Y51181D01*
X479899Y60579D01*
X483167Y57446D02*
X483167Y51181D01*
X482906Y60057D02*
X482906Y60579D01*
X483428Y60579D01*
X483428Y60057D01*
X482906Y60057D01*
X487175Y57446D02*
X487175Y51181D01*
X487175Y57446D02*
X489786Y57446D01*
X489863Y57444D01*
X489939Y57438D01*
X490016Y57429D01*
X490092Y57416D01*
X490167Y57399D01*
X490241Y57379D01*
X490314Y57354D01*
X490385Y57327D01*
X490456Y57296D01*
X490524Y57261D01*
X490591Y57223D01*
X490656Y57182D01*
X490719Y57138D01*
X490779Y57091D01*
X490838Y57040D01*
X490893Y56987D01*
X490946Y56932D01*
X490997Y56873D01*
X491044Y56813D01*
X491088Y56750D01*
X491129Y56685D01*
X491167Y56618D01*
X491202Y56550D01*
X491233Y56479D01*
X491260Y56408D01*
X491285Y56335D01*
X491305Y56261D01*
X491322Y56186D01*
X491335Y56110D01*
X491344Y56034D01*
X491350Y55957D01*
X491352Y55880D01*
X491352Y51181D01*
X570035Y27102D02*
X566902Y17704D01*
X573167Y17704D02*
X570035Y27102D01*
X572384Y20054D02*
X567685Y20054D01*
X576785Y17704D02*
X576785Y23969D01*
X579396Y23969D01*
X579473Y23967D01*
X579549Y23961D01*
X579626Y23952D01*
X579702Y23939D01*
X579777Y23922D01*
X579851Y23902D01*
X579924Y23877D01*
X579995Y23850D01*
X580066Y23819D01*
X580134Y23784D01*
X580201Y23746D01*
X580266Y23705D01*
X580329Y23661D01*
X580389Y23614D01*
X580448Y23563D01*
X580503Y23510D01*
X580556Y23455D01*
X580607Y23396D01*
X580654Y23336D01*
X580698Y23273D01*
X580739Y23208D01*
X580777Y23141D01*
X580812Y23073D01*
X580843Y23002D01*
X580870Y22931D01*
X580895Y22858D01*
X580915Y22784D01*
X580932Y22709D01*
X580945Y22633D01*
X580954Y22557D01*
X580960Y22480D01*
X580962Y22403D01*
X580962Y17704D01*
X586797Y21359D02*
X589146Y21359D01*
X586797Y21358D02*
X586713Y21356D01*
X586628Y21350D01*
X586545Y21340D01*
X586461Y21327D01*
X586379Y21309D01*
X586297Y21288D01*
X586216Y21263D01*
X586137Y21235D01*
X586059Y21202D01*
X585983Y21166D01*
X585908Y21127D01*
X585835Y21084D01*
X585764Y21038D01*
X585696Y20989D01*
X585630Y20937D01*
X585566Y20881D01*
X585505Y20823D01*
X585447Y20762D01*
X585391Y20698D01*
X585339Y20632D01*
X585290Y20564D01*
X585244Y20493D01*
X585201Y20420D01*
X585162Y20345D01*
X585126Y20269D01*
X585093Y20191D01*
X585065Y20112D01*
X585040Y20031D01*
X585019Y19949D01*
X585001Y19867D01*
X584988Y19783D01*
X584978Y19700D01*
X584972Y19615D01*
X584970Y19531D01*
X584972Y19447D01*
X584978Y19362D01*
X584988Y19279D01*
X585001Y19195D01*
X585019Y19113D01*
X585040Y19031D01*
X585065Y18950D01*
X585093Y18871D01*
X585126Y18793D01*
X585162Y18717D01*
X585201Y18642D01*
X585244Y18569D01*
X585290Y18498D01*
X585339Y18430D01*
X585391Y18364D01*
X585447Y18300D01*
X585505Y18239D01*
X585566Y18181D01*
X585630Y18125D01*
X585696Y18073D01*
X585764Y18024D01*
X585835Y17978D01*
X585908Y17935D01*
X585983Y17896D01*
X586059Y17860D01*
X586137Y17827D01*
X586216Y17799D01*
X586297Y17774D01*
X586379Y17753D01*
X586461Y17735D01*
X586545Y17722D01*
X586628Y17712D01*
X586713Y17706D01*
X586797Y17704D01*
X589146Y17704D01*
X589146Y22403D01*
X589144Y22480D01*
X589138Y22556D01*
X589129Y22633D01*
X589116Y22709D01*
X589099Y22784D01*
X589079Y22858D01*
X589054Y22931D01*
X589027Y23002D01*
X588996Y23073D01*
X588961Y23141D01*
X588923Y23208D01*
X588882Y23273D01*
X588838Y23336D01*
X588791Y23396D01*
X588740Y23455D01*
X588687Y23510D01*
X588632Y23563D01*
X588573Y23614D01*
X588513Y23661D01*
X588450Y23705D01*
X588385Y23746D01*
X588318Y23784D01*
X588250Y23819D01*
X588179Y23850D01*
X588108Y23877D01*
X588035Y23902D01*
X587961Y23922D01*
X587886Y23939D01*
X587810Y23952D01*
X587733Y23961D01*
X587657Y23967D01*
X587580Y23969D01*
X585491Y23969D01*
X593370Y27102D02*
X593370Y19270D01*
X593372Y19193D01*
X593378Y19117D01*
X593387Y19040D01*
X593400Y18964D01*
X593417Y18889D01*
X593437Y18815D01*
X593462Y18742D01*
X593489Y18671D01*
X593520Y18600D01*
X593555Y18532D01*
X593593Y18465D01*
X593634Y18400D01*
X593678Y18337D01*
X593725Y18277D01*
X593776Y18218D01*
X593829Y18163D01*
X593884Y18110D01*
X593943Y18059D01*
X594003Y18012D01*
X594066Y17968D01*
X594131Y17927D01*
X594198Y17889D01*
X594266Y17854D01*
X594337Y17823D01*
X594408Y17796D01*
X594481Y17771D01*
X594555Y17751D01*
X594630Y17734D01*
X594706Y17721D01*
X594783Y17712D01*
X594859Y17706D01*
X594936Y17704D01*
X598121Y19792D02*
X598121Y21881D01*
X598122Y21881D02*
X598124Y21971D01*
X598130Y22060D01*
X598139Y22150D01*
X598153Y22239D01*
X598170Y22327D01*
X598191Y22414D01*
X598216Y22501D01*
X598245Y22586D01*
X598277Y22670D01*
X598312Y22752D01*
X598352Y22833D01*
X598394Y22912D01*
X598440Y22989D01*
X598490Y23064D01*
X598542Y23137D01*
X598598Y23208D01*
X598656Y23276D01*
X598718Y23341D01*
X598782Y23404D01*
X598849Y23464D01*
X598918Y23521D01*
X598990Y23575D01*
X599064Y23626D01*
X599140Y23674D01*
X599218Y23718D01*
X599298Y23759D01*
X599380Y23797D01*
X599463Y23831D01*
X599548Y23861D01*
X599634Y23888D01*
X599720Y23911D01*
X599808Y23930D01*
X599897Y23945D01*
X599986Y23957D01*
X600075Y23965D01*
X600165Y23969D01*
X600255Y23969D01*
X600345Y23965D01*
X600434Y23957D01*
X600523Y23945D01*
X600612Y23930D01*
X600700Y23911D01*
X600786Y23888D01*
X600872Y23861D01*
X600957Y23831D01*
X601040Y23797D01*
X601122Y23759D01*
X601202Y23718D01*
X601280Y23674D01*
X601356Y23626D01*
X601430Y23575D01*
X601502Y23521D01*
X601571Y23464D01*
X601638Y23404D01*
X601702Y23341D01*
X601764Y23276D01*
X601822Y23208D01*
X601878Y23137D01*
X601930Y23064D01*
X601980Y22989D01*
X602026Y22912D01*
X602068Y22833D01*
X602108Y22752D01*
X602143Y22670D01*
X602175Y22586D01*
X602204Y22501D01*
X602229Y22414D01*
X602250Y22327D01*
X602267Y22239D01*
X602281Y22150D01*
X602290Y22060D01*
X602296Y21971D01*
X602298Y21881D01*
X602298Y19792D01*
X602296Y19702D01*
X602290Y19613D01*
X602281Y19523D01*
X602267Y19434D01*
X602250Y19346D01*
X602229Y19259D01*
X602204Y19172D01*
X602175Y19087D01*
X602143Y19003D01*
X602108Y18921D01*
X602068Y18840D01*
X602026Y18761D01*
X601980Y18684D01*
X601930Y18609D01*
X601878Y18536D01*
X601822Y18465D01*
X601764Y18397D01*
X601702Y18332D01*
X601638Y18269D01*
X601571Y18209D01*
X601502Y18152D01*
X601430Y18098D01*
X601356Y18047D01*
X601280Y17999D01*
X601202Y17955D01*
X601122Y17914D01*
X601040Y17876D01*
X600957Y17842D01*
X600872Y17812D01*
X600786Y17785D01*
X600700Y17762D01*
X600612Y17743D01*
X600523Y17728D01*
X600434Y17716D01*
X600345Y17708D01*
X600255Y17704D01*
X600165Y17704D01*
X600075Y17708D01*
X599986Y17716D01*
X599897Y17728D01*
X599808Y17743D01*
X599720Y17762D01*
X599634Y17785D01*
X599548Y17812D01*
X599463Y17842D01*
X599380Y17876D01*
X599298Y17914D01*
X599218Y17955D01*
X599140Y17999D01*
X599064Y18047D01*
X598990Y18098D01*
X598918Y18152D01*
X598849Y18209D01*
X598782Y18269D01*
X598718Y18332D01*
X598656Y18397D01*
X598598Y18465D01*
X598542Y18536D01*
X598490Y18609D01*
X598440Y18684D01*
X598394Y18761D01*
X598352Y18840D01*
X598312Y18921D01*
X598277Y19003D01*
X598245Y19087D01*
X598216Y19172D01*
X598191Y19259D01*
X598170Y19346D01*
X598153Y19434D01*
X598139Y19523D01*
X598130Y19613D01*
X598124Y19702D01*
X598122Y19792D01*
X607567Y17704D02*
X610177Y17704D01*
X607567Y17704D02*
X607490Y17706D01*
X607414Y17712D01*
X607337Y17721D01*
X607261Y17734D01*
X607186Y17751D01*
X607112Y17771D01*
X607039Y17796D01*
X606968Y17823D01*
X606897Y17854D01*
X606829Y17889D01*
X606762Y17927D01*
X606697Y17968D01*
X606634Y18012D01*
X606574Y18059D01*
X606515Y18110D01*
X606460Y18163D01*
X606407Y18218D01*
X606356Y18277D01*
X606309Y18337D01*
X606265Y18400D01*
X606224Y18465D01*
X606186Y18532D01*
X606151Y18600D01*
X606120Y18671D01*
X606093Y18742D01*
X606068Y18815D01*
X606048Y18889D01*
X606031Y18964D01*
X606018Y19040D01*
X606009Y19117D01*
X606003Y19193D01*
X606001Y19270D01*
X606000Y19270D02*
X606000Y22403D01*
X606001Y22403D02*
X606003Y22480D01*
X606009Y22556D01*
X606018Y22633D01*
X606031Y22709D01*
X606048Y22784D01*
X606068Y22858D01*
X606093Y22931D01*
X606120Y23002D01*
X606151Y23073D01*
X606186Y23141D01*
X606224Y23208D01*
X606265Y23273D01*
X606309Y23336D01*
X606356Y23396D01*
X606407Y23455D01*
X606460Y23510D01*
X606515Y23563D01*
X606574Y23614D01*
X606634Y23661D01*
X606697Y23705D01*
X606762Y23746D01*
X606829Y23784D01*
X606897Y23819D01*
X606968Y23850D01*
X607039Y23877D01*
X607112Y23902D01*
X607186Y23922D01*
X607261Y23939D01*
X607337Y23952D01*
X607414Y23961D01*
X607490Y23967D01*
X607567Y23969D01*
X610177Y23969D01*
X610177Y16138D01*
X610175Y16061D01*
X610169Y15985D01*
X610160Y15908D01*
X610147Y15832D01*
X610130Y15757D01*
X610110Y15683D01*
X610085Y15610D01*
X610058Y15539D01*
X610027Y15468D01*
X609992Y15400D01*
X609954Y15333D01*
X609913Y15268D01*
X609869Y15205D01*
X609822Y15145D01*
X609771Y15086D01*
X609718Y15031D01*
X609663Y14978D01*
X609604Y14927D01*
X609544Y14880D01*
X609481Y14836D01*
X609416Y14795D01*
X609349Y14757D01*
X609281Y14722D01*
X609210Y14691D01*
X609139Y14664D01*
X609066Y14639D01*
X608992Y14619D01*
X608917Y14602D01*
X608841Y14589D01*
X608765Y14580D01*
X608688Y14574D01*
X608611Y14572D01*
X608611Y14571D02*
X606522Y14571D01*
X620022Y17704D02*
X620022Y27102D01*
X618977Y17704D02*
X621066Y17704D01*
X621066Y27102D02*
X618977Y27102D01*
X624943Y23969D02*
X624943Y17704D01*
X624943Y23969D02*
X627554Y23969D01*
X627631Y23967D01*
X627707Y23961D01*
X627784Y23952D01*
X627860Y23939D01*
X627935Y23922D01*
X628009Y23902D01*
X628082Y23877D01*
X628153Y23850D01*
X628224Y23819D01*
X628292Y23784D01*
X628359Y23746D01*
X628424Y23705D01*
X628487Y23661D01*
X628547Y23614D01*
X628606Y23563D01*
X628661Y23510D01*
X628714Y23455D01*
X628765Y23396D01*
X628812Y23336D01*
X628856Y23273D01*
X628897Y23208D01*
X628935Y23141D01*
X628970Y23073D01*
X629001Y23002D01*
X629028Y22931D01*
X629053Y22858D01*
X629073Y22784D01*
X629090Y22709D01*
X629103Y22633D01*
X629112Y22557D01*
X629118Y22480D01*
X629120Y22403D01*
X629120Y17704D01*
X529971Y55880D02*
X529973Y56065D01*
X529980Y56250D01*
X529991Y56434D01*
X530006Y56618D01*
X530026Y56802D01*
X530050Y56986D01*
X530079Y57168D01*
X530112Y57350D01*
X530149Y57531D01*
X530191Y57711D01*
X530237Y57891D01*
X530287Y58069D01*
X530341Y58245D01*
X530400Y58421D01*
X530462Y58595D01*
X530529Y58767D01*
X530600Y58938D01*
X530675Y59107D01*
X530754Y59274D01*
X530784Y59354D01*
X530817Y59433D01*
X530854Y59510D01*
X530894Y59586D01*
X530937Y59660D01*
X530983Y59732D01*
X531033Y59801D01*
X531085Y59869D01*
X531141Y59934D01*
X531199Y59997D01*
X531261Y60056D01*
X531324Y60114D01*
X531391Y60168D01*
X531459Y60219D01*
X531530Y60267D01*
X531603Y60312D01*
X531677Y60354D01*
X531754Y60392D01*
X531832Y60427D01*
X531911Y60459D01*
X531992Y60487D01*
X532074Y60511D01*
X532158Y60532D01*
X532241Y60549D01*
X532326Y60562D01*
X532411Y60571D01*
X532496Y60577D01*
X532582Y60579D01*
X532668Y60577D01*
X532753Y60571D01*
X532838Y60562D01*
X532923Y60549D01*
X533006Y60532D01*
X533090Y60511D01*
X533172Y60487D01*
X533253Y60459D01*
X533332Y60427D01*
X533410Y60392D01*
X533487Y60354D01*
X533561Y60312D01*
X533634Y60267D01*
X533705Y60219D01*
X533773Y60168D01*
X533840Y60114D01*
X533903Y60056D01*
X533965Y59997D01*
X534023Y59934D01*
X534079Y59869D01*
X534131Y59801D01*
X534181Y59732D01*
X534227Y59660D01*
X534270Y59586D01*
X534310Y59510D01*
X534347Y59433D01*
X534380Y59354D01*
X534410Y59274D01*
X534409Y59274D02*
X534488Y59107D01*
X534563Y58938D01*
X534634Y58767D01*
X534701Y58595D01*
X534763Y58421D01*
X534822Y58245D01*
X534876Y58069D01*
X534926Y57891D01*
X534972Y57711D01*
X535014Y57531D01*
X535051Y57350D01*
X535084Y57168D01*
X535113Y56986D01*
X535137Y56802D01*
X535157Y56618D01*
X535172Y56434D01*
X535183Y56250D01*
X535190Y56065D01*
X535192Y55880D01*
X529971Y55880D02*
X529973Y55695D01*
X529980Y55510D01*
X529991Y55326D01*
X530006Y55142D01*
X530026Y54958D01*
X530050Y54774D01*
X530079Y54592D01*
X530112Y54410D01*
X530149Y54229D01*
X530191Y54049D01*
X530237Y53869D01*
X530287Y53691D01*
X530341Y53515D01*
X530400Y53339D01*
X530462Y53165D01*
X530529Y52993D01*
X530600Y52822D01*
X530675Y52653D01*
X530754Y52486D01*
X530784Y52406D01*
X530817Y52327D01*
X530854Y52250D01*
X530894Y52174D01*
X530937Y52100D01*
X530983Y52028D01*
X531033Y51959D01*
X531086Y51891D01*
X531141Y51826D01*
X531200Y51763D01*
X531261Y51704D01*
X531324Y51646D01*
X531391Y51592D01*
X531459Y51541D01*
X531530Y51493D01*
X531603Y51448D01*
X531677Y51406D01*
X531754Y51368D01*
X531832Y51333D01*
X531911Y51301D01*
X531992Y51273D01*
X532074Y51249D01*
X532158Y51228D01*
X532241Y51211D01*
X532326Y51198D01*
X532411Y51189D01*
X532496Y51183D01*
X532582Y51181D01*
X534409Y52486D02*
X534488Y52653D01*
X534563Y52822D01*
X534634Y52993D01*
X534701Y53165D01*
X534763Y53339D01*
X534822Y53515D01*
X534876Y53691D01*
X534926Y53869D01*
X534972Y54049D01*
X535014Y54229D01*
X535051Y54410D01*
X535084Y54592D01*
X535113Y54774D01*
X535137Y54958D01*
X535157Y55142D01*
X535172Y55326D01*
X535183Y55510D01*
X535190Y55695D01*
X535192Y55880D01*
X534410Y52486D02*
X534380Y52406D01*
X534347Y52327D01*
X534310Y52250D01*
X534270Y52174D01*
X534227Y52100D01*
X534181Y52028D01*
X534131Y51959D01*
X534079Y51891D01*
X534023Y51826D01*
X533965Y51763D01*
X533903Y51704D01*
X533840Y51646D01*
X533773Y51592D01*
X533705Y51541D01*
X533634Y51493D01*
X533561Y51448D01*
X533487Y51406D01*
X533410Y51368D01*
X533332Y51333D01*
X533253Y51301D01*
X533172Y51273D01*
X533090Y51249D01*
X533006Y51228D01*
X532923Y51211D01*
X532838Y51198D01*
X532753Y51189D01*
X532668Y51183D01*
X532582Y51181D01*
X530493Y53269D02*
X534670Y58491D01*
X555371Y58491D02*
X557982Y60579D01*
X557982Y51181D01*
X560592Y51181D02*
X555371Y51181D01*
X583643Y60580D02*
X583738Y60578D01*
X583832Y60572D01*
X583926Y60563D01*
X584020Y60550D01*
X584113Y60533D01*
X584205Y60512D01*
X584297Y60487D01*
X584387Y60459D01*
X584476Y60427D01*
X584564Y60392D01*
X584650Y60353D01*
X584735Y60311D01*
X584818Y60265D01*
X584899Y60216D01*
X584978Y60164D01*
X585055Y60109D01*
X585129Y60050D01*
X585201Y59989D01*
X585271Y59925D01*
X585338Y59858D01*
X585402Y59788D01*
X585463Y59716D01*
X585522Y59642D01*
X585577Y59565D01*
X585629Y59486D01*
X585678Y59405D01*
X585724Y59322D01*
X585766Y59237D01*
X585805Y59151D01*
X585840Y59063D01*
X585872Y58974D01*
X585900Y58884D01*
X585925Y58792D01*
X585946Y58700D01*
X585963Y58607D01*
X585976Y58513D01*
X585985Y58419D01*
X585991Y58325D01*
X585993Y58230D01*
X583643Y60579D02*
X583535Y60577D01*
X583426Y60571D01*
X583318Y60561D01*
X583211Y60548D01*
X583104Y60530D01*
X582997Y60509D01*
X582892Y60484D01*
X582787Y60455D01*
X582684Y60423D01*
X582582Y60386D01*
X582481Y60346D01*
X582382Y60303D01*
X582284Y60256D01*
X582188Y60205D01*
X582094Y60151D01*
X582002Y60094D01*
X581912Y60033D01*
X581824Y59969D01*
X581739Y59903D01*
X581656Y59833D01*
X581576Y59760D01*
X581498Y59684D01*
X581423Y59606D01*
X581351Y59525D01*
X581282Y59441D01*
X581216Y59355D01*
X581153Y59267D01*
X581094Y59176D01*
X581037Y59084D01*
X580984Y58989D01*
X580935Y58893D01*
X580889Y58794D01*
X580846Y58695D01*
X580807Y58593D01*
X580772Y58491D01*
X585209Y56402D02*
X585278Y56471D01*
X585344Y56542D01*
X585408Y56615D01*
X585469Y56691D01*
X585527Y56770D01*
X585581Y56850D01*
X585633Y56933D01*
X585681Y57017D01*
X585727Y57103D01*
X585768Y57191D01*
X585807Y57281D01*
X585842Y57372D01*
X585873Y57464D01*
X585901Y57557D01*
X585925Y57651D01*
X585945Y57746D01*
X585962Y57842D01*
X585975Y57939D01*
X585984Y58036D01*
X585990Y58133D01*
X585992Y58230D01*
X585209Y56402D02*
X580771Y51181D01*
X585992Y51181D01*
X606171Y51181D02*
X608782Y51181D01*
X608883Y51183D01*
X608984Y51189D01*
X609085Y51199D01*
X609185Y51212D01*
X609285Y51230D01*
X609384Y51251D01*
X609482Y51277D01*
X609579Y51306D01*
X609675Y51338D01*
X609769Y51375D01*
X609862Y51415D01*
X609954Y51459D01*
X610043Y51506D01*
X610131Y51557D01*
X610217Y51611D01*
X610300Y51668D01*
X610382Y51728D01*
X610460Y51792D01*
X610537Y51858D01*
X610610Y51928D01*
X610681Y52000D01*
X610749Y52075D01*
X610814Y52153D01*
X610876Y52233D01*
X610935Y52315D01*
X610991Y52400D01*
X611043Y52486D01*
X611092Y52575D01*
X611138Y52666D01*
X611179Y52758D01*
X611218Y52852D01*
X611252Y52947D01*
X611283Y53043D01*
X611310Y53141D01*
X611334Y53239D01*
X611353Y53339D01*
X611369Y53439D01*
X611381Y53539D01*
X611389Y53640D01*
X611393Y53741D01*
X611393Y53843D01*
X611389Y53944D01*
X611381Y54045D01*
X611369Y54145D01*
X611353Y54245D01*
X611334Y54345D01*
X611310Y54443D01*
X611283Y54541D01*
X611252Y54637D01*
X611218Y54732D01*
X611179Y54826D01*
X611138Y54918D01*
X611092Y55009D01*
X611043Y55097D01*
X610991Y55184D01*
X610935Y55269D01*
X610876Y55351D01*
X610814Y55431D01*
X610749Y55509D01*
X610681Y55584D01*
X610610Y55656D01*
X610537Y55726D01*
X610460Y55792D01*
X610382Y55856D01*
X610300Y55916D01*
X610217Y55973D01*
X610131Y56027D01*
X610043Y56078D01*
X609954Y56125D01*
X609862Y56169D01*
X609769Y56209D01*
X609675Y56246D01*
X609579Y56278D01*
X609482Y56307D01*
X609384Y56333D01*
X609285Y56354D01*
X609185Y56372D01*
X609085Y56385D01*
X608984Y56395D01*
X608883Y56401D01*
X608782Y56403D01*
X609304Y60579D02*
X606171Y60579D01*
X609304Y60579D02*
X609394Y60577D01*
X609483Y60571D01*
X609573Y60562D01*
X609662Y60548D01*
X609750Y60531D01*
X609837Y60510D01*
X609924Y60485D01*
X610009Y60456D01*
X610093Y60424D01*
X610175Y60389D01*
X610256Y60349D01*
X610335Y60307D01*
X610412Y60261D01*
X610487Y60211D01*
X610560Y60159D01*
X610631Y60103D01*
X610699Y60045D01*
X610764Y59983D01*
X610827Y59919D01*
X610887Y59852D01*
X610944Y59783D01*
X610998Y59711D01*
X611049Y59637D01*
X611097Y59561D01*
X611141Y59483D01*
X611182Y59403D01*
X611220Y59321D01*
X611254Y59238D01*
X611284Y59153D01*
X611311Y59067D01*
X611334Y58981D01*
X611353Y58893D01*
X611368Y58804D01*
X611380Y58715D01*
X611388Y58626D01*
X611392Y58536D01*
X611392Y58446D01*
X611388Y58356D01*
X611380Y58267D01*
X611368Y58178D01*
X611353Y58089D01*
X611334Y58001D01*
X611311Y57915D01*
X611284Y57829D01*
X611254Y57744D01*
X611220Y57661D01*
X611182Y57579D01*
X611141Y57499D01*
X611097Y57421D01*
X611049Y57345D01*
X610998Y57271D01*
X610944Y57199D01*
X610887Y57130D01*
X610827Y57063D01*
X610764Y56999D01*
X610699Y56937D01*
X610631Y56879D01*
X610560Y56823D01*
X610487Y56771D01*
X610412Y56721D01*
X610335Y56675D01*
X610256Y56633D01*
X610175Y56593D01*
X610093Y56558D01*
X610009Y56526D01*
X609924Y56497D01*
X609837Y56472D01*
X609750Y56451D01*
X609662Y56434D01*
X609573Y56420D01*
X609483Y56411D01*
X609394Y56405D01*
X609304Y56403D01*
X609304Y56402D02*
X607215Y56402D01*
X631571Y53269D02*
X633659Y60579D01*
X631571Y53269D02*
X636792Y53269D01*
X635226Y55358D02*
X635226Y51181D01*
X656971Y51181D02*
X660104Y51181D01*
X660193Y51183D01*
X660281Y51189D01*
X660369Y51198D01*
X660457Y51211D01*
X660544Y51228D01*
X660630Y51248D01*
X660715Y51273D01*
X660800Y51300D01*
X660883Y51332D01*
X660964Y51366D01*
X661044Y51405D01*
X661122Y51446D01*
X661199Y51491D01*
X661273Y51539D01*
X661346Y51590D01*
X661416Y51644D01*
X661483Y51702D01*
X661549Y51762D01*
X661611Y51824D01*
X661671Y51890D01*
X661729Y51957D01*
X661783Y52027D01*
X661834Y52100D01*
X661882Y52174D01*
X661927Y52251D01*
X661968Y52329D01*
X662007Y52409D01*
X662041Y52490D01*
X662073Y52573D01*
X662100Y52658D01*
X662125Y52743D01*
X662145Y52829D01*
X662162Y52916D01*
X662175Y53004D01*
X662184Y53092D01*
X662190Y53180D01*
X662192Y53269D01*
X662192Y54314D01*
X662190Y54403D01*
X662184Y54491D01*
X662175Y54579D01*
X662162Y54667D01*
X662145Y54754D01*
X662125Y54840D01*
X662100Y54925D01*
X662073Y55010D01*
X662041Y55093D01*
X662007Y55174D01*
X661968Y55254D01*
X661927Y55332D01*
X661882Y55409D01*
X661834Y55483D01*
X661783Y55556D01*
X661729Y55626D01*
X661671Y55693D01*
X661611Y55759D01*
X661549Y55821D01*
X661483Y55881D01*
X661416Y55939D01*
X661346Y55993D01*
X661273Y56044D01*
X661199Y56092D01*
X661122Y56137D01*
X661044Y56178D01*
X660964Y56217D01*
X660883Y56251D01*
X660800Y56283D01*
X660715Y56310D01*
X660630Y56335D01*
X660544Y56355D01*
X660457Y56372D01*
X660369Y56385D01*
X660281Y56394D01*
X660193Y56400D01*
X660104Y56402D01*
X656971Y56402D01*
X656971Y60579D01*
X662192Y60579D01*
X268859Y481884D02*
X259461Y485017D01*
X268859Y488149D01*
X266510Y487366D02*
X266510Y482667D01*
X268859Y491912D02*
X259461Y491912D01*
X259461Y494522D01*
X259463Y494623D01*
X259469Y494724D01*
X259479Y494825D01*
X259492Y494925D01*
X259510Y495025D01*
X259531Y495124D01*
X259557Y495222D01*
X259586Y495319D01*
X259618Y495415D01*
X259655Y495509D01*
X259695Y495602D01*
X259739Y495694D01*
X259786Y495783D01*
X259837Y495871D01*
X259891Y495957D01*
X259948Y496040D01*
X260008Y496122D01*
X260072Y496200D01*
X260138Y496277D01*
X260208Y496350D01*
X260280Y496421D01*
X260355Y496489D01*
X260433Y496554D01*
X260513Y496616D01*
X260595Y496675D01*
X260680Y496731D01*
X260767Y496783D01*
X260855Y496832D01*
X260946Y496878D01*
X261038Y496919D01*
X261132Y496958D01*
X261227Y496992D01*
X261323Y497023D01*
X261421Y497050D01*
X261519Y497074D01*
X261619Y497093D01*
X261719Y497109D01*
X261819Y497121D01*
X261920Y497129D01*
X262021Y497133D01*
X262123Y497133D01*
X262224Y497129D01*
X262325Y497121D01*
X262425Y497109D01*
X262525Y497093D01*
X262625Y497074D01*
X262723Y497050D01*
X262821Y497023D01*
X262917Y496992D01*
X263012Y496958D01*
X263106Y496919D01*
X263198Y496878D01*
X263289Y496832D01*
X263378Y496783D01*
X263464Y496731D01*
X263549Y496675D01*
X263631Y496616D01*
X263711Y496554D01*
X263789Y496489D01*
X263864Y496421D01*
X263936Y496350D01*
X264006Y496277D01*
X264072Y496200D01*
X264136Y496122D01*
X264196Y496040D01*
X264253Y495957D01*
X264307Y495871D01*
X264358Y495783D01*
X264405Y495694D01*
X264449Y495602D01*
X264489Y495509D01*
X264526Y495415D01*
X264558Y495319D01*
X264587Y495222D01*
X264613Y495124D01*
X264634Y495025D01*
X264652Y494925D01*
X264665Y494825D01*
X264675Y494724D01*
X264681Y494623D01*
X264683Y494522D01*
X264682Y494522D02*
X264682Y491912D01*
X264682Y495044D02*
X268859Y497133D01*
X268859Y502478D02*
X268859Y505088D01*
X268859Y502478D02*
X268857Y502401D01*
X268851Y502325D01*
X268842Y502248D01*
X268829Y502172D01*
X268812Y502097D01*
X268792Y502023D01*
X268767Y501950D01*
X268740Y501879D01*
X268709Y501808D01*
X268674Y501740D01*
X268636Y501673D01*
X268595Y501608D01*
X268551Y501545D01*
X268504Y501485D01*
X268453Y501426D01*
X268400Y501371D01*
X268345Y501318D01*
X268286Y501267D01*
X268226Y501220D01*
X268163Y501176D01*
X268098Y501135D01*
X268031Y501097D01*
X267963Y501062D01*
X267892Y501031D01*
X267821Y501004D01*
X267748Y500979D01*
X267674Y500959D01*
X267599Y500942D01*
X267523Y500929D01*
X267446Y500920D01*
X267370Y500914D01*
X267293Y500912D01*
X267293Y500911D02*
X264682Y500911D01*
X264682Y500912D02*
X264592Y500914D01*
X264503Y500920D01*
X264413Y500929D01*
X264324Y500943D01*
X264236Y500960D01*
X264149Y500981D01*
X264062Y501006D01*
X263977Y501035D01*
X263893Y501067D01*
X263811Y501102D01*
X263730Y501142D01*
X263651Y501184D01*
X263574Y501230D01*
X263499Y501280D01*
X263426Y501332D01*
X263355Y501388D01*
X263287Y501446D01*
X263222Y501508D01*
X263159Y501572D01*
X263099Y501639D01*
X263042Y501708D01*
X262988Y501780D01*
X262937Y501854D01*
X262889Y501930D01*
X262845Y502008D01*
X262804Y502088D01*
X262766Y502170D01*
X262732Y502253D01*
X262702Y502338D01*
X262675Y502424D01*
X262652Y502510D01*
X262633Y502598D01*
X262618Y502687D01*
X262606Y502776D01*
X262598Y502865D01*
X262594Y502955D01*
X262594Y503045D01*
X262598Y503135D01*
X262606Y503224D01*
X262618Y503313D01*
X262633Y503402D01*
X262652Y503490D01*
X262675Y503576D01*
X262702Y503662D01*
X262732Y503747D01*
X262766Y503830D01*
X262804Y503912D01*
X262845Y503992D01*
X262889Y504070D01*
X262937Y504146D01*
X262988Y504220D01*
X263042Y504292D01*
X263099Y504361D01*
X263159Y504428D01*
X263222Y504492D01*
X263287Y504554D01*
X263355Y504612D01*
X263426Y504668D01*
X263499Y504720D01*
X263574Y504770D01*
X263651Y504816D01*
X263730Y504858D01*
X263811Y504898D01*
X263893Y504933D01*
X263977Y504965D01*
X264062Y504994D01*
X264149Y505019D01*
X264236Y505040D01*
X264324Y505057D01*
X264413Y505071D01*
X264503Y505080D01*
X264592Y505086D01*
X264682Y505088D01*
X265726Y505088D01*
X265726Y500911D01*
X268859Y509341D02*
X261027Y509341D01*
X260950Y509343D01*
X260874Y509349D01*
X260797Y509358D01*
X260721Y509371D01*
X260647Y509388D01*
X260572Y509408D01*
X260499Y509433D01*
X260428Y509460D01*
X260357Y509491D01*
X260289Y509526D01*
X260222Y509564D01*
X260157Y509605D01*
X260094Y509649D01*
X260034Y509696D01*
X259975Y509747D01*
X259920Y509800D01*
X259867Y509855D01*
X259816Y509914D01*
X259769Y509974D01*
X259725Y510037D01*
X259684Y510102D01*
X259646Y510169D01*
X259611Y510237D01*
X259580Y510308D01*
X259553Y510379D01*
X259528Y510452D01*
X259508Y510526D01*
X259491Y510601D01*
X259478Y510677D01*
X259469Y510753D01*
X259463Y510830D01*
X259461Y510907D01*
X259461Y511429D01*
X262594Y511429D02*
X262594Y508296D01*
X294259Y493395D02*
X294259Y490785D01*
X294257Y490708D01*
X294251Y490632D01*
X294242Y490555D01*
X294229Y490479D01*
X294212Y490404D01*
X294192Y490330D01*
X294167Y490257D01*
X294140Y490186D01*
X294109Y490115D01*
X294074Y490047D01*
X294036Y489980D01*
X293995Y489915D01*
X293951Y489852D01*
X293904Y489792D01*
X293853Y489733D01*
X293800Y489678D01*
X293745Y489625D01*
X293686Y489574D01*
X293626Y489527D01*
X293563Y489483D01*
X293498Y489442D01*
X293431Y489404D01*
X293363Y489369D01*
X293292Y489338D01*
X293221Y489311D01*
X293148Y489286D01*
X293074Y489266D01*
X292999Y489249D01*
X292923Y489236D01*
X292846Y489227D01*
X292770Y489221D01*
X292693Y489219D01*
X292693Y489218D02*
X289560Y489218D01*
X289560Y489219D02*
X289483Y489221D01*
X289407Y489227D01*
X289330Y489236D01*
X289254Y489249D01*
X289179Y489266D01*
X289105Y489286D01*
X289032Y489311D01*
X288961Y489338D01*
X288890Y489369D01*
X288822Y489404D01*
X288755Y489442D01*
X288690Y489483D01*
X288627Y489527D01*
X288567Y489574D01*
X288508Y489625D01*
X288453Y489678D01*
X288400Y489733D01*
X288349Y489792D01*
X288302Y489852D01*
X288258Y489915D01*
X288217Y489980D01*
X288179Y490047D01*
X288144Y490115D01*
X288113Y490186D01*
X288086Y490257D01*
X288061Y490330D01*
X288041Y490404D01*
X288024Y490479D01*
X288011Y490555D01*
X288002Y490632D01*
X287996Y490708D01*
X287994Y490785D01*
X287994Y493395D01*
X295825Y493395D01*
X295902Y493393D01*
X295978Y493387D01*
X296055Y493378D01*
X296131Y493365D01*
X296206Y493348D01*
X296280Y493328D01*
X296353Y493303D01*
X296424Y493276D01*
X296495Y493245D01*
X296563Y493210D01*
X296630Y493172D01*
X296695Y493131D01*
X296758Y493087D01*
X296818Y493040D01*
X296877Y492989D01*
X296932Y492936D01*
X296985Y492881D01*
X297036Y492822D01*
X297083Y492762D01*
X297127Y492699D01*
X297168Y492634D01*
X297206Y492567D01*
X297241Y492499D01*
X297272Y492428D01*
X297299Y492357D01*
X297324Y492284D01*
X297344Y492210D01*
X297361Y492135D01*
X297374Y492059D01*
X297383Y491982D01*
X297389Y491906D01*
X297391Y491829D01*
X297392Y491829D02*
X297392Y489740D01*
X294259Y497798D02*
X287994Y497798D01*
X287994Y500409D01*
X287996Y500486D01*
X288002Y500562D01*
X288011Y500639D01*
X288024Y500715D01*
X288041Y500790D01*
X288061Y500864D01*
X288086Y500937D01*
X288113Y501008D01*
X288144Y501079D01*
X288179Y501147D01*
X288217Y501214D01*
X288258Y501279D01*
X288302Y501342D01*
X288349Y501402D01*
X288400Y501461D01*
X288453Y501516D01*
X288508Y501569D01*
X288567Y501620D01*
X288627Y501667D01*
X288690Y501711D01*
X288755Y501752D01*
X288822Y501790D01*
X288890Y501825D01*
X288961Y501856D01*
X289032Y501883D01*
X289105Y501908D01*
X289179Y501928D01*
X289254Y501945D01*
X289330Y501958D01*
X289406Y501967D01*
X289483Y501973D01*
X289560Y501975D01*
X294259Y501975D01*
X294259Y510159D02*
X284861Y510159D01*
X294259Y510159D02*
X294259Y507548D01*
X294257Y507471D01*
X294251Y507395D01*
X294242Y507318D01*
X294229Y507242D01*
X294212Y507167D01*
X294192Y507093D01*
X294167Y507020D01*
X294140Y506949D01*
X294109Y506878D01*
X294074Y506810D01*
X294036Y506743D01*
X293995Y506678D01*
X293951Y506615D01*
X293904Y506555D01*
X293853Y506496D01*
X293800Y506441D01*
X293745Y506388D01*
X293686Y506337D01*
X293626Y506290D01*
X293563Y506246D01*
X293498Y506205D01*
X293431Y506167D01*
X293363Y506132D01*
X293292Y506101D01*
X293221Y506074D01*
X293148Y506049D01*
X293074Y506029D01*
X292999Y506012D01*
X292923Y505999D01*
X292846Y505990D01*
X292770Y505984D01*
X292693Y505982D01*
X289560Y505982D01*
X289483Y505984D01*
X289407Y505990D01*
X289330Y505999D01*
X289254Y506012D01*
X289179Y506029D01*
X289105Y506049D01*
X289032Y506074D01*
X288961Y506101D01*
X288890Y506132D01*
X288822Y506167D01*
X288755Y506205D01*
X288690Y506246D01*
X288627Y506290D01*
X288567Y506337D01*
X288508Y506388D01*
X288453Y506441D01*
X288400Y506496D01*
X288349Y506555D01*
X288302Y506615D01*
X288258Y506678D01*
X288217Y506743D01*
X288179Y506810D01*
X288144Y506878D01*
X288113Y506949D01*
X288086Y507020D01*
X288061Y507093D01*
X288041Y507167D01*
X288024Y507242D01*
X288011Y507318D01*
X288002Y507395D01*
X287996Y507471D01*
X287994Y507548D01*
X287994Y510159D01*
X311644Y505531D02*
X314254Y507619D01*
X314254Y498221D01*
X311644Y498221D02*
X316865Y498221D01*
X320788Y498221D02*
X323398Y498221D01*
X323499Y498223D01*
X323600Y498229D01*
X323701Y498239D01*
X323801Y498252D01*
X323901Y498270D01*
X324000Y498291D01*
X324098Y498317D01*
X324195Y498346D01*
X324291Y498378D01*
X324385Y498415D01*
X324478Y498455D01*
X324570Y498499D01*
X324659Y498546D01*
X324747Y498597D01*
X324833Y498651D01*
X324916Y498708D01*
X324998Y498768D01*
X325076Y498832D01*
X325153Y498898D01*
X325226Y498968D01*
X325297Y499040D01*
X325365Y499115D01*
X325430Y499193D01*
X325492Y499273D01*
X325551Y499355D01*
X325607Y499440D01*
X325659Y499527D01*
X325708Y499615D01*
X325754Y499706D01*
X325795Y499798D01*
X325834Y499892D01*
X325868Y499987D01*
X325899Y500083D01*
X325926Y500181D01*
X325950Y500279D01*
X325969Y500379D01*
X325985Y500479D01*
X325997Y500579D01*
X326005Y500680D01*
X326009Y500781D01*
X326009Y500883D01*
X326005Y500984D01*
X325997Y501085D01*
X325985Y501185D01*
X325969Y501285D01*
X325950Y501385D01*
X325926Y501483D01*
X325899Y501581D01*
X325868Y501677D01*
X325834Y501772D01*
X325795Y501866D01*
X325754Y501958D01*
X325708Y502049D01*
X325659Y502137D01*
X325607Y502224D01*
X325551Y502309D01*
X325492Y502391D01*
X325430Y502471D01*
X325365Y502549D01*
X325297Y502624D01*
X325226Y502696D01*
X325153Y502766D01*
X325076Y502832D01*
X324998Y502896D01*
X324916Y502956D01*
X324833Y503013D01*
X324747Y503067D01*
X324659Y503118D01*
X324570Y503165D01*
X324478Y503209D01*
X324385Y503249D01*
X324291Y503286D01*
X324195Y503318D01*
X324098Y503347D01*
X324000Y503373D01*
X323901Y503394D01*
X323801Y503412D01*
X323701Y503425D01*
X323600Y503435D01*
X323499Y503441D01*
X323398Y503443D01*
X323921Y507619D02*
X320788Y507619D01*
X323921Y507619D02*
X324011Y507617D01*
X324100Y507611D01*
X324190Y507602D01*
X324279Y507588D01*
X324367Y507571D01*
X324454Y507550D01*
X324541Y507525D01*
X324626Y507496D01*
X324710Y507464D01*
X324792Y507429D01*
X324873Y507389D01*
X324952Y507347D01*
X325029Y507301D01*
X325104Y507251D01*
X325177Y507199D01*
X325248Y507143D01*
X325316Y507085D01*
X325381Y507023D01*
X325444Y506959D01*
X325504Y506892D01*
X325561Y506823D01*
X325615Y506751D01*
X325666Y506677D01*
X325714Y506601D01*
X325758Y506523D01*
X325799Y506443D01*
X325837Y506361D01*
X325871Y506278D01*
X325901Y506193D01*
X325928Y506107D01*
X325951Y506021D01*
X325970Y505933D01*
X325985Y505844D01*
X325997Y505755D01*
X326005Y505666D01*
X326009Y505576D01*
X326009Y505486D01*
X326005Y505396D01*
X325997Y505307D01*
X325985Y505218D01*
X325970Y505129D01*
X325951Y505041D01*
X325928Y504955D01*
X325901Y504869D01*
X325871Y504784D01*
X325837Y504701D01*
X325799Y504619D01*
X325758Y504539D01*
X325714Y504461D01*
X325666Y504385D01*
X325615Y504311D01*
X325561Y504239D01*
X325504Y504170D01*
X325444Y504103D01*
X325381Y504039D01*
X325316Y503977D01*
X325248Y503919D01*
X325177Y503863D01*
X325104Y503811D01*
X325029Y503761D01*
X324952Y503715D01*
X324873Y503673D01*
X324792Y503633D01*
X324710Y503598D01*
X324626Y503566D01*
X324541Y503537D01*
X324454Y503512D01*
X324367Y503491D01*
X324279Y503474D01*
X324190Y503460D01*
X324100Y503451D01*
X324011Y503445D01*
X323921Y503443D01*
X323921Y503442D02*
X321832Y503442D01*
X337044Y505531D02*
X339654Y507619D01*
X339654Y498221D01*
X337044Y498221D02*
X342265Y498221D01*
X351410Y505270D02*
X351408Y505365D01*
X351402Y505459D01*
X351393Y505553D01*
X351380Y505647D01*
X351363Y505740D01*
X351342Y505832D01*
X351317Y505924D01*
X351289Y506014D01*
X351257Y506103D01*
X351222Y506191D01*
X351183Y506277D01*
X351141Y506362D01*
X351095Y506445D01*
X351046Y506526D01*
X350994Y506605D01*
X350939Y506682D01*
X350880Y506756D01*
X350819Y506828D01*
X350755Y506898D01*
X350688Y506965D01*
X350618Y507029D01*
X350546Y507090D01*
X350472Y507149D01*
X350395Y507204D01*
X350316Y507256D01*
X350235Y507305D01*
X350152Y507351D01*
X350067Y507393D01*
X349981Y507432D01*
X349893Y507467D01*
X349804Y507499D01*
X349714Y507527D01*
X349622Y507552D01*
X349530Y507573D01*
X349437Y507590D01*
X349343Y507603D01*
X349249Y507612D01*
X349155Y507618D01*
X349060Y507620D01*
X349060Y507619D02*
X348952Y507617D01*
X348843Y507611D01*
X348735Y507601D01*
X348628Y507588D01*
X348521Y507570D01*
X348414Y507549D01*
X348309Y507524D01*
X348204Y507495D01*
X348101Y507463D01*
X347999Y507426D01*
X347898Y507386D01*
X347799Y507343D01*
X347701Y507296D01*
X347605Y507245D01*
X347511Y507191D01*
X347419Y507134D01*
X347329Y507073D01*
X347241Y507009D01*
X347156Y506943D01*
X347073Y506873D01*
X346993Y506800D01*
X346915Y506724D01*
X346840Y506646D01*
X346768Y506565D01*
X346699Y506481D01*
X346633Y506395D01*
X346570Y506307D01*
X346511Y506216D01*
X346454Y506124D01*
X346401Y506029D01*
X346352Y505933D01*
X346306Y505834D01*
X346263Y505735D01*
X346224Y505633D01*
X346189Y505531D01*
X350626Y503442D02*
X350695Y503511D01*
X350761Y503582D01*
X350825Y503655D01*
X350886Y503731D01*
X350944Y503810D01*
X350998Y503890D01*
X351050Y503973D01*
X351098Y504057D01*
X351144Y504143D01*
X351185Y504231D01*
X351224Y504321D01*
X351259Y504412D01*
X351290Y504504D01*
X351318Y504597D01*
X351342Y504691D01*
X351362Y504786D01*
X351379Y504882D01*
X351392Y504979D01*
X351401Y505076D01*
X351407Y505173D01*
X351409Y505270D01*
X350626Y503442D02*
X346188Y498221D01*
X351409Y498221D01*
X362444Y505531D02*
X365054Y507619D01*
X365054Y498221D01*
X362444Y498221D02*
X367665Y498221D01*
X371588Y505531D02*
X374198Y507619D01*
X374198Y498221D01*
X371588Y498221D02*
X376809Y498221D01*
X387844Y505531D02*
X390454Y507619D01*
X390454Y498221D01*
X387844Y498221D02*
X393065Y498221D01*
X396988Y502920D02*
X396990Y503105D01*
X396997Y503290D01*
X397008Y503474D01*
X397023Y503658D01*
X397043Y503842D01*
X397067Y504026D01*
X397096Y504208D01*
X397129Y504390D01*
X397166Y504571D01*
X397208Y504751D01*
X397254Y504931D01*
X397304Y505109D01*
X397358Y505285D01*
X397417Y505461D01*
X397479Y505635D01*
X397546Y505807D01*
X397617Y505978D01*
X397692Y506147D01*
X397771Y506314D01*
X397770Y506314D02*
X397800Y506394D01*
X397833Y506473D01*
X397870Y506550D01*
X397910Y506626D01*
X397953Y506700D01*
X397999Y506772D01*
X398049Y506841D01*
X398101Y506909D01*
X398157Y506974D01*
X398215Y507037D01*
X398277Y507096D01*
X398340Y507154D01*
X398407Y507208D01*
X398475Y507259D01*
X398546Y507307D01*
X398619Y507352D01*
X398693Y507394D01*
X398770Y507432D01*
X398848Y507467D01*
X398927Y507499D01*
X399008Y507527D01*
X399090Y507551D01*
X399174Y507572D01*
X399257Y507589D01*
X399342Y507602D01*
X399427Y507611D01*
X399512Y507617D01*
X399598Y507619D01*
X399684Y507617D01*
X399769Y507611D01*
X399854Y507602D01*
X399939Y507589D01*
X400022Y507572D01*
X400106Y507551D01*
X400188Y507527D01*
X400269Y507499D01*
X400348Y507467D01*
X400426Y507432D01*
X400503Y507394D01*
X400577Y507352D01*
X400650Y507307D01*
X400721Y507259D01*
X400789Y507208D01*
X400856Y507154D01*
X400919Y507096D01*
X400981Y507037D01*
X401039Y506974D01*
X401095Y506909D01*
X401147Y506841D01*
X401197Y506772D01*
X401243Y506700D01*
X401286Y506626D01*
X401326Y506550D01*
X401363Y506473D01*
X401396Y506394D01*
X401426Y506314D01*
X401505Y506147D01*
X401580Y505978D01*
X401651Y505807D01*
X401718Y505635D01*
X401780Y505461D01*
X401839Y505285D01*
X401893Y505109D01*
X401943Y504931D01*
X401989Y504751D01*
X402031Y504571D01*
X402068Y504390D01*
X402101Y504208D01*
X402130Y504026D01*
X402154Y503842D01*
X402174Y503658D01*
X402189Y503474D01*
X402200Y503290D01*
X402207Y503105D01*
X402209Y502920D01*
X396988Y502920D02*
X396990Y502735D01*
X396997Y502550D01*
X397008Y502366D01*
X397023Y502182D01*
X397043Y501998D01*
X397067Y501814D01*
X397096Y501632D01*
X397129Y501450D01*
X397166Y501269D01*
X397208Y501089D01*
X397254Y500909D01*
X397304Y500731D01*
X397358Y500555D01*
X397417Y500379D01*
X397479Y500205D01*
X397546Y500033D01*
X397617Y499862D01*
X397692Y499693D01*
X397771Y499526D01*
X397770Y499526D02*
X397800Y499446D01*
X397833Y499367D01*
X397870Y499290D01*
X397910Y499214D01*
X397953Y499140D01*
X397999Y499068D01*
X398049Y498999D01*
X398102Y498931D01*
X398157Y498866D01*
X398216Y498803D01*
X398277Y498744D01*
X398340Y498686D01*
X398407Y498632D01*
X398475Y498581D01*
X398546Y498533D01*
X398619Y498488D01*
X398693Y498446D01*
X398770Y498408D01*
X398848Y498373D01*
X398927Y498341D01*
X399008Y498313D01*
X399090Y498289D01*
X399174Y498268D01*
X399257Y498251D01*
X399342Y498238D01*
X399427Y498229D01*
X399512Y498223D01*
X399598Y498221D01*
X401426Y499526D02*
X401505Y499693D01*
X401580Y499862D01*
X401651Y500033D01*
X401718Y500205D01*
X401780Y500379D01*
X401839Y500555D01*
X401893Y500731D01*
X401943Y500909D01*
X401989Y501089D01*
X402031Y501269D01*
X402068Y501450D01*
X402101Y501632D01*
X402130Y501814D01*
X402154Y501998D01*
X402174Y502182D01*
X402189Y502366D01*
X402200Y502550D01*
X402207Y502735D01*
X402209Y502920D01*
X401426Y499526D02*
X401396Y499446D01*
X401363Y499367D01*
X401326Y499290D01*
X401286Y499214D01*
X401243Y499140D01*
X401197Y499068D01*
X401147Y498999D01*
X401095Y498931D01*
X401039Y498866D01*
X400981Y498803D01*
X400919Y498744D01*
X400856Y498686D01*
X400789Y498632D01*
X400721Y498581D01*
X400650Y498533D01*
X400577Y498488D01*
X400503Y498446D01*
X400426Y498408D01*
X400348Y498373D01*
X400269Y498341D01*
X400188Y498313D01*
X400106Y498289D01*
X400022Y498268D01*
X399939Y498251D01*
X399854Y498238D01*
X399769Y498229D01*
X399684Y498223D01*
X399598Y498221D01*
X397510Y500309D02*
X401687Y505531D01*
X419396Y502398D02*
X422529Y502398D01*
X419396Y502398D02*
X419307Y502400D01*
X419219Y502406D01*
X419131Y502415D01*
X419043Y502428D01*
X418956Y502445D01*
X418870Y502465D01*
X418785Y502490D01*
X418700Y502517D01*
X418617Y502549D01*
X418536Y502583D01*
X418456Y502622D01*
X418378Y502663D01*
X418301Y502708D01*
X418227Y502756D01*
X418154Y502807D01*
X418084Y502861D01*
X418017Y502919D01*
X417951Y502979D01*
X417889Y503041D01*
X417829Y503107D01*
X417771Y503174D01*
X417717Y503244D01*
X417666Y503317D01*
X417618Y503391D01*
X417573Y503468D01*
X417532Y503546D01*
X417493Y503626D01*
X417459Y503707D01*
X417427Y503790D01*
X417400Y503875D01*
X417375Y503960D01*
X417355Y504046D01*
X417338Y504133D01*
X417325Y504221D01*
X417316Y504309D01*
X417310Y504397D01*
X417308Y504486D01*
X417308Y505008D01*
X417307Y505008D02*
X417309Y505109D01*
X417315Y505210D01*
X417325Y505311D01*
X417338Y505411D01*
X417356Y505511D01*
X417377Y505610D01*
X417403Y505708D01*
X417432Y505805D01*
X417464Y505901D01*
X417501Y505995D01*
X417541Y506088D01*
X417585Y506180D01*
X417632Y506269D01*
X417683Y506357D01*
X417737Y506443D01*
X417794Y506526D01*
X417854Y506608D01*
X417918Y506686D01*
X417984Y506763D01*
X418054Y506836D01*
X418126Y506907D01*
X418201Y506975D01*
X418279Y507040D01*
X418359Y507102D01*
X418441Y507161D01*
X418526Y507217D01*
X418613Y507269D01*
X418701Y507318D01*
X418792Y507364D01*
X418884Y507405D01*
X418978Y507444D01*
X419073Y507478D01*
X419169Y507509D01*
X419267Y507536D01*
X419365Y507560D01*
X419465Y507579D01*
X419565Y507595D01*
X419665Y507607D01*
X419766Y507615D01*
X419867Y507619D01*
X419969Y507619D01*
X420070Y507615D01*
X420171Y507607D01*
X420271Y507595D01*
X420371Y507579D01*
X420471Y507560D01*
X420569Y507536D01*
X420667Y507509D01*
X420763Y507478D01*
X420858Y507444D01*
X420952Y507405D01*
X421044Y507364D01*
X421135Y507318D01*
X421224Y507269D01*
X421310Y507217D01*
X421395Y507161D01*
X421477Y507102D01*
X421557Y507040D01*
X421635Y506975D01*
X421710Y506907D01*
X421782Y506836D01*
X421852Y506763D01*
X421918Y506686D01*
X421982Y506608D01*
X422042Y506526D01*
X422099Y506443D01*
X422153Y506357D01*
X422204Y506269D01*
X422251Y506180D01*
X422295Y506088D01*
X422335Y505995D01*
X422372Y505901D01*
X422404Y505805D01*
X422433Y505708D01*
X422459Y505610D01*
X422480Y505511D01*
X422498Y505411D01*
X422511Y505311D01*
X422521Y505210D01*
X422527Y505109D01*
X422529Y505008D01*
X422529Y502398D01*
X422527Y502272D01*
X422521Y502146D01*
X422512Y502020D01*
X422499Y501895D01*
X422481Y501770D01*
X422461Y501645D01*
X422436Y501521D01*
X422408Y501398D01*
X422376Y501276D01*
X422340Y501155D01*
X422301Y501035D01*
X422258Y500917D01*
X422211Y500800D01*
X422161Y500684D01*
X422107Y500569D01*
X422051Y500457D01*
X421990Y500346D01*
X421927Y500237D01*
X421860Y500130D01*
X421790Y500025D01*
X421716Y499922D01*
X421640Y499822D01*
X421561Y499724D01*
X421479Y499628D01*
X421393Y499535D01*
X421306Y499444D01*
X421215Y499357D01*
X421122Y499271D01*
X421026Y499189D01*
X420928Y499110D01*
X420828Y499034D01*
X420725Y498960D01*
X420620Y498890D01*
X420513Y498823D01*
X420404Y498760D01*
X420293Y498699D01*
X420181Y498643D01*
X420066Y498589D01*
X419950Y498539D01*
X419833Y498492D01*
X419715Y498449D01*
X419595Y498410D01*
X419474Y498374D01*
X419352Y498342D01*
X419229Y498314D01*
X419105Y498289D01*
X418980Y498269D01*
X418855Y498251D01*
X418730Y498238D01*
X418604Y498229D01*
X418478Y498223D01*
X418352Y498221D01*
X442707Y500832D02*
X442709Y500933D01*
X442715Y501034D01*
X442725Y501135D01*
X442738Y501235D01*
X442756Y501335D01*
X442777Y501434D01*
X442803Y501532D01*
X442832Y501629D01*
X442864Y501725D01*
X442901Y501819D01*
X442941Y501912D01*
X442985Y502004D01*
X443032Y502093D01*
X443083Y502181D01*
X443137Y502267D01*
X443194Y502350D01*
X443254Y502432D01*
X443318Y502510D01*
X443384Y502587D01*
X443454Y502660D01*
X443526Y502731D01*
X443601Y502799D01*
X443679Y502864D01*
X443759Y502926D01*
X443841Y502985D01*
X443926Y503041D01*
X444013Y503093D01*
X444101Y503142D01*
X444192Y503188D01*
X444284Y503229D01*
X444378Y503268D01*
X444473Y503302D01*
X444569Y503333D01*
X444667Y503360D01*
X444765Y503384D01*
X444865Y503403D01*
X444965Y503419D01*
X445065Y503431D01*
X445166Y503439D01*
X445267Y503443D01*
X445369Y503443D01*
X445470Y503439D01*
X445571Y503431D01*
X445671Y503419D01*
X445771Y503403D01*
X445871Y503384D01*
X445969Y503360D01*
X446067Y503333D01*
X446163Y503302D01*
X446258Y503268D01*
X446352Y503229D01*
X446444Y503188D01*
X446535Y503142D01*
X446624Y503093D01*
X446710Y503041D01*
X446795Y502985D01*
X446877Y502926D01*
X446957Y502864D01*
X447035Y502799D01*
X447110Y502731D01*
X447182Y502660D01*
X447252Y502587D01*
X447318Y502510D01*
X447382Y502432D01*
X447442Y502350D01*
X447499Y502267D01*
X447553Y502181D01*
X447604Y502093D01*
X447651Y502004D01*
X447695Y501912D01*
X447735Y501819D01*
X447772Y501725D01*
X447804Y501629D01*
X447833Y501532D01*
X447859Y501434D01*
X447880Y501335D01*
X447898Y501235D01*
X447911Y501135D01*
X447921Y501034D01*
X447927Y500933D01*
X447929Y500832D01*
X447927Y500731D01*
X447921Y500630D01*
X447911Y500529D01*
X447898Y500429D01*
X447880Y500329D01*
X447859Y500230D01*
X447833Y500132D01*
X447804Y500035D01*
X447772Y499939D01*
X447735Y499845D01*
X447695Y499752D01*
X447651Y499660D01*
X447604Y499571D01*
X447553Y499483D01*
X447499Y499397D01*
X447442Y499314D01*
X447382Y499232D01*
X447318Y499154D01*
X447252Y499077D01*
X447182Y499004D01*
X447110Y498933D01*
X447035Y498865D01*
X446957Y498800D01*
X446877Y498738D01*
X446795Y498679D01*
X446710Y498623D01*
X446623Y498571D01*
X446535Y498522D01*
X446444Y498476D01*
X446352Y498435D01*
X446258Y498396D01*
X446163Y498362D01*
X446067Y498331D01*
X445969Y498304D01*
X445871Y498280D01*
X445771Y498261D01*
X445671Y498245D01*
X445571Y498233D01*
X445470Y498225D01*
X445369Y498221D01*
X445267Y498221D01*
X445166Y498225D01*
X445065Y498233D01*
X444965Y498245D01*
X444865Y498261D01*
X444765Y498280D01*
X444667Y498304D01*
X444569Y498331D01*
X444473Y498362D01*
X444378Y498396D01*
X444284Y498435D01*
X444192Y498476D01*
X444101Y498522D01*
X444013Y498571D01*
X443926Y498623D01*
X443841Y498679D01*
X443759Y498738D01*
X443679Y498800D01*
X443601Y498865D01*
X443526Y498933D01*
X443454Y499004D01*
X443384Y499077D01*
X443318Y499154D01*
X443254Y499232D01*
X443194Y499314D01*
X443137Y499397D01*
X443083Y499483D01*
X443032Y499571D01*
X442985Y499660D01*
X442941Y499752D01*
X442901Y499845D01*
X442864Y499939D01*
X442832Y500035D01*
X442803Y500132D01*
X442777Y500230D01*
X442756Y500329D01*
X442738Y500429D01*
X442725Y500529D01*
X442715Y500630D01*
X442709Y500731D01*
X442707Y500832D01*
X443230Y505531D02*
X443232Y505621D01*
X443238Y505710D01*
X443247Y505800D01*
X443261Y505889D01*
X443278Y505977D01*
X443299Y506064D01*
X443324Y506151D01*
X443353Y506236D01*
X443385Y506320D01*
X443420Y506402D01*
X443460Y506483D01*
X443502Y506562D01*
X443548Y506639D01*
X443598Y506714D01*
X443650Y506787D01*
X443706Y506858D01*
X443764Y506926D01*
X443826Y506991D01*
X443890Y507054D01*
X443957Y507114D01*
X444026Y507171D01*
X444098Y507225D01*
X444172Y507276D01*
X444248Y507324D01*
X444326Y507368D01*
X444406Y507409D01*
X444488Y507447D01*
X444571Y507481D01*
X444656Y507511D01*
X444742Y507538D01*
X444828Y507561D01*
X444916Y507580D01*
X445005Y507595D01*
X445094Y507607D01*
X445183Y507615D01*
X445273Y507619D01*
X445363Y507619D01*
X445453Y507615D01*
X445542Y507607D01*
X445631Y507595D01*
X445720Y507580D01*
X445808Y507561D01*
X445894Y507538D01*
X445980Y507511D01*
X446065Y507481D01*
X446148Y507447D01*
X446230Y507409D01*
X446310Y507368D01*
X446388Y507324D01*
X446464Y507276D01*
X446538Y507225D01*
X446610Y507171D01*
X446679Y507114D01*
X446746Y507054D01*
X446810Y506991D01*
X446872Y506926D01*
X446930Y506858D01*
X446986Y506787D01*
X447038Y506714D01*
X447088Y506639D01*
X447134Y506562D01*
X447176Y506483D01*
X447216Y506402D01*
X447251Y506320D01*
X447283Y506236D01*
X447312Y506151D01*
X447337Y506064D01*
X447358Y505977D01*
X447375Y505889D01*
X447389Y505800D01*
X447398Y505710D01*
X447404Y505621D01*
X447406Y505531D01*
X447404Y505441D01*
X447398Y505352D01*
X447389Y505262D01*
X447375Y505173D01*
X447358Y505085D01*
X447337Y504998D01*
X447312Y504911D01*
X447283Y504826D01*
X447251Y504742D01*
X447216Y504660D01*
X447176Y504579D01*
X447134Y504500D01*
X447088Y504423D01*
X447038Y504348D01*
X446986Y504275D01*
X446930Y504204D01*
X446872Y504136D01*
X446810Y504071D01*
X446746Y504008D01*
X446679Y503948D01*
X446610Y503891D01*
X446538Y503837D01*
X446464Y503786D01*
X446388Y503738D01*
X446310Y503694D01*
X446230Y503653D01*
X446148Y503615D01*
X446065Y503581D01*
X445980Y503551D01*
X445894Y503524D01*
X445808Y503501D01*
X445720Y503482D01*
X445631Y503467D01*
X445542Y503455D01*
X445453Y503447D01*
X445363Y503443D01*
X445273Y503443D01*
X445183Y503447D01*
X445094Y503455D01*
X445005Y503467D01*
X444916Y503482D01*
X444828Y503501D01*
X444742Y503524D01*
X444656Y503551D01*
X444571Y503581D01*
X444488Y503615D01*
X444406Y503653D01*
X444326Y503694D01*
X444248Y503738D01*
X444172Y503786D01*
X444098Y503837D01*
X444026Y503891D01*
X443957Y503948D01*
X443890Y504008D01*
X443826Y504071D01*
X443764Y504136D01*
X443706Y504204D01*
X443650Y504275D01*
X443598Y504348D01*
X443548Y504423D01*
X443502Y504500D01*
X443460Y504579D01*
X443420Y504660D01*
X443385Y504742D01*
X443353Y504826D01*
X443324Y504911D01*
X443299Y504998D01*
X443278Y505085D01*
X443261Y505173D01*
X443247Y505262D01*
X443238Y505352D01*
X443232Y505441D01*
X443230Y505531D01*
X483348Y506575D02*
X483348Y507619D01*
X488569Y507619D01*
X485958Y498221D01*
X508748Y503442D02*
X511881Y503442D01*
X511970Y503440D01*
X512058Y503434D01*
X512146Y503425D01*
X512234Y503412D01*
X512321Y503395D01*
X512407Y503375D01*
X512492Y503350D01*
X512577Y503323D01*
X512660Y503291D01*
X512741Y503257D01*
X512821Y503218D01*
X512899Y503177D01*
X512976Y503132D01*
X513050Y503084D01*
X513123Y503033D01*
X513193Y502979D01*
X513260Y502921D01*
X513326Y502861D01*
X513388Y502799D01*
X513448Y502733D01*
X513506Y502666D01*
X513560Y502596D01*
X513611Y502523D01*
X513659Y502449D01*
X513704Y502372D01*
X513745Y502294D01*
X513784Y502214D01*
X513818Y502133D01*
X513850Y502050D01*
X513877Y501965D01*
X513902Y501880D01*
X513922Y501794D01*
X513939Y501707D01*
X513952Y501619D01*
X513961Y501531D01*
X513967Y501443D01*
X513969Y501354D01*
X513969Y500832D01*
X513967Y500731D01*
X513961Y500630D01*
X513951Y500529D01*
X513938Y500429D01*
X513920Y500329D01*
X513899Y500230D01*
X513873Y500132D01*
X513844Y500035D01*
X513812Y499939D01*
X513775Y499845D01*
X513735Y499752D01*
X513691Y499660D01*
X513644Y499571D01*
X513593Y499483D01*
X513539Y499397D01*
X513482Y499314D01*
X513422Y499232D01*
X513358Y499154D01*
X513292Y499077D01*
X513222Y499004D01*
X513150Y498933D01*
X513075Y498865D01*
X512997Y498800D01*
X512917Y498738D01*
X512835Y498679D01*
X512750Y498623D01*
X512663Y498571D01*
X512575Y498522D01*
X512484Y498476D01*
X512392Y498435D01*
X512298Y498396D01*
X512203Y498362D01*
X512107Y498331D01*
X512009Y498304D01*
X511911Y498280D01*
X511811Y498261D01*
X511711Y498245D01*
X511611Y498233D01*
X511510Y498225D01*
X511409Y498221D01*
X511307Y498221D01*
X511206Y498225D01*
X511105Y498233D01*
X511005Y498245D01*
X510905Y498261D01*
X510805Y498280D01*
X510707Y498304D01*
X510609Y498331D01*
X510513Y498362D01*
X510418Y498396D01*
X510324Y498435D01*
X510232Y498476D01*
X510141Y498522D01*
X510053Y498571D01*
X509966Y498623D01*
X509881Y498679D01*
X509799Y498738D01*
X509719Y498800D01*
X509641Y498865D01*
X509566Y498933D01*
X509494Y499004D01*
X509424Y499077D01*
X509358Y499154D01*
X509294Y499232D01*
X509234Y499314D01*
X509177Y499397D01*
X509123Y499483D01*
X509072Y499571D01*
X509025Y499660D01*
X508981Y499752D01*
X508941Y499845D01*
X508904Y499939D01*
X508872Y500035D01*
X508843Y500132D01*
X508817Y500230D01*
X508796Y500329D01*
X508778Y500429D01*
X508765Y500529D01*
X508755Y500630D01*
X508749Y500731D01*
X508747Y500832D01*
X508748Y500832D02*
X508748Y503442D01*
X508750Y503571D01*
X508756Y503699D01*
X508766Y503827D01*
X508780Y503955D01*
X508797Y504083D01*
X508819Y504210D01*
X508845Y504336D01*
X508874Y504461D01*
X508907Y504585D01*
X508945Y504708D01*
X508985Y504830D01*
X509030Y504951D01*
X509078Y505070D01*
X509130Y505188D01*
X509186Y505304D01*
X509245Y505418D01*
X509308Y505530D01*
X509374Y505641D01*
X509443Y505749D01*
X509516Y505855D01*
X509592Y505959D01*
X509671Y506061D01*
X509753Y506160D01*
X509838Y506256D01*
X509926Y506350D01*
X510017Y506441D01*
X510111Y506529D01*
X510207Y506614D01*
X510306Y506696D01*
X510408Y506775D01*
X510512Y506851D01*
X510618Y506924D01*
X510726Y506993D01*
X510836Y507059D01*
X510949Y507122D01*
X511063Y507181D01*
X511179Y507237D01*
X511297Y507289D01*
X511416Y507337D01*
X511537Y507382D01*
X511659Y507422D01*
X511782Y507460D01*
X511906Y507493D01*
X512031Y507522D01*
X512157Y507548D01*
X512284Y507570D01*
X512412Y507587D01*
X512540Y507601D01*
X512668Y507611D01*
X512796Y507617D01*
X512925Y507619D01*
X534148Y498221D02*
X537281Y498221D01*
X537370Y498223D01*
X537458Y498229D01*
X537546Y498238D01*
X537634Y498251D01*
X537721Y498268D01*
X537807Y498288D01*
X537892Y498313D01*
X537977Y498340D01*
X538060Y498372D01*
X538141Y498406D01*
X538221Y498445D01*
X538299Y498486D01*
X538376Y498531D01*
X538450Y498579D01*
X538523Y498630D01*
X538593Y498684D01*
X538660Y498742D01*
X538726Y498802D01*
X538788Y498864D01*
X538848Y498930D01*
X538906Y498997D01*
X538960Y499067D01*
X539011Y499140D01*
X539059Y499214D01*
X539104Y499291D01*
X539145Y499369D01*
X539184Y499449D01*
X539218Y499530D01*
X539250Y499613D01*
X539277Y499698D01*
X539302Y499783D01*
X539322Y499869D01*
X539339Y499956D01*
X539352Y500044D01*
X539361Y500132D01*
X539367Y500220D01*
X539369Y500309D01*
X539369Y501354D01*
X539367Y501443D01*
X539361Y501531D01*
X539352Y501619D01*
X539339Y501707D01*
X539322Y501794D01*
X539302Y501880D01*
X539277Y501965D01*
X539250Y502050D01*
X539218Y502133D01*
X539184Y502214D01*
X539145Y502294D01*
X539104Y502372D01*
X539059Y502449D01*
X539011Y502523D01*
X538960Y502596D01*
X538906Y502666D01*
X538848Y502733D01*
X538788Y502799D01*
X538726Y502861D01*
X538660Y502921D01*
X538593Y502979D01*
X538523Y503033D01*
X538450Y503084D01*
X538376Y503132D01*
X538299Y503177D01*
X538221Y503218D01*
X538141Y503257D01*
X538060Y503291D01*
X537977Y503323D01*
X537892Y503350D01*
X537807Y503375D01*
X537721Y503395D01*
X537634Y503412D01*
X537546Y503425D01*
X537458Y503434D01*
X537370Y503440D01*
X537281Y503442D01*
X534148Y503442D01*
X534148Y507619D01*
X539369Y507619D01*
X559548Y500309D02*
X561636Y507619D01*
X559548Y500309D02*
X564769Y500309D01*
X563203Y502398D02*
X563203Y498221D01*
X584948Y498221D02*
X587558Y498221D01*
X587659Y498223D01*
X587760Y498229D01*
X587861Y498239D01*
X587961Y498252D01*
X588061Y498270D01*
X588160Y498291D01*
X588258Y498317D01*
X588355Y498346D01*
X588451Y498378D01*
X588545Y498415D01*
X588638Y498455D01*
X588730Y498499D01*
X588819Y498546D01*
X588907Y498597D01*
X588993Y498651D01*
X589076Y498708D01*
X589158Y498768D01*
X589236Y498832D01*
X589313Y498898D01*
X589386Y498968D01*
X589457Y499040D01*
X589525Y499115D01*
X589590Y499193D01*
X589652Y499273D01*
X589711Y499355D01*
X589767Y499440D01*
X589819Y499527D01*
X589868Y499615D01*
X589914Y499706D01*
X589955Y499798D01*
X589994Y499892D01*
X590028Y499987D01*
X590059Y500083D01*
X590086Y500181D01*
X590110Y500279D01*
X590129Y500379D01*
X590145Y500479D01*
X590157Y500579D01*
X590165Y500680D01*
X590169Y500781D01*
X590169Y500883D01*
X590165Y500984D01*
X590157Y501085D01*
X590145Y501185D01*
X590129Y501285D01*
X590110Y501385D01*
X590086Y501483D01*
X590059Y501581D01*
X590028Y501677D01*
X589994Y501772D01*
X589955Y501866D01*
X589914Y501958D01*
X589868Y502049D01*
X589819Y502137D01*
X589767Y502224D01*
X589711Y502309D01*
X589652Y502391D01*
X589590Y502471D01*
X589525Y502549D01*
X589457Y502624D01*
X589386Y502696D01*
X589313Y502766D01*
X589236Y502832D01*
X589158Y502896D01*
X589076Y502956D01*
X588993Y503013D01*
X588907Y503067D01*
X588819Y503118D01*
X588730Y503165D01*
X588638Y503209D01*
X588545Y503249D01*
X588451Y503286D01*
X588355Y503318D01*
X588258Y503347D01*
X588160Y503373D01*
X588061Y503394D01*
X587961Y503412D01*
X587861Y503425D01*
X587760Y503435D01*
X587659Y503441D01*
X587558Y503443D01*
X588081Y507619D02*
X584948Y507619D01*
X588081Y507619D02*
X588171Y507617D01*
X588260Y507611D01*
X588350Y507602D01*
X588439Y507588D01*
X588527Y507571D01*
X588614Y507550D01*
X588701Y507525D01*
X588786Y507496D01*
X588870Y507464D01*
X588952Y507429D01*
X589033Y507389D01*
X589112Y507347D01*
X589189Y507301D01*
X589264Y507251D01*
X589337Y507199D01*
X589408Y507143D01*
X589476Y507085D01*
X589541Y507023D01*
X589604Y506959D01*
X589664Y506892D01*
X589721Y506823D01*
X589775Y506751D01*
X589826Y506677D01*
X589874Y506601D01*
X589918Y506523D01*
X589959Y506443D01*
X589997Y506361D01*
X590031Y506278D01*
X590061Y506193D01*
X590088Y506107D01*
X590111Y506021D01*
X590130Y505933D01*
X590145Y505844D01*
X590157Y505755D01*
X590165Y505666D01*
X590169Y505576D01*
X590169Y505486D01*
X590165Y505396D01*
X590157Y505307D01*
X590145Y505218D01*
X590130Y505129D01*
X590111Y505041D01*
X590088Y504955D01*
X590061Y504869D01*
X590031Y504784D01*
X589997Y504701D01*
X589959Y504619D01*
X589918Y504539D01*
X589874Y504461D01*
X589826Y504385D01*
X589775Y504311D01*
X589721Y504239D01*
X589664Y504170D01*
X589604Y504103D01*
X589541Y504039D01*
X589476Y503977D01*
X589408Y503919D01*
X589337Y503863D01*
X589264Y503811D01*
X589189Y503761D01*
X589112Y503715D01*
X589033Y503673D01*
X588952Y503633D01*
X588870Y503598D01*
X588786Y503566D01*
X588701Y503537D01*
X588614Y503512D01*
X588527Y503491D01*
X588439Y503474D01*
X588350Y503460D01*
X588260Y503451D01*
X588171Y503445D01*
X588081Y503443D01*
X588081Y503442D02*
X585992Y503442D01*
X613220Y507620D02*
X613315Y507618D01*
X613409Y507612D01*
X613503Y507603D01*
X613597Y507590D01*
X613690Y507573D01*
X613782Y507552D01*
X613874Y507527D01*
X613964Y507499D01*
X614053Y507467D01*
X614141Y507432D01*
X614227Y507393D01*
X614312Y507351D01*
X614395Y507305D01*
X614476Y507256D01*
X614555Y507204D01*
X614632Y507149D01*
X614706Y507090D01*
X614778Y507029D01*
X614848Y506965D01*
X614915Y506898D01*
X614979Y506828D01*
X615040Y506756D01*
X615099Y506682D01*
X615154Y506605D01*
X615206Y506526D01*
X615255Y506445D01*
X615301Y506362D01*
X615343Y506277D01*
X615382Y506191D01*
X615417Y506103D01*
X615449Y506014D01*
X615477Y505924D01*
X615502Y505832D01*
X615523Y505740D01*
X615540Y505647D01*
X615553Y505553D01*
X615562Y505459D01*
X615568Y505365D01*
X615570Y505270D01*
X613220Y507619D02*
X613112Y507617D01*
X613003Y507611D01*
X612895Y507601D01*
X612788Y507588D01*
X612681Y507570D01*
X612574Y507549D01*
X612469Y507524D01*
X612364Y507495D01*
X612261Y507463D01*
X612159Y507426D01*
X612058Y507386D01*
X611959Y507343D01*
X611861Y507296D01*
X611765Y507245D01*
X611671Y507191D01*
X611579Y507134D01*
X611489Y507073D01*
X611401Y507009D01*
X611316Y506943D01*
X611233Y506873D01*
X611153Y506800D01*
X611075Y506724D01*
X611000Y506646D01*
X610928Y506565D01*
X610859Y506481D01*
X610793Y506395D01*
X610730Y506307D01*
X610671Y506216D01*
X610614Y506124D01*
X610561Y506029D01*
X610512Y505933D01*
X610466Y505834D01*
X610423Y505735D01*
X610384Y505633D01*
X610349Y505531D01*
X614786Y503442D02*
X614855Y503511D01*
X614921Y503582D01*
X614985Y503655D01*
X615046Y503731D01*
X615104Y503810D01*
X615158Y503890D01*
X615210Y503973D01*
X615258Y504057D01*
X615304Y504143D01*
X615345Y504231D01*
X615384Y504321D01*
X615419Y504412D01*
X615450Y504504D01*
X615478Y504597D01*
X615502Y504691D01*
X615522Y504786D01*
X615539Y504882D01*
X615552Y504979D01*
X615561Y505076D01*
X615567Y505173D01*
X615569Y505270D01*
X614786Y503442D02*
X610348Y498221D01*
X615569Y498221D01*
X635748Y505531D02*
X638358Y507619D01*
X638358Y498221D01*
X635748Y498221D02*
X640969Y498221D01*
X661148Y502920D02*
X661150Y503105D01*
X661157Y503290D01*
X661168Y503474D01*
X661183Y503658D01*
X661203Y503842D01*
X661227Y504026D01*
X661256Y504208D01*
X661289Y504390D01*
X661326Y504571D01*
X661368Y504751D01*
X661414Y504931D01*
X661464Y505109D01*
X661518Y505285D01*
X661577Y505461D01*
X661639Y505635D01*
X661706Y505807D01*
X661777Y505978D01*
X661852Y506147D01*
X661931Y506314D01*
X661930Y506314D02*
X661960Y506394D01*
X661993Y506473D01*
X662030Y506550D01*
X662070Y506626D01*
X662113Y506700D01*
X662159Y506772D01*
X662209Y506841D01*
X662261Y506909D01*
X662317Y506974D01*
X662375Y507037D01*
X662437Y507096D01*
X662500Y507154D01*
X662567Y507208D01*
X662635Y507259D01*
X662706Y507307D01*
X662779Y507352D01*
X662853Y507394D01*
X662930Y507432D01*
X663008Y507467D01*
X663087Y507499D01*
X663168Y507527D01*
X663250Y507551D01*
X663334Y507572D01*
X663417Y507589D01*
X663502Y507602D01*
X663587Y507611D01*
X663672Y507617D01*
X663758Y507619D01*
X663844Y507617D01*
X663929Y507611D01*
X664014Y507602D01*
X664099Y507589D01*
X664182Y507572D01*
X664266Y507551D01*
X664348Y507527D01*
X664429Y507499D01*
X664508Y507467D01*
X664586Y507432D01*
X664663Y507394D01*
X664737Y507352D01*
X664810Y507307D01*
X664881Y507259D01*
X664949Y507208D01*
X665016Y507154D01*
X665079Y507096D01*
X665141Y507037D01*
X665199Y506974D01*
X665255Y506909D01*
X665307Y506841D01*
X665357Y506772D01*
X665403Y506700D01*
X665446Y506626D01*
X665486Y506550D01*
X665523Y506473D01*
X665556Y506394D01*
X665586Y506314D01*
X665665Y506147D01*
X665740Y505978D01*
X665811Y505807D01*
X665878Y505635D01*
X665940Y505461D01*
X665999Y505285D01*
X666053Y505109D01*
X666103Y504931D01*
X666149Y504751D01*
X666191Y504571D01*
X666228Y504390D01*
X666261Y504208D01*
X666290Y504026D01*
X666314Y503842D01*
X666334Y503658D01*
X666349Y503474D01*
X666360Y503290D01*
X666367Y503105D01*
X666369Y502920D01*
X661148Y502920D02*
X661150Y502735D01*
X661157Y502550D01*
X661168Y502366D01*
X661183Y502182D01*
X661203Y501998D01*
X661227Y501814D01*
X661256Y501632D01*
X661289Y501450D01*
X661326Y501269D01*
X661368Y501089D01*
X661414Y500909D01*
X661464Y500731D01*
X661518Y500555D01*
X661577Y500379D01*
X661639Y500205D01*
X661706Y500033D01*
X661777Y499862D01*
X661852Y499693D01*
X661931Y499526D01*
X661930Y499526D02*
X661960Y499446D01*
X661993Y499367D01*
X662030Y499290D01*
X662070Y499214D01*
X662113Y499140D01*
X662159Y499068D01*
X662209Y498999D01*
X662262Y498931D01*
X662317Y498866D01*
X662376Y498803D01*
X662437Y498744D01*
X662500Y498686D01*
X662567Y498632D01*
X662635Y498581D01*
X662706Y498533D01*
X662779Y498488D01*
X662853Y498446D01*
X662930Y498408D01*
X663008Y498373D01*
X663087Y498341D01*
X663168Y498313D01*
X663250Y498289D01*
X663334Y498268D01*
X663417Y498251D01*
X663502Y498238D01*
X663587Y498229D01*
X663672Y498223D01*
X663758Y498221D01*
X665586Y499526D02*
X665665Y499693D01*
X665740Y499862D01*
X665811Y500033D01*
X665878Y500205D01*
X665940Y500379D01*
X665999Y500555D01*
X666053Y500731D01*
X666103Y500909D01*
X666149Y501089D01*
X666191Y501269D01*
X666228Y501450D01*
X666261Y501632D01*
X666290Y501814D01*
X666314Y501998D01*
X666334Y502182D01*
X666349Y502366D01*
X666360Y502550D01*
X666367Y502735D01*
X666369Y502920D01*
X665586Y499526D02*
X665556Y499446D01*
X665523Y499367D01*
X665486Y499290D01*
X665446Y499214D01*
X665403Y499140D01*
X665357Y499068D01*
X665307Y498999D01*
X665255Y498931D01*
X665199Y498866D01*
X665141Y498803D01*
X665079Y498744D01*
X665016Y498686D01*
X664949Y498632D01*
X664881Y498581D01*
X664810Y498533D01*
X664737Y498488D01*
X664663Y498446D01*
X664586Y498408D01*
X664508Y498373D01*
X664429Y498341D01*
X664348Y498313D01*
X664266Y498289D01*
X664182Y498268D01*
X664099Y498251D01*
X664014Y498238D01*
X663929Y498229D01*
X663844Y498223D01*
X663758Y498221D01*
X661670Y500309D02*
X665847Y505531D01*
X342011Y533781D02*
X342011Y543179D01*
X344622Y543179D01*
X344722Y543177D01*
X344822Y543171D01*
X344921Y543162D01*
X345021Y543148D01*
X345119Y543131D01*
X345217Y543110D01*
X345314Y543086D01*
X345410Y543057D01*
X345505Y543025D01*
X345598Y542990D01*
X345690Y542951D01*
X345781Y542908D01*
X345869Y542862D01*
X345956Y542812D01*
X346041Y542760D01*
X346124Y542704D01*
X346205Y542645D01*
X346283Y542582D01*
X346359Y542517D01*
X346433Y542449D01*
X346503Y542379D01*
X346571Y542305D01*
X346636Y542229D01*
X346699Y542151D01*
X346758Y542070D01*
X346814Y541987D01*
X346866Y541902D01*
X346916Y541815D01*
X346962Y541727D01*
X347005Y541636D01*
X347044Y541544D01*
X347079Y541451D01*
X347111Y541356D01*
X347140Y541260D01*
X347164Y541163D01*
X347185Y541065D01*
X347202Y540967D01*
X347216Y540867D01*
X347225Y540768D01*
X347231Y540668D01*
X347233Y540568D01*
X347232Y540568D02*
X347232Y536392D01*
X347233Y536392D02*
X347231Y536292D01*
X347225Y536192D01*
X347216Y536093D01*
X347202Y535993D01*
X347185Y535895D01*
X347164Y535797D01*
X347140Y535700D01*
X347111Y535604D01*
X347079Y535509D01*
X347044Y535416D01*
X347005Y535324D01*
X346962Y535233D01*
X346916Y535145D01*
X346866Y535058D01*
X346814Y534973D01*
X346758Y534890D01*
X346699Y534809D01*
X346636Y534731D01*
X346571Y534655D01*
X346503Y534581D01*
X346433Y534511D01*
X346359Y534443D01*
X346283Y534378D01*
X346205Y534315D01*
X346124Y534256D01*
X346041Y534200D01*
X345956Y534148D01*
X345869Y534098D01*
X345781Y534052D01*
X345690Y534009D01*
X345598Y533970D01*
X345505Y533935D01*
X345410Y533903D01*
X345314Y533874D01*
X345217Y533850D01*
X345119Y533829D01*
X345021Y533812D01*
X344921Y533798D01*
X344822Y533789D01*
X344722Y533783D01*
X344622Y533781D01*
X342011Y533781D01*
X351327Y533781D02*
X351327Y540046D01*
X351066Y542657D02*
X351066Y543179D01*
X351588Y543179D01*
X351588Y542657D01*
X351066Y542657D01*
X356551Y533781D02*
X359161Y533781D01*
X356551Y533781D02*
X356474Y533783D01*
X356398Y533789D01*
X356321Y533798D01*
X356245Y533811D01*
X356170Y533828D01*
X356096Y533848D01*
X356023Y533873D01*
X355952Y533900D01*
X355881Y533931D01*
X355813Y533966D01*
X355746Y534004D01*
X355681Y534045D01*
X355618Y534089D01*
X355558Y534136D01*
X355499Y534187D01*
X355444Y534240D01*
X355391Y534295D01*
X355340Y534354D01*
X355293Y534414D01*
X355249Y534477D01*
X355208Y534542D01*
X355170Y534609D01*
X355135Y534677D01*
X355104Y534748D01*
X355077Y534819D01*
X355052Y534892D01*
X355032Y534966D01*
X355015Y535041D01*
X355002Y535117D01*
X354993Y535194D01*
X354987Y535270D01*
X354985Y535347D01*
X354984Y535347D02*
X354984Y538480D01*
X354985Y538480D02*
X354987Y538557D01*
X354993Y538633D01*
X355002Y538710D01*
X355015Y538786D01*
X355032Y538861D01*
X355052Y538935D01*
X355077Y539008D01*
X355104Y539079D01*
X355135Y539150D01*
X355170Y539218D01*
X355208Y539285D01*
X355249Y539350D01*
X355293Y539413D01*
X355340Y539473D01*
X355391Y539532D01*
X355444Y539587D01*
X355499Y539640D01*
X355558Y539691D01*
X355618Y539738D01*
X355681Y539782D01*
X355746Y539823D01*
X355813Y539861D01*
X355881Y539896D01*
X355952Y539927D01*
X356023Y539954D01*
X356096Y539979D01*
X356170Y539999D01*
X356245Y540016D01*
X356321Y540029D01*
X356398Y540038D01*
X356474Y540044D01*
X356551Y540046D01*
X359161Y540046D01*
X359161Y532215D01*
X359159Y532138D01*
X359153Y532062D01*
X359144Y531985D01*
X359131Y531909D01*
X359114Y531834D01*
X359094Y531760D01*
X359069Y531687D01*
X359042Y531616D01*
X359011Y531545D01*
X358976Y531477D01*
X358938Y531410D01*
X358897Y531345D01*
X358853Y531282D01*
X358806Y531222D01*
X358755Y531163D01*
X358702Y531108D01*
X358647Y531055D01*
X358588Y531004D01*
X358528Y530957D01*
X358465Y530913D01*
X358400Y530872D01*
X358333Y530834D01*
X358265Y530799D01*
X358194Y530768D01*
X358123Y530741D01*
X358050Y530716D01*
X357976Y530696D01*
X357901Y530679D01*
X357825Y530666D01*
X357749Y530657D01*
X357672Y530651D01*
X357595Y530649D01*
X357595Y530648D02*
X355506Y530648D01*
X363214Y533781D02*
X363214Y540046D01*
X362953Y542657D02*
X362953Y543179D01*
X363475Y543179D01*
X363475Y542657D01*
X362953Y542657D01*
X366148Y540046D02*
X369281Y540046D01*
X367193Y543179D02*
X367193Y535347D01*
X367195Y535270D01*
X367201Y535194D01*
X367210Y535117D01*
X367223Y535041D01*
X367240Y534966D01*
X367260Y534892D01*
X367285Y534819D01*
X367312Y534748D01*
X367343Y534677D01*
X367378Y534609D01*
X367416Y534542D01*
X367457Y534477D01*
X367501Y534414D01*
X367548Y534354D01*
X367599Y534295D01*
X367652Y534240D01*
X367707Y534187D01*
X367766Y534136D01*
X367826Y534089D01*
X367889Y534045D01*
X367954Y534004D01*
X368021Y533966D01*
X368089Y533931D01*
X368160Y533900D01*
X368231Y533873D01*
X368304Y533848D01*
X368378Y533828D01*
X368453Y533811D01*
X368529Y533798D01*
X368606Y533789D01*
X368682Y533783D01*
X368759Y533781D01*
X369281Y533781D01*
X374490Y537436D02*
X376839Y537436D01*
X374490Y537435D02*
X374406Y537433D01*
X374321Y537427D01*
X374238Y537417D01*
X374154Y537404D01*
X374072Y537386D01*
X373990Y537365D01*
X373909Y537340D01*
X373830Y537312D01*
X373752Y537279D01*
X373676Y537243D01*
X373601Y537204D01*
X373528Y537161D01*
X373457Y537115D01*
X373389Y537066D01*
X373323Y537014D01*
X373259Y536958D01*
X373198Y536900D01*
X373140Y536839D01*
X373084Y536775D01*
X373032Y536709D01*
X372983Y536641D01*
X372937Y536570D01*
X372894Y536497D01*
X372855Y536422D01*
X372819Y536346D01*
X372786Y536268D01*
X372758Y536189D01*
X372733Y536108D01*
X372712Y536026D01*
X372694Y535944D01*
X372681Y535860D01*
X372671Y535777D01*
X372665Y535692D01*
X372663Y535608D01*
X372665Y535524D01*
X372671Y535439D01*
X372681Y535356D01*
X372694Y535272D01*
X372712Y535190D01*
X372733Y535108D01*
X372758Y535027D01*
X372786Y534948D01*
X372819Y534870D01*
X372855Y534794D01*
X372894Y534719D01*
X372937Y534646D01*
X372983Y534575D01*
X373032Y534507D01*
X373084Y534441D01*
X373140Y534377D01*
X373198Y534316D01*
X373259Y534258D01*
X373323Y534202D01*
X373389Y534150D01*
X373457Y534101D01*
X373528Y534055D01*
X373601Y534012D01*
X373676Y533973D01*
X373752Y533937D01*
X373830Y533904D01*
X373909Y533876D01*
X373990Y533851D01*
X374072Y533830D01*
X374154Y533812D01*
X374238Y533799D01*
X374321Y533789D01*
X374406Y533783D01*
X374490Y533781D01*
X376839Y533781D01*
X376839Y538480D01*
X376837Y538557D01*
X376831Y538633D01*
X376822Y538710D01*
X376809Y538786D01*
X376792Y538861D01*
X376772Y538935D01*
X376747Y539008D01*
X376720Y539079D01*
X376689Y539150D01*
X376654Y539218D01*
X376616Y539285D01*
X376575Y539350D01*
X376531Y539413D01*
X376484Y539473D01*
X376433Y539532D01*
X376380Y539587D01*
X376325Y539640D01*
X376266Y539691D01*
X376206Y539738D01*
X376143Y539782D01*
X376078Y539823D01*
X376011Y539861D01*
X375943Y539896D01*
X375872Y539927D01*
X375801Y539954D01*
X375728Y539979D01*
X375654Y539999D01*
X375579Y540016D01*
X375503Y540029D01*
X375426Y540038D01*
X375350Y540044D01*
X375273Y540046D01*
X373185Y540046D01*
X381063Y543179D02*
X381063Y535347D01*
X381065Y535270D01*
X381071Y535194D01*
X381080Y535117D01*
X381093Y535041D01*
X381110Y534966D01*
X381130Y534892D01*
X381155Y534819D01*
X381182Y534748D01*
X381213Y534677D01*
X381248Y534609D01*
X381286Y534542D01*
X381327Y534477D01*
X381371Y534414D01*
X381418Y534354D01*
X381469Y534295D01*
X381522Y534240D01*
X381577Y534187D01*
X381636Y534136D01*
X381696Y534089D01*
X381759Y534045D01*
X381824Y534004D01*
X381891Y533966D01*
X381959Y533931D01*
X382030Y533900D01*
X382101Y533873D01*
X382174Y533848D01*
X382248Y533828D01*
X382323Y533811D01*
X382399Y533798D01*
X382476Y533789D01*
X382552Y533783D01*
X382629Y533781D01*
X391560Y533781D02*
X391560Y543179D01*
X390516Y533781D02*
X392605Y533781D01*
X392605Y543179D02*
X390516Y543179D01*
X400050Y544223D02*
X395873Y532737D01*
X403580Y536392D02*
X403580Y540568D01*
X403582Y540669D01*
X403588Y540770D01*
X403598Y540871D01*
X403611Y540971D01*
X403629Y541071D01*
X403650Y541170D01*
X403676Y541268D01*
X403705Y541365D01*
X403737Y541461D01*
X403774Y541555D01*
X403814Y541648D01*
X403858Y541740D01*
X403905Y541829D01*
X403956Y541917D01*
X404010Y542003D01*
X404067Y542086D01*
X404127Y542168D01*
X404191Y542246D01*
X404257Y542323D01*
X404327Y542396D01*
X404399Y542467D01*
X404474Y542535D01*
X404552Y542600D01*
X404632Y542662D01*
X404714Y542721D01*
X404799Y542777D01*
X404886Y542829D01*
X404974Y542878D01*
X405065Y542924D01*
X405157Y542965D01*
X405251Y543004D01*
X405346Y543038D01*
X405442Y543069D01*
X405540Y543096D01*
X405638Y543120D01*
X405738Y543139D01*
X405838Y543155D01*
X405938Y543167D01*
X406039Y543175D01*
X406140Y543179D01*
X406242Y543179D01*
X406343Y543175D01*
X406444Y543167D01*
X406544Y543155D01*
X406644Y543139D01*
X406744Y543120D01*
X406842Y543096D01*
X406940Y543069D01*
X407036Y543038D01*
X407131Y543004D01*
X407225Y542965D01*
X407317Y542924D01*
X407408Y542878D01*
X407497Y542829D01*
X407583Y542777D01*
X407668Y542721D01*
X407750Y542662D01*
X407830Y542600D01*
X407908Y542535D01*
X407983Y542467D01*
X408055Y542396D01*
X408125Y542323D01*
X408191Y542246D01*
X408255Y542168D01*
X408315Y542086D01*
X408372Y542003D01*
X408426Y541917D01*
X408477Y541829D01*
X408524Y541740D01*
X408568Y541648D01*
X408608Y541555D01*
X408645Y541461D01*
X408677Y541365D01*
X408706Y541268D01*
X408732Y541170D01*
X408753Y541071D01*
X408771Y540971D01*
X408784Y540871D01*
X408794Y540770D01*
X408800Y540669D01*
X408802Y540568D01*
X408801Y540568D02*
X408801Y536392D01*
X408802Y536392D02*
X408800Y536291D01*
X408794Y536190D01*
X408784Y536089D01*
X408771Y535989D01*
X408753Y535889D01*
X408732Y535790D01*
X408706Y535692D01*
X408677Y535595D01*
X408645Y535499D01*
X408608Y535405D01*
X408568Y535312D01*
X408524Y535220D01*
X408477Y535131D01*
X408426Y535043D01*
X408372Y534957D01*
X408315Y534874D01*
X408255Y534792D01*
X408191Y534714D01*
X408125Y534637D01*
X408055Y534564D01*
X407983Y534493D01*
X407908Y534425D01*
X407830Y534360D01*
X407750Y534298D01*
X407668Y534239D01*
X407583Y534183D01*
X407496Y534131D01*
X407408Y534082D01*
X407317Y534036D01*
X407225Y533995D01*
X407131Y533956D01*
X407036Y533922D01*
X406940Y533891D01*
X406842Y533864D01*
X406744Y533840D01*
X406644Y533821D01*
X406544Y533805D01*
X406444Y533793D01*
X406343Y533785D01*
X406242Y533781D01*
X406140Y533781D01*
X406039Y533785D01*
X405938Y533793D01*
X405838Y533805D01*
X405738Y533821D01*
X405638Y533840D01*
X405540Y533864D01*
X405442Y533891D01*
X405346Y533922D01*
X405251Y533956D01*
X405157Y533995D01*
X405065Y534036D01*
X404974Y534082D01*
X404886Y534131D01*
X404799Y534183D01*
X404714Y534239D01*
X404632Y534298D01*
X404552Y534360D01*
X404474Y534425D01*
X404399Y534493D01*
X404327Y534564D01*
X404257Y534637D01*
X404191Y534714D01*
X404127Y534792D01*
X404067Y534874D01*
X404010Y534957D01*
X403956Y535043D01*
X403905Y535131D01*
X403858Y535220D01*
X403814Y535312D01*
X403774Y535405D01*
X403737Y535499D01*
X403705Y535595D01*
X403676Y535692D01*
X403650Y535790D01*
X403629Y535889D01*
X403611Y535989D01*
X403598Y536089D01*
X403588Y536190D01*
X403582Y536291D01*
X403580Y536392D01*
X535051Y533781D02*
X535051Y543179D01*
X537662Y543179D01*
X537762Y543177D01*
X537862Y543171D01*
X537961Y543162D01*
X538061Y543148D01*
X538159Y543131D01*
X538257Y543110D01*
X538354Y543086D01*
X538450Y543057D01*
X538545Y543025D01*
X538638Y542990D01*
X538730Y542951D01*
X538821Y542908D01*
X538909Y542862D01*
X538996Y542812D01*
X539081Y542760D01*
X539164Y542704D01*
X539245Y542645D01*
X539323Y542582D01*
X539399Y542517D01*
X539473Y542449D01*
X539543Y542379D01*
X539611Y542305D01*
X539676Y542229D01*
X539739Y542151D01*
X539798Y542070D01*
X539854Y541987D01*
X539906Y541902D01*
X539956Y541815D01*
X540002Y541727D01*
X540045Y541636D01*
X540084Y541544D01*
X540119Y541451D01*
X540151Y541356D01*
X540180Y541260D01*
X540204Y541163D01*
X540225Y541065D01*
X540242Y540967D01*
X540256Y540867D01*
X540265Y540768D01*
X540271Y540668D01*
X540273Y540568D01*
X540272Y540568D02*
X540272Y536392D01*
X540273Y536392D02*
X540271Y536292D01*
X540265Y536192D01*
X540256Y536093D01*
X540242Y535993D01*
X540225Y535895D01*
X540204Y535797D01*
X540180Y535700D01*
X540151Y535604D01*
X540119Y535509D01*
X540084Y535416D01*
X540045Y535324D01*
X540002Y535233D01*
X539956Y535145D01*
X539906Y535058D01*
X539854Y534973D01*
X539798Y534890D01*
X539739Y534809D01*
X539676Y534731D01*
X539611Y534655D01*
X539543Y534581D01*
X539473Y534511D01*
X539399Y534443D01*
X539323Y534378D01*
X539245Y534315D01*
X539164Y534256D01*
X539081Y534200D01*
X538996Y534148D01*
X538909Y534098D01*
X538821Y534052D01*
X538730Y534009D01*
X538638Y533970D01*
X538545Y533935D01*
X538450Y533903D01*
X538354Y533874D01*
X538257Y533850D01*
X538159Y533829D01*
X538061Y533812D01*
X537961Y533798D01*
X537862Y533789D01*
X537762Y533783D01*
X537662Y533781D01*
X535051Y533781D01*
X544367Y533781D02*
X544367Y540046D01*
X544106Y542657D02*
X544106Y543179D01*
X544628Y543179D01*
X544628Y542657D01*
X544106Y542657D01*
X549591Y533781D02*
X552201Y533781D01*
X549591Y533781D02*
X549514Y533783D01*
X549438Y533789D01*
X549361Y533798D01*
X549285Y533811D01*
X549210Y533828D01*
X549136Y533848D01*
X549063Y533873D01*
X548992Y533900D01*
X548921Y533931D01*
X548853Y533966D01*
X548786Y534004D01*
X548721Y534045D01*
X548658Y534089D01*
X548598Y534136D01*
X548539Y534187D01*
X548484Y534240D01*
X548431Y534295D01*
X548380Y534354D01*
X548333Y534414D01*
X548289Y534477D01*
X548248Y534542D01*
X548210Y534609D01*
X548175Y534677D01*
X548144Y534748D01*
X548117Y534819D01*
X548092Y534892D01*
X548072Y534966D01*
X548055Y535041D01*
X548042Y535117D01*
X548033Y535194D01*
X548027Y535270D01*
X548025Y535347D01*
X548024Y535347D02*
X548024Y538480D01*
X548025Y538480D02*
X548027Y538557D01*
X548033Y538633D01*
X548042Y538710D01*
X548055Y538786D01*
X548072Y538861D01*
X548092Y538935D01*
X548117Y539008D01*
X548144Y539079D01*
X548175Y539150D01*
X548210Y539218D01*
X548248Y539285D01*
X548289Y539350D01*
X548333Y539413D01*
X548380Y539473D01*
X548431Y539532D01*
X548484Y539587D01*
X548539Y539640D01*
X548598Y539691D01*
X548658Y539738D01*
X548721Y539782D01*
X548786Y539823D01*
X548853Y539861D01*
X548921Y539896D01*
X548992Y539927D01*
X549063Y539954D01*
X549136Y539979D01*
X549210Y539999D01*
X549285Y540016D01*
X549361Y540029D01*
X549438Y540038D01*
X549514Y540044D01*
X549591Y540046D01*
X552201Y540046D01*
X552201Y532215D01*
X552199Y532138D01*
X552193Y532062D01*
X552184Y531985D01*
X552171Y531909D01*
X552154Y531834D01*
X552134Y531760D01*
X552109Y531687D01*
X552082Y531616D01*
X552051Y531545D01*
X552016Y531477D01*
X551978Y531410D01*
X551937Y531345D01*
X551893Y531282D01*
X551846Y531222D01*
X551795Y531163D01*
X551742Y531108D01*
X551687Y531055D01*
X551628Y531004D01*
X551568Y530957D01*
X551505Y530913D01*
X551440Y530872D01*
X551373Y530834D01*
X551305Y530799D01*
X551234Y530768D01*
X551163Y530741D01*
X551090Y530716D01*
X551016Y530696D01*
X550941Y530679D01*
X550865Y530666D01*
X550789Y530657D01*
X550712Y530651D01*
X550635Y530649D01*
X550635Y530648D02*
X548546Y530648D01*
X556254Y533781D02*
X556254Y540046D01*
X555993Y542657D02*
X555993Y543179D01*
X556515Y543179D01*
X556515Y542657D01*
X555993Y542657D01*
X559188Y540046D02*
X562321Y540046D01*
X560233Y543179D02*
X560233Y535347D01*
X560235Y535270D01*
X560241Y535194D01*
X560250Y535117D01*
X560263Y535041D01*
X560280Y534966D01*
X560300Y534892D01*
X560325Y534819D01*
X560352Y534748D01*
X560383Y534677D01*
X560418Y534609D01*
X560456Y534542D01*
X560497Y534477D01*
X560541Y534414D01*
X560588Y534354D01*
X560639Y534295D01*
X560692Y534240D01*
X560747Y534187D01*
X560806Y534136D01*
X560866Y534089D01*
X560929Y534045D01*
X560994Y534004D01*
X561061Y533966D01*
X561129Y533931D01*
X561200Y533900D01*
X561271Y533873D01*
X561344Y533848D01*
X561418Y533828D01*
X561493Y533811D01*
X561569Y533798D01*
X561646Y533789D01*
X561722Y533783D01*
X561799Y533781D01*
X562321Y533781D01*
X567530Y537436D02*
X569879Y537436D01*
X567530Y537435D02*
X567446Y537433D01*
X567361Y537427D01*
X567278Y537417D01*
X567194Y537404D01*
X567112Y537386D01*
X567030Y537365D01*
X566949Y537340D01*
X566870Y537312D01*
X566792Y537279D01*
X566716Y537243D01*
X566641Y537204D01*
X566568Y537161D01*
X566497Y537115D01*
X566429Y537066D01*
X566363Y537014D01*
X566299Y536958D01*
X566238Y536900D01*
X566180Y536839D01*
X566124Y536775D01*
X566072Y536709D01*
X566023Y536641D01*
X565977Y536570D01*
X565934Y536497D01*
X565895Y536422D01*
X565859Y536346D01*
X565826Y536268D01*
X565798Y536189D01*
X565773Y536108D01*
X565752Y536026D01*
X565734Y535944D01*
X565721Y535860D01*
X565711Y535777D01*
X565705Y535692D01*
X565703Y535608D01*
X565705Y535524D01*
X565711Y535439D01*
X565721Y535356D01*
X565734Y535272D01*
X565752Y535190D01*
X565773Y535108D01*
X565798Y535027D01*
X565826Y534948D01*
X565859Y534870D01*
X565895Y534794D01*
X565934Y534719D01*
X565977Y534646D01*
X566023Y534575D01*
X566072Y534507D01*
X566124Y534441D01*
X566180Y534377D01*
X566238Y534316D01*
X566299Y534258D01*
X566363Y534202D01*
X566429Y534150D01*
X566497Y534101D01*
X566568Y534055D01*
X566641Y534012D01*
X566716Y533973D01*
X566792Y533937D01*
X566870Y533904D01*
X566949Y533876D01*
X567030Y533851D01*
X567112Y533830D01*
X567194Y533812D01*
X567278Y533799D01*
X567361Y533789D01*
X567446Y533783D01*
X567530Y533781D01*
X569879Y533781D01*
X569879Y538480D01*
X569877Y538557D01*
X569871Y538633D01*
X569862Y538710D01*
X569849Y538786D01*
X569832Y538861D01*
X569812Y538935D01*
X569787Y539008D01*
X569760Y539079D01*
X569729Y539150D01*
X569694Y539218D01*
X569656Y539285D01*
X569615Y539350D01*
X569571Y539413D01*
X569524Y539473D01*
X569473Y539532D01*
X569420Y539587D01*
X569365Y539640D01*
X569306Y539691D01*
X569246Y539738D01*
X569183Y539782D01*
X569118Y539823D01*
X569051Y539861D01*
X568983Y539896D01*
X568912Y539927D01*
X568841Y539954D01*
X568768Y539979D01*
X568694Y539999D01*
X568619Y540016D01*
X568543Y540029D01*
X568466Y540038D01*
X568390Y540044D01*
X568313Y540046D01*
X566225Y540046D01*
X574103Y543179D02*
X574103Y535347D01*
X574105Y535270D01*
X574111Y535194D01*
X574120Y535117D01*
X574133Y535041D01*
X574150Y534966D01*
X574170Y534892D01*
X574195Y534819D01*
X574222Y534748D01*
X574253Y534677D01*
X574288Y534609D01*
X574326Y534542D01*
X574367Y534477D01*
X574411Y534414D01*
X574458Y534354D01*
X574509Y534295D01*
X574562Y534240D01*
X574617Y534187D01*
X574676Y534136D01*
X574736Y534089D01*
X574799Y534045D01*
X574864Y534004D01*
X574931Y533966D01*
X574999Y533931D01*
X575070Y533900D01*
X575141Y533873D01*
X575214Y533848D01*
X575288Y533828D01*
X575363Y533811D01*
X575439Y533798D01*
X575516Y533789D01*
X575592Y533783D01*
X575669Y533781D01*
X584600Y533781D02*
X584600Y543179D01*
X583556Y533781D02*
X585645Y533781D01*
X585645Y543179D02*
X583556Y543179D01*
X593090Y544223D02*
X588913Y532737D01*
X596620Y536392D02*
X596620Y540568D01*
X596622Y540669D01*
X596628Y540770D01*
X596638Y540871D01*
X596651Y540971D01*
X596669Y541071D01*
X596690Y541170D01*
X596716Y541268D01*
X596745Y541365D01*
X596777Y541461D01*
X596814Y541555D01*
X596854Y541648D01*
X596898Y541740D01*
X596945Y541829D01*
X596996Y541917D01*
X597050Y542003D01*
X597107Y542086D01*
X597167Y542168D01*
X597231Y542246D01*
X597297Y542323D01*
X597367Y542396D01*
X597439Y542467D01*
X597514Y542535D01*
X597592Y542600D01*
X597672Y542662D01*
X597754Y542721D01*
X597839Y542777D01*
X597926Y542829D01*
X598014Y542878D01*
X598105Y542924D01*
X598197Y542965D01*
X598291Y543004D01*
X598386Y543038D01*
X598482Y543069D01*
X598580Y543096D01*
X598678Y543120D01*
X598778Y543139D01*
X598878Y543155D01*
X598978Y543167D01*
X599079Y543175D01*
X599180Y543179D01*
X599282Y543179D01*
X599383Y543175D01*
X599484Y543167D01*
X599584Y543155D01*
X599684Y543139D01*
X599784Y543120D01*
X599882Y543096D01*
X599980Y543069D01*
X600076Y543038D01*
X600171Y543004D01*
X600265Y542965D01*
X600357Y542924D01*
X600448Y542878D01*
X600537Y542829D01*
X600623Y542777D01*
X600708Y542721D01*
X600790Y542662D01*
X600870Y542600D01*
X600948Y542535D01*
X601023Y542467D01*
X601095Y542396D01*
X601165Y542323D01*
X601231Y542246D01*
X601295Y542168D01*
X601355Y542086D01*
X601412Y542003D01*
X601466Y541917D01*
X601517Y541829D01*
X601564Y541740D01*
X601608Y541648D01*
X601648Y541555D01*
X601685Y541461D01*
X601717Y541365D01*
X601746Y541268D01*
X601772Y541170D01*
X601793Y541071D01*
X601811Y540971D01*
X601824Y540871D01*
X601834Y540770D01*
X601840Y540669D01*
X601842Y540568D01*
X601841Y540568D02*
X601841Y536392D01*
X601842Y536392D02*
X601840Y536291D01*
X601834Y536190D01*
X601824Y536089D01*
X601811Y535989D01*
X601793Y535889D01*
X601772Y535790D01*
X601746Y535692D01*
X601717Y535595D01*
X601685Y535499D01*
X601648Y535405D01*
X601608Y535312D01*
X601564Y535220D01*
X601517Y535131D01*
X601466Y535043D01*
X601412Y534957D01*
X601355Y534874D01*
X601295Y534792D01*
X601231Y534714D01*
X601165Y534637D01*
X601095Y534564D01*
X601023Y534493D01*
X600948Y534425D01*
X600870Y534360D01*
X600790Y534298D01*
X600708Y534239D01*
X600623Y534183D01*
X600537Y534131D01*
X600448Y534082D01*
X600357Y534036D01*
X600265Y533995D01*
X600171Y533956D01*
X600076Y533922D01*
X599980Y533891D01*
X599882Y533864D01*
X599784Y533840D01*
X599684Y533821D01*
X599584Y533805D01*
X599484Y533793D01*
X599383Y533785D01*
X599282Y533781D01*
X599180Y533781D01*
X599079Y533785D01*
X598978Y533793D01*
X598878Y533805D01*
X598778Y533821D01*
X598678Y533840D01*
X598580Y533864D01*
X598482Y533891D01*
X598386Y533922D01*
X598291Y533956D01*
X598197Y533995D01*
X598105Y534036D01*
X598014Y534082D01*
X597926Y534131D01*
X597839Y534183D01*
X597754Y534239D01*
X597672Y534298D01*
X597592Y534360D01*
X597514Y534425D01*
X597439Y534493D01*
X597367Y534564D01*
X597297Y534637D01*
X597231Y534714D01*
X597167Y534792D01*
X597107Y534874D01*
X597050Y534957D01*
X596996Y535043D01*
X596945Y535131D01*
X596898Y535220D01*
X596854Y535312D01*
X596814Y535405D01*
X596777Y535499D01*
X596745Y535595D01*
X596716Y535692D01*
X596690Y535790D01*
X596669Y535889D01*
X596651Y535989D01*
X596638Y536089D01*
X596628Y536190D01*
X596622Y536291D01*
X596620Y536392D01*
X218059Y493603D02*
X218057Y493692D01*
X218051Y493780D01*
X218042Y493868D01*
X218029Y493956D01*
X218012Y494043D01*
X217992Y494129D01*
X217967Y494214D01*
X217940Y494299D01*
X217908Y494382D01*
X217874Y494463D01*
X217835Y494543D01*
X217794Y494621D01*
X217749Y494698D01*
X217701Y494772D01*
X217650Y494845D01*
X217596Y494915D01*
X217538Y494982D01*
X217478Y495048D01*
X217416Y495110D01*
X217350Y495170D01*
X217283Y495228D01*
X217213Y495282D01*
X217140Y495333D01*
X217066Y495381D01*
X216989Y495426D01*
X216911Y495467D01*
X216831Y495506D01*
X216750Y495540D01*
X216667Y495572D01*
X216582Y495599D01*
X216497Y495624D01*
X216411Y495644D01*
X216324Y495661D01*
X216236Y495674D01*
X216148Y495683D01*
X216060Y495689D01*
X215971Y495691D01*
X218059Y493603D02*
X218057Y493474D01*
X218051Y493345D01*
X218042Y493216D01*
X218029Y493088D01*
X218012Y492960D01*
X217991Y492833D01*
X217967Y492706D01*
X217939Y492580D01*
X217907Y492455D01*
X217872Y492331D01*
X217833Y492208D01*
X217790Y492086D01*
X217744Y491966D01*
X217694Y491847D01*
X217641Y491729D01*
X217585Y491613D01*
X217525Y491499D01*
X217462Y491386D01*
X217395Y491276D01*
X217326Y491167D01*
X217253Y491061D01*
X217177Y490956D01*
X217098Y490854D01*
X217016Y490755D01*
X216932Y490657D01*
X216844Y490562D01*
X216754Y490470D01*
X210749Y490732D02*
X210660Y490734D01*
X210572Y490740D01*
X210484Y490749D01*
X210396Y490762D01*
X210309Y490779D01*
X210223Y490799D01*
X210138Y490824D01*
X210053Y490851D01*
X209970Y490883D01*
X209889Y490917D01*
X209809Y490956D01*
X209731Y490997D01*
X209654Y491042D01*
X209580Y491090D01*
X209507Y491141D01*
X209437Y491195D01*
X209370Y491253D01*
X209304Y491313D01*
X209242Y491375D01*
X209182Y491441D01*
X209124Y491508D01*
X209070Y491578D01*
X209019Y491651D01*
X208971Y491725D01*
X208926Y491802D01*
X208885Y491880D01*
X208846Y491960D01*
X208812Y492041D01*
X208780Y492124D01*
X208753Y492209D01*
X208728Y492294D01*
X208708Y492380D01*
X208691Y492467D01*
X208678Y492555D01*
X208669Y492643D01*
X208663Y492731D01*
X208661Y492820D01*
X208663Y492940D01*
X208668Y493060D01*
X208678Y493179D01*
X208690Y493299D01*
X208707Y493418D01*
X208727Y493536D01*
X208751Y493654D01*
X208778Y493770D01*
X208809Y493886D01*
X208843Y494001D01*
X208881Y494115D01*
X208923Y494228D01*
X208968Y494339D01*
X209016Y494449D01*
X209067Y494557D01*
X209122Y494664D01*
X209180Y494769D01*
X209242Y494872D01*
X209306Y494973D01*
X209374Y495073D01*
X209444Y495170D01*
X212576Y491776D02*
X212528Y491698D01*
X212476Y491622D01*
X212422Y491549D01*
X212364Y491478D01*
X212303Y491409D01*
X212239Y491343D01*
X212172Y491280D01*
X212103Y491220D01*
X212031Y491163D01*
X211957Y491109D01*
X211880Y491059D01*
X211801Y491011D01*
X211721Y490968D01*
X211638Y490927D01*
X211554Y490891D01*
X211469Y490858D01*
X211382Y490829D01*
X211293Y490803D01*
X211204Y490781D01*
X211114Y490764D01*
X211024Y490750D01*
X210932Y490740D01*
X210841Y490734D01*
X210749Y490732D01*
X214144Y494648D02*
X214192Y494726D01*
X214244Y494802D01*
X214298Y494875D01*
X214356Y494946D01*
X214417Y495015D01*
X214481Y495081D01*
X214548Y495144D01*
X214617Y495204D01*
X214689Y495261D01*
X214763Y495315D01*
X214840Y495365D01*
X214919Y495413D01*
X214999Y495456D01*
X215082Y495497D01*
X215166Y495533D01*
X215251Y495566D01*
X215338Y495595D01*
X215427Y495621D01*
X215516Y495643D01*
X215606Y495660D01*
X215696Y495674D01*
X215788Y495684D01*
X215879Y495690D01*
X215971Y495692D01*
X214143Y494648D02*
X212577Y491776D01*
X218059Y501373D02*
X218059Y503461D01*
X218059Y501373D02*
X218057Y501284D01*
X218051Y501196D01*
X218042Y501108D01*
X218029Y501020D01*
X218012Y500933D01*
X217992Y500847D01*
X217967Y500762D01*
X217940Y500677D01*
X217908Y500594D01*
X217874Y500513D01*
X217835Y500433D01*
X217794Y500355D01*
X217749Y500278D01*
X217701Y500204D01*
X217650Y500131D01*
X217596Y500061D01*
X217538Y499994D01*
X217478Y499928D01*
X217416Y499866D01*
X217350Y499806D01*
X217283Y499748D01*
X217213Y499694D01*
X217140Y499643D01*
X217066Y499595D01*
X216989Y499550D01*
X216911Y499509D01*
X216831Y499470D01*
X216750Y499436D01*
X216667Y499404D01*
X216582Y499377D01*
X216497Y499352D01*
X216411Y499332D01*
X216324Y499315D01*
X216236Y499302D01*
X216148Y499293D01*
X216060Y499287D01*
X215971Y499285D01*
X215971Y499284D02*
X210749Y499284D01*
X210658Y499286D01*
X210567Y499292D01*
X210476Y499302D01*
X210386Y499316D01*
X210297Y499334D01*
X210208Y499355D01*
X210121Y499381D01*
X210035Y499410D01*
X209950Y499443D01*
X209866Y499480D01*
X209784Y499520D01*
X209705Y499564D01*
X209627Y499611D01*
X209551Y499662D01*
X209477Y499716D01*
X209406Y499773D01*
X209338Y499833D01*
X209272Y499896D01*
X209209Y499962D01*
X209149Y500030D01*
X209092Y500101D01*
X209038Y500175D01*
X208987Y500251D01*
X208940Y500328D01*
X208896Y500408D01*
X208856Y500490D01*
X208819Y500574D01*
X208786Y500658D01*
X208757Y500745D01*
X208731Y500832D01*
X208710Y500921D01*
X208692Y501010D01*
X208678Y501100D01*
X208668Y501191D01*
X208662Y501282D01*
X208660Y501373D01*
X208661Y501373D02*
X208661Y503461D01*
X208661Y507252D02*
X218059Y507252D01*
X218059Y511429D01*
X241371Y492314D02*
X241460Y492312D01*
X241548Y492306D01*
X241636Y492297D01*
X241724Y492284D01*
X241811Y492267D01*
X241897Y492247D01*
X241982Y492222D01*
X242067Y492195D01*
X242150Y492163D01*
X242231Y492129D01*
X242311Y492090D01*
X242389Y492049D01*
X242466Y492004D01*
X242540Y491956D01*
X242613Y491905D01*
X242683Y491851D01*
X242750Y491793D01*
X242816Y491733D01*
X242878Y491671D01*
X242938Y491605D01*
X242996Y491538D01*
X243050Y491468D01*
X243101Y491395D01*
X243149Y491321D01*
X243194Y491244D01*
X243235Y491166D01*
X243274Y491086D01*
X243308Y491005D01*
X243340Y490922D01*
X243367Y490837D01*
X243392Y490752D01*
X243412Y490666D01*
X243429Y490579D01*
X243442Y490491D01*
X243451Y490403D01*
X243457Y490315D01*
X243459Y490226D01*
X243457Y490097D01*
X243451Y489968D01*
X243442Y489839D01*
X243429Y489711D01*
X243412Y489583D01*
X243391Y489456D01*
X243367Y489329D01*
X243339Y489203D01*
X243307Y489078D01*
X243272Y488954D01*
X243233Y488831D01*
X243190Y488709D01*
X243144Y488589D01*
X243094Y488470D01*
X243041Y488352D01*
X242985Y488236D01*
X242925Y488122D01*
X242862Y488009D01*
X242795Y487899D01*
X242726Y487790D01*
X242653Y487684D01*
X242577Y487579D01*
X242498Y487477D01*
X242416Y487378D01*
X242332Y487280D01*
X242244Y487185D01*
X242154Y487093D01*
X236149Y487355D02*
X236060Y487357D01*
X235972Y487363D01*
X235884Y487372D01*
X235796Y487385D01*
X235709Y487402D01*
X235623Y487422D01*
X235538Y487447D01*
X235453Y487474D01*
X235370Y487506D01*
X235289Y487540D01*
X235209Y487579D01*
X235131Y487620D01*
X235054Y487665D01*
X234980Y487713D01*
X234907Y487764D01*
X234837Y487818D01*
X234770Y487876D01*
X234704Y487936D01*
X234642Y487998D01*
X234582Y488064D01*
X234524Y488131D01*
X234470Y488201D01*
X234419Y488274D01*
X234371Y488348D01*
X234326Y488425D01*
X234285Y488503D01*
X234246Y488583D01*
X234212Y488664D01*
X234180Y488747D01*
X234153Y488832D01*
X234128Y488917D01*
X234108Y489003D01*
X234091Y489090D01*
X234078Y489178D01*
X234069Y489266D01*
X234063Y489354D01*
X234061Y489443D01*
X234063Y489563D01*
X234068Y489683D01*
X234078Y489802D01*
X234090Y489922D01*
X234107Y490041D01*
X234127Y490159D01*
X234151Y490277D01*
X234178Y490393D01*
X234209Y490509D01*
X234243Y490624D01*
X234281Y490738D01*
X234323Y490851D01*
X234368Y490962D01*
X234416Y491072D01*
X234467Y491180D01*
X234522Y491287D01*
X234580Y491392D01*
X234642Y491495D01*
X234706Y491596D01*
X234774Y491696D01*
X234844Y491793D01*
X237976Y488398D02*
X237928Y488320D01*
X237876Y488244D01*
X237822Y488171D01*
X237764Y488100D01*
X237703Y488031D01*
X237639Y487965D01*
X237572Y487902D01*
X237503Y487842D01*
X237431Y487785D01*
X237357Y487731D01*
X237280Y487681D01*
X237201Y487633D01*
X237121Y487590D01*
X237038Y487549D01*
X236954Y487513D01*
X236869Y487480D01*
X236782Y487451D01*
X236693Y487425D01*
X236604Y487403D01*
X236514Y487386D01*
X236424Y487372D01*
X236332Y487362D01*
X236241Y487356D01*
X236149Y487354D01*
X239544Y491270D02*
X239592Y491348D01*
X239644Y491424D01*
X239698Y491497D01*
X239756Y491568D01*
X239817Y491637D01*
X239881Y491703D01*
X239948Y491766D01*
X240017Y491826D01*
X240089Y491883D01*
X240163Y491937D01*
X240240Y491987D01*
X240319Y492035D01*
X240399Y492078D01*
X240482Y492119D01*
X240566Y492155D01*
X240651Y492188D01*
X240738Y492217D01*
X240827Y492243D01*
X240916Y492265D01*
X241006Y492282D01*
X241096Y492296D01*
X241188Y492306D01*
X241279Y492312D01*
X241371Y492314D01*
X239543Y491270D02*
X237977Y488398D01*
X234061Y496237D02*
X243459Y496237D01*
X234061Y496237D02*
X234061Y498848D01*
X234063Y498948D01*
X234069Y499048D01*
X234078Y499147D01*
X234092Y499247D01*
X234109Y499345D01*
X234130Y499443D01*
X234154Y499540D01*
X234183Y499636D01*
X234215Y499731D01*
X234250Y499824D01*
X234289Y499916D01*
X234332Y500007D01*
X234378Y500095D01*
X234428Y500182D01*
X234480Y500267D01*
X234536Y500350D01*
X234595Y500431D01*
X234658Y500509D01*
X234723Y500585D01*
X234791Y500659D01*
X234861Y500729D01*
X234935Y500797D01*
X235011Y500862D01*
X235089Y500925D01*
X235170Y500984D01*
X235253Y501040D01*
X235338Y501092D01*
X235425Y501142D01*
X235513Y501188D01*
X235604Y501231D01*
X235696Y501270D01*
X235789Y501305D01*
X235884Y501337D01*
X235980Y501366D01*
X236077Y501390D01*
X236175Y501411D01*
X236273Y501428D01*
X236373Y501442D01*
X236472Y501451D01*
X236572Y501457D01*
X236672Y501459D01*
X236672Y501458D02*
X240848Y501458D01*
X240848Y501459D02*
X240948Y501457D01*
X241048Y501451D01*
X241147Y501442D01*
X241247Y501428D01*
X241345Y501411D01*
X241443Y501390D01*
X241540Y501366D01*
X241636Y501337D01*
X241731Y501305D01*
X241824Y501270D01*
X241916Y501231D01*
X242007Y501188D01*
X242095Y501142D01*
X242182Y501092D01*
X242267Y501040D01*
X242350Y500984D01*
X242431Y500925D01*
X242509Y500862D01*
X242585Y500797D01*
X242659Y500729D01*
X242729Y500659D01*
X242797Y500585D01*
X242862Y500509D01*
X242925Y500431D01*
X242984Y500350D01*
X243040Y500267D01*
X243092Y500182D01*
X243142Y500095D01*
X243188Y500007D01*
X243231Y499916D01*
X243270Y499824D01*
X243305Y499731D01*
X243337Y499636D01*
X243366Y499540D01*
X243390Y499443D01*
X243411Y499345D01*
X243428Y499247D01*
X243442Y499147D01*
X243451Y499048D01*
X243457Y498948D01*
X243459Y498848D01*
X243459Y496237D01*
X243459Y505164D02*
X234061Y508296D01*
X243459Y511429D01*
X241110Y510646D02*
X241110Y505947D01*
X325501Y52124D02*
X334899Y52124D01*
X334899Y51080D02*
X334899Y53168D01*
X325501Y53168D02*
X325501Y51080D01*
X328112Y56829D02*
X332288Y56829D01*
X328112Y56828D02*
X328011Y56830D01*
X327910Y56836D01*
X327809Y56846D01*
X327709Y56859D01*
X327609Y56877D01*
X327510Y56898D01*
X327412Y56924D01*
X327315Y56953D01*
X327219Y56985D01*
X327125Y57022D01*
X327032Y57062D01*
X326940Y57106D01*
X326851Y57153D01*
X326763Y57204D01*
X326677Y57258D01*
X326594Y57315D01*
X326512Y57375D01*
X326434Y57439D01*
X326357Y57505D01*
X326284Y57575D01*
X326213Y57647D01*
X326145Y57722D01*
X326080Y57800D01*
X326018Y57880D01*
X325959Y57962D01*
X325903Y58047D01*
X325851Y58134D01*
X325802Y58222D01*
X325756Y58313D01*
X325715Y58405D01*
X325676Y58499D01*
X325642Y58594D01*
X325611Y58690D01*
X325584Y58788D01*
X325560Y58886D01*
X325541Y58986D01*
X325525Y59086D01*
X325513Y59186D01*
X325505Y59287D01*
X325501Y59388D01*
X325501Y59490D01*
X325505Y59591D01*
X325513Y59692D01*
X325525Y59792D01*
X325541Y59892D01*
X325560Y59992D01*
X325584Y60090D01*
X325611Y60188D01*
X325642Y60284D01*
X325676Y60379D01*
X325715Y60473D01*
X325756Y60565D01*
X325802Y60656D01*
X325851Y60745D01*
X325903Y60831D01*
X325959Y60916D01*
X326018Y60998D01*
X326080Y61078D01*
X326145Y61156D01*
X326213Y61231D01*
X326284Y61303D01*
X326357Y61373D01*
X326434Y61439D01*
X326512Y61503D01*
X326594Y61563D01*
X326677Y61620D01*
X326763Y61674D01*
X326851Y61725D01*
X326940Y61772D01*
X327032Y61816D01*
X327125Y61856D01*
X327219Y61893D01*
X327315Y61925D01*
X327412Y61954D01*
X327510Y61980D01*
X327609Y62001D01*
X327709Y62019D01*
X327809Y62032D01*
X327910Y62042D01*
X328011Y62048D01*
X328112Y62050D01*
X332288Y62050D01*
X332389Y62048D01*
X332490Y62042D01*
X332591Y62032D01*
X332691Y62019D01*
X332791Y62001D01*
X332890Y61980D01*
X332988Y61954D01*
X333085Y61925D01*
X333181Y61893D01*
X333275Y61856D01*
X333368Y61816D01*
X333460Y61772D01*
X333549Y61725D01*
X333637Y61674D01*
X333723Y61620D01*
X333806Y61563D01*
X333888Y61503D01*
X333966Y61439D01*
X334043Y61373D01*
X334116Y61303D01*
X334187Y61231D01*
X334255Y61156D01*
X334320Y61078D01*
X334382Y60998D01*
X334441Y60916D01*
X334497Y60831D01*
X334549Y60744D01*
X334598Y60656D01*
X334644Y60565D01*
X334685Y60473D01*
X334724Y60379D01*
X334758Y60284D01*
X334789Y60188D01*
X334816Y60090D01*
X334840Y59992D01*
X334859Y59892D01*
X334875Y59792D01*
X334887Y59692D01*
X334895Y59591D01*
X334899Y59490D01*
X334899Y59388D01*
X334895Y59287D01*
X334887Y59186D01*
X334875Y59086D01*
X334859Y58986D01*
X334840Y58886D01*
X334816Y58788D01*
X334789Y58690D01*
X334758Y58594D01*
X334724Y58499D01*
X334685Y58405D01*
X334644Y58313D01*
X334598Y58222D01*
X334549Y58133D01*
X334497Y58047D01*
X334441Y57962D01*
X334382Y57880D01*
X334320Y57800D01*
X334255Y57722D01*
X334187Y57647D01*
X334116Y57575D01*
X334043Y57505D01*
X333966Y57439D01*
X333888Y57375D01*
X333806Y57315D01*
X333723Y57258D01*
X333637Y57204D01*
X333549Y57153D01*
X333460Y57106D01*
X333368Y57062D01*
X333275Y57022D01*
X333181Y56985D01*
X333085Y56953D01*
X332988Y56924D01*
X332890Y56898D01*
X332791Y56877D01*
X332691Y56859D01*
X332591Y56846D01*
X332490Y56836D01*
X332389Y56830D01*
X332288Y56828D01*
X334899Y66242D02*
X328634Y66242D01*
X328634Y69374D01*
X329678Y69374D01*
M02*
