G04 EAGLE Gerber RS-274X export*
G75*
%MOMM*%
%FSLAX34Y34*%
%LPD*%
%INTop Copper*%
%IPPOS*%
%AMOC8*
5,1,8,0,0,1.08239X$1,22.5*%
G01*
%ADD10C,2.100000*%
%ADD11C,3.585000*%
%ADD12R,1.308000X1.308000*%
%ADD13C,1.308000*%
%ADD14R,1.498600X1.498600*%
%ADD15C,1.498600*%
%ADD16P,1.814519X8X22.500000*%
%ADD17C,0.152400*%

G36*
X298748Y23640D02*
X298748Y23640D01*
X298887Y23653D01*
X298906Y23660D01*
X298926Y23663D01*
X299055Y23714D01*
X299186Y23761D01*
X299203Y23772D01*
X299222Y23780D01*
X299334Y23861D01*
X299450Y23939D01*
X299463Y23955D01*
X299479Y23966D01*
X299568Y24074D01*
X299660Y24178D01*
X299669Y24196D01*
X299682Y24211D01*
X299741Y24337D01*
X299805Y24461D01*
X299809Y24481D01*
X299818Y24499D01*
X299844Y24635D01*
X299874Y24771D01*
X299874Y24792D01*
X299877Y24811D01*
X299869Y24950D01*
X299865Y25089D01*
X299859Y25109D01*
X299858Y25129D01*
X299815Y25261D01*
X299776Y25395D01*
X299766Y25412D01*
X299760Y25431D01*
X299685Y25549D01*
X299615Y25669D01*
X299596Y25690D01*
X299589Y25700D01*
X299574Y25714D01*
X299508Y25789D01*
X292353Y32944D01*
X292353Y43256D01*
X299644Y50547D01*
X309956Y50547D01*
X316603Y43900D01*
X316697Y43827D01*
X316786Y43748D01*
X316822Y43730D01*
X316854Y43705D01*
X316963Y43657D01*
X317069Y43603D01*
X317108Y43595D01*
X317146Y43579D01*
X317263Y43560D01*
X317379Y43534D01*
X317420Y43535D01*
X317460Y43529D01*
X317578Y43540D01*
X317697Y43543D01*
X317736Y43555D01*
X317776Y43558D01*
X317889Y43599D01*
X318003Y43632D01*
X318038Y43652D01*
X318076Y43666D01*
X318174Y43733D01*
X318277Y43793D01*
X318322Y43833D01*
X318339Y43845D01*
X318352Y43860D01*
X318398Y43900D01*
X325044Y50547D01*
X335356Y50547D01*
X342003Y43900D01*
X342097Y43827D01*
X342186Y43748D01*
X342222Y43730D01*
X342254Y43705D01*
X342363Y43657D01*
X342469Y43603D01*
X342508Y43595D01*
X342546Y43579D01*
X342663Y43560D01*
X342779Y43534D01*
X342820Y43535D01*
X342860Y43529D01*
X342978Y43540D01*
X343097Y43543D01*
X343136Y43555D01*
X343176Y43558D01*
X343289Y43599D01*
X343403Y43632D01*
X343438Y43652D01*
X343476Y43666D01*
X343574Y43733D01*
X343677Y43793D01*
X343722Y43833D01*
X343739Y43845D01*
X343752Y43860D01*
X343798Y43900D01*
X350444Y50547D01*
X360756Y50547D01*
X367403Y43900D01*
X367497Y43827D01*
X367586Y43748D01*
X367622Y43730D01*
X367654Y43705D01*
X367763Y43657D01*
X367869Y43603D01*
X367908Y43595D01*
X367946Y43579D01*
X368063Y43560D01*
X368179Y43534D01*
X368220Y43535D01*
X368260Y43529D01*
X368378Y43540D01*
X368497Y43543D01*
X368536Y43555D01*
X368576Y43558D01*
X368689Y43599D01*
X368803Y43632D01*
X368838Y43652D01*
X368876Y43666D01*
X368974Y43733D01*
X369077Y43793D01*
X369122Y43833D01*
X369139Y43845D01*
X369152Y43860D01*
X369198Y43900D01*
X375844Y50547D01*
X386156Y50547D01*
X392803Y43900D01*
X392897Y43827D01*
X392986Y43748D01*
X393022Y43730D01*
X393054Y43705D01*
X393163Y43657D01*
X393269Y43603D01*
X393308Y43595D01*
X393346Y43579D01*
X393463Y43560D01*
X393579Y43534D01*
X393620Y43535D01*
X393660Y43529D01*
X393778Y43540D01*
X393897Y43543D01*
X393936Y43555D01*
X393976Y43558D01*
X394089Y43599D01*
X394203Y43632D01*
X394238Y43652D01*
X394276Y43666D01*
X394374Y43733D01*
X394477Y43793D01*
X394522Y43833D01*
X394539Y43845D01*
X394552Y43860D01*
X394598Y43900D01*
X401244Y50547D01*
X411556Y50547D01*
X418203Y43900D01*
X418297Y43827D01*
X418386Y43748D01*
X418422Y43730D01*
X418454Y43705D01*
X418563Y43657D01*
X418669Y43603D01*
X418708Y43595D01*
X418746Y43579D01*
X418863Y43560D01*
X418979Y43534D01*
X419020Y43535D01*
X419060Y43529D01*
X419178Y43540D01*
X419297Y43543D01*
X419336Y43555D01*
X419376Y43558D01*
X419489Y43599D01*
X419603Y43632D01*
X419638Y43652D01*
X419676Y43666D01*
X419774Y43733D01*
X419877Y43793D01*
X419922Y43833D01*
X419939Y43845D01*
X419952Y43860D01*
X419998Y43900D01*
X426644Y50547D01*
X436956Y50547D01*
X444365Y43137D01*
X444385Y43082D01*
X444396Y43066D01*
X444404Y43047D01*
X444485Y42934D01*
X444563Y42819D01*
X444579Y42806D01*
X444590Y42789D01*
X444698Y42701D01*
X444802Y42609D01*
X444820Y42600D01*
X444835Y42587D01*
X444961Y42527D01*
X445085Y42464D01*
X445105Y42460D01*
X445123Y42451D01*
X445259Y42425D01*
X445395Y42395D01*
X445416Y42395D01*
X445435Y42391D01*
X445574Y42400D01*
X445713Y42404D01*
X445733Y42410D01*
X445753Y42411D01*
X445885Y42454D01*
X446019Y42493D01*
X446036Y42503D01*
X446055Y42509D01*
X446173Y42584D01*
X446293Y42654D01*
X446314Y42673D01*
X446324Y42679D01*
X446338Y42694D01*
X446413Y42761D01*
X452676Y49023D01*
X454701Y49023D01*
X454701Y39330D01*
X454716Y39212D01*
X454723Y39093D01*
X454735Y39055D01*
X454741Y39015D01*
X454784Y38904D01*
X454821Y38791D01*
X454843Y38757D01*
X454858Y38719D01*
X454927Y38623D01*
X454991Y38522D01*
X455021Y38494D01*
X455044Y38462D01*
X455136Y38386D01*
X455223Y38304D01*
X455258Y38285D01*
X455289Y38259D01*
X455397Y38208D01*
X455501Y38151D01*
X455541Y38141D01*
X455577Y38123D01*
X455684Y38103D01*
X455654Y38099D01*
X455544Y38055D01*
X455431Y38019D01*
X455396Y37997D01*
X455359Y37982D01*
X455262Y37912D01*
X455162Y37849D01*
X455134Y37819D01*
X455101Y37795D01*
X455025Y37704D01*
X454944Y37617D01*
X454924Y37582D01*
X454899Y37550D01*
X454848Y37443D01*
X454790Y37338D01*
X454780Y37299D01*
X454763Y37263D01*
X454741Y37146D01*
X454711Y37030D01*
X454707Y36970D01*
X454703Y36950D01*
X454705Y36930D01*
X454701Y36870D01*
X454701Y27177D01*
X452676Y27177D01*
X446413Y33439D01*
X446323Y33510D01*
X446298Y33534D01*
X446284Y33541D01*
X446197Y33613D01*
X446178Y33622D01*
X446162Y33634D01*
X446034Y33690D01*
X445909Y33749D01*
X445889Y33753D01*
X445870Y33761D01*
X445732Y33783D01*
X445596Y33809D01*
X445576Y33807D01*
X445556Y33811D01*
X445417Y33798D01*
X445279Y33789D01*
X445260Y33783D01*
X445240Y33781D01*
X445108Y33734D01*
X444977Y33691D01*
X444959Y33680D01*
X444940Y33673D01*
X444825Y33595D01*
X444708Y33521D01*
X444694Y33506D01*
X444677Y33495D01*
X444585Y33390D01*
X444490Y33289D01*
X444480Y33271D01*
X444467Y33256D01*
X444403Y33132D01*
X444365Y33063D01*
X437092Y25789D01*
X437007Y25680D01*
X436918Y25573D01*
X436909Y25554D01*
X436897Y25538D01*
X436841Y25410D01*
X436782Y25285D01*
X436779Y25265D01*
X436770Y25246D01*
X436749Y25108D01*
X436723Y24972D01*
X436724Y24952D01*
X436721Y24932D01*
X436734Y24793D01*
X436742Y24655D01*
X436749Y24636D01*
X436750Y24616D01*
X436798Y24484D01*
X436840Y24353D01*
X436851Y24335D01*
X436858Y24316D01*
X436936Y24201D01*
X437011Y24084D01*
X437025Y24070D01*
X437037Y24053D01*
X437141Y23961D01*
X437242Y23866D01*
X437260Y23856D01*
X437275Y23843D01*
X437399Y23779D01*
X437521Y23712D01*
X437540Y23707D01*
X437558Y23698D01*
X437694Y23668D01*
X437829Y23633D01*
X437857Y23631D01*
X437869Y23628D01*
X437889Y23629D01*
X437989Y23623D01*
X476411Y23623D01*
X476548Y23640D01*
X476687Y23653D01*
X476706Y23660D01*
X476726Y23663D01*
X476855Y23714D01*
X476986Y23761D01*
X477003Y23772D01*
X477022Y23780D01*
X477134Y23861D01*
X477250Y23939D01*
X477263Y23955D01*
X477279Y23966D01*
X477368Y24074D01*
X477460Y24178D01*
X477469Y24196D01*
X477482Y24211D01*
X477541Y24337D01*
X477605Y24461D01*
X477609Y24481D01*
X477618Y24499D01*
X477644Y24635D01*
X477674Y24771D01*
X477674Y24792D01*
X477677Y24811D01*
X477669Y24950D01*
X477665Y25089D01*
X477659Y25109D01*
X477658Y25129D01*
X477615Y25261D01*
X477576Y25395D01*
X477566Y25412D01*
X477560Y25431D01*
X477485Y25549D01*
X477415Y25669D01*
X477396Y25690D01*
X477389Y25700D01*
X477374Y25714D01*
X477308Y25789D01*
X470035Y33063D01*
X470015Y33118D01*
X470004Y33134D01*
X469996Y33153D01*
X469915Y33266D01*
X469837Y33381D01*
X469821Y33394D01*
X469810Y33411D01*
X469702Y33499D01*
X469598Y33591D01*
X469580Y33600D01*
X469565Y33613D01*
X469439Y33673D01*
X469315Y33736D01*
X469295Y33740D01*
X469277Y33749D01*
X469141Y33775D01*
X469005Y33805D01*
X468984Y33805D01*
X468965Y33809D01*
X468826Y33800D01*
X468687Y33796D01*
X468667Y33790D01*
X468647Y33789D01*
X468515Y33746D01*
X468381Y33707D01*
X468364Y33697D01*
X468345Y33691D01*
X468227Y33616D01*
X468107Y33546D01*
X468086Y33527D01*
X468076Y33521D01*
X468062Y33506D01*
X467987Y33439D01*
X461724Y27177D01*
X459699Y27177D01*
X459699Y36870D01*
X459684Y36988D01*
X459677Y37107D01*
X459664Y37145D01*
X459659Y37185D01*
X459616Y37296D01*
X459579Y37409D01*
X459557Y37443D01*
X459542Y37481D01*
X459473Y37577D01*
X459409Y37678D01*
X459379Y37706D01*
X459356Y37738D01*
X459264Y37814D01*
X459177Y37896D01*
X459142Y37915D01*
X459111Y37941D01*
X459003Y37992D01*
X458899Y38049D01*
X458859Y38059D01*
X458823Y38077D01*
X458716Y38097D01*
X458746Y38101D01*
X458856Y38145D01*
X458969Y38181D01*
X459004Y38203D01*
X459041Y38218D01*
X459137Y38288D01*
X459238Y38351D01*
X459266Y38381D01*
X459299Y38405D01*
X459375Y38496D01*
X459456Y38583D01*
X459476Y38618D01*
X459501Y38650D01*
X459552Y38757D01*
X459610Y38862D01*
X459620Y38901D01*
X459637Y38937D01*
X459659Y39054D01*
X459689Y39170D01*
X459693Y39230D01*
X459697Y39250D01*
X459695Y39270D01*
X459699Y39330D01*
X459699Y49023D01*
X461724Y49023D01*
X467987Y42761D01*
X468096Y42675D01*
X468203Y42587D01*
X468222Y42578D01*
X468238Y42566D01*
X468366Y42510D01*
X468491Y42451D01*
X468511Y42447D01*
X468530Y42439D01*
X468668Y42417D01*
X468804Y42391D01*
X468824Y42393D01*
X468844Y42389D01*
X468983Y42402D01*
X469121Y42411D01*
X469140Y42417D01*
X469160Y42419D01*
X469292Y42466D01*
X469423Y42509D01*
X469441Y42520D01*
X469460Y42527D01*
X469575Y42605D01*
X469692Y42679D01*
X469706Y42694D01*
X469723Y42705D01*
X469815Y42810D01*
X469910Y42911D01*
X469920Y42929D01*
X469933Y42944D01*
X469997Y43068D01*
X470035Y43137D01*
X477444Y50547D01*
X487756Y50547D01*
X495047Y43256D01*
X495047Y32944D01*
X487892Y25789D01*
X487807Y25680D01*
X487718Y25573D01*
X487709Y25554D01*
X487697Y25538D01*
X487641Y25410D01*
X487582Y25285D01*
X487579Y25265D01*
X487570Y25246D01*
X487549Y25108D01*
X487523Y24972D01*
X487524Y24952D01*
X487521Y24932D01*
X487534Y24793D01*
X487542Y24655D01*
X487549Y24636D01*
X487550Y24616D01*
X487598Y24484D01*
X487640Y24353D01*
X487651Y24335D01*
X487658Y24316D01*
X487736Y24201D01*
X487811Y24084D01*
X487825Y24070D01*
X487837Y24053D01*
X487941Y23961D01*
X488042Y23866D01*
X488060Y23856D01*
X488075Y23843D01*
X488199Y23779D01*
X488321Y23712D01*
X488340Y23707D01*
X488358Y23698D01*
X488494Y23668D01*
X488629Y23633D01*
X488657Y23631D01*
X488669Y23628D01*
X488689Y23629D01*
X488789Y23623D01*
X527211Y23623D01*
X527348Y23640D01*
X527487Y23653D01*
X527506Y23660D01*
X527526Y23663D01*
X527655Y23714D01*
X527786Y23761D01*
X527803Y23772D01*
X527822Y23780D01*
X527934Y23861D01*
X528050Y23939D01*
X528063Y23955D01*
X528079Y23966D01*
X528168Y24074D01*
X528260Y24178D01*
X528269Y24196D01*
X528282Y24211D01*
X528341Y24337D01*
X528405Y24461D01*
X528409Y24481D01*
X528418Y24499D01*
X528444Y24635D01*
X528474Y24771D01*
X528474Y24792D01*
X528477Y24811D01*
X528469Y24950D01*
X528465Y25089D01*
X528459Y25109D01*
X528458Y25129D01*
X528415Y25261D01*
X528376Y25395D01*
X528366Y25412D01*
X528360Y25431D01*
X528285Y25549D01*
X528215Y25669D01*
X528196Y25690D01*
X528189Y25700D01*
X528174Y25714D01*
X528108Y25789D01*
X520953Y32944D01*
X520953Y43256D01*
X528244Y50547D01*
X538556Y50547D01*
X545203Y43900D01*
X545297Y43827D01*
X545386Y43748D01*
X545422Y43730D01*
X545454Y43705D01*
X545563Y43657D01*
X545669Y43603D01*
X545708Y43595D01*
X545746Y43579D01*
X545863Y43560D01*
X545979Y43534D01*
X546020Y43535D01*
X546060Y43529D01*
X546178Y43540D01*
X546297Y43543D01*
X546336Y43555D01*
X546376Y43558D01*
X546489Y43599D01*
X546603Y43632D01*
X546638Y43652D01*
X546676Y43666D01*
X546774Y43733D01*
X546877Y43793D01*
X546922Y43833D01*
X546939Y43845D01*
X546952Y43860D01*
X546998Y43900D01*
X553644Y50547D01*
X563956Y50547D01*
X570602Y43900D01*
X570697Y43827D01*
X570786Y43748D01*
X570822Y43730D01*
X570854Y43705D01*
X570963Y43658D01*
X571069Y43603D01*
X571108Y43595D01*
X571146Y43579D01*
X571263Y43560D01*
X571379Y43534D01*
X571420Y43535D01*
X571460Y43529D01*
X571578Y43540D01*
X571697Y43543D01*
X571736Y43555D01*
X571776Y43558D01*
X571889Y43599D01*
X572003Y43632D01*
X572037Y43652D01*
X572076Y43666D01*
X572174Y43733D01*
X572277Y43793D01*
X572322Y43833D01*
X572339Y43845D01*
X572352Y43860D01*
X572397Y43900D01*
X579044Y50547D01*
X589356Y50547D01*
X596002Y43900D01*
X596097Y43827D01*
X596186Y43748D01*
X596222Y43730D01*
X596254Y43705D01*
X596363Y43658D01*
X596469Y43603D01*
X596508Y43595D01*
X596546Y43579D01*
X596663Y43560D01*
X596779Y43534D01*
X596820Y43535D01*
X596860Y43529D01*
X596978Y43540D01*
X597097Y43543D01*
X597136Y43555D01*
X597176Y43558D01*
X597289Y43599D01*
X597403Y43632D01*
X597437Y43652D01*
X597476Y43666D01*
X597574Y43733D01*
X597677Y43793D01*
X597722Y43833D01*
X597739Y43845D01*
X597752Y43860D01*
X597797Y43900D01*
X604444Y50547D01*
X614756Y50547D01*
X621402Y43900D01*
X621497Y43827D01*
X621586Y43748D01*
X621622Y43730D01*
X621654Y43705D01*
X621763Y43658D01*
X621869Y43603D01*
X621908Y43595D01*
X621946Y43579D01*
X622063Y43560D01*
X622179Y43534D01*
X622220Y43535D01*
X622260Y43529D01*
X622378Y43540D01*
X622497Y43543D01*
X622536Y43555D01*
X622576Y43558D01*
X622689Y43599D01*
X622803Y43632D01*
X622837Y43652D01*
X622876Y43666D01*
X622974Y43733D01*
X623077Y43793D01*
X623122Y43833D01*
X623139Y43845D01*
X623152Y43860D01*
X623197Y43900D01*
X629844Y50547D01*
X640156Y50547D01*
X646802Y43900D01*
X646897Y43827D01*
X646986Y43748D01*
X647022Y43730D01*
X647054Y43705D01*
X647163Y43658D01*
X647269Y43603D01*
X647308Y43595D01*
X647346Y43579D01*
X647463Y43560D01*
X647579Y43534D01*
X647620Y43535D01*
X647660Y43529D01*
X647778Y43540D01*
X647897Y43543D01*
X647936Y43555D01*
X647976Y43558D01*
X648089Y43599D01*
X648203Y43632D01*
X648237Y43652D01*
X648276Y43666D01*
X648374Y43733D01*
X648477Y43793D01*
X648522Y43833D01*
X648539Y43845D01*
X648552Y43860D01*
X648597Y43900D01*
X655244Y50547D01*
X665556Y50547D01*
X672847Y43256D01*
X672847Y41751D01*
X672855Y41682D01*
X672854Y41612D01*
X672875Y41525D01*
X672887Y41436D01*
X672912Y41371D01*
X672929Y41303D01*
X672971Y41224D01*
X673004Y41140D01*
X673045Y41084D01*
X673077Y41022D01*
X673138Y40955D01*
X673190Y40883D01*
X673244Y40838D01*
X673291Y40787D01*
X673366Y40737D01*
X673435Y40680D01*
X673499Y40650D01*
X673557Y40612D01*
X673642Y40583D01*
X673723Y40545D01*
X673792Y40531D01*
X673858Y40509D01*
X673947Y40502D01*
X674035Y40485D01*
X674105Y40489D01*
X674175Y40484D01*
X674263Y40499D01*
X674353Y40504D01*
X674419Y40526D01*
X674488Y40538D01*
X674570Y40575D01*
X674655Y40603D01*
X674714Y40640D01*
X674778Y40669D01*
X674848Y40725D01*
X674924Y40773D01*
X674972Y40824D01*
X675026Y40867D01*
X675081Y40939D01*
X675142Y41004D01*
X675176Y41065D01*
X675218Y41121D01*
X675289Y41266D01*
X676540Y44287D01*
X699906Y67653D01*
X699966Y67731D01*
X700034Y67803D01*
X700063Y67856D01*
X700100Y67904D01*
X700140Y67995D01*
X700188Y68081D01*
X700203Y68140D01*
X700227Y68196D01*
X700242Y68294D01*
X700267Y68389D01*
X700273Y68489D01*
X700277Y68510D01*
X700275Y68522D01*
X700277Y68550D01*
X700277Y388650D01*
X700265Y388748D01*
X700262Y388847D01*
X700245Y388905D01*
X700237Y388965D01*
X700201Y389058D01*
X700173Y389153D01*
X700143Y389205D01*
X700120Y389261D01*
X700062Y389341D01*
X700012Y389427D01*
X699946Y389502D01*
X699934Y389518D01*
X699924Y389526D01*
X699906Y389547D01*
X676540Y412913D01*
X674877Y416927D01*
X674877Y514511D01*
X674860Y514648D01*
X674847Y514787D01*
X674840Y514806D01*
X674837Y514826D01*
X674786Y514955D01*
X674739Y515086D01*
X674728Y515103D01*
X674720Y515122D01*
X674639Y515234D01*
X674561Y515350D01*
X674545Y515363D01*
X674534Y515379D01*
X674426Y515468D01*
X674322Y515560D01*
X674304Y515569D01*
X674289Y515582D01*
X674163Y515641D01*
X674039Y515705D01*
X674019Y515709D01*
X674001Y515718D01*
X673865Y515744D01*
X673729Y515774D01*
X673708Y515774D01*
X673689Y515777D01*
X673550Y515769D01*
X673411Y515765D01*
X673391Y515759D01*
X673371Y515758D01*
X673239Y515715D01*
X673105Y515676D01*
X673088Y515666D01*
X673069Y515660D01*
X672951Y515585D01*
X672831Y515515D01*
X672810Y515496D01*
X672800Y515489D01*
X672786Y515474D01*
X672711Y515408D01*
X665556Y508253D01*
X655244Y508253D01*
X648597Y514900D01*
X648503Y514973D01*
X648414Y515052D01*
X648378Y515070D01*
X648346Y515095D01*
X648237Y515143D01*
X648131Y515197D01*
X648092Y515205D01*
X648054Y515221D01*
X647937Y515240D01*
X647821Y515266D01*
X647780Y515265D01*
X647740Y515271D01*
X647622Y515260D01*
X647503Y515257D01*
X647464Y515245D01*
X647424Y515242D01*
X647311Y515201D01*
X647197Y515168D01*
X647162Y515148D01*
X647124Y515134D01*
X647026Y515067D01*
X646923Y515007D01*
X646878Y514967D01*
X646861Y514955D01*
X646848Y514940D01*
X646802Y514900D01*
X640156Y508253D01*
X629844Y508253D01*
X623197Y514900D01*
X623103Y514973D01*
X623014Y515052D01*
X622978Y515070D01*
X622946Y515095D01*
X622837Y515143D01*
X622731Y515197D01*
X622692Y515205D01*
X622654Y515221D01*
X622537Y515240D01*
X622421Y515266D01*
X622380Y515265D01*
X622340Y515271D01*
X622222Y515260D01*
X622103Y515257D01*
X622064Y515245D01*
X622024Y515242D01*
X621911Y515201D01*
X621797Y515168D01*
X621762Y515148D01*
X621724Y515134D01*
X621626Y515067D01*
X621523Y515007D01*
X621478Y514967D01*
X621461Y514955D01*
X621448Y514940D01*
X621402Y514900D01*
X614756Y508253D01*
X604444Y508253D01*
X597797Y514900D01*
X597703Y514973D01*
X597614Y515052D01*
X597578Y515070D01*
X597546Y515095D01*
X597437Y515143D01*
X597331Y515197D01*
X597292Y515205D01*
X597254Y515221D01*
X597137Y515240D01*
X597021Y515266D01*
X596980Y515265D01*
X596940Y515271D01*
X596822Y515260D01*
X596703Y515257D01*
X596664Y515245D01*
X596624Y515242D01*
X596511Y515201D01*
X596397Y515168D01*
X596362Y515148D01*
X596324Y515134D01*
X596226Y515067D01*
X596123Y515007D01*
X596078Y514967D01*
X596061Y514955D01*
X596048Y514940D01*
X596002Y514900D01*
X589356Y508253D01*
X579044Y508253D01*
X572397Y514900D01*
X572303Y514973D01*
X572214Y515052D01*
X572178Y515070D01*
X572146Y515095D01*
X572037Y515143D01*
X571931Y515197D01*
X571892Y515205D01*
X571854Y515221D01*
X571737Y515240D01*
X571621Y515266D01*
X571580Y515265D01*
X571540Y515271D01*
X571422Y515260D01*
X571303Y515257D01*
X571264Y515245D01*
X571224Y515242D01*
X571111Y515201D01*
X570997Y515168D01*
X570962Y515148D01*
X570924Y515134D01*
X570826Y515067D01*
X570723Y515007D01*
X570678Y514967D01*
X570661Y514955D01*
X570648Y514940D01*
X570602Y514900D01*
X563956Y508253D01*
X553644Y508253D01*
X546998Y514900D01*
X546903Y514973D01*
X546814Y515052D01*
X546778Y515070D01*
X546746Y515095D01*
X546637Y515142D01*
X546531Y515197D01*
X546492Y515205D01*
X546454Y515221D01*
X546337Y515240D01*
X546221Y515266D01*
X546180Y515265D01*
X546140Y515271D01*
X546022Y515260D01*
X545903Y515257D01*
X545864Y515245D01*
X545824Y515242D01*
X545711Y515201D01*
X545597Y515168D01*
X545563Y515148D01*
X545524Y515134D01*
X545426Y515067D01*
X545323Y515007D01*
X545278Y514967D01*
X545261Y514955D01*
X545248Y514940D01*
X545203Y514900D01*
X538556Y508253D01*
X528244Y508253D01*
X521598Y514900D01*
X521503Y514973D01*
X521414Y515052D01*
X521378Y515070D01*
X521346Y515095D01*
X521237Y515142D01*
X521131Y515197D01*
X521092Y515205D01*
X521054Y515221D01*
X520937Y515240D01*
X520821Y515266D01*
X520780Y515265D01*
X520740Y515271D01*
X520622Y515260D01*
X520503Y515257D01*
X520464Y515245D01*
X520424Y515242D01*
X520311Y515201D01*
X520197Y515168D01*
X520163Y515148D01*
X520124Y515134D01*
X520026Y515067D01*
X519923Y515007D01*
X519878Y514967D01*
X519861Y514955D01*
X519848Y514940D01*
X519803Y514900D01*
X513156Y508253D01*
X502844Y508253D01*
X496198Y514900D01*
X496103Y514973D01*
X496014Y515052D01*
X495978Y515070D01*
X495946Y515095D01*
X495837Y515142D01*
X495731Y515197D01*
X495692Y515205D01*
X495654Y515221D01*
X495537Y515240D01*
X495421Y515266D01*
X495380Y515265D01*
X495340Y515271D01*
X495222Y515260D01*
X495103Y515257D01*
X495064Y515245D01*
X495024Y515242D01*
X494911Y515201D01*
X494797Y515168D01*
X494763Y515148D01*
X494724Y515134D01*
X494626Y515067D01*
X494523Y515007D01*
X494478Y514967D01*
X494461Y514955D01*
X494448Y514940D01*
X494403Y514900D01*
X487756Y508253D01*
X477444Y508253D01*
X470153Y515544D01*
X470153Y525856D01*
X477308Y533011D01*
X477393Y533120D01*
X477482Y533227D01*
X477491Y533246D01*
X477503Y533262D01*
X477559Y533390D01*
X477618Y533515D01*
X477621Y533535D01*
X477630Y533554D01*
X477651Y533692D01*
X477677Y533828D01*
X477676Y533848D01*
X477679Y533868D01*
X477666Y534007D01*
X477658Y534145D01*
X477651Y534164D01*
X477650Y534184D01*
X477602Y534316D01*
X477560Y534447D01*
X477549Y534465D01*
X477542Y534484D01*
X477464Y534599D01*
X477389Y534716D01*
X477375Y534730D01*
X477363Y534747D01*
X477259Y534839D01*
X477158Y534934D01*
X477140Y534944D01*
X477125Y534957D01*
X477001Y535021D01*
X476879Y535088D01*
X476860Y535093D01*
X476842Y535102D01*
X476706Y535132D01*
X476571Y535167D01*
X476543Y535169D01*
X476531Y535172D01*
X476511Y535171D01*
X476411Y535177D01*
X448149Y535177D01*
X448012Y535160D01*
X447873Y535147D01*
X447854Y535140D01*
X447834Y535137D01*
X447705Y535086D01*
X447574Y535039D01*
X447557Y535028D01*
X447538Y535020D01*
X447426Y534939D01*
X447310Y534861D01*
X447297Y534845D01*
X447281Y534834D01*
X447192Y534726D01*
X447100Y534622D01*
X447091Y534604D01*
X447078Y534589D01*
X447019Y534463D01*
X446955Y534339D01*
X446951Y534319D01*
X446942Y534301D01*
X446916Y534165D01*
X446886Y534029D01*
X446886Y534008D01*
X446883Y533989D01*
X446891Y533850D01*
X446895Y533711D01*
X446901Y533691D01*
X446902Y533671D01*
X446945Y533539D01*
X446984Y533405D01*
X446994Y533388D01*
X447000Y533369D01*
X447075Y533251D01*
X447145Y533131D01*
X447164Y533110D01*
X447171Y533100D01*
X447186Y533086D01*
X447252Y533011D01*
X454407Y525856D01*
X454407Y515544D01*
X447116Y508253D01*
X436804Y508253D01*
X430157Y514900D01*
X430063Y514973D01*
X429974Y515052D01*
X429938Y515070D01*
X429906Y515095D01*
X429797Y515143D01*
X429691Y515197D01*
X429652Y515205D01*
X429614Y515221D01*
X429497Y515240D01*
X429381Y515266D01*
X429340Y515265D01*
X429300Y515271D01*
X429182Y515260D01*
X429063Y515257D01*
X429024Y515245D01*
X428984Y515242D01*
X428871Y515201D01*
X428757Y515168D01*
X428722Y515148D01*
X428684Y515134D01*
X428586Y515067D01*
X428483Y515007D01*
X428438Y514967D01*
X428421Y514955D01*
X428408Y514940D01*
X428362Y514900D01*
X421716Y508253D01*
X411404Y508253D01*
X404758Y514900D01*
X404663Y514973D01*
X404574Y515052D01*
X404538Y515070D01*
X404506Y515095D01*
X404397Y515142D01*
X404291Y515197D01*
X404252Y515205D01*
X404214Y515221D01*
X404097Y515240D01*
X403981Y515266D01*
X403940Y515265D01*
X403900Y515271D01*
X403782Y515260D01*
X403663Y515257D01*
X403624Y515245D01*
X403584Y515242D01*
X403471Y515201D01*
X403357Y515168D01*
X403323Y515148D01*
X403284Y515134D01*
X403186Y515067D01*
X403083Y515007D01*
X403038Y514967D01*
X403021Y514955D01*
X403008Y514940D01*
X402963Y514900D01*
X396316Y508253D01*
X386004Y508253D01*
X379358Y514900D01*
X379263Y514973D01*
X379174Y515052D01*
X379138Y515070D01*
X379106Y515095D01*
X378997Y515142D01*
X378891Y515197D01*
X378852Y515205D01*
X378814Y515221D01*
X378697Y515240D01*
X378581Y515266D01*
X378540Y515265D01*
X378500Y515271D01*
X378382Y515260D01*
X378263Y515257D01*
X378224Y515245D01*
X378184Y515242D01*
X378071Y515201D01*
X377957Y515168D01*
X377923Y515148D01*
X377884Y515134D01*
X377786Y515067D01*
X377683Y515007D01*
X377638Y514967D01*
X377621Y514955D01*
X377608Y514940D01*
X377563Y514900D01*
X370916Y508253D01*
X360604Y508253D01*
X353958Y514900D01*
X353863Y514973D01*
X353774Y515052D01*
X353738Y515070D01*
X353706Y515095D01*
X353597Y515142D01*
X353491Y515197D01*
X353452Y515205D01*
X353414Y515221D01*
X353297Y515240D01*
X353181Y515266D01*
X353140Y515265D01*
X353100Y515271D01*
X352982Y515260D01*
X352863Y515257D01*
X352824Y515245D01*
X352784Y515242D01*
X352671Y515201D01*
X352557Y515168D01*
X352523Y515148D01*
X352484Y515134D01*
X352386Y515067D01*
X352283Y515007D01*
X352238Y514967D01*
X352221Y514955D01*
X352208Y514940D01*
X352163Y514900D01*
X345516Y508253D01*
X335204Y508253D01*
X328558Y514900D01*
X328463Y514973D01*
X328374Y515052D01*
X328338Y515070D01*
X328306Y515095D01*
X328197Y515142D01*
X328091Y515197D01*
X328052Y515205D01*
X328014Y515221D01*
X327897Y515240D01*
X327781Y515266D01*
X327740Y515265D01*
X327700Y515271D01*
X327582Y515260D01*
X327463Y515257D01*
X327424Y515245D01*
X327384Y515242D01*
X327271Y515201D01*
X327157Y515168D01*
X327123Y515148D01*
X327084Y515134D01*
X326986Y515067D01*
X326883Y515007D01*
X326838Y514967D01*
X326821Y514955D01*
X326808Y514940D01*
X326763Y514900D01*
X320116Y508253D01*
X309804Y508253D01*
X308945Y509112D01*
X308851Y509185D01*
X308762Y509264D01*
X308726Y509283D01*
X308694Y509307D01*
X308585Y509355D01*
X308479Y509409D01*
X308439Y509418D01*
X308402Y509434D01*
X308285Y509452D01*
X308169Y509478D01*
X308128Y509477D01*
X308088Y509483D01*
X307970Y509472D01*
X307851Y509469D01*
X307812Y509457D01*
X307772Y509454D01*
X307659Y509413D01*
X307545Y509380D01*
X307510Y509360D01*
X307472Y509346D01*
X307374Y509279D01*
X307271Y509219D01*
X307226Y509179D01*
X307209Y509167D01*
X307196Y509152D01*
X307150Y509112D01*
X142358Y344320D01*
X142298Y344242D01*
X142230Y344170D01*
X142201Y344117D01*
X142164Y344069D01*
X142124Y343978D01*
X142076Y343892D01*
X142061Y343833D01*
X142037Y343777D01*
X142022Y343679D01*
X141997Y343584D01*
X141991Y343484D01*
X141987Y343463D01*
X141989Y343451D01*
X141987Y343423D01*
X141987Y194112D01*
X141252Y192338D01*
X139716Y190802D01*
X135927Y187013D01*
X135854Y186919D01*
X135775Y186830D01*
X135757Y186794D01*
X135732Y186762D01*
X135685Y186652D01*
X135631Y186546D01*
X135622Y186507D01*
X135606Y186470D01*
X135587Y186352D01*
X135561Y186236D01*
X135562Y186196D01*
X135556Y186156D01*
X135567Y186037D01*
X135571Y185918D01*
X135582Y185879D01*
X135586Y185839D01*
X135626Y185727D01*
X135659Y185613D01*
X135680Y185578D01*
X135693Y185540D01*
X135760Y185441D01*
X135821Y185339D01*
X135860Y185294D01*
X135872Y185277D01*
X135887Y185263D01*
X135927Y185218D01*
X136798Y184347D01*
X138558Y180099D01*
X138558Y175501D01*
X136798Y171253D01*
X133547Y168002D01*
X129372Y166273D01*
X129252Y166204D01*
X129129Y166139D01*
X129114Y166125D01*
X129096Y166115D01*
X128996Y166018D01*
X128893Y165925D01*
X128882Y165908D01*
X128868Y165894D01*
X128795Y165776D01*
X128719Y165659D01*
X128712Y165640D01*
X128701Y165623D01*
X128661Y165490D01*
X128615Y165358D01*
X128614Y165338D01*
X128608Y165319D01*
X128601Y165180D01*
X128590Y165041D01*
X128594Y165021D01*
X128593Y165001D01*
X128621Y164865D01*
X128644Y164728D01*
X128653Y164709D01*
X128657Y164690D01*
X128718Y164565D01*
X128775Y164438D01*
X128788Y164422D01*
X128797Y164404D01*
X128887Y164298D01*
X128974Y164190D01*
X128990Y164177D01*
X129003Y164162D01*
X129117Y164082D01*
X129228Y163998D01*
X129253Y163986D01*
X129263Y163979D01*
X129282Y163972D01*
X129372Y163927D01*
X133547Y162198D01*
X136798Y158947D01*
X138558Y154699D01*
X138558Y150101D01*
X136798Y145853D01*
X133547Y142602D01*
X129299Y140842D01*
X124701Y140842D01*
X120453Y142602D01*
X117202Y145853D01*
X115442Y150101D01*
X115442Y154699D01*
X117202Y158947D01*
X120453Y162198D01*
X124628Y163927D01*
X124748Y163996D01*
X124871Y164061D01*
X124886Y164075D01*
X124904Y164085D01*
X125004Y164182D01*
X125107Y164275D01*
X125118Y164292D01*
X125132Y164306D01*
X125205Y164425D01*
X125281Y164541D01*
X125288Y164560D01*
X125299Y164577D01*
X125340Y164710D01*
X125385Y164842D01*
X125386Y164862D01*
X125392Y164881D01*
X125399Y165020D01*
X125410Y165159D01*
X125406Y165179D01*
X125407Y165199D01*
X125379Y165335D01*
X125356Y165472D01*
X125347Y165491D01*
X125343Y165510D01*
X125282Y165636D01*
X125225Y165762D01*
X125212Y165778D01*
X125203Y165796D01*
X125113Y165902D01*
X125026Y166010D01*
X125010Y166023D01*
X124997Y166038D01*
X124883Y166118D01*
X124772Y166202D01*
X124747Y166214D01*
X124737Y166221D01*
X124718Y166228D01*
X124628Y166273D01*
X120453Y168002D01*
X117202Y171253D01*
X115442Y175501D01*
X115442Y180099D01*
X117202Y184347D01*
X120453Y187598D01*
X124321Y189200D01*
X124382Y189235D01*
X124447Y189261D01*
X124519Y189313D01*
X124597Y189358D01*
X124648Y189406D01*
X124704Y189447D01*
X124761Y189517D01*
X124826Y189579D01*
X124862Y189639D01*
X124907Y189692D01*
X124945Y189774D01*
X124992Y189850D01*
X125013Y189917D01*
X125042Y189980D01*
X125059Y190068D01*
X125086Y190154D01*
X125089Y190224D01*
X125102Y190293D01*
X125097Y190382D01*
X125101Y190472D01*
X125087Y190540D01*
X125082Y190610D01*
X125055Y190695D01*
X125037Y190783D01*
X125006Y190846D01*
X124984Y190912D01*
X124936Y190988D01*
X124897Y191069D01*
X124852Y191122D01*
X124814Y191181D01*
X124749Y191243D01*
X124691Y191311D01*
X124633Y191351D01*
X124583Y191399D01*
X124504Y191442D01*
X124430Y191494D01*
X124365Y191519D01*
X124304Y191553D01*
X124217Y191575D01*
X124133Y191607D01*
X124064Y191615D01*
X123996Y191632D01*
X123835Y191642D01*
X117823Y191642D01*
X115442Y194023D01*
X115442Y212377D01*
X117823Y214758D01*
X131064Y214758D01*
X131182Y214773D01*
X131301Y214780D01*
X131339Y214793D01*
X131380Y214798D01*
X131490Y214841D01*
X131603Y214878D01*
X131638Y214900D01*
X131675Y214915D01*
X131771Y214984D01*
X131872Y215048D01*
X131900Y215078D01*
X131933Y215101D01*
X132009Y215193D01*
X132090Y215280D01*
X132110Y215315D01*
X132135Y215346D01*
X132186Y215454D01*
X132244Y215558D01*
X132254Y215598D01*
X132271Y215634D01*
X132293Y215751D01*
X132323Y215866D01*
X132327Y215926D01*
X132331Y215946D01*
X132329Y215967D01*
X132333Y216027D01*
X132333Y294236D01*
X132314Y294389D01*
X132294Y294551D01*
X132293Y294551D01*
X132233Y294703D01*
X132177Y294846D01*
X132177Y294847D01*
X132176Y294847D01*
X132095Y294960D01*
X131990Y295104D01*
X131871Y295202D01*
X131745Y295307D01*
X131626Y295363D01*
X131457Y295443D01*
X131327Y295468D01*
X131145Y295502D01*
X131145Y295503D01*
X130999Y295493D01*
X130828Y295483D01*
X130827Y295483D01*
X130826Y295483D01*
X130672Y295443D01*
X129476Y295054D01*
X129476Y303593D01*
X129461Y303712D01*
X129453Y303830D01*
X129441Y303869D01*
X129436Y303909D01*
X129392Y304020D01*
X129355Y304133D01*
X129334Y304167D01*
X129319Y304205D01*
X129249Y304301D01*
X129185Y304401D01*
X129156Y304429D01*
X129132Y304462D01*
X129040Y304538D01*
X128954Y304619D01*
X128918Y304639D01*
X128887Y304665D01*
X128779Y304715D01*
X128675Y304773D01*
X128636Y304783D01*
X128599Y304800D01*
X128586Y304803D01*
X128633Y304821D01*
X128746Y304858D01*
X128780Y304879D01*
X128818Y304894D01*
X128914Y304964D01*
X129015Y305028D01*
X129042Y305057D01*
X129075Y305081D01*
X129151Y305173D01*
X129233Y305260D01*
X129252Y305295D01*
X129278Y305326D01*
X129329Y305434D01*
X129386Y305538D01*
X129396Y305577D01*
X129413Y305614D01*
X129436Y305731D01*
X129466Y305846D01*
X129469Y305906D01*
X129473Y305926D01*
X129472Y305947D01*
X129476Y306007D01*
X129476Y314546D01*
X130672Y314157D01*
X130863Y314121D01*
X130984Y314097D01*
X131159Y314108D01*
X131301Y314117D01*
X131302Y314117D01*
X131452Y314166D01*
X131603Y314215D01*
X131604Y314215D01*
X131604Y314216D01*
X131707Y314281D01*
X131872Y314385D01*
X131872Y314386D01*
X131873Y314386D01*
X131952Y314471D01*
X132090Y314617D01*
X132090Y314618D01*
X132156Y314736D01*
X132244Y314896D01*
X132283Y315050D01*
X132323Y315203D01*
X132323Y315204D01*
X132323Y315205D01*
X132333Y315364D01*
X132333Y318000D01*
X132327Y318049D01*
X132329Y318098D01*
X132307Y318206D01*
X132293Y318315D01*
X132275Y318361D01*
X132265Y318410D01*
X132217Y318509D01*
X132176Y318611D01*
X132147Y318651D01*
X132125Y318696D01*
X132054Y318779D01*
X131990Y318868D01*
X131951Y318900D01*
X131919Y318938D01*
X131829Y319001D01*
X131745Y319071D01*
X131700Y319092D01*
X131659Y319121D01*
X131556Y319160D01*
X131457Y319206D01*
X131408Y319216D01*
X131362Y319233D01*
X131252Y319246D01*
X131145Y319266D01*
X131095Y319263D01*
X131046Y319269D01*
X130937Y319253D01*
X130827Y319246D01*
X130780Y319231D01*
X130731Y319224D01*
X130578Y319172D01*
X129299Y318642D01*
X124701Y318642D01*
X120453Y320402D01*
X117202Y323653D01*
X115442Y327901D01*
X115442Y332499D01*
X115830Y333436D01*
X115838Y333464D01*
X115851Y333490D01*
X115880Y333617D01*
X115914Y333742D01*
X115915Y333772D01*
X115921Y333801D01*
X115917Y333930D01*
X115919Y334060D01*
X115912Y334089D01*
X115911Y334119D01*
X115875Y334243D01*
X115845Y334370D01*
X115831Y334396D01*
X115823Y334424D01*
X115757Y334536D01*
X115696Y334651D01*
X115677Y334673D01*
X115662Y334698D01*
X115555Y334819D01*
X111732Y338642D01*
X110997Y340416D01*
X110997Y360624D01*
X111732Y362398D01*
X117402Y368068D01*
X117475Y368163D01*
X117554Y368252D01*
X117572Y368288D01*
X117597Y368320D01*
X117645Y368429D01*
X117699Y368535D01*
X117707Y368574D01*
X117724Y368611D01*
X117742Y368729D01*
X117768Y368845D01*
X117767Y368886D01*
X117773Y368926D01*
X117762Y369044D01*
X117759Y369163D01*
X117747Y369202D01*
X117744Y369242D01*
X117703Y369354D01*
X117670Y369469D01*
X117650Y369503D01*
X117636Y369541D01*
X117569Y369640D01*
X117509Y369742D01*
X117469Y369788D01*
X117457Y369805D01*
X117442Y369818D01*
X117402Y369863D01*
X115442Y371823D01*
X115442Y390177D01*
X117823Y392558D01*
X136177Y392558D01*
X138558Y390177D01*
X138558Y371856D01*
X138573Y371738D01*
X138580Y371619D01*
X138593Y371581D01*
X138598Y371540D01*
X138641Y371430D01*
X138678Y371317D01*
X138700Y371282D01*
X138715Y371245D01*
X138784Y371149D01*
X138848Y371048D01*
X138878Y371020D01*
X138901Y370987D01*
X138993Y370911D01*
X139080Y370830D01*
X139115Y370810D01*
X139146Y370785D01*
X139254Y370734D01*
X139358Y370676D01*
X139398Y370666D01*
X139434Y370649D01*
X139551Y370627D01*
X139666Y370597D01*
X139726Y370593D01*
X139746Y370589D01*
X139767Y370591D01*
X139827Y370587D01*
X148351Y370587D01*
X148449Y370599D01*
X148548Y370602D01*
X148606Y370619D01*
X148666Y370627D01*
X148759Y370663D01*
X148854Y370691D01*
X148906Y370721D01*
X148962Y370744D01*
X149042Y370802D01*
X149128Y370852D01*
X149203Y370918D01*
X149220Y370930D01*
X149227Y370940D01*
X149248Y370958D01*
X284576Y506286D01*
X284649Y506381D01*
X284728Y506470D01*
X284746Y506506D01*
X284771Y506538D01*
X284819Y506647D01*
X284873Y506753D01*
X284882Y506792D01*
X284898Y506829D01*
X284916Y506947D01*
X284942Y507063D01*
X284941Y507104D01*
X284947Y507144D01*
X284936Y507262D01*
X284933Y507381D01*
X284921Y507420D01*
X284918Y507460D01*
X284877Y507572D01*
X284844Y507687D01*
X284824Y507721D01*
X284810Y507759D01*
X284743Y507858D01*
X284683Y507961D01*
X284643Y508006D01*
X284631Y508023D01*
X284616Y508036D01*
X284576Y508081D01*
X277758Y514900D01*
X277663Y514973D01*
X277574Y515052D01*
X277538Y515070D01*
X277506Y515095D01*
X277397Y515142D01*
X277291Y515197D01*
X277252Y515205D01*
X277214Y515221D01*
X277097Y515240D01*
X276981Y515266D01*
X276940Y515265D01*
X276900Y515271D01*
X276782Y515260D01*
X276663Y515257D01*
X276624Y515245D01*
X276584Y515242D01*
X276471Y515201D01*
X276357Y515168D01*
X276323Y515148D01*
X276284Y515134D01*
X276186Y515067D01*
X276083Y515007D01*
X276038Y514967D01*
X276021Y514955D01*
X276008Y514940D01*
X275963Y514900D01*
X269316Y508253D01*
X259004Y508253D01*
X252358Y514900D01*
X252263Y514973D01*
X252174Y515052D01*
X252138Y515070D01*
X252106Y515095D01*
X251997Y515142D01*
X251891Y515197D01*
X251852Y515205D01*
X251814Y515221D01*
X251697Y515240D01*
X251581Y515266D01*
X251540Y515265D01*
X251500Y515271D01*
X251382Y515260D01*
X251263Y515257D01*
X251224Y515245D01*
X251184Y515242D01*
X251071Y515201D01*
X250957Y515168D01*
X250923Y515148D01*
X250884Y515134D01*
X250786Y515067D01*
X250683Y515007D01*
X250638Y514967D01*
X250621Y514955D01*
X250608Y514940D01*
X250563Y514900D01*
X243916Y508253D01*
X233604Y508253D01*
X226958Y514900D01*
X226863Y514973D01*
X226774Y515052D01*
X226738Y515070D01*
X226706Y515095D01*
X226597Y515142D01*
X226491Y515197D01*
X226452Y515205D01*
X226414Y515221D01*
X226297Y515240D01*
X226181Y515266D01*
X226140Y515265D01*
X226100Y515271D01*
X225982Y515260D01*
X225863Y515257D01*
X225824Y515245D01*
X225784Y515242D01*
X225671Y515201D01*
X225557Y515168D01*
X225523Y515148D01*
X225484Y515134D01*
X225386Y515067D01*
X225283Y515007D01*
X225238Y514967D01*
X225221Y514955D01*
X225208Y514940D01*
X225163Y514900D01*
X218516Y508253D01*
X208204Y508253D01*
X200913Y515544D01*
X200913Y525856D01*
X208068Y533011D01*
X208153Y533120D01*
X208242Y533227D01*
X208251Y533246D01*
X208263Y533262D01*
X208319Y533390D01*
X208378Y533515D01*
X208381Y533535D01*
X208390Y533554D01*
X208411Y533692D01*
X208437Y533828D01*
X208436Y533848D01*
X208439Y533868D01*
X208426Y534007D01*
X208418Y534145D01*
X208411Y534164D01*
X208410Y534184D01*
X208362Y534316D01*
X208320Y534447D01*
X208309Y534465D01*
X208302Y534484D01*
X208224Y534599D01*
X208149Y534716D01*
X208135Y534730D01*
X208123Y534747D01*
X208019Y534839D01*
X207918Y534934D01*
X207900Y534944D01*
X207885Y534957D01*
X207761Y535021D01*
X207639Y535088D01*
X207620Y535093D01*
X207602Y535102D01*
X207466Y535132D01*
X207331Y535167D01*
X207303Y535169D01*
X207291Y535172D01*
X207271Y535171D01*
X207171Y535177D01*
X37592Y535177D01*
X37474Y535162D01*
X37355Y535155D01*
X37317Y535142D01*
X37276Y535137D01*
X37166Y535094D01*
X37053Y535057D01*
X37018Y535035D01*
X36981Y535020D01*
X36885Y534951D01*
X36784Y534887D01*
X36756Y534857D01*
X36723Y534834D01*
X36647Y534742D01*
X36566Y534655D01*
X36546Y534620D01*
X36521Y534589D01*
X36470Y534481D01*
X36412Y534377D01*
X36402Y534337D01*
X36385Y534301D01*
X36363Y534184D01*
X36333Y534069D01*
X36329Y534009D01*
X36325Y533989D01*
X36327Y533968D01*
X36323Y533908D01*
X36323Y24892D01*
X36338Y24774D01*
X36345Y24655D01*
X36358Y24617D01*
X36363Y24576D01*
X36406Y24466D01*
X36443Y24353D01*
X36465Y24318D01*
X36480Y24281D01*
X36549Y24185D01*
X36613Y24084D01*
X36643Y24056D01*
X36666Y24023D01*
X36758Y23947D01*
X36845Y23866D01*
X36880Y23846D01*
X36911Y23821D01*
X37019Y23770D01*
X37123Y23712D01*
X37163Y23702D01*
X37199Y23685D01*
X37316Y23663D01*
X37431Y23633D01*
X37491Y23629D01*
X37511Y23625D01*
X37532Y23627D01*
X37592Y23623D01*
X298611Y23623D01*
X298748Y23640D01*
G37*
%LPC*%
G36*
X200901Y115442D02*
X200901Y115442D01*
X196653Y117202D01*
X193402Y120453D01*
X191642Y124701D01*
X191642Y129299D01*
X192179Y130595D01*
X192187Y130623D01*
X192200Y130650D01*
X192229Y130776D01*
X192263Y130902D01*
X192263Y130931D01*
X192270Y130960D01*
X192266Y131090D01*
X192268Y131220D01*
X192261Y131248D01*
X192260Y131278D01*
X192224Y131402D01*
X192194Y131529D01*
X192180Y131555D01*
X192172Y131583D01*
X192106Y131695D01*
X192045Y131810D01*
X192025Y131832D01*
X192010Y131857D01*
X191904Y131978D01*
X183372Y140510D01*
X181836Y142046D01*
X181101Y143820D01*
X181101Y288996D01*
X181836Y290770D01*
X191606Y300540D01*
X191624Y300564D01*
X191647Y300583D01*
X191721Y300689D01*
X191801Y300792D01*
X191813Y300819D01*
X191830Y300843D01*
X191876Y300964D01*
X191928Y301083D01*
X191932Y301113D01*
X191943Y301140D01*
X191957Y301269D01*
X191977Y301398D01*
X191975Y301427D01*
X191978Y301456D01*
X191960Y301585D01*
X191948Y301714D01*
X191938Y301742D01*
X191934Y301771D01*
X191881Y301924D01*
X191642Y302501D01*
X191642Y307099D01*
X193402Y311347D01*
X196653Y314598D01*
X200828Y316327D01*
X200948Y316396D01*
X201071Y316461D01*
X201086Y316475D01*
X201104Y316485D01*
X201204Y316582D01*
X201307Y316675D01*
X201318Y316692D01*
X201332Y316706D01*
X201405Y316824D01*
X201481Y316941D01*
X201488Y316960D01*
X201499Y316977D01*
X201539Y317110D01*
X201585Y317242D01*
X201586Y317262D01*
X201592Y317281D01*
X201599Y317420D01*
X201610Y317559D01*
X201606Y317579D01*
X201607Y317599D01*
X201579Y317735D01*
X201556Y317872D01*
X201547Y317891D01*
X201543Y317910D01*
X201482Y318035D01*
X201425Y318162D01*
X201412Y318178D01*
X201403Y318196D01*
X201313Y318302D01*
X201226Y318410D01*
X201210Y318423D01*
X201197Y318438D01*
X201083Y318518D01*
X200972Y318602D01*
X200947Y318614D01*
X200937Y318621D01*
X200918Y318628D01*
X200828Y318673D01*
X196653Y320402D01*
X193402Y323653D01*
X191642Y327901D01*
X191642Y332499D01*
X193402Y336747D01*
X196653Y339998D01*
X200828Y341727D01*
X200948Y341796D01*
X201071Y341861D01*
X201086Y341875D01*
X201104Y341885D01*
X201204Y341982D01*
X201307Y342075D01*
X201318Y342092D01*
X201332Y342106D01*
X201405Y342224D01*
X201481Y342341D01*
X201488Y342360D01*
X201499Y342377D01*
X201539Y342510D01*
X201585Y342642D01*
X201586Y342662D01*
X201592Y342681D01*
X201599Y342820D01*
X201610Y342959D01*
X201606Y342979D01*
X201607Y342999D01*
X201579Y343135D01*
X201556Y343272D01*
X201547Y343291D01*
X201543Y343310D01*
X201482Y343435D01*
X201425Y343562D01*
X201412Y343578D01*
X201403Y343596D01*
X201313Y343702D01*
X201226Y343810D01*
X201210Y343823D01*
X201197Y343838D01*
X201083Y343918D01*
X200972Y344002D01*
X200947Y344014D01*
X200937Y344021D01*
X200918Y344028D01*
X200828Y344073D01*
X196653Y345802D01*
X193402Y349053D01*
X191642Y353301D01*
X191642Y357899D01*
X193402Y362147D01*
X196653Y365398D01*
X200828Y367127D01*
X200948Y367196D01*
X201071Y367261D01*
X201086Y367275D01*
X201104Y367285D01*
X201204Y367382D01*
X201307Y367475D01*
X201318Y367492D01*
X201332Y367506D01*
X201405Y367624D01*
X201481Y367741D01*
X201488Y367760D01*
X201499Y367777D01*
X201539Y367910D01*
X201585Y368042D01*
X201586Y368062D01*
X201592Y368081D01*
X201599Y368220D01*
X201610Y368359D01*
X201606Y368379D01*
X201607Y368399D01*
X201579Y368535D01*
X201556Y368672D01*
X201547Y368691D01*
X201543Y368710D01*
X201482Y368835D01*
X201425Y368962D01*
X201412Y368978D01*
X201403Y368996D01*
X201313Y369102D01*
X201226Y369210D01*
X201210Y369223D01*
X201197Y369238D01*
X201083Y369318D01*
X200972Y369402D01*
X200947Y369414D01*
X200937Y369421D01*
X200918Y369428D01*
X200828Y369473D01*
X196653Y371202D01*
X193402Y374453D01*
X191642Y378701D01*
X191642Y383299D01*
X193402Y387547D01*
X196653Y390798D01*
X200901Y392558D01*
X205499Y392558D01*
X209747Y390798D01*
X212998Y387547D01*
X214758Y383299D01*
X214758Y378701D01*
X212998Y374453D01*
X209747Y371202D01*
X205572Y369473D01*
X205452Y369404D01*
X205329Y369339D01*
X205314Y369325D01*
X205296Y369315D01*
X205196Y369218D01*
X205093Y369125D01*
X205082Y369108D01*
X205068Y369094D01*
X204995Y368975D01*
X204919Y368859D01*
X204912Y368840D01*
X204901Y368823D01*
X204860Y368690D01*
X204815Y368558D01*
X204814Y368538D01*
X204808Y368519D01*
X204801Y368380D01*
X204790Y368241D01*
X204794Y368221D01*
X204793Y368201D01*
X204821Y368065D01*
X204844Y367928D01*
X204853Y367909D01*
X204857Y367890D01*
X204918Y367764D01*
X204975Y367638D01*
X204988Y367622D01*
X204997Y367604D01*
X205087Y367498D01*
X205174Y367390D01*
X205190Y367377D01*
X205203Y367362D01*
X205317Y367282D01*
X205428Y367198D01*
X205453Y367186D01*
X205463Y367179D01*
X205482Y367172D01*
X205572Y367127D01*
X209747Y365398D01*
X212998Y362147D01*
X214758Y357899D01*
X214758Y353301D01*
X212998Y349053D01*
X209747Y345802D01*
X205572Y344073D01*
X205452Y344004D01*
X205329Y343939D01*
X205314Y343925D01*
X205296Y343915D01*
X205196Y343818D01*
X205093Y343725D01*
X205082Y343708D01*
X205068Y343694D01*
X204995Y343575D01*
X204919Y343459D01*
X204912Y343440D01*
X204901Y343423D01*
X204860Y343290D01*
X204815Y343158D01*
X204814Y343138D01*
X204808Y343119D01*
X204801Y342980D01*
X204790Y342841D01*
X204794Y342821D01*
X204793Y342801D01*
X204821Y342665D01*
X204844Y342528D01*
X204853Y342509D01*
X204857Y342490D01*
X204918Y342364D01*
X204975Y342238D01*
X204988Y342222D01*
X204997Y342204D01*
X205087Y342098D01*
X205174Y341990D01*
X205190Y341977D01*
X205203Y341962D01*
X205317Y341882D01*
X205428Y341798D01*
X205453Y341786D01*
X205463Y341779D01*
X205482Y341772D01*
X205572Y341727D01*
X209747Y339998D01*
X212998Y336747D01*
X213807Y334794D01*
X213822Y334769D01*
X213831Y334741D01*
X213900Y334631D01*
X213965Y334518D01*
X213985Y334497D01*
X214001Y334472D01*
X214095Y334383D01*
X214186Y334290D01*
X214211Y334274D01*
X214233Y334254D01*
X214346Y334191D01*
X214457Y334123D01*
X214485Y334115D01*
X214511Y334100D01*
X214637Y334068D01*
X214761Y334030D01*
X214790Y334028D01*
X214819Y334021D01*
X214980Y334011D01*
X548076Y334011D01*
X549850Y333276D01*
X564580Y318546D01*
X564603Y318528D01*
X564622Y318506D01*
X564728Y318431D01*
X564831Y318351D01*
X564858Y318340D01*
X564882Y318323D01*
X565003Y318277D01*
X565123Y318225D01*
X565152Y318220D01*
X565180Y318210D01*
X565309Y318196D01*
X565437Y318175D01*
X565466Y318178D01*
X565496Y318175D01*
X565624Y318193D01*
X565754Y318205D01*
X565781Y318215D01*
X565811Y318219D01*
X565963Y318271D01*
X568603Y319365D01*
X574397Y319365D01*
X579750Y317147D01*
X583847Y313050D01*
X586065Y307697D01*
X586065Y301903D01*
X583847Y296550D01*
X579750Y292453D01*
X574397Y290235D01*
X568603Y290235D01*
X563250Y292453D01*
X559153Y296550D01*
X556935Y301903D01*
X556935Y307697D01*
X558029Y310337D01*
X558037Y310366D01*
X558050Y310392D01*
X558078Y310519D01*
X558113Y310644D01*
X558113Y310673D01*
X558120Y310702D01*
X558116Y310832D01*
X558118Y310962D01*
X558111Y310991D01*
X558110Y311020D01*
X558074Y311145D01*
X558044Y311271D01*
X558030Y311297D01*
X558022Y311326D01*
X557956Y311437D01*
X557895Y311552D01*
X557875Y311574D01*
X557860Y311599D01*
X557754Y311720D01*
X545488Y323986D01*
X545410Y324046D01*
X545338Y324114D01*
X545285Y324143D01*
X545237Y324180D01*
X545146Y324220D01*
X545060Y324268D01*
X545001Y324283D01*
X544945Y324307D01*
X544847Y324322D01*
X544752Y324347D01*
X544652Y324353D01*
X544631Y324357D01*
X544619Y324355D01*
X544591Y324357D01*
X214138Y324357D01*
X214109Y324354D01*
X214079Y324356D01*
X213951Y324334D01*
X213822Y324317D01*
X213795Y324307D01*
X213766Y324301D01*
X213647Y324248D01*
X213527Y324200D01*
X213503Y324183D01*
X213476Y324171D01*
X213374Y324090D01*
X213269Y324014D01*
X213251Y323991D01*
X213227Y323972D01*
X213149Y323869D01*
X213067Y323769D01*
X213054Y323742D01*
X213036Y323718D01*
X213010Y323665D01*
X209747Y320402D01*
X205572Y318673D01*
X205452Y318604D01*
X205329Y318539D01*
X205314Y318525D01*
X205296Y318515D01*
X205196Y318418D01*
X205093Y318325D01*
X205082Y318308D01*
X205068Y318294D01*
X204995Y318175D01*
X204919Y318059D01*
X204912Y318040D01*
X204901Y318023D01*
X204860Y317890D01*
X204815Y317758D01*
X204814Y317738D01*
X204808Y317719D01*
X204801Y317580D01*
X204790Y317441D01*
X204794Y317421D01*
X204793Y317401D01*
X204821Y317265D01*
X204844Y317128D01*
X204853Y317109D01*
X204857Y317090D01*
X204918Y316964D01*
X204975Y316838D01*
X204988Y316822D01*
X204997Y316804D01*
X205087Y316698D01*
X205174Y316590D01*
X205190Y316577D01*
X205203Y316562D01*
X205317Y316482D01*
X205428Y316398D01*
X205453Y316386D01*
X205463Y316379D01*
X205482Y316372D01*
X205572Y316327D01*
X209747Y314598D01*
X212998Y311347D01*
X213386Y310410D01*
X213401Y310385D01*
X213410Y310357D01*
X213479Y310247D01*
X213544Y310134D01*
X213564Y310113D01*
X213580Y310088D01*
X213675Y309999D01*
X213765Y309906D01*
X213790Y309890D01*
X213812Y309870D01*
X213925Y309807D01*
X214036Y309739D01*
X214064Y309731D01*
X214090Y309716D01*
X214216Y309684D01*
X214340Y309646D01*
X214370Y309644D01*
X214398Y309637D01*
X214559Y309627D01*
X356052Y309627D01*
X357826Y308892D01*
X364051Y302667D01*
X364075Y302649D01*
X364094Y302626D01*
X364200Y302551D01*
X364303Y302472D01*
X364330Y302460D01*
X364354Y302443D01*
X364475Y302397D01*
X364594Y302345D01*
X364624Y302341D01*
X364651Y302330D01*
X364780Y302316D01*
X364909Y302296D01*
X364938Y302298D01*
X364967Y302295D01*
X365096Y302313D01*
X365225Y302325D01*
X365253Y302335D01*
X365282Y302339D01*
X365435Y302392D01*
X366191Y302705D01*
X370409Y302705D01*
X374307Y301090D01*
X377290Y298107D01*
X378905Y294209D01*
X378905Y289991D01*
X378592Y289235D01*
X378584Y289206D01*
X378570Y289180D01*
X378542Y289053D01*
X378508Y288928D01*
X378507Y288898D01*
X378501Y288869D01*
X378505Y288740D01*
X378503Y288610D01*
X378509Y288581D01*
X378510Y288552D01*
X378546Y288427D01*
X378577Y288301D01*
X378591Y288274D01*
X378599Y288246D01*
X378665Y288135D01*
X378725Y288019D01*
X378745Y287998D01*
X378760Y287972D01*
X378867Y287851D01*
X382044Y284674D01*
X382779Y282900D01*
X382779Y262692D01*
X382044Y260918D01*
X374006Y252880D01*
X373946Y252802D01*
X373878Y252730D01*
X373849Y252677D01*
X373812Y252629D01*
X373772Y252538D01*
X373724Y252452D01*
X373709Y252393D01*
X373685Y252337D01*
X373670Y252239D01*
X373645Y252144D01*
X373639Y252044D01*
X373635Y252023D01*
X373637Y252011D01*
X373635Y251983D01*
X373635Y251417D01*
X373638Y251387D01*
X373636Y251358D01*
X373658Y251230D01*
X373675Y251101D01*
X373685Y251074D01*
X373691Y251045D01*
X373744Y250926D01*
X373792Y250806D01*
X373809Y250782D01*
X373821Y250755D01*
X373902Y250653D01*
X373978Y250548D01*
X374001Y250529D01*
X374020Y250506D01*
X374123Y250428D01*
X374223Y250345D01*
X374250Y250333D01*
X374274Y250315D01*
X374290Y250307D01*
X377290Y247307D01*
X378905Y243409D01*
X378905Y239191D01*
X378507Y238230D01*
X378494Y238182D01*
X378472Y238137D01*
X378452Y238029D01*
X378423Y237923D01*
X378422Y237873D01*
X378413Y237824D01*
X378419Y237715D01*
X378418Y237605D01*
X378429Y237557D01*
X378432Y237507D01*
X378466Y237403D01*
X378492Y237296D01*
X378515Y237252D01*
X378530Y237205D01*
X378589Y237112D01*
X378641Y237015D01*
X378674Y236978D01*
X378701Y236936D01*
X378781Y236861D01*
X378854Y236779D01*
X378896Y236752D01*
X378932Y236718D01*
X379028Y236665D01*
X379120Y236605D01*
X379167Y236588D01*
X379211Y236564D01*
X379317Y236537D01*
X379421Y236501D01*
X379471Y236497D01*
X379519Y236485D01*
X379679Y236475D01*
X495823Y236475D01*
X495921Y236487D01*
X496020Y236490D01*
X496078Y236507D01*
X496138Y236515D01*
X496231Y236551D01*
X496326Y236579D01*
X496378Y236609D01*
X496434Y236632D01*
X496514Y236690D01*
X496600Y236740D01*
X496675Y236806D01*
X496692Y236818D01*
X496699Y236828D01*
X496720Y236846D01*
X532824Y272950D01*
X532843Y272974D01*
X532865Y272993D01*
X532940Y273099D01*
X533019Y273202D01*
X533031Y273229D01*
X533048Y273253D01*
X533094Y273374D01*
X533146Y273494D01*
X533150Y273523D01*
X533161Y273550D01*
X533175Y273679D01*
X533196Y273808D01*
X533193Y273837D01*
X533196Y273866D01*
X533178Y273995D01*
X533166Y274124D01*
X533156Y274152D01*
X533152Y274181D01*
X533100Y274334D01*
X532035Y276903D01*
X532035Y282697D01*
X534253Y288050D01*
X538350Y292147D01*
X543703Y294365D01*
X549497Y294365D01*
X554850Y292147D01*
X558947Y288050D01*
X561165Y282697D01*
X561165Y276903D01*
X558947Y271550D01*
X554850Y267453D01*
X549497Y265235D01*
X543703Y265235D01*
X540992Y266358D01*
X540964Y266366D01*
X540937Y266379D01*
X540811Y266408D01*
X540685Y266442D01*
X540656Y266442D01*
X540627Y266449D01*
X540497Y266445D01*
X540367Y266447D01*
X540339Y266440D01*
X540309Y266439D01*
X540185Y266403D01*
X540058Y266373D01*
X540032Y266359D01*
X540004Y266351D01*
X539892Y266285D01*
X539777Y266224D01*
X539755Y266204D01*
X539730Y266189D01*
X539609Y266083D01*
X520007Y246481D01*
X519922Y246372D01*
X519834Y246265D01*
X519825Y246246D01*
X519813Y246230D01*
X519757Y246102D01*
X519698Y245977D01*
X519694Y245957D01*
X519686Y245938D01*
X519664Y245800D01*
X519638Y245664D01*
X519640Y245644D01*
X519636Y245624D01*
X519649Y245485D01*
X519658Y245347D01*
X519664Y245328D01*
X519666Y245308D01*
X519713Y245176D01*
X519756Y245045D01*
X519767Y245027D01*
X519774Y245008D01*
X519852Y244893D01*
X519926Y244776D01*
X519941Y244762D01*
X519952Y244745D01*
X520056Y244653D01*
X520158Y244558D01*
X520176Y244548D01*
X520191Y244535D01*
X520315Y244471D01*
X520436Y244404D01*
X520456Y244399D01*
X520474Y244390D01*
X520610Y244360D01*
X520744Y244325D01*
X520772Y244323D01*
X520784Y244320D01*
X520805Y244321D01*
X520905Y244315D01*
X524397Y244315D01*
X529750Y242097D01*
X533847Y238000D01*
X536065Y232647D01*
X536065Y226853D01*
X533847Y221500D01*
X529750Y217403D01*
X524397Y215185D01*
X518603Y215185D01*
X516570Y216027D01*
X516541Y216035D01*
X516515Y216049D01*
X516388Y216077D01*
X516263Y216111D01*
X516233Y216112D01*
X516205Y216118D01*
X516075Y216114D01*
X515945Y216116D01*
X515916Y216110D01*
X515887Y216109D01*
X515762Y216073D01*
X515636Y216042D01*
X515609Y216028D01*
X515581Y216020D01*
X515469Y215954D01*
X515355Y215894D01*
X515333Y215874D01*
X515307Y215859D01*
X515186Y215752D01*
X511750Y212316D01*
X509976Y211581D01*
X378838Y211581D01*
X378808Y211578D01*
X378779Y211580D01*
X378651Y211558D01*
X378522Y211541D01*
X378495Y211531D01*
X378466Y211526D01*
X378347Y211472D01*
X378226Y211424D01*
X378203Y211407D01*
X378176Y211395D01*
X378074Y211314D01*
X377969Y211238D01*
X377950Y211215D01*
X377927Y211196D01*
X377849Y211093D01*
X377766Y210993D01*
X377754Y210966D01*
X377736Y210942D01*
X377665Y210798D01*
X377290Y209893D01*
X374307Y206910D01*
X370409Y205295D01*
X366191Y205295D01*
X362293Y206910D01*
X359310Y209893D01*
X357695Y213791D01*
X357695Y218009D01*
X358679Y220383D01*
X358697Y220450D01*
X358725Y220515D01*
X358739Y220603D01*
X358762Y220690D01*
X358764Y220760D01*
X358775Y220829D01*
X358766Y220918D01*
X358768Y221008D01*
X358751Y221076D01*
X358745Y221145D01*
X358714Y221230D01*
X358693Y221317D01*
X358661Y221379D01*
X358637Y221445D01*
X358587Y221519D01*
X358545Y221598D01*
X358498Y221650D01*
X358459Y221708D01*
X358391Y221767D01*
X358331Y221834D01*
X358272Y221872D01*
X358220Y221918D01*
X358140Y221959D01*
X358065Y222008D01*
X357999Y222031D01*
X357937Y222063D01*
X357849Y222082D01*
X357764Y222112D01*
X357695Y222117D01*
X357627Y222132D01*
X357537Y222130D01*
X357447Y222137D01*
X357378Y222125D01*
X357309Y222123D01*
X357222Y222098D01*
X357134Y222082D01*
X357070Y222054D01*
X357003Y222034D01*
X356926Y221989D01*
X356844Y221952D01*
X356789Y221908D01*
X356729Y221873D01*
X356608Y221766D01*
X295759Y160917D01*
X295674Y160808D01*
X295586Y160701D01*
X295577Y160682D01*
X295565Y160666D01*
X295509Y160538D01*
X295450Y160413D01*
X295446Y160393D01*
X295438Y160374D01*
X295416Y160236D01*
X295390Y160100D01*
X295392Y160080D01*
X295388Y160060D01*
X295401Y159921D01*
X295410Y159783D01*
X295416Y159764D01*
X295418Y159744D01*
X295465Y159612D01*
X295508Y159481D01*
X295519Y159463D01*
X295526Y159444D01*
X295604Y159329D01*
X295678Y159212D01*
X295693Y159198D01*
X295704Y159181D01*
X295808Y159089D01*
X295910Y158994D01*
X295928Y158984D01*
X295943Y158971D01*
X296067Y158907D01*
X296188Y158840D01*
X296208Y158835D01*
X296226Y158826D01*
X296362Y158796D01*
X296496Y158761D01*
X296524Y158759D01*
X296536Y158756D01*
X296557Y158757D01*
X296657Y158751D01*
X556565Y158751D01*
X556594Y158754D01*
X556624Y158752D01*
X556752Y158774D01*
X556881Y158791D01*
X556908Y158801D01*
X556937Y158806D01*
X557056Y158860D01*
X557176Y158908D01*
X557200Y158925D01*
X557227Y158937D01*
X557328Y159018D01*
X557434Y159094D01*
X557452Y159117D01*
X557476Y159136D01*
X557554Y159239D01*
X557636Y159339D01*
X557649Y159366D01*
X557667Y159390D01*
X557738Y159534D01*
X559153Y162950D01*
X563250Y167047D01*
X568603Y169265D01*
X574397Y169265D01*
X579750Y167047D01*
X583847Y162950D01*
X586065Y157597D01*
X586065Y151803D01*
X583847Y146450D01*
X579750Y142353D01*
X574397Y140135D01*
X568603Y140135D01*
X563250Y142353D01*
X559153Y146450D01*
X558381Y148314D01*
X558366Y148339D01*
X558357Y148367D01*
X558287Y148477D01*
X558223Y148590D01*
X558202Y148611D01*
X558187Y148636D01*
X558092Y148725D01*
X558002Y148818D01*
X557977Y148834D01*
X557955Y148854D01*
X557841Y148917D01*
X557731Y148985D01*
X557702Y148993D01*
X557677Y149008D01*
X557551Y149040D01*
X557427Y149078D01*
X557397Y149080D01*
X557369Y149087D01*
X557208Y149097D01*
X289037Y149097D01*
X288939Y149085D01*
X288840Y149082D01*
X288782Y149065D01*
X288722Y149057D01*
X288629Y149021D01*
X288534Y148993D01*
X288482Y148963D01*
X288426Y148940D01*
X288346Y148882D01*
X288260Y148832D01*
X288185Y148766D01*
X288168Y148754D01*
X288161Y148744D01*
X288140Y148726D01*
X277054Y137640D01*
X275280Y136905D01*
X212704Y136905D01*
X212566Y136888D01*
X212428Y136875D01*
X212409Y136868D01*
X212389Y136865D01*
X212259Y136814D01*
X212128Y136767D01*
X212112Y136756D01*
X212093Y136748D01*
X211981Y136667D01*
X211865Y136589D01*
X211852Y136573D01*
X211836Y136562D01*
X211747Y136454D01*
X211655Y136350D01*
X211646Y136332D01*
X211633Y136317D01*
X211573Y136191D01*
X211510Y136067D01*
X211506Y136047D01*
X211497Y136029D01*
X211471Y135892D01*
X211441Y135757D01*
X211441Y135736D01*
X211437Y135717D01*
X211446Y135578D01*
X211450Y135439D01*
X211456Y135419D01*
X211457Y135399D01*
X211500Y135267D01*
X211539Y135133D01*
X211549Y135116D01*
X211555Y135097D01*
X211630Y134979D01*
X211700Y134859D01*
X211719Y134838D01*
X211725Y134828D01*
X211740Y134814D01*
X211807Y134739D01*
X212998Y133547D01*
X214758Y129299D01*
X214758Y124701D01*
X212998Y120453D01*
X209747Y117202D01*
X205499Y115442D01*
X200901Y115442D01*
G37*
%LPD*%
G36*
X277989Y157239D02*
X277989Y157239D01*
X278088Y157242D01*
X278146Y157259D01*
X278206Y157267D01*
X278299Y157303D01*
X278394Y157331D01*
X278446Y157361D01*
X278502Y157384D01*
X278582Y157442D01*
X278668Y157492D01*
X278743Y157558D01*
X278760Y157570D01*
X278767Y157580D01*
X278788Y157598D01*
X356930Y235740D01*
X357631Y236030D01*
X357734Y236089D01*
X357841Y236141D01*
X357872Y236168D01*
X357907Y236188D01*
X357992Y236271D01*
X358083Y236348D01*
X358106Y236381D01*
X358135Y236409D01*
X358197Y236510D01*
X358266Y236608D01*
X358280Y236646D01*
X358301Y236680D01*
X358336Y236794D01*
X358379Y236905D01*
X358383Y236945D01*
X358395Y236984D01*
X358401Y237103D01*
X358414Y237221D01*
X358408Y237261D01*
X358410Y237302D01*
X358386Y237418D01*
X358370Y237536D01*
X358350Y237593D01*
X358346Y237613D01*
X358337Y237632D01*
X358317Y237688D01*
X357695Y239191D01*
X357695Y243409D01*
X359310Y247307D01*
X362293Y250290D01*
X363198Y250665D01*
X363223Y250680D01*
X363251Y250689D01*
X363361Y250758D01*
X363474Y250823D01*
X363495Y250843D01*
X363520Y250859D01*
X363609Y250954D01*
X363702Y251044D01*
X363718Y251069D01*
X363738Y251091D01*
X363801Y251204D01*
X363869Y251315D01*
X363877Y251343D01*
X363892Y251369D01*
X363924Y251495D01*
X363962Y251619D01*
X363964Y251648D01*
X363971Y251677D01*
X363981Y251838D01*
X363981Y255468D01*
X364041Y255612D01*
X364072Y255727D01*
X364111Y255839D01*
X364114Y255880D01*
X364125Y255919D01*
X364127Y256038D01*
X364136Y256156D01*
X364129Y256196D01*
X364130Y256237D01*
X364102Y256353D01*
X364082Y256470D01*
X364065Y256507D01*
X364056Y256546D01*
X364000Y256651D01*
X363951Y256760D01*
X363926Y256791D01*
X363907Y256827D01*
X363827Y256915D01*
X363753Y257008D01*
X363720Y257032D01*
X363693Y257062D01*
X363593Y257128D01*
X363498Y257199D01*
X363444Y257226D01*
X363427Y257237D01*
X363408Y257244D01*
X363354Y257270D01*
X362293Y257710D01*
X359310Y260693D01*
X357695Y264591D01*
X357695Y268809D01*
X359310Y272707D01*
X362293Y275690D01*
X366191Y277305D01*
X370409Y277305D01*
X371370Y276907D01*
X371418Y276894D01*
X371463Y276872D01*
X371571Y276852D01*
X371677Y276823D01*
X371727Y276822D01*
X371776Y276813D01*
X371885Y276819D01*
X371995Y276818D01*
X372043Y276829D01*
X372093Y276832D01*
X372197Y276866D01*
X372304Y276892D01*
X372348Y276915D01*
X372395Y276930D01*
X372488Y276989D01*
X372585Y277041D01*
X372622Y277074D01*
X372664Y277101D01*
X372739Y277181D01*
X372821Y277254D01*
X372848Y277296D01*
X372882Y277332D01*
X372935Y277428D01*
X372995Y277520D01*
X373012Y277567D01*
X373036Y277611D01*
X373063Y277717D01*
X373099Y277821D01*
X373103Y277871D01*
X373115Y277919D01*
X373125Y278079D01*
X373125Y279415D01*
X373113Y279513D01*
X373110Y279612D01*
X373093Y279670D01*
X373085Y279730D01*
X373049Y279822D01*
X373021Y279918D01*
X372991Y279970D01*
X372968Y280026D01*
X372910Y280106D01*
X372860Y280192D01*
X372794Y280267D01*
X372782Y280284D01*
X372772Y280291D01*
X372754Y280312D01*
X371830Y281236D01*
X371807Y281254D01*
X371788Y281276D01*
X371681Y281351D01*
X371579Y281431D01*
X371552Y281442D01*
X371528Y281459D01*
X371406Y281505D01*
X371287Y281557D01*
X371258Y281562D01*
X371230Y281572D01*
X371102Y281586D01*
X370973Y281607D01*
X370944Y281604D01*
X370914Y281607D01*
X370786Y281589D01*
X370656Y281577D01*
X370629Y281567D01*
X370599Y281563D01*
X370447Y281511D01*
X370409Y281495D01*
X366191Y281495D01*
X362293Y283110D01*
X359310Y286093D01*
X357695Y289991D01*
X357695Y294209D01*
X357711Y294247D01*
X357719Y294275D01*
X357732Y294302D01*
X357761Y294428D01*
X357795Y294554D01*
X357795Y294583D01*
X357802Y294612D01*
X357798Y294742D01*
X357800Y294872D01*
X357793Y294900D01*
X357792Y294930D01*
X357756Y295055D01*
X357726Y295181D01*
X357712Y295207D01*
X357704Y295235D01*
X357638Y295347D01*
X357577Y295462D01*
X357557Y295484D01*
X357542Y295509D01*
X357436Y295630D01*
X353464Y299602D01*
X353386Y299662D01*
X353314Y299730D01*
X353261Y299759D01*
X353213Y299796D01*
X353122Y299836D01*
X353036Y299884D01*
X352977Y299899D01*
X352921Y299923D01*
X352823Y299938D01*
X352728Y299963D01*
X352628Y299969D01*
X352607Y299973D01*
X352595Y299971D01*
X352567Y299973D01*
X303974Y299973D01*
X303856Y299958D01*
X303737Y299951D01*
X303699Y299938D01*
X303658Y299933D01*
X303548Y299890D01*
X303435Y299853D01*
X303400Y299831D01*
X303363Y299816D01*
X303267Y299747D01*
X303166Y299683D01*
X303138Y299653D01*
X303105Y299630D01*
X303029Y299538D01*
X302948Y299451D01*
X302928Y299416D01*
X302903Y299385D01*
X302852Y299277D01*
X302794Y299173D01*
X302784Y299133D01*
X302767Y299097D01*
X302745Y298980D01*
X302715Y298865D01*
X302711Y298805D01*
X302707Y298785D01*
X302709Y298764D01*
X302705Y298704D01*
X302705Y283876D01*
X300324Y281495D01*
X283876Y281495D01*
X281495Y283876D01*
X281495Y298704D01*
X281480Y298822D01*
X281473Y298941D01*
X281460Y298979D01*
X281455Y299020D01*
X281412Y299130D01*
X281375Y299243D01*
X281353Y299278D01*
X281338Y299315D01*
X281269Y299411D01*
X281205Y299512D01*
X281175Y299540D01*
X281152Y299573D01*
X281060Y299649D01*
X280973Y299730D01*
X280938Y299750D01*
X280907Y299775D01*
X280799Y299826D01*
X280695Y299884D01*
X280655Y299894D01*
X280619Y299911D01*
X280502Y299933D01*
X280387Y299963D01*
X280327Y299967D01*
X280307Y299971D01*
X280286Y299969D01*
X280226Y299973D01*
X214559Y299973D01*
X214530Y299970D01*
X214500Y299972D01*
X214372Y299950D01*
X214243Y299933D01*
X214216Y299923D01*
X214187Y299918D01*
X214068Y299864D01*
X213948Y299816D01*
X213924Y299799D01*
X213897Y299787D01*
X213795Y299706D01*
X213690Y299630D01*
X213671Y299607D01*
X213648Y299588D01*
X213570Y299485D01*
X213487Y299385D01*
X213475Y299358D01*
X213457Y299334D01*
X213386Y299190D01*
X212998Y298253D01*
X209747Y295002D01*
X205499Y293242D01*
X200901Y293242D01*
X199605Y293779D01*
X199577Y293787D01*
X199550Y293800D01*
X199424Y293829D01*
X199298Y293863D01*
X199269Y293863D01*
X199240Y293870D01*
X199110Y293866D01*
X198980Y293868D01*
X198952Y293861D01*
X198922Y293860D01*
X198798Y293824D01*
X198671Y293794D01*
X198645Y293780D01*
X198617Y293772D01*
X198505Y293706D01*
X198390Y293645D01*
X198368Y293625D01*
X198343Y293610D01*
X198222Y293504D01*
X191126Y286408D01*
X191066Y286330D01*
X190998Y286258D01*
X190969Y286205D01*
X190932Y286157D01*
X190892Y286066D01*
X190844Y285980D01*
X190829Y285921D01*
X190805Y285865D01*
X190790Y285767D01*
X190765Y285672D01*
X190759Y285572D01*
X190755Y285551D01*
X190757Y285539D01*
X190755Y285511D01*
X190755Y209737D01*
X190763Y209668D01*
X190762Y209598D01*
X190783Y209511D01*
X190795Y209422D01*
X190820Y209357D01*
X190837Y209289D01*
X190879Y209209D01*
X190912Y209126D01*
X190953Y209070D01*
X190985Y209008D01*
X191046Y208941D01*
X191098Y208869D01*
X191152Y208824D01*
X191199Y208773D01*
X191274Y208723D01*
X191343Y208666D01*
X191407Y208636D01*
X191465Y208598D01*
X191550Y208569D01*
X191631Y208530D01*
X191700Y208517D01*
X191766Y208495D01*
X191855Y208487D01*
X191943Y208471D01*
X192013Y208475D01*
X192083Y208469D01*
X192171Y208485D01*
X192261Y208490D01*
X192327Y208512D01*
X192396Y208524D01*
X192478Y208561D01*
X192563Y208588D01*
X192622Y208626D01*
X192686Y208654D01*
X192756Y208710D01*
X192832Y208758D01*
X192880Y208809D01*
X192934Y208853D01*
X192988Y208925D01*
X193050Y208990D01*
X193084Y209051D01*
X193126Y209107D01*
X193197Y209252D01*
X193402Y209747D01*
X196653Y212998D01*
X200901Y214758D01*
X205499Y214758D01*
X209747Y212998D01*
X212998Y209747D01*
X214758Y205499D01*
X214758Y200901D01*
X212998Y196653D01*
X209747Y193402D01*
X205572Y191673D01*
X205452Y191604D01*
X205329Y191539D01*
X205314Y191525D01*
X205296Y191515D01*
X205196Y191418D01*
X205093Y191325D01*
X205082Y191308D01*
X205068Y191294D01*
X204995Y191175D01*
X204919Y191059D01*
X204912Y191040D01*
X204901Y191023D01*
X204860Y190890D01*
X204815Y190758D01*
X204814Y190738D01*
X204808Y190719D01*
X204801Y190580D01*
X204790Y190441D01*
X204794Y190421D01*
X204793Y190401D01*
X204821Y190265D01*
X204844Y190128D01*
X204853Y190109D01*
X204857Y190090D01*
X204918Y189964D01*
X204975Y189838D01*
X204988Y189822D01*
X204997Y189804D01*
X205087Y189698D01*
X205174Y189590D01*
X205190Y189577D01*
X205203Y189562D01*
X205317Y189482D01*
X205428Y189398D01*
X205453Y189386D01*
X205463Y189379D01*
X205482Y189372D01*
X205572Y189327D01*
X209747Y187598D01*
X212998Y184347D01*
X214758Y180099D01*
X214758Y175501D01*
X212998Y171253D01*
X209747Y168002D01*
X205572Y166273D01*
X205452Y166204D01*
X205329Y166139D01*
X205314Y166125D01*
X205296Y166115D01*
X205196Y166018D01*
X205093Y165925D01*
X205082Y165908D01*
X205068Y165894D01*
X204995Y165775D01*
X204919Y165659D01*
X204912Y165640D01*
X204901Y165623D01*
X204860Y165490D01*
X204815Y165358D01*
X204814Y165338D01*
X204808Y165319D01*
X204801Y165180D01*
X204790Y165041D01*
X204794Y165021D01*
X204793Y165001D01*
X204821Y164865D01*
X204844Y164728D01*
X204853Y164709D01*
X204857Y164690D01*
X204918Y164564D01*
X204975Y164438D01*
X204988Y164422D01*
X204997Y164404D01*
X205087Y164298D01*
X205174Y164190D01*
X205190Y164177D01*
X205203Y164162D01*
X205317Y164082D01*
X205428Y163998D01*
X205453Y163986D01*
X205463Y163979D01*
X205482Y163972D01*
X205572Y163927D01*
X209747Y162198D01*
X212998Y158947D01*
X213386Y158010D01*
X213401Y157985D01*
X213410Y157957D01*
X213479Y157847D01*
X213544Y157734D01*
X213564Y157713D01*
X213580Y157688D01*
X213675Y157599D01*
X213765Y157506D01*
X213790Y157490D01*
X213812Y157470D01*
X213925Y157407D01*
X214036Y157339D01*
X214064Y157331D01*
X214090Y157316D01*
X214216Y157284D01*
X214340Y157246D01*
X214370Y157244D01*
X214398Y157237D01*
X214559Y157227D01*
X277891Y157227D01*
X277989Y157239D01*
G37*
%LPC*%
G36*
X617426Y282810D02*
X617426Y282810D01*
X609344Y286158D01*
X603158Y292344D01*
X599810Y300426D01*
X599810Y309174D01*
X603158Y317256D01*
X609344Y323442D01*
X617426Y326790D01*
X626174Y326790D01*
X634256Y323442D01*
X640442Y317256D01*
X643790Y309174D01*
X643790Y300426D01*
X640442Y292344D01*
X634256Y286158D01*
X626174Y282810D01*
X617426Y282810D01*
G37*
%LPD*%
%LPC*%
G36*
X617426Y132710D02*
X617426Y132710D01*
X609344Y136058D01*
X603158Y142244D01*
X599810Y150326D01*
X599810Y159074D01*
X603158Y167156D01*
X609344Y173342D01*
X617426Y176690D01*
X626174Y176690D01*
X634256Y173342D01*
X640442Y167156D01*
X643790Y159074D01*
X643790Y150326D01*
X640442Y142244D01*
X634256Y136058D01*
X626174Y132710D01*
X617426Y132710D01*
G37*
%LPD*%
%LPC*%
G36*
X668903Y240185D02*
X668903Y240185D01*
X663550Y242403D01*
X659453Y246500D01*
X657235Y251853D01*
X657235Y257647D01*
X659453Y263000D01*
X663550Y267097D01*
X668903Y269315D01*
X674697Y269315D01*
X680050Y267097D01*
X684147Y263000D01*
X686365Y257647D01*
X686365Y251853D01*
X684147Y246500D01*
X680050Y242403D01*
X674697Y240185D01*
X668903Y240185D01*
G37*
%LPD*%
%LPC*%
G36*
X568603Y215185D02*
X568603Y215185D01*
X563250Y217403D01*
X559153Y221500D01*
X556935Y226853D01*
X556935Y232647D01*
X559153Y238000D01*
X563250Y242097D01*
X568603Y244315D01*
X574397Y244315D01*
X579750Y242097D01*
X583847Y238000D01*
X586065Y232647D01*
X586065Y226853D01*
X583847Y221500D01*
X579750Y217403D01*
X574397Y215185D01*
X568603Y215185D01*
G37*
%LPD*%
%LPC*%
G36*
X668903Y190185D02*
X668903Y190185D01*
X663550Y192403D01*
X659453Y196500D01*
X657235Y201853D01*
X657235Y207647D01*
X659453Y213000D01*
X663550Y217097D01*
X668903Y219315D01*
X674697Y219315D01*
X680050Y217097D01*
X684147Y213000D01*
X686365Y207647D01*
X686365Y201853D01*
X684147Y196500D01*
X680050Y192403D01*
X674697Y190185D01*
X668903Y190185D01*
G37*
%LPD*%
%LPC*%
G36*
X543703Y165135D02*
X543703Y165135D01*
X538350Y167353D01*
X534253Y171450D01*
X532035Y176803D01*
X532035Y182597D01*
X534253Y187950D01*
X538350Y192047D01*
X543703Y194265D01*
X549497Y194265D01*
X554850Y192047D01*
X558947Y187950D01*
X561165Y182597D01*
X561165Y176803D01*
X558947Y171450D01*
X554850Y167353D01*
X549497Y165135D01*
X543703Y165135D01*
G37*
%LPD*%
%LPC*%
G36*
X289991Y230695D02*
X289991Y230695D01*
X286093Y232310D01*
X283110Y235293D01*
X281495Y239191D01*
X281495Y243409D01*
X283110Y247307D01*
X286093Y250290D01*
X289991Y251905D01*
X294209Y251905D01*
X298107Y250290D01*
X301090Y247307D01*
X302705Y243409D01*
X302705Y239191D01*
X301090Y235293D01*
X298107Y232310D01*
X294209Y230695D01*
X289991Y230695D01*
G37*
%LPD*%
%LPC*%
G36*
X129476Y129476D02*
X129476Y129476D01*
X129476Y136746D01*
X130852Y136299D01*
X132259Y135582D01*
X133537Y134653D01*
X134653Y133537D01*
X135582Y132259D01*
X136299Y130852D01*
X136746Y129476D01*
X129476Y129476D01*
G37*
%LPD*%
%LPC*%
G36*
X117254Y307276D02*
X117254Y307276D01*
X117701Y308652D01*
X118418Y310059D01*
X119347Y311337D01*
X120463Y312453D01*
X121741Y313382D01*
X123148Y314099D01*
X124524Y314546D01*
X124524Y307276D01*
X117254Y307276D01*
G37*
%LPD*%
%LPC*%
G36*
X117254Y129476D02*
X117254Y129476D01*
X117701Y130852D01*
X118418Y132259D01*
X119347Y133537D01*
X120463Y134653D01*
X121741Y135582D01*
X123148Y136299D01*
X124524Y136746D01*
X124524Y129476D01*
X117254Y129476D01*
G37*
%LPD*%
%LPC*%
G36*
X129476Y124524D02*
X129476Y124524D01*
X136746Y124524D01*
X136299Y123148D01*
X135582Y121741D01*
X134653Y120463D01*
X133537Y119347D01*
X132259Y118418D01*
X130852Y117701D01*
X129476Y117254D01*
X129476Y124524D01*
G37*
%LPD*%
%LPC*%
G36*
X123148Y295501D02*
X123148Y295501D01*
X121741Y296218D01*
X120463Y297147D01*
X119347Y298263D01*
X118418Y299541D01*
X117701Y300948D01*
X117254Y302324D01*
X124524Y302324D01*
X124524Y295054D01*
X123148Y295501D01*
G37*
%LPD*%
%LPC*%
G36*
X123148Y117701D02*
X123148Y117701D01*
X121741Y118418D01*
X120463Y119347D01*
X119347Y120463D01*
X118418Y121741D01*
X117701Y123148D01*
X117254Y124524D01*
X124524Y124524D01*
X124524Y117254D01*
X123148Y117701D01*
G37*
%LPD*%
%LPC*%
G36*
X294099Y268699D02*
X294099Y268699D01*
X294099Y275577D01*
X294226Y275557D01*
X295586Y275115D01*
X296859Y274467D01*
X298016Y273626D01*
X299026Y272616D01*
X299867Y271459D01*
X300515Y270186D01*
X300957Y268826D01*
X300977Y268699D01*
X294099Y268699D01*
G37*
%LPD*%
%LPC*%
G36*
X294099Y217899D02*
X294099Y217899D01*
X294099Y224777D01*
X294226Y224757D01*
X295586Y224315D01*
X296859Y223667D01*
X298016Y222826D01*
X299026Y221816D01*
X299867Y220659D01*
X300515Y219386D01*
X300957Y218026D01*
X300977Y217899D01*
X294099Y217899D01*
G37*
%LPD*%
%LPC*%
G36*
X283223Y268699D02*
X283223Y268699D01*
X283243Y268826D01*
X283685Y270186D01*
X284333Y271459D01*
X285174Y272616D01*
X286184Y273626D01*
X287341Y274467D01*
X288614Y275115D01*
X289974Y275557D01*
X290101Y275577D01*
X290101Y268699D01*
X283223Y268699D01*
G37*
%LPD*%
%LPC*%
G36*
X294099Y264701D02*
X294099Y264701D01*
X300977Y264701D01*
X300957Y264574D01*
X300515Y263214D01*
X299867Y261941D01*
X299026Y260784D01*
X298016Y259774D01*
X296859Y258933D01*
X295586Y258285D01*
X294226Y257843D01*
X294099Y257823D01*
X294099Y264701D01*
G37*
%LPD*%
%LPC*%
G36*
X283223Y217899D02*
X283223Y217899D01*
X283243Y218026D01*
X283685Y219386D01*
X284333Y220659D01*
X285174Y221816D01*
X286184Y222826D01*
X287341Y223667D01*
X288614Y224315D01*
X289974Y224757D01*
X290101Y224777D01*
X290101Y217899D01*
X283223Y217899D01*
G37*
%LPD*%
%LPC*%
G36*
X294099Y213901D02*
X294099Y213901D01*
X300977Y213901D01*
X300957Y213774D01*
X300515Y212414D01*
X299867Y211141D01*
X299026Y209984D01*
X298016Y208974D01*
X296859Y208133D01*
X295586Y207485D01*
X294226Y207043D01*
X294099Y207023D01*
X294099Y213901D01*
G37*
%LPD*%
%LPC*%
G36*
X289974Y257843D02*
X289974Y257843D01*
X288614Y258285D01*
X287341Y258933D01*
X286184Y259774D01*
X285174Y260784D01*
X284333Y261941D01*
X283685Y263214D01*
X283243Y264574D01*
X283223Y264701D01*
X290101Y264701D01*
X290101Y257823D01*
X289974Y257843D01*
G37*
%LPD*%
%LPC*%
G36*
X289974Y207043D02*
X289974Y207043D01*
X288614Y207485D01*
X287341Y208133D01*
X286184Y208974D01*
X285174Y209984D01*
X284333Y211141D01*
X283685Y212414D01*
X283243Y213774D01*
X283223Y213901D01*
X290101Y213901D01*
X290101Y207023D01*
X289974Y207043D01*
G37*
%LPD*%
D10*
X571500Y304800D03*
X546600Y279800D03*
X571500Y229750D03*
X546600Y179700D03*
X571500Y154700D03*
X521500Y229750D03*
X671800Y254750D03*
X671800Y204750D03*
D11*
X621800Y154700D03*
X621800Y304800D03*
D12*
X292100Y292100D03*
D13*
X292100Y266700D03*
X292100Y241300D03*
X292100Y215900D03*
X368300Y215900D03*
X368300Y241300D03*
X368300Y266700D03*
X368300Y292100D03*
D14*
X127000Y381000D03*
D15*
X127000Y355600D03*
X127000Y330200D03*
X127000Y304800D03*
X203200Y304800D03*
X203200Y330200D03*
X203200Y355600D03*
X203200Y381000D03*
D14*
X127000Y203200D03*
D15*
X127000Y177800D03*
X127000Y152400D03*
X127000Y127000D03*
X203200Y127000D03*
X203200Y152400D03*
X203200Y177800D03*
X203200Y203200D03*
D16*
X558800Y520700D03*
X533400Y38100D03*
X584200Y520700D03*
X609600Y520700D03*
X635000Y520700D03*
X660400Y520700D03*
X533400Y520700D03*
X508000Y520700D03*
X482600Y520700D03*
X441960Y520700D03*
X416560Y520700D03*
X391160Y520700D03*
X365760Y520700D03*
X340360Y520700D03*
X314960Y520700D03*
X289560Y520700D03*
X264160Y520700D03*
X558800Y38100D03*
X584200Y38100D03*
X609600Y38100D03*
X635000Y38100D03*
X660400Y38100D03*
X482600Y38100D03*
X457200Y38100D03*
X431800Y38100D03*
X406400Y38100D03*
X381000Y38100D03*
X355600Y38100D03*
X238760Y520700D03*
X213360Y520700D03*
X330200Y38100D03*
X304800Y38100D03*
D17*
X202692Y128016D02*
X185928Y144780D01*
X185928Y288036D01*
X202692Y304800D01*
X202692Y128016D02*
X203200Y127000D01*
X202692Y304800D02*
X203200Y304800D01*
X368808Y254508D02*
X368808Y242316D01*
X368808Y254508D02*
X377952Y263652D01*
X377952Y281940D01*
X368808Y291084D01*
X368808Y242316D02*
X368300Y241300D01*
X368808Y291084D02*
X368300Y292100D01*
X355092Y304800D02*
X203200Y304800D01*
X355092Y304800D02*
X367284Y292608D01*
X368300Y292100D01*
X286512Y153924D02*
X571500Y153924D01*
X286512Y153924D02*
X274320Y141732D01*
X199644Y141732D01*
X192024Y149352D01*
X192024Y166116D01*
X202692Y176784D01*
X571500Y154700D02*
X571500Y153924D01*
X203200Y177800D02*
X202692Y176784D01*
X368808Y216408D02*
X509016Y216408D01*
X521208Y228600D01*
X368808Y216408D02*
X368300Y215900D01*
X521208Y228600D02*
X521500Y229750D01*
X128016Y185928D02*
X128016Y178308D01*
X128016Y185928D02*
X137160Y195072D01*
X137160Y345948D01*
X128016Y355092D01*
X128016Y178308D02*
X127000Y177800D01*
X128016Y355092D02*
X127000Y355600D01*
X310896Y519684D02*
X313944Y519684D01*
X310896Y519684D02*
X137160Y345948D01*
X313944Y519684D02*
X314960Y520700D01*
X355092Y521208D02*
X365760Y521208D01*
X355092Y521208D02*
X344424Y531876D01*
X310896Y531876D01*
X300228Y521208D01*
X300228Y515112D01*
X150876Y365760D01*
X121920Y365760D01*
X115824Y359664D01*
X115824Y341376D01*
X127000Y330200D01*
X365760Y520700D02*
X365760Y521208D01*
X292608Y266700D02*
X292100Y266700D01*
X292608Y266700D02*
X292830Y267430D01*
X204216Y329184D02*
X547116Y329184D01*
X571500Y304800D01*
X204216Y329184D02*
X203200Y330200D01*
X203200Y152400D02*
X280416Y152400D01*
X359664Y231648D01*
X498348Y231648D01*
X545592Y278892D01*
X546600Y279800D01*
M02*
